M48
; DRILL file {KiCad (5.1.9)-1} date 05/02/21 22:21:19
; FORMAT={-:-/ absolute / inch / decimal}
; #@! TF.CreationDate,2021-05-02T22:21:19+02:00
; #@! TF.GenerationSoftware,Kicad,Pcbnew,(5.1.9)-1
; #@! TF.FileFunction,Plated,1,2,PTH
FMAT,2
INCH
T1C0.0157
T2C0.0197
T3C0.0236
T4C0.0295
T5C0.0315
T6C0.0354
T7C0.0394
T8C0.0400
T9C0.0433
T10C0.0472
T11C0.0669
T12C0.0787
T13C0.0906
T14C0.1260
T15C0.1575
%
G90
G05
T1
X1.7519Y-2.9845
X1.8267Y-2.6049
X1.8267Y-3.5925
X1.9729Y-3.0861
X2.0066Y-3.3432
X2.0986Y-2.8861
X2.1347Y-2.3439
X2.1671Y-2.5668
X2.2478Y-3.0412
X2.3041Y-2.6049
X2.3746Y-2.6639
X2.4679Y-3.1341
X2.5354Y-3.0412
X2.5405Y-2.8372
X2.5443Y-2.9361
X2.6601Y-10.2326
X2.7631Y-3.0861
X2.78Y-2.8861
X2.7802Y-3.1253
X2.8904Y-9.0694
X2.9604Y-8.9577
X3.0172Y-2.6934
X3.1225Y-2.7625
X3.1494Y-8.6773
X3.1557Y-2.3913
X3.1557Y-2.7976
X3.1999Y-2.3154
X3.1999Y-2.842
X3.2058Y-2.2686
X3.2284Y-8.8123
X3.2346Y-11.9806
X3.2348Y-2.2972
X3.4217Y-8.7888
X3.4221Y-10.1713
X3.5446Y-7.9147
X3.5494Y-2.3154
X3.5494Y-2.6246
X3.6243Y-7.915
X3.6793Y-8.3202
X3.6793Y-8.6767
X3.8246Y-7.9139
X3.8354Y-8.2114
X3.8762Y-2.9421
X3.9211Y-8.5211
X3.9897Y-3.1861
X3.9915Y-2.4751
X3.9916Y-11.5041
X4.0016Y-7.9658
X4.0324Y-3.5091
X4.0388Y-3.4638
X4.0409Y-2.6875
X4.0765Y-8.0913
X4.1054Y-2.3843
X4.1459Y-2.308
X4.1662Y-5.5357
X4.1769Y-5.6019
X4.1771Y-7.4888
X4.1795Y-7.3777
X4.2044Y-11.5032
X4.2094Y-3.8721
X4.229Y-11.2713
X4.2343Y-3.9299
X4.2926Y-2.3672
X4.3309Y-8.2566
X4.3575Y-8.7413
X4.3576Y-11.349
X4.3603Y-2.563
X4.3967Y-8.715
X4.3969Y-10.1565
X4.3969Y-10.3794
X4.4243Y-2.5341
X4.4257Y-8.0978
X4.469Y-8.173
X4.4846Y-8.2383
X4.5255Y-2.3728
X4.5727Y-4.8208
X4.5748Y-8.3104
X4.5852Y-7.4644
X4.5941Y-7.056
X4.6587Y-9.2767
X4.683Y-4.3253
X4.6973Y-8.4319
X4.7212Y-6.816
X4.7212Y-6.9965
X4.7459Y-8.6369
X4.7497Y-12.5508
X4.7575Y-2.4101
X4.7605Y-8.1774
X4.8163Y-8.8515
X4.8316Y-9.8052
X4.8961Y-7.5245
X4.9413Y-8.4319
X4.9516Y-11.3663
X4.9715Y-9.0876
X4.9748Y-8.1456
X4.9753Y-8.528
X4.981Y-7.3487
X5.0Y-9.059
X5.0211Y-8.9905
X5.0402Y-10.1687
X5.0402Y-12.5535
X5.0795Y-2.0053
X5.1622Y-11.2339
X5.1868Y-7.8464
X5.1904Y-10.1681
X5.1928Y-10.7711
X5.1933Y-12.7208
X5.2096Y-6.2333
X5.2187Y-8.6206
X5.2931Y-11.1198
X5.3111Y-11.4598
X5.3143Y-8.7733
X5.3147Y-8.8271
X5.3387Y-8.0142
X5.3555Y-7.056
X5.3803Y-9.2767
X5.4053Y-8.2686
X5.4112Y-8.8484
X5.4135Y-8.0356
X5.427Y-4.7262
X5.4488Y-7.6134
X5.4709Y-4.743
X5.4756Y-11.2777
X5.5077Y-4.6748
X5.5438Y-8.7251
X5.5525Y-9.2499
X5.5577Y-8.933
X5.5746Y-6.2333
X5.6012Y-8.668
X5.6126Y-9.1312
X5.6141Y-4.4197
X5.6461Y-11.5052
X5.6528Y-8.6241
X5.6585Y-4.8618
X5.6592Y-4.7749
X5.6701Y-4.4006
X5.7837Y-8.996
X5.784Y-8.9552
X5.7892Y-5.6804
X5.8047Y-9.2616
X5.8124Y-10.758
X5.8183Y-6.9286
X5.8263Y-10.9546
X5.8277Y-10.1682
X5.8296Y-9.3647
X5.8407Y-9.301
X5.8504Y-8.2485
X5.9191Y-4.743
X5.9637Y-9.2033
X6.0075Y-7.1707
X6.012Y-10.7588
X6.0141Y-7.0636
X6.0153Y-12.7208
X6.042Y-9.3789
X6.0642Y-9.3139
X6.1451Y-8.4047
X6.1519Y-8.5018
X6.1617Y-13.3291
X6.1989Y-7.1905
X6.201Y-6.1385
X6.201Y-6.9379
X6.2084Y-13.3577
X6.2259Y-8.5115
X6.2405Y-5.9232
X6.2743Y-8.6767
X6.3085Y-7.0399
X6.3288Y-8.933
X6.3649Y-13.4694
X6.4107Y-11.1348
X6.4237Y-5.7324
X6.4367Y-11.5048
X6.4452Y-8.528
X6.4484Y-7.8525
X6.4572Y-4.2077
X6.4572Y-5.558
X6.4922Y-4.0692
X6.5053Y-4.54
X6.5569Y-6.6814
X6.5613Y-8.3176
X6.5691Y-4.6748
X6.5913Y-11.338
X6.6071Y-11.5206
X6.6199Y-10.8837
X6.6251Y-9.3835
X6.6266Y-10.7704
X6.6359Y-11.9376
X6.6992Y-4.3974
X6.7136Y-4.2975
X6.7343Y-10.6216
X6.7429Y-7.4821
X6.7467Y-11.1096
X6.7593Y-4.6724
X6.7744Y-4.0692
X6.7753Y-8.158
X6.7783Y-4.3442
X6.7816Y-12.6049
X6.7834Y-8.8691
X6.7843Y-9.1014
X6.7999Y-9.3569
X6.8027Y-12.1767
X6.8031Y-10.7035
X6.8047Y-9.252
X6.8087Y-7.0399
X6.8162Y-11.5364
X6.8272Y-9.3267
X6.832Y-10.732
X6.8336Y-8.6492
X6.8358Y-6.8164
X6.8524Y-8.8766
X6.8548Y-7.8525
X6.883Y-9.1081
X6.8976Y-11.2637
X6.9007Y-9.0687
X6.9031Y-8.6328
X6.9042Y-9.3075
X6.9069Y-6.8731
X6.9111Y-9.7205
X6.9363Y-6.9158
X6.9397Y-9.5059
X6.9869Y-13.2812
X7.0106Y-10.0952
X7.0176Y-8.7279
X7.0241Y-13.2393
X7.0364Y-10.7449
X7.047Y-11.4622
X7.0599Y-13.2001
X7.0765Y-5.5379
X7.0921Y-12.8987
X7.0932Y-13.2422
X7.1073Y-9.5665
X7.1134Y-10.1237
X7.1143Y-11.19
X7.1209Y-9.4048
X7.124Y-11.8778
X7.1286Y-10.3697
X7.1289Y-9.6373
X7.1356Y-10.784
X7.136Y-10.8881
X7.1361Y-12.0924
X7.1388Y-5.2314
X7.145Y-11.1612
X7.146Y-4.6429
X7.1505Y-10.9951
X7.1525Y-9.5522
X7.1622Y-10.4295
X7.2116Y-8.9579
X7.2129Y-7.5558
X7.214Y-8.6328
X7.227Y-13.4403
X7.2326Y-8.8963
X7.2362Y-4.8291
X7.2452Y-11.3412
X7.2491Y-10.3442
X7.2494Y-10.4033
X7.2645Y-10.8403
X7.267Y-12.136
X7.2727Y-13.3871
X7.2785Y-10.1016
X7.2828Y-10.3149
X7.293Y-11.2701
X7.2991Y-11.7907
X7.3017Y-4.6861
X7.3162Y-9.6763
X7.3176Y-10.064
X7.3184Y-12.9615
X7.321Y-7.3979
X7.3248Y-13.9146
X7.3325Y-10.0016
X7.3504Y-8.7767
X7.3683Y-12.873
X7.37Y-12.5687
X7.3811Y-14.0659
X7.3908Y-14.0078
X7.3913Y-10.6886
X7.43Y-8.6289
X7.4415Y-10.7722
X7.4667Y-10.6352
X7.4832Y-10.351
X7.4916Y-10.3914
X7.52Y-2.8306
X7.5399Y-7.3348
X7.5501Y-13.8752
X7.5671Y-9.9826
X7.5686Y-13.3574
X7.5771Y-13.9508
X7.5915Y-12.1831
X7.5927Y-12.3453
X7.5953Y-10.4093
X7.62Y-10.5343
X7.6827Y-11.9064
X7.6933Y-9.8848
X7.6933Y-10.3223
X7.7011Y-9.5738
X7.7013Y-9.6143
X7.7066Y-12.6987
X7.7137Y-11.9374
X7.7219Y-12.3286
X7.7261Y-6.3899
X7.7536Y-9.339
X7.7873Y-9.2781
X7.797Y-4.3481
X7.799Y-14.2728
X7.8278Y-8.7683
X7.8461Y-4.0915
X7.852Y-11.935
X7.8528Y-2.4837
X7.8548Y-9.3027
X7.8592Y-2.437
X7.8595Y-11.8133
X7.8626Y-12.7992
X7.8688Y-2.335
X7.8709Y-8.6466
X7.9153Y-10.0768
X7.926Y-9.951
X7.969Y-9.2233
X7.9811Y-11.9514
X7.9894Y-9.2693
X8.0055Y-5.1203
X8.0173Y-11.7807
X8.0428Y-13.0202
X8.0465Y-5.4532
X8.0469Y-12.3114
X8.059Y-9.1883
X8.0642Y-5.3469
X8.0707Y-9.4386
X8.0716Y-12.1815
X8.0722Y-4.0991
X8.0774Y-10.8059
X8.0793Y-11.7403
X8.0796Y-4.9615
X8.0836Y-5.568
X8.0966Y-8.209
X8.1143Y-5.3354
X8.1224Y-12.3149
X8.127Y-4.7685
X8.151Y-11.5204
X8.1743Y-8.6533
X8.1815Y-5.4493
X8.1869Y-2.4761
X8.1915Y-11.1183
X8.2099Y-12.9061
X8.2226Y-6.3899
X8.3285Y-12.0363
X8.3501Y-5.7862
X8.3536Y-10.8384
X8.3628Y-6.6372
X8.3638Y-3.6637
X8.3743Y-11.1031
X8.3756Y-8.3337
X8.3772Y-2.8094
X8.3818Y-11.9875
X8.3966Y-4.3169
X8.4064Y-10.6471
X8.4182Y-11.8905
X8.4298Y-11.6618
X8.4301Y-10.611
X8.4696Y-11.9368
X8.4949Y-11.7323
X8.5081Y-9.3752
X8.5174Y-10.5588
X8.5227Y-10.7463
X8.5233Y-10.5982
X8.5235Y-11.3868
X8.5384Y-3.6558
X8.5475Y-2.4958
X8.5625Y-4.7166
X8.5633Y-10.6267
X8.5657Y-3.2735
X8.597Y-2.5673
X8.6074Y-10.1081
X8.6122Y-4.2511
X8.6386Y-2.971
X8.6599Y-4.2804
X8.6599Y-5.2401
X8.6792Y-11.8133
X8.6969Y-3.5712
X8.6996Y-4.674
X8.7106Y-3.4708
X8.7162Y-12.4924
X8.7665Y-10.3764
X8.7665Y-10.6408
X8.7746Y-4.8223
X8.775Y-2.5677
X8.7912Y-7.0879
X8.811Y-13.1847
X8.8308Y-8.7922
X8.8559Y-8.159
X8.8656Y-6.1473
X8.8663Y-5.5074
X8.8681Y-2.5328
X8.8687Y-4.6864
X8.8841Y-6.5103
X8.8902Y-13.2624
X8.8994Y-10.7187
X8.9082Y-10.1081
X8.9239Y-10.6355
X8.9285Y-9.8359
X8.9502Y-4.794
X8.9879Y-9.5973
X9.0035Y-4.4158
X9.0386Y-8.5305
X9.0394Y-8.4435
X9.045Y-11.0398
X9.0559Y-8.5906
X9.0763Y-11.6676
X9.0949Y-13.468
X9.1101Y-2.8487
X9.1226Y-11.5575
X9.1347Y-9.2534
X9.1395Y-8.3031
X9.1511Y-2.5127
X9.152Y-2.5809
X9.1705Y-9.2927
X9.1922Y-2.6293
X9.1922Y-4.6358
X9.1992Y-8.7922
X9.2008Y-7.8797
X9.2273Y-7.909
X9.2303Y-4.609
X9.2648Y-13.1372
X9.2889Y-2.3161
X9.3365Y-4.6366
X9.3371Y-2.5127
X9.3383Y-11.5136
X9.4043Y-9.8001
X9.4043Y-12.0201
X9.4043Y-13.6079
X9.4137Y-3.6219
X9.4239Y-3.9212
X9.4508Y-2.0538
X9.4535Y-13.5135
X9.4779Y-3.5833
X9.5021Y-12.0201
X9.503Y-13.1077
X9.5087Y-5.7342
X9.5727Y-9.0149
X9.5805Y-5.7638
X9.5885Y-8.6191
X9.5974Y-3.6682
X9.6348Y-8.711
X9.6367Y-8.9216
X9.6633Y-9.4127
X9.6781Y-11.1119
X9.6852Y-5.6854
X9.6862Y-5.9589
X9.6964Y-8.2132
X9.7088Y-3.9309
X9.713Y-3.1213
X9.7249Y-7.6452
X9.7349Y-5.0802
X9.7405Y-5.2232
X9.7536Y-8.3592
X9.7594Y-3.6781
X9.8345Y-5.2696
X9.8636Y-7.7753
X9.8702Y-8.0899
X9.8786Y-3.6702
X9.8787Y-3.6219
X9.9124Y-11.5991
X9.9216Y-2.346
X9.9237Y-3.247
X9.9243Y-4.1082
X9.9263Y-11.3648
X9.9551Y-6.5831
X9.9596Y-12.1123
X9.9752Y-2.908
X9.9752Y-3.0851
X9.9818Y-2.3161
X10.0092Y-4.2471
X10.0369Y-5.2995
X10.0517Y-5.4236
X10.0592Y-8.2027
X10.0686Y-3.8599
X10.1056Y-6.258
X10.1265Y-5.3299
X10.1831Y-2.1258
X10.2373Y-11.0411
X10.2694Y-9.1604
X10.2715Y-7.2723
X10.2881Y-2.9741
X10.3111Y-6.2947
X10.3827Y-9.8359
X10.4155Y-6.841
X10.4162Y-7.8345
X10.4167Y-11.448
X10.4235Y-8.392
X10.4517Y-3.8344
X10.4517Y-4.0661
X10.4532Y-11.0342
X10.4688Y-3.1215
X10.5159Y-3.6586
X10.5462Y-7.1163
X10.5576Y-9.835
X10.5847Y-12.3955
X10.5847Y-12.5518
X10.5855Y-8.0218
X10.5922Y-4.7865
X10.6001Y-10.9171
X10.6061Y-11.0973
X10.6218Y-2.7827
X10.6385Y-8.7375
X10.6391Y-9.8744
X10.6956Y-2.4402
X10.6961Y-11.3446
X10.7075Y-6.6227
X10.7122Y-4.608
X10.7395Y-11.1898
X10.7498Y-11.6055
X10.7521Y-4.3342
X10.7584Y-5.9716
X10.7695Y-4.6323
X10.7814Y-12.7386
X10.7831Y-11.6641
X10.8102Y-4.4121
X10.8122Y-9.1535
X10.8129Y-7.3921
X10.8212Y-2.0045
X10.8306Y-5.3586
X10.8591Y-4.8167
X10.8738Y-3.1406
X10.8836Y-2.9507
X10.9331Y-8.7924
X10.9648Y-6.7674
X10.9649Y-4.2506
X11.0464Y-4.6933
X11.062Y-3.7865
X11.0721Y-8.1444
X11.0733Y-12.6226
X11.1186Y-8.1053
X11.1285Y-2.9768
X11.1439Y-12.0595
X11.1502Y-5.3872
X11.1559Y-11.0257
X11.1747Y-6.6403
X11.1889Y-8.3015
X11.189Y-7.2729
X11.1911Y-8.532
X11.2379Y-4.0677
X11.2379Y-4.6642
X11.2407Y-3.5815
X11.281Y-2.3305
X11.2964Y-4.8602
X11.3215Y-2.3236
X11.3335Y-9.9911
X11.3363Y-4.8619
X11.3483Y-9.014
X11.3587Y-5.0779
X11.3682Y-3.1313
X11.374Y-10.4048
X11.374Y-11.2738
X11.3976Y-3.729
X11.4121Y-3.247
X11.4199Y-8.0553
X11.4402Y-7.7077
X11.4446Y-6.4836
X11.4495Y-10.3131
X11.4514Y-9.2106
X11.4517Y-3.5287
X11.454Y-6.5672
X11.4709Y-8.9526
X11.4709Y-9.1158
X11.478Y-2.3365
X11.4832Y-8.0986
X11.5036Y-6.4405
X11.5369Y-7.9299
X11.5446Y-4.6323
X11.5521Y-3.2874
X11.5846Y-9.014
X11.592Y-7.8744
X11.592Y-8.4643
X11.5954Y-8.9397
X11.605Y-1.8069
X11.6185Y-6.6861
X11.6369Y-3.8804
X11.692Y-9.835
X11.692Y-11.1757
X11.7059Y-3.8488
X11.7265Y-8.6327
X11.7504Y-10.1527
X11.7639Y-5.2232
X11.7682Y-3.3562
X11.7866Y-10.0196
X11.7868Y-5.1087
X11.792Y-8.5135
X11.7965Y-8.7189
X11.8222Y-9.0821
X11.8541Y-10.0941
X11.8565Y-9.9423
X11.8743Y-5.52
X11.8834Y-6.393
X11.892Y-9.9216
X11.8992Y-11.0747
X11.9037Y-9.1006
X11.9076Y-10.7814
X11.923Y-4.5774
X11.9278Y-11.0257
X11.9335Y-10.0848
X11.9363Y-3.9268
X11.9654Y-7.6113
X11.9705Y-2.6936
X11.9789Y-11.6757
X11.9841Y-9.1291
X11.9902Y-4.1669
X12.0075Y-11.7757
X12.0092Y-10.1233
X12.0092Y-10.5757
X12.0401Y-12.1503
X12.0492Y-10.2096
X12.0492Y-10.4757
X12.0519Y-6.6403
X12.0622Y-3.7024
X12.0677Y-7.6967
X12.0679Y-12.1781
X12.0734Y-3.9703
X12.1248Y-7.6877
X12.1362Y-7.0381
X12.1563Y-12.2422
X12.1785Y-12.4064
X12.1856Y-12.2127
X12.2033Y-6.0767
X12.2156Y-11.3204
X12.2223Y-5.5442
X12.2355Y-3.6908
X12.2398Y-8.0782
X12.2689Y-11.3223
X12.2765Y-2.6502
X12.2922Y-5.472
X12.2987Y-12.271
X12.3055Y-3.7613
X12.3095Y-5.2863
X12.323Y-6.0064
X12.3281Y-8.485
X12.3351Y-5.1483
X12.3502Y-6.037
X12.3889Y-5.3158
X12.4211Y-2.602
X12.4261Y-8.5135
X12.4274Y-7.662
X12.4428Y-4.824
X12.491Y-4.5108
X12.4929Y-6.4386
X12.4984Y-8.1542
X12.5606Y-5.1559
X12.5729Y-7.2637
X12.5797Y-3.5125
X12.6055Y-8.7072
X12.623Y-10.9254
X12.6426Y-9.0606
X12.6435Y-5.2306
X12.6468Y-8.0417
X12.708Y-8.4696
X12.7167Y-8.8093
X12.7208Y-5.4082
X12.7242Y-5.2522
X12.7285Y-5.0934
X12.734Y-8.3517
X12.76Y-9.4257
X12.7637Y-8.2721
X12.7655Y-13.5679
X12.7997Y-3.0891
X12.8009Y-5.7161
X12.8273Y-8.3338
X12.8398Y-3.9891
X12.8529Y-4.1452
X12.8826Y-4.1891
X12.8901Y-5.29
X12.912Y-9.6569
X12.912Y-9.9444
X12.912Y-11.6736
X12.926Y-7.9187
X12.9346Y-8.0607
X12.9409Y-9.5647
X12.9409Y-11.4592
X12.9774Y-9.516
X12.9951Y-9.626
X12.9959Y-8.7308
X13.0056Y-9.3114
X13.01Y-12.008
X13.0243Y-7.2088
X13.0367Y-11.6199
X13.039Y-5.9003
X13.0414Y-11.3223
X13.0444Y-6.3002
X13.0473Y-8.4363
X13.0679Y-3.0706
X13.0711Y-11.479
X13.0751Y-9.5283
X13.0809Y-9.4257
X13.081Y-8.5916
X13.0841Y-11.6739
X13.086Y-2.0339
X13.0957Y-2.2743
X13.0963Y-6.4116
X13.1004Y-11.4173
X13.1036Y-9.2667
X13.1104Y-7.2637
X13.117Y-7.6957
X13.1217Y-11.5722
X13.1239Y-2.9391
X13.1286Y-11.6523
X13.1406Y-11.2443
X13.1412Y-9.0891
X13.1423Y-11.6124
X13.1505Y-11.4598
X13.1541Y-3.1891
X13.1639Y-3.5448
X13.1652Y-3.3506
X13.1664Y-2.9891
X13.1698Y-9.3774
X13.18Y-10.6358
X13.1814Y-3.2891
X13.1901Y-11.5256
X13.1911Y-4.2299
X13.197Y-9.4988
X13.1971Y-5.2643
X13.1994Y-9.406
X13.2373Y-9.6128
X13.2477Y-7.8206
X13.2503Y-6.1557
X13.2932Y-5.2315
X13.3018Y-8.6873
X13.3241Y-8.5624
X13.3296Y-4.0891
X13.3341Y-4.1292
X13.3384Y-5.4163
X13.3393Y-6.0767
X13.3417Y-4.6891
X13.3559Y-4.1634
X13.3787Y-5.3759
X13.4011Y-4.3064
X13.4123Y-9.3097
X13.4502Y-10.5536
X13.5635Y-3.7391
X13.594Y-6.3722
X13.6117Y-7.0699
X13.6155Y-5.3809
X13.6455Y-11.0116
X13.6627Y-13.8601
X13.6691Y-11.4078
X13.7321Y-7.1458
X13.7333Y-7.0767
X13.744Y-11.9188
X13.7595Y-7.1742
X13.8154Y-11.0435
X13.8308Y-2.5752
X13.8308Y-3.6448
X13.8676Y-3.9465
X13.9163Y-5.7448
X13.9163Y-6.9876
X13.947Y-7.3172
X13.9504Y-10.5242
X13.9587Y-6.9764
X13.9794Y-11.1659
X13.9821Y-2.2832
X13.9857Y-5.6778
X13.9962Y-5.2608
X14.0084Y-5.8371
X14.0195Y-2.2649
X14.0553Y-9.4976
X14.0553Y-11.7622
X14.0715Y-7.7867
X14.1022Y-11.7622
X14.1256Y-9.5316
X14.1429Y-8.9253
X14.159Y-2.3311
X14.1624Y-8.2529
X14.1775Y-5.6702
X14.2144Y-4.5189
X14.2476Y-8.1454
X14.2618Y-8.1034
X14.3016Y-12.8103
X14.3202Y-11.5117
X14.3271Y-8.1877
X14.3566Y-6.3193
X14.3575Y-9.5828
X14.3665Y-12.0676
X14.3675Y-5.3182
X14.3791Y-7.5818
X14.3799Y-4.7562
X14.3954Y-7.8691
X14.4086Y-6.3734
X14.437Y-8.0326
X14.4794Y-9.2319
X14.488Y-5.1901
X14.5031Y-8.3811
X14.5327Y-11.7272
X14.5377Y-11.1779
X14.5832Y-8.3235
X14.5872Y-8.4809
X14.5958Y-8.9319
X14.596Y-7.8284
X14.601Y-6.5957
X14.6077Y-9.1724
X14.6089Y-9.0047
X14.6118Y-8.0611
X14.6361Y-8.2929
X14.647Y-8.2343
X14.6569Y-5.9941
X14.6622Y-4.3856
X14.7041Y-8.7359
X14.7104Y-9.678
X14.7195Y-8.8163
X14.7537Y-7.4597
X14.781Y-7.7022
X14.7861Y-8.2639
X14.7929Y-9.7376
X14.7971Y-10.1605
X14.8096Y-7.5919
X14.825Y-7.7022
X14.8263Y-8.1346
X14.8373Y-9.0651
X14.8752Y-7.5746
X14.8818Y-6.2644
X14.891Y-4.7077
X14.9055Y-8.217
X14.908Y-8.3998
X14.9096Y-7.7199
X14.9454Y-6.4357
X14.9649Y-7.5744
X14.9661Y-8.3521
X14.9671Y-8.004
X14.9929Y-6.2998
X15.0008Y-7.1724
X15.0303Y-8.3724
X15.0376Y-3.7046
X15.0507Y-6.447
X15.0534Y-6.7613
X15.0647Y-7.0667
X15.0681Y-1.1844
X15.069Y-12.2089
X15.0806Y-3.6708
X15.0807Y-2.9522
X15.0946Y-6.2819
X15.1093Y-3.0004
X15.1308Y-3.6058
X15.1375Y-6.3255
X15.1642Y-8.7672
X15.1672Y-7.1418
X15.1815Y-7.1823
X15.186Y-2.9462
X15.186Y-3.4823
X15.2171Y-7.5732
X15.2719Y-5.1901
X15.3042Y-9.5274
X15.3092Y-5.9586
X15.324Y-6.0172
X15.3335Y-2.0339
X15.3434Y-8.2639
X15.3576Y-3.6468
X15.4022Y-6.4577
X15.4042Y-9.9058
X15.4361Y-7.4678
X15.4399Y-8.6755
X15.4497Y-3.1913
X15.4534Y-5.1129
X15.475Y-8.1711
X15.4963Y-3.2913
X15.4963Y-3.5311
X15.5136Y-10.0946
X15.5691Y-3.6413
X15.5828Y-5.3467
X15.5828Y-7.7576
X15.5839Y-8.3235
X15.5943Y-9.5577
X15.6073Y-7.5961
X15.6145Y-7.79
X15.6463Y-9.5932
X15.68Y-3.9775
X15.6889Y-7.2102
X15.7184Y-8.3724
X15.7202Y-12.094
X15.7266Y-4.2155
X15.7364Y-7.0875
X15.7368Y-5.2471
X15.747Y-8.2929
X15.748Y-9.5755
X15.7603Y-8.9873
X15.7749Y-8.6479
X15.7766Y-9.6284
X15.7982Y-3.7784
X15.8166Y-3.6829
X15.8237Y-4.8379
X15.8744Y-1.9024
X15.8942Y-4.4547
X15.9113Y-6.8489
X15.9249Y-5.9586
X15.9268Y-3.8399
X15.931Y-9.31
X15.9353Y-5.5077
X15.9732Y-9.3296
X15.9746Y-9.2438
X15.9868Y-4.0124
X15.9869Y-4.4996
X16.0173Y-5.2471
X16.023Y-2.2872
X16.0339Y-4.8885
X16.0484Y-4.1199
X16.0538Y-6.7933
X16.0572Y-3.2913
X16.0732Y-12.6572
X16.078Y-7.0971
X16.1034Y-10.1058
X16.1038Y-7.5851
X16.1212Y-11.8779
X16.1386Y-6.0339
X16.1389Y-3.6852
X16.1453Y-2.2577
X16.1464Y-3.4008
X16.1467Y-9.2641
X16.1479Y-3.3088
X16.1681Y-3.8191
X16.169Y-7.7328
X16.1699Y-3.1607
X16.2112Y-8.7873
X16.2201Y-4.0669
X16.2432Y-3.7836
X16.245Y-8.8522
X16.2634Y-5.6478
X16.2799Y-3.1558
X16.2881Y-13.6149
X16.3048Y-3.8399
X16.3145Y-11.8779
X16.3277Y-2.5182
X16.3296Y-13.5425
X16.336Y-5.6763
X16.3391Y-5.2836
X16.3454Y-10.1058
X16.3472Y-2.8509
X16.3547Y-6.2945
X16.3728Y-3.8577
X16.3828Y-5.9409
X16.4395Y-13.896
X16.4769Y-3.7948
X16.4793Y-2.3053
X16.4809Y-10.6501
X16.4828Y-6.1791
X16.5124Y-5.9695
X16.5154Y-5.3809
X16.5427Y-3.6127
X16.5627Y-2.9208
X16.5658Y-5.8677
X16.5658Y-6.2318
X16.5708Y-3.5182
X16.5741Y-10.1648
X16.5885Y-3.9402
X16.5896Y-4.1501
X16.5936Y-5.5219
X16.6097Y-5.8844
X16.6158Y-4.1798
X16.6446Y-4.0218
X16.6662Y-3.547
X16.6825Y-3.0146
X16.6868Y-4.6803
X16.7163Y-10.2501
X16.7279Y-9.519
X16.7496Y-11.2601
X16.7565Y-9.3873
X16.7858Y-9.5206
X16.7939Y-5.4396
X16.8124Y-3.7196
X16.8362Y-5.4883
X16.8653Y-3.2319
X16.8765Y-3.3682
X16.9135Y-5.5422
X16.9147Y-3.4407
X16.9188Y-10.3359
X16.9629Y-5.5922
X16.9721Y-7.2851
X16.9904Y-6.6449
X17.0009Y-2.3391
X17.011Y-3.2909
X17.048Y-3.2609
X17.049Y-10.4309
X17.0507Y-2.3874
X17.0581Y-6.019
X17.0603Y-7.3727
X17.1033Y-3.3195
X17.1538Y-6.0084
X17.1538Y-6.1232
X17.1608Y-3.0991
X17.1622Y-3.0128
X17.1678Y-2.2363
X17.1796Y-1.9955
X17.2204Y-4.1015
X17.2293Y-2.2856
X17.2345Y-6.3699
X17.2514Y-3.816
X17.2521Y-1.9541
X17.2538Y-2.9208
X17.2553Y-3.9157
X17.2961Y-2.5052
X17.3752Y-4.3625
X17.4244Y-3.0081
X17.4332Y-6.4175
X17.4358Y-6.3777
X17.4652Y-6.3413
X17.5606Y-13.0085
X17.598Y-12.9669
X17.938Y-4.8452
T2
X6.9576Y-13.9141
X6.9576Y-13.981
T3
X1.6426Y-14.5716
X1.6772Y-14.4881
X1.6772Y-14.6551
X1.7364Y-2.0278
X1.7607Y-14.4535
X1.7607Y-14.6897
X1.771Y-1.9443
X1.771Y-2.1114
X1.8443Y-14.4881
X1.8443Y-14.6551
X1.8545Y-1.9097
X1.8545Y-2.1459
X1.8789Y-14.5716
X1.938Y-1.9443
X1.938Y-2.1114
X1.9726Y-2.0278
X2.0614Y-8.2478
X2.0676Y-14.4586
X2.0784Y-2.0528
X2.096Y-8.1643
X2.096Y-8.3314
X2.1022Y-14.3751
X2.1022Y-14.5421
X2.113Y-1.9693
X2.113Y-2.1364
X2.1795Y-8.1297
X2.1795Y-8.3659
X2.1857Y-14.3405
X2.1857Y-14.5767
X2.1965Y-1.9347
X2.1965Y-2.1709
X2.263Y-8.1643
X2.263Y-8.3314
X2.2693Y-14.3751
X2.2693Y-14.5421
X2.28Y-1.9693
X2.28Y-2.1364
X2.2976Y-8.2478
X2.3039Y-14.4586
X2.3146Y-2.0528
X5.0396Y-14.4586
X5.0742Y-14.3751
X5.0742Y-14.5421
X5.1578Y-14.3405
X5.1578Y-14.5767
X5.2413Y-14.3751
X5.2413Y-14.5421
X5.2759Y-14.4586
X6.2094Y-2.0638
X6.244Y-1.9803
X6.244Y-2.1473
X6.3275Y-1.9457
X6.3275Y-2.1819
X6.411Y-1.9803
X6.411Y-2.1473
X6.4456Y-2.0638
X7.3844Y-8.2578
X7.419Y-8.1743
X7.419Y-8.3414
X7.5025Y-8.1397
X7.5025Y-8.3759
X7.586Y-8.1743
X7.586Y-8.3414
X7.6206Y-8.2578
X9.1489Y-14.5654
X9.1835Y-14.4818
X9.1835Y-14.6489
X9.267Y-14.4472
X9.267Y-14.6835
X9.3505Y-14.4818
X9.3505Y-14.6489
X9.3851Y-14.5654
X9.6479Y-14.4574
X9.6825Y-14.3738
X9.6825Y-14.5409
X9.766Y-14.3393
X9.766Y-14.5755
X9.8495Y-14.3738
X9.8495Y-14.5409
X9.8841Y-14.4574
X17.2848Y-14.5825
X17.3194Y-14.499
X17.3194Y-14.666
X17.4029Y-14.4644
X17.4029Y-14.7006
X17.4864Y-14.499
X17.4864Y-14.666
X17.521Y-14.5825
X17.6338Y-14.4685
X17.6478Y-7.1045
X17.6548Y-2.0665
X17.6684Y-14.385
X17.6684Y-14.552
X17.6824Y-7.021
X17.6824Y-7.188
X17.6894Y-1.983
X17.6894Y-2.15
X17.7519Y-14.3504
X17.7519Y-14.5866
X17.7659Y-6.9864
X17.7659Y-7.2226
X17.7729Y-1.9484
X17.7729Y-2.1846
X17.8354Y-14.385
X17.8354Y-14.552
X17.8494Y-7.021
X17.8494Y-7.188
X17.8564Y-1.983
X17.8564Y-2.15
X17.87Y-14.4685
X17.884Y-7.1045
X17.891Y-2.0665
T4
X5.5856Y-14.157
X5.5856Y-14.207
X5.5856Y-14.257
X7.9745Y-3.8925
X8.0245Y-3.8925
X8.0745Y-3.8925
X10.3741Y-3.6153
X10.4241Y-3.6153
X10.4458Y-6.2814
X10.4458Y-6.3314
X10.4458Y-6.3814
X10.4741Y-3.6153
X10.6761Y-2.8401
X10.7261Y-2.8401
X10.7761Y-2.8401
X11.8226Y-2.8405
X11.8226Y-2.8905
X11.8226Y-2.9405
X12.2005Y-3.3448
X12.2005Y-3.3948
X12.2005Y-3.4448
T5
X2.0324Y-9.0987
X2.0324Y-9.1987
X2.0324Y-9.2987
X2.0324Y-9.3987
X2.0324Y-9.4987
X2.0324Y-9.5987
X2.0324Y-9.6987
X2.0324Y-9.7987
X2.0324Y-9.8987
X2.0324Y-9.9987
X2.0324Y-10.1735
X2.0324Y-10.2735
X2.0324Y-10.3735
X2.0324Y-10.4735
X2.0324Y-10.5735
X2.0324Y-10.6735
X2.0324Y-10.7735
X2.0324Y-10.8735
X2.0324Y-10.9735
X2.0324Y-11.0735
X2.0324Y-11.2454
X2.0324Y-11.3454
X2.0324Y-11.4454
X2.0324Y-11.5454
X2.0324Y-11.6454
X2.0324Y-11.7454
X2.0324Y-11.8454
X2.0324Y-11.9454
X2.0324Y-12.0454
X2.0324Y-12.1454
X2.0324Y-12.3015
X2.0324Y-12.4015
X2.0324Y-12.5015
X2.0324Y-12.6015
X2.0324Y-12.7015
X2.0324Y-12.8015
X2.0324Y-12.9015
X2.0324Y-13.0015
X2.0324Y-13.1015
X2.0324Y-13.2015
X2.2056Y-11.7298
X2.2056Y-11.8283
X2.2056Y-11.9267
X2.2056Y-12.0251
X2.2056Y-12.1235
X2.2056Y-12.2222
X2.2056Y-12.3206
X2.2056Y-12.4192
X2.2088Y-9.62
X2.2088Y-9.7212
X2.2088Y-9.8247
X2.2088Y-9.9231
X2.2088Y-10.0255
X2.2088Y-10.1271
X2.2342Y-13.0796
X2.3493Y-13.7094
X2.3493Y-14.1031
X2.558Y-10.5771
X2.558Y-10.6771
X2.558Y-10.7771
X2.558Y-10.8771
X2.558Y-10.9771
X2.558Y-11.0771
X2.558Y-11.1771
X2.558Y-11.2771
X2.558Y-11.3771
X2.558Y-11.4771
X2.5993Y-11.7298
X2.5993Y-11.8283
X2.5993Y-11.9267
X2.5993Y-12.0251
X2.5993Y-12.1235
X2.5993Y-12.2222
X2.5993Y-12.3206
X2.5993Y-12.4192
X2.6025Y-9.62
X2.6025Y-9.7212
X2.6025Y-9.8247
X2.6025Y-9.9231
X2.6025Y-10.0255
X2.6025Y-10.1271
X2.6279Y-13.0796
X2.7237Y-9.0491
X2.7237Y-9.1672
X2.7237Y-9.2857
X2.7292Y-10.6771
X2.7296Y-10.4796
X2.7296Y-10.5784
X2.7296Y-10.3802
X2.73Y-8.842
X2.73Y-8.9405
X2.73Y-9.394
X2.73Y-9.4924
X2.73Y-9.5913
X2.73Y-9.6901
X2.73Y-9.7885
X2.73Y-9.8873
X2.73Y-9.9861
X2.73Y-10.085
X2.73Y-10.1834
X2.73Y-10.2818
X2.7351Y-12.7245
X2.7351Y-12.8428
X2.7351Y-12.9611
X2.7351Y-13.0796
X2.7414Y-10.8857
X2.7414Y-10.9842
X2.7414Y-11.0826
X2.7414Y-11.181
X2.7414Y-11.2794
X2.7414Y-11.3779
X2.7414Y-11.4763
X2.7414Y-11.5747
X2.7414Y-11.6735
X2.7414Y-11.7724
X2.7414Y-11.8708
X2.7414Y-12.0251
X2.7414Y-12.1235
X2.7414Y-12.2222
X2.7414Y-12.3206
X2.7414Y-12.4192
X2.7414Y-12.5178
X2.7414Y-12.6163
X3.0826Y-1.9604
X3.0826Y-2.1572
X3.1229Y-10.6771
X3.1233Y-10.4796
X3.1233Y-10.5784
X3.1233Y-10.3802
X3.1237Y-8.842
X3.1237Y-8.9405
X3.1237Y-9.0491
X3.1237Y-9.1672
X3.1237Y-9.2857
X3.1237Y-9.394
X3.1237Y-9.4924
X3.1237Y-9.5913
X3.1237Y-9.6901
X3.1237Y-9.7885
X3.1237Y-9.8873
X3.1237Y-9.9861
X3.1237Y-10.085
X3.1237Y-10.1834
X3.1237Y-10.2818
X3.1351Y-10.8857
X3.1351Y-10.9842
X3.1351Y-11.0826
X3.1351Y-11.181
X3.1351Y-11.2794
X3.1351Y-11.3779
X3.1351Y-11.4763
X3.1351Y-11.5747
X3.1351Y-11.6735
X3.1351Y-11.7724
X3.1351Y-11.8708
X3.1351Y-12.0251
X3.1351Y-12.1235
X3.1351Y-12.2222
X3.1351Y-12.3206
X3.1351Y-12.4192
X3.1351Y-12.5178
X3.1351Y-12.6163
X3.1351Y-12.7245
X3.1351Y-12.8428
X3.1351Y-12.9611
X3.1351Y-13.0796
X3.7991Y-8.3751
X3.7991Y-9.3594
X4.4643Y-7.5787
X4.4643Y-7.6775
X4.4643Y-7.7759
X4.4643Y-7.8747
X4.4647Y-7.185
X4.4647Y-7.2834
X4.4647Y-7.3818
X4.4647Y-7.4802
X4.4651Y-6.1322
X4.4651Y-6.2322
X4.4651Y-6.3322
X4.4651Y-6.4322
X4.4651Y-6.5322
X4.4651Y-6.6322
X4.4651Y-6.7322
X4.4651Y-6.8322
X4.4651Y-6.9322
X4.4651Y-7.0322
X4.5182Y-2.8858
X4.5182Y-2.9842
X4.5182Y-3.0826
X4.5182Y-3.181
X4.5182Y-3.2795
X4.5182Y-3.3783
X4.5182Y-3.4767
X4.5182Y-3.5751
X4.5182Y-3.8787
X4.5182Y-3.9794
X4.5182Y-4.0783
X4.5182Y-4.1771
X4.5182Y-4.2759
X4.5182Y-4.3747
X4.5182Y-4.4731
X4.5182Y-4.572
X4.5182Y-4.6716
X4.5182Y-4.77
X4.5182Y-4.8696
X4.5182Y-4.968
X4.5182Y-5.0669
X4.5182Y-5.1657
X4.5182Y-5.2653
X4.5182Y-5.3637
X4.5182Y-5.4621
X4.5182Y-5.5609
X4.5182Y-5.6594
X4.5182Y-5.7578
X4.5983Y-8.3751
X4.5983Y-9.3594
X4.617Y-6.2704
X4.617Y-6.3692
X4.617Y-6.4676
X4.617Y-6.5665
X4.617Y-6.6653
X4.617Y-6.7637
X4.617Y-6.8625
X4.617Y-6.9728
X4.6178Y-6.1708
X4.6714Y-2.4751
X4.6718Y-2.1854
X4.673Y-2.5972
X4.6737Y-2.72
X4.8107Y-5.8763
X4.8107Y-6.0731
X4.858Y-7.5787
X4.858Y-7.6775
X4.858Y-7.7759
X4.858Y-7.8747
X4.8584Y-7.185
X4.8584Y-7.2834
X4.8584Y-7.3818
X4.8584Y-7.4802
X4.9119Y-2.8858
X4.9119Y-2.9842
X4.9119Y-3.0826
X4.9119Y-3.181
X4.9119Y-3.2795
X4.9119Y-3.3783
X4.9119Y-3.4767
X4.9119Y-3.5751
X4.9119Y-3.8787
X4.9119Y-3.9794
X4.9119Y-4.0783
X4.9119Y-4.1771
X4.9119Y-4.2759
X4.9119Y-4.3747
X4.9119Y-4.4731
X4.9119Y-4.572
X4.9119Y-4.6716
X4.9119Y-4.77
X4.9119Y-4.8696
X4.9119Y-4.968
X4.9119Y-5.0669
X4.9119Y-5.1657
X4.9119Y-5.2653
X4.9119Y-5.3637
X4.9119Y-5.4621
X4.9119Y-5.5609
X4.9119Y-5.6594
X4.9119Y-5.7578
X5.0107Y-6.2704
X5.0107Y-6.3692
X5.0107Y-6.4676
X5.0107Y-6.5665
X5.0107Y-6.6653
X5.0107Y-6.7637
X5.0107Y-6.8625
X5.0107Y-6.9728
X5.0115Y-6.1708
X5.0115Y-7.1003
X5.0115Y-7.2003
X5.0115Y-7.3003
X5.0115Y-7.4003
X5.0115Y-7.5003
X5.0115Y-7.6003
X5.0115Y-7.7003
X5.0115Y-7.8003
X5.0115Y-7.9003
X5.0115Y-8.0003
X5.0623Y-4.9231
X5.0623Y-5.0231
X5.0623Y-5.1231
X5.0623Y-5.2231
X5.0623Y-5.3231
X5.0623Y-5.4231
X5.0623Y-5.5231
X5.0623Y-5.6231
X5.0623Y-5.7231
X5.0623Y-5.8231
X5.0643Y-2.8495
X5.0643Y-2.9495
X5.0643Y-3.0495
X5.0643Y-3.1495
X5.0643Y-3.2495
X5.0643Y-3.3495
X5.0643Y-3.4495
X5.0643Y-3.5495
X5.0643Y-3.6495
X5.0643Y-3.7495
X5.0643Y-3.8873
X5.0643Y-3.9873
X5.0643Y-4.0873
X5.0643Y-4.1873
X5.0643Y-4.2873
X5.0643Y-4.3873
X5.0643Y-4.4873
X5.0643Y-4.5873
X5.0643Y-4.6873
X5.0643Y-4.7873
X5.0651Y-2.4751
X5.0655Y-2.1854
X5.0667Y-2.5972
X5.0674Y-2.72
X5.1434Y-6.1109
X5.1434Y-6.2109
X5.1434Y-6.3109
X5.1434Y-6.4109
X5.1434Y-6.5109
X5.1434Y-6.6109
X5.1434Y-6.7109
X5.1434Y-6.8109
X5.1434Y-6.9109
X5.1434Y-7.0109
X5.173Y-2.409
X5.3698Y-2.409
X5.3769Y-8.3751
X5.3769Y-9.3594
X5.7151Y-3.8669
X5.7151Y-3.9669
X5.7151Y-4.0669
X5.7151Y-4.1669
X5.7151Y-4.2669
X5.7151Y-4.3669
X5.7151Y-4.4669
X5.7151Y-4.5669
X5.7344Y-13.9987
X5.7344Y-14.3987
X5.7733Y-4.8606
X5.7733Y-5.2606
X5.8535Y-13.9985
X5.8535Y-14.3985
X5.8619Y-3.4129
X5.8619Y-3.5129
X5.8619Y-3.6129
X5.8619Y-3.7129
X5.8619Y-3.8129
X5.8619Y-3.9129
X5.8619Y-4.0129
X5.8619Y-4.1129
X5.8867Y-5.6361
X5.8867Y-5.7361
X5.8867Y-5.8361
X5.8867Y-5.9361
X5.8867Y-6.0361
X5.8867Y-6.1361
X5.8867Y-6.2361
X5.8867Y-6.3361
X5.8946Y-4.86
X5.8946Y-5.26
X5.9726Y-13.9991
X5.9726Y-14.3991
X6.0422Y-3.0192
X6.0422Y-3.1192
X6.0422Y-3.2192
X6.0422Y-3.3192
X6.0422Y-3.4192
X6.0422Y-3.5192
X6.0422Y-3.6192
X6.0422Y-3.7192
X6.0422Y-3.8192
X6.0422Y-3.9192
X6.0422Y-4.0192
X6.0422Y-4.1192
X6.0422Y-4.2192
X6.0422Y-4.3192
X6.0422Y-4.4192
X6.0422Y-4.5192
X6.0422Y-4.6192
X6.0422Y-4.7192
X6.0422Y-4.8192
X6.0422Y-4.9192
X6.0422Y-5.0192
X6.0422Y-5.1192
X6.0422Y-5.2192
X6.0422Y-5.3192
X6.0663Y-5.6314
X6.0663Y-5.7314
X6.0663Y-5.8314
X6.0663Y-5.9314
X6.0663Y-6.0314
X6.0663Y-6.1314
X6.0663Y-6.2314
X6.0663Y-6.3314
X6.0663Y-6.7905
X6.0663Y-6.8905
X6.0663Y-6.9905
X6.0663Y-7.0905
X6.0663Y-7.1905
X6.0663Y-7.2905
X6.0663Y-7.3905
X6.0907Y-13.9991
X6.0907Y-14.3991
X6.1997Y-14.0987
X6.1997Y-14.3987
X6.2046Y-8.3751
X6.2046Y-9.3594
X6.2985Y-14.0987
X6.2985Y-14.3987
X6.3663Y-5.6314
X6.3663Y-5.7314
X6.3663Y-5.8314
X6.3663Y-5.9314
X6.3663Y-6.0314
X6.3663Y-6.1314
X6.3663Y-6.2314
X6.3663Y-6.3314
X6.3663Y-6.7905
X6.3663Y-6.8905
X6.3663Y-6.9905
X6.3663Y-7.0905
X6.3663Y-7.1905
X6.3663Y-7.2905
X6.3663Y-7.3905
X6.4076Y-13.9987
X6.4076Y-14.3987
X6.5139Y-6.7881
X6.5139Y-7.1818
X6.5293Y-14.005
X6.5293Y-14.3987
X6.5334Y-5.6306
X6.5334Y-6.0243
X6.6379Y-6.7885
X6.6379Y-7.1822
X6.6422Y-3.0192
X6.6422Y-3.1192
X6.6422Y-3.2192
X6.6422Y-3.3192
X6.6422Y-3.4192
X6.6422Y-3.5192
X6.6422Y-3.6192
X6.6422Y-3.7192
X6.6422Y-3.8192
X6.6422Y-3.9192
X6.6422Y-4.0192
X6.6422Y-4.1192
X6.6422Y-4.2192
X6.6422Y-4.3192
X6.6422Y-4.4192
X6.6422Y-4.5192
X6.6422Y-4.6192
X6.6422Y-4.7192
X6.6422Y-4.8192
X6.6422Y-4.9192
X6.6422Y-5.0192
X6.6422Y-5.1192
X6.6422Y-5.2192
X6.6422Y-5.3192
X6.7623Y-5.6314
X6.7623Y-5.7314
X6.7623Y-5.8314
X6.7623Y-5.9314
X6.7623Y-6.0314
X6.7623Y-6.1314
X6.7623Y-6.2314
X6.7623Y-6.3314
X6.7623Y-6.7905
X6.7623Y-6.8905
X6.7623Y-6.9905
X6.7623Y-7.0905
X6.7623Y-7.1905
X6.7623Y-7.2905
X6.7623Y-7.3905
X6.7891Y-4.9169
X6.7891Y-5.3106
X6.858Y-3.5177
X6.858Y-3.9177
X6.8848Y-10.2763
X6.8848Y-10.3763
X6.8848Y-10.4763
X6.8848Y-10.5763
X6.8848Y-10.6763
X6.8848Y-10.7763
X6.9119Y-4.9169
X6.9119Y-5.3106
X6.9478Y-14.1633
X6.9478Y-14.4633
X6.9785Y-12.2523
X6.9785Y-12.3523
X6.9785Y-12.4523
X6.9785Y-12.5523
X6.9785Y-12.6523
X6.9785Y-12.7523
X6.9785Y-12.8523
X6.9785Y-12.9523
X6.9785Y-13.0523
X6.9785Y-13.1523
X6.9852Y-11.1936
X6.9852Y-11.2936
X6.9852Y-11.3936
X6.9852Y-11.4936
X6.9852Y-11.5936
X6.9852Y-11.6936
X7.0096Y-3.5177
X7.0096Y-3.9177
X7.0478Y-14.1633
X7.0478Y-14.4633
X7.0623Y-5.6314
X7.0623Y-5.7314
X7.0623Y-5.8314
X7.0623Y-5.9314
X7.0623Y-6.0314
X7.0623Y-6.1314
X7.0623Y-6.2314
X7.0623Y-6.3314
X7.0623Y-6.7905
X7.0623Y-6.8905
X7.0623Y-6.9905
X7.0623Y-7.0905
X7.0623Y-7.1905
X7.0623Y-7.2905
X7.0623Y-7.3905
X7.1135Y-4.9106
X7.1135Y-5.3106
X7.1308Y-11.9712
X7.1367Y-9.107
X7.1367Y-10.5745
X7.1478Y-14.1633
X7.1478Y-14.4633
X7.1607Y-3.5177
X7.1607Y-3.9177
X7.2056Y-12.2487
X7.2056Y-12.3487
X7.2056Y-12.4487
X7.2056Y-12.5487
X7.2056Y-12.6487
X7.2056Y-12.7487
X7.2056Y-12.8487
X7.2056Y-12.9487
X7.2056Y-13.0487
X7.2056Y-13.1487
X7.2115Y-9.3294
X7.2115Y-9.4294
X7.2115Y-9.5294
X7.2115Y-9.6294
X7.2115Y-9.7294
X7.2115Y-9.8294
X7.2115Y-9.9294
X7.2115Y-10.0294
X7.2115Y-10.1294
X7.2115Y-10.2294
X7.2115Y-10.796
X7.2115Y-10.896
X7.2115Y-10.996
X7.2115Y-11.096
X7.2115Y-11.196
X7.2115Y-11.296
X7.2115Y-11.396
X7.2115Y-11.496
X7.2115Y-11.596
X7.2115Y-11.696
X7.2139Y-5.6306
X7.2139Y-6.0243
X7.2478Y-14.1633
X7.2478Y-14.4633
X7.3119Y-3.5177
X7.3119Y-3.9177
X7.3478Y-14.1633
X7.3478Y-14.4633
X7.4178Y-4.5428
X7.4478Y-14.1633
X7.4478Y-14.4633
X7.5056Y-12.2487
X7.5056Y-12.3487
X7.5056Y-12.4487
X7.5056Y-12.5487
X7.5056Y-12.6487
X7.5056Y-12.7487
X7.5056Y-12.8487
X7.5056Y-12.9487
X7.5056Y-13.0487
X7.5056Y-13.1487
X7.5115Y-9.3294
X7.5115Y-9.4294
X7.5115Y-9.5294
X7.5115Y-9.6294
X7.5115Y-9.7294
X7.5115Y-9.8294
X7.5115Y-9.9294
X7.5115Y-10.0294
X7.5115Y-10.1294
X7.5115Y-10.2294
X7.5115Y-10.796
X7.5115Y-10.896
X7.5115Y-10.996
X7.5115Y-11.096
X7.5115Y-11.196
X7.5115Y-11.296
X7.5115Y-11.396
X7.5115Y-11.496
X7.5115Y-11.596
X7.5115Y-11.696
X7.5245Y-11.9712
X7.5304Y-9.107
X7.5304Y-10.5745
X7.5359Y-3.9649
X7.5359Y-4.1617
X7.5373Y-4.9161
X7.5373Y-5.3098
X7.5387Y-3.6106
X7.5387Y-3.8074
X7.5478Y-14.1633
X7.5478Y-14.4633
X7.6478Y-14.1633
X7.6478Y-14.4633
X7.7198Y-2.3373
X7.7198Y-2.5342
X7.7296Y-1.744
X7.7296Y-2.1377
X7.7478Y-14.1633
X7.7478Y-14.4633
X7.7883Y-12.2523
X7.7883Y-12.3523
X7.7883Y-12.4523
X7.7883Y-12.5523
X7.7883Y-12.6523
X7.7883Y-12.7523
X7.7883Y-12.8523
X7.7883Y-12.9523
X7.7883Y-13.0523
X7.7883Y-13.1523
X7.7922Y-4.0125
X7.7922Y-4.4062
X7.7926Y-3.0161
X7.7926Y-3.4098
X7.8178Y-4.5428
X7.8497Y-1.8354
X7.8497Y-2.2291
X7.8956Y-9.107
X7.9094Y-11.9712
X7.9159Y-4.0125
X7.9159Y-4.4062
X7.9186Y-3.1208
X7.9186Y-3.2208
X7.9186Y-3.3208
X7.9186Y-3.4208
X7.9186Y-3.5208
X7.9186Y-3.6208
X7.9186Y-3.7208
X7.9369Y-10.5745
X7.9832Y-8.109
X7.9832Y-8.209
X7.9832Y-8.309
X7.9832Y-8.409
X7.9832Y-8.509
X7.9832Y-8.609
X7.9832Y-8.709
X7.9842Y-9.3294
X7.9842Y-9.4294
X7.9842Y-9.5294
X7.9842Y-9.6294
X7.9842Y-9.7294
X7.9842Y-9.8294
X7.9842Y-9.9294
X7.9842Y-10.0294
X7.9842Y-10.1294
X7.9842Y-10.2294
X7.9842Y-10.796
X7.9842Y-10.896
X7.9842Y-10.996
X7.9842Y-11.096
X7.9842Y-11.196
X7.9842Y-11.296
X7.9842Y-11.396
X7.9842Y-11.496
X7.9842Y-11.596
X7.9842Y-11.696
X7.9842Y-12.2487
X7.9842Y-12.3487
X7.9842Y-12.4487
X7.9842Y-12.5487
X7.9842Y-12.6487
X7.9842Y-12.7487
X7.9842Y-12.8487
X7.9842Y-12.9487
X7.9842Y-13.0487
X7.9842Y-13.1487
X8.0938Y-2.6905
X8.0938Y-2.8873
X8.1163Y-6.7893
X8.1163Y-6.8893
X8.1163Y-6.9893
X8.1163Y-7.0893
X8.1163Y-7.1893
X8.1163Y-7.2893
X8.1544Y-13.8708
X8.183Y-4.0121
X8.183Y-4.4121
X8.1942Y-2.6905
X8.1942Y-2.8873
X8.2186Y-3.1208
X8.2186Y-3.2208
X8.2186Y-3.3208
X8.2186Y-3.4208
X8.2186Y-3.5208
X8.2186Y-3.6208
X8.2186Y-3.7208
X8.2529Y-13.8708
X8.2832Y-8.109
X8.2832Y-8.209
X8.2832Y-8.309
X8.2832Y-8.409
X8.2832Y-8.509
X8.2832Y-8.609
X8.2832Y-8.709
X8.2842Y-9.3294
X8.2842Y-9.4294
X8.2842Y-9.5294
X8.2842Y-9.6294
X8.2842Y-9.7294
X8.2842Y-9.8294
X8.2842Y-9.9294
X8.2842Y-10.0294
X8.2842Y-10.1294
X8.2842Y-10.2294
X8.2842Y-10.796
X8.2842Y-10.896
X8.2842Y-10.996
X8.2842Y-11.096
X8.2842Y-11.196
X8.2842Y-11.296
X8.2842Y-11.396
X8.2842Y-11.496
X8.2842Y-11.596
X8.2842Y-11.696
X8.2842Y-12.2487
X8.2842Y-12.3487
X8.2842Y-12.4487
X8.2842Y-12.5487
X8.2842Y-12.6487
X8.2842Y-12.7487
X8.2842Y-12.8487
X8.2842Y-12.9487
X8.2842Y-13.0487
X8.2842Y-13.1487
X8.2893Y-9.107
X8.2938Y-2.6905
X8.2938Y-2.8873
X8.3031Y-11.9712
X8.3041Y-4.0121
X8.3041Y-4.4121
X8.3306Y-10.5745
X8.3552Y-14.0361
X8.356Y-14.1728
X8.3568Y-6.4019
X8.3568Y-6.7956
X8.3922Y-7.1153
X8.3922Y-7.509
X8.3934Y-2.6905
X8.3934Y-2.8873
X8.4359Y-8.1109
X8.4359Y-8.5046
X8.4911Y-3.1208
X8.4911Y-3.2208
X8.4911Y-3.3208
X8.4911Y-3.4208
X8.4911Y-3.5208
X8.4911Y-3.6208
X8.4911Y-3.7208
X8.4911Y-3.972
X8.4911Y-4.072
X8.4911Y-4.172
X8.4911Y-4.272
X8.4911Y-4.372
X8.4911Y-4.472
X8.4911Y-4.572
X8.4934Y-2.6905
X8.4934Y-2.8873
X8.4989Y-5.8007
X8.4989Y-6.1944
X8.58Y-6.3728
X8.58Y-6.7665
X8.5844Y-6.9054
X8.5844Y-7.2991
X8.593Y-2.6905
X8.593Y-2.8873
X8.6497Y-7.7633
X8.6942Y-2.6905
X8.6942Y-2.8873
X8.7373Y-5.8909
X8.7373Y-6.2669
X8.7373Y-7.0149
X8.7422Y-7.3672
X8.745Y-6.6342
X8.7489Y-14.0361
X8.756Y-14.1728
X8.7911Y-3.1208
X8.7911Y-3.2208
X8.7911Y-3.3208
X8.7911Y-3.4208
X8.7911Y-3.5208
X8.7911Y-3.6208
X8.7911Y-3.7208
X8.7911Y-3.972
X8.7911Y-4.072
X8.7911Y-4.172
X8.7911Y-4.272
X8.7911Y-4.372
X8.7911Y-4.472
X8.7911Y-4.572
X8.7938Y-2.6905
X8.7938Y-2.8873
X8.893Y-2.6905
X8.893Y-2.8873
X8.9342Y-5.8909
X8.9342Y-6.2669
X8.9342Y-7.0149
X8.9391Y-7.3672
X8.9419Y-6.6342
X8.967Y-3.1169
X8.967Y-3.5169
X8.973Y-3.6677
X8.973Y-3.7677
X8.973Y-3.8677
X8.973Y-3.9677
X8.973Y-4.0677
X8.973Y-4.1677
X8.973Y-4.2677
X8.973Y-4.3677
X8.973Y-4.4677
X8.973Y-4.5677
X9.0135Y-7.9314
X9.0135Y-8.3314
X9.0434Y-7.7633
X9.0985Y-4.9354
X9.1048Y-4.794
X9.1859Y-13.2487
X9.1859Y-13.4456
X9.1915Y-11.322
X9.1974Y-8.1985
X9.1993Y-5.4586
X9.3257Y-11.5706
X9.3257Y-11.9643
X9.3883Y-11.322
X9.3993Y-5.4586
X9.4824Y-2.2661
X9.4824Y-2.4629
X9.4985Y-4.794
X9.4985Y-4.9354
X9.5367Y-2.8938
X9.5367Y-3.2938
X9.5688Y-1.7281
X9.5688Y-2.1218
X9.5911Y-8.1985
X9.6088Y-9.9676
X9.6088Y-10.0676
X9.6088Y-10.1676
X9.6088Y-10.2676
X9.6088Y-10.3676
X9.6088Y-10.4676
X9.6088Y-10.5676
X9.6088Y-10.6676
X9.6088Y-10.7676
X9.6088Y-10.8676
X9.6088Y-10.9676
X9.6088Y-11.0676
X9.6088Y-11.1676
X9.6088Y-11.2676
X9.6088Y-11.3676
X9.6088Y-11.4676
X9.6088Y-11.5676
X9.6088Y-11.6676
X9.6088Y-11.7676
X9.6088Y-11.8676
X9.6088Y-11.9676
X9.6088Y-12.0676
X9.6088Y-12.1676
X9.6088Y-12.2676
X9.6088Y-12.3676
X9.6088Y-12.4676
X9.6088Y-12.5676
X9.6088Y-12.6676
X9.6088Y-12.7676
X9.6088Y-12.8676
X9.6088Y-12.9676
X9.6088Y-13.0676
X9.6607Y-3.7263
X9.6607Y-3.8247
X9.6753Y-3.0582
X9.6753Y-3.4582
X9.6962Y-5.3602
X9.6962Y-5.557
X9.7257Y-8.0369
X9.7415Y-1.8527
X9.7415Y-2.2527
X9.746Y-4.0643
X9.746Y-4.4643
X9.7954Y-3.0582
X9.7954Y-3.4519
X9.8178Y-8.2123
X9.8178Y-8.3123
X9.8178Y-8.4123
X9.8178Y-8.5123
X9.8178Y-8.6123
X9.8178Y-8.7123
X9.8178Y-8.8123
X9.8639Y-1.8531
X9.8639Y-2.2531
X9.873Y-3.9633
X9.873Y-4.0633
X9.873Y-4.1633
X9.873Y-4.2633
X9.873Y-4.3633
X9.873Y-4.4633
X9.8789Y-5.6405
X9.8789Y-5.8113
X9.8985Y-6.0369
X9.8985Y-6.1369
X9.8985Y-6.2369
X9.8985Y-6.3369
X9.8985Y-6.4369
X9.8985Y-6.5369
X9.8985Y-6.6369
X9.8985Y-6.9609
X9.8985Y-7.0609
X9.8985Y-7.1609
X9.8985Y-7.2609
X9.8985Y-7.3609
X9.8985Y-7.4609
X9.8985Y-7.5609
X9.918Y-3.058
X9.918Y-3.4517
X9.9854Y-1.8531
X9.9854Y-2.2468
X9.997Y-3.6279
X9.997Y-3.8247
X10.0233Y-2.7153
X10.0233Y-2.8389
X10.0249Y-2.5826
X10.0261Y-2.4629
X10.0409Y-3.058
X10.0409Y-3.4517
X10.0419Y-4.9613
X10.0419Y-5.3613
X10.1167Y-9.17
X10.1178Y-8.2123
X10.1178Y-8.3123
X10.1178Y-8.4123
X10.1178Y-8.5123
X10.1178Y-8.6123
X10.1178Y-8.7123
X10.1178Y-8.8123
X10.118Y-9.3068
X10.119Y-7.7615
X10.1194Y-8.0369
X10.1635Y-3.0582
X10.1635Y-3.4519
X10.1741Y-1.633
X10.1741Y-1.8299
X10.1985Y-6.0369
X10.1985Y-6.1369
X10.1985Y-6.2369
X10.1985Y-6.3369
X10.1985Y-6.4369
X10.1985Y-6.5369
X10.1985Y-6.6369
X10.1985Y-6.9609
X10.1985Y-7.0609
X10.1985Y-7.1609
X10.1985Y-7.2609
X10.1985Y-7.3609
X10.1985Y-7.4609
X10.1985Y-7.5609
X10.2293Y-3.7733
X10.2293Y-4.167
X10.2726Y-5.6405
X10.2726Y-5.8113
X10.2761Y-8.0369
X10.2838Y-3.0519
X10.2838Y-3.4519
X10.3198Y-9.4791
X10.3198Y-9.6759
X10.3214Y-6.9393
X10.3214Y-7.333
X10.3424Y-8.217
X10.3424Y-8.317
X10.3424Y-8.417
X10.3424Y-8.517
X10.3424Y-8.617
X10.3424Y-8.717
X10.3424Y-8.817
X10.3424Y-8.917
X10.3615Y-1.8527
X10.3615Y-2.2527
X10.3934Y-3.8677
X10.3934Y-3.9677
X10.3934Y-4.0677
X10.3934Y-4.1677
X10.3934Y-4.2677
X10.3934Y-4.3677
X10.3934Y-4.4677
X10.4021Y-3.0519
X10.4021Y-3.4519
X10.4198Y-6.6861
X10.4206Y-6.5672
X10.4233Y-2.7153
X10.4233Y-2.8389
X10.4249Y-2.5826
X10.4261Y-2.4629
X10.4474Y-6.9609
X10.4474Y-7.0609
X10.4474Y-7.1609
X10.4474Y-7.2609
X10.4474Y-7.3609
X10.4474Y-7.4609
X10.4474Y-7.5609
X10.4796Y-1.8521
X10.4796Y-2.2521
X10.5088Y-9.9676
X10.5088Y-10.0676
X10.5088Y-10.1676
X10.5088Y-10.2676
X10.5088Y-10.3676
X10.5088Y-10.4676
X10.5088Y-10.5676
X10.5088Y-10.6676
X10.5088Y-10.7676
X10.5088Y-10.8676
X10.5088Y-10.9676
X10.5088Y-11.0676
X10.5088Y-11.1676
X10.5088Y-11.2676
X10.5088Y-11.3676
X10.5088Y-11.4676
X10.5088Y-11.5676
X10.5088Y-11.6676
X10.5088Y-11.7676
X10.5088Y-11.8676
X10.5088Y-11.9676
X10.5088Y-12.0676
X10.5088Y-12.1676
X10.5088Y-12.2676
X10.5088Y-12.3676
X10.5088Y-12.4676
X10.5088Y-12.5676
X10.5088Y-12.6676
X10.5088Y-12.7676
X10.5088Y-12.8676
X10.5088Y-12.9676
X10.5088Y-13.0676
X10.5127Y-7.7615
X10.5167Y-9.17
X10.518Y-9.3068
X10.523Y-3.0584
X10.523Y-3.4521
X10.5694Y-8.222
X10.5694Y-8.822
X10.5954Y-6.4078
X10.6003Y-1.8531
X10.6003Y-2.2468
X10.6222Y-3.6192
X10.6375Y-2.4606
X10.6375Y-2.6574
X10.6432Y-3.0525
X10.6432Y-3.4525
X10.6698Y-8.0369
X10.6934Y-3.8677
X10.6934Y-3.9677
X10.6934Y-4.0677
X10.6934Y-4.1677
X10.6934Y-4.2677
X10.6934Y-4.3677
X10.6934Y-4.4677
X10.7033Y-5.6381
X10.7033Y-6.2381
X10.7474Y-6.9609
X10.7474Y-7.0609
X10.7474Y-7.1609
X10.7474Y-7.2609
X10.7474Y-7.3609
X10.7474Y-7.4609
X10.7474Y-7.5609
X10.7635Y-3.059
X10.7635Y-3.4527
X10.795Y-10.2826
X10.795Y-10.3826
X10.795Y-10.4826
X10.795Y-10.5826
X10.795Y-10.6826
X10.795Y-10.7826
X10.795Y-10.8826
X10.795Y-10.9826
X10.795Y-11.0826
X10.795Y-11.1826
X10.795Y-11.7771
X10.795Y-11.8771
X10.795Y-11.9771
X10.795Y-12.0771
X10.795Y-12.1771
X10.795Y-12.2771
X10.795Y-12.3771
X10.795Y-12.4771
X10.795Y-12.5771
X10.795Y-12.6771
X10.8033Y-5.6381
X10.8033Y-6.2381
X10.8198Y-6.6861
X10.8206Y-6.5672
X10.8694Y-8.222
X10.8694Y-8.822
X10.8836Y-3.0523
X10.8836Y-3.4523
X10.8936Y-3.8665
X10.8936Y-4.2665
X10.9033Y-5.6381
X10.9033Y-6.2381
X10.9269Y-6.8613
X10.9269Y-7.255
X10.934Y-2.3003
X10.934Y-2.4972
X10.9434Y-10.5775
X10.9434Y-10.9775
X10.9907Y-9.3779
X10.9907Y-9.7716
X10.9954Y-6.4078
X10.9985Y-7.4834
X10.9985Y-7.6834
X11.0017Y-3.0523
X11.0017Y-3.4523
X11.0033Y-5.6381
X11.0033Y-6.2381
X11.0159Y-3.6192
X11.0462Y-3.8677
X11.0462Y-3.9677
X11.0462Y-4.0677
X11.0462Y-4.1677
X11.0462Y-4.2677
X11.0462Y-4.3677
X11.0462Y-4.4677
X11.0659Y-6.8621
X11.0659Y-7.2558
X11.0737Y-8.3649
X11.0737Y-8.7649
X11.0763Y-2.8295
X11.0769Y-2.5932
X11.0769Y-2.7114
X11.0962Y-10.5775
X11.0962Y-10.9775
X11.1033Y-5.6381
X11.1033Y-6.2381
X11.1218Y-3.0586
X11.1218Y-3.4523
X11.1273Y-6.5672
X11.1273Y-6.6861
X11.1769Y-2.9381
X11.2033Y-5.6381
X11.2033Y-6.2381
X11.217Y-12.7031
X11.217Y-13.1031
X11.2207Y-5.0516
X11.2438Y-3.0586
X11.2438Y-3.4523
X11.2718Y-6.8704
X11.2718Y-6.9704
X11.2718Y-7.0704
X11.2718Y-7.1704
X11.2718Y-7.2704
X11.2718Y-7.3704
X11.2718Y-7.4704
X11.2718Y-7.5704
X11.292Y-8.2606
X11.292Y-8.3606
X11.292Y-8.4606
X11.292Y-8.5606
X11.292Y-8.6606
X11.292Y-8.7606
X11.292Y-8.8606
X11.292Y-8.9606
X11.292Y-9.0606
X11.292Y-9.1606
X11.292Y-9.2606
X11.3033Y-5.6381
X11.3033Y-6.2381
X11.3462Y-3.8677
X11.3462Y-3.9677
X11.3462Y-4.0677
X11.3462Y-4.1677
X11.3462Y-4.2677
X11.3462Y-4.3677
X11.3462Y-4.4677
X11.3667Y-3.059
X11.3667Y-3.4527
X11.392Y-8.1606
X11.392Y-8.2606
X11.392Y-8.3606
X11.392Y-8.4606
X11.392Y-8.5606
X11.392Y-8.6606
X11.392Y-8.7606
X11.392Y-8.8606
X11.392Y-8.9606
X11.392Y-9.0606
X11.392Y-9.1606
X11.392Y-9.2606
X11.392Y-9.3606
X11.4033Y-5.6381
X11.4033Y-6.2381
X11.4088Y-6.8704
X11.4088Y-6.9704
X11.4088Y-7.0704
X11.4088Y-7.1704
X11.4088Y-7.2704
X11.4088Y-7.3704
X11.4088Y-7.4704
X11.4088Y-7.5704
X11.4763Y-2.8295
X11.4769Y-2.5932
X11.4769Y-2.7114
X11.4769Y-2.9381
X11.4867Y-3.0527
X11.4867Y-3.4527
X11.492Y-8.1606
X11.492Y-8.2606
X11.492Y-9.2606
X11.492Y-9.3606
X11.5033Y-5.6381
X11.5033Y-6.2381
X11.519Y-4.0684
X11.519Y-4.4621
X11.5273Y-6.5672
X11.5273Y-6.6861
X11.592Y-8.1606
X11.592Y-8.2606
X11.592Y-9.2606
X11.592Y-9.3606
X11.6033Y-5.6381
X11.6033Y-6.2381
X11.6052Y-2.4854
X11.606Y-3.0525
X11.606Y-3.4525
X11.6207Y-5.0516
X11.6401Y-4.0629
X11.6401Y-4.4629
X11.692Y-8.1606
X11.692Y-8.2606
X11.692Y-9.2606
X11.692Y-9.3606
X11.7033Y-5.6381
X11.7033Y-6.2381
X11.7241Y-3.0527
X11.7241Y-3.4527
X11.7485Y-6.7637
X11.7485Y-6.8637
X11.7485Y-6.9637
X11.7485Y-7.0637
X11.7485Y-7.1637
X11.7485Y-7.2637
X11.7485Y-7.3637
X11.7584Y-4.0633
X11.7584Y-4.4633
X11.792Y-8.1606
X11.792Y-8.2606
X11.792Y-9.2606
X11.792Y-9.3606
X11.8033Y-5.6381
X11.8033Y-6.2381
X11.8247Y-10.3757
X11.8247Y-10.4757
X11.8247Y-10.5757
X11.8247Y-10.6757
X11.8247Y-10.7757
X11.8247Y-10.8757
X11.8247Y-10.9757
X11.8247Y-11.0757
X11.8247Y-11.1757
X11.8247Y-11.2757
X11.8247Y-11.3757
X11.8247Y-11.4757
X11.8247Y-11.5757
X11.8247Y-11.6757
X11.8247Y-11.7757
X11.8247Y-11.8757
X11.8247Y-11.9757
X11.8247Y-12.0757
X11.8247Y-12.1757
X11.8247Y-12.2757
X11.8426Y-3.0523
X11.8426Y-3.4523
X11.8771Y-4.0635
X11.8771Y-4.4635
X11.892Y-8.1606
X11.892Y-8.2606
X11.892Y-9.2606
X11.892Y-9.3606
X11.9033Y-5.6381
X11.9033Y-6.2381
X11.9619Y-13.4724
X11.9619Y-13.8724
X11.9639Y-3.0515
X11.9639Y-3.4452
X11.992Y-8.1606
X11.992Y-8.2606
X11.992Y-9.2606
X11.992Y-9.3606
X11.9952Y-4.0635
X11.9952Y-4.4635
X11.9989Y-2.4854
X12.0033Y-5.6381
X12.0033Y-6.2381
X12.0485Y-6.7637
X12.0485Y-6.8637
X12.0485Y-6.9637
X12.0485Y-7.0637
X12.0485Y-7.1637
X12.0485Y-7.2637
X12.0485Y-7.3637
X12.092Y-8.1606
X12.092Y-8.2606
X12.092Y-9.2606
X12.092Y-9.3606
X12.1033Y-5.6381
X12.1033Y-6.2381
X12.1147Y-4.0629
X12.1147Y-4.4629
X12.1155Y-13.4724
X12.1155Y-13.8661
X12.1678Y-2.483
X12.192Y-8.1606
X12.192Y-8.2606
X12.192Y-9.2606
X12.192Y-9.3606
X12.2033Y-5.6381
X12.2033Y-6.2381
X12.2419Y-13.4724
X12.2419Y-13.8661
X12.292Y-8.1606
X12.292Y-8.2606
X12.292Y-9.2606
X12.292Y-9.3606
X12.3013Y-6.742
X12.3013Y-7.1357
X12.3033Y-5.6381
X12.3033Y-6.2381
X12.3907Y-13.4724
X12.3907Y-13.8724
X12.392Y-8.1606
X12.392Y-8.2606
X12.392Y-8.3606
X12.392Y-8.4606
X12.392Y-8.5606
X12.392Y-8.6606
X12.392Y-8.7606
X12.392Y-8.8606
X12.392Y-8.9606
X12.392Y-9.0606
X12.392Y-9.1606
X12.392Y-9.2606
X12.392Y-9.3606
X12.4033Y-5.6381
X12.4033Y-6.2381
X12.4202Y-12.4826
X12.4247Y-10.3757
X12.4247Y-10.4757
X12.4247Y-10.5757
X12.4247Y-10.6757
X12.4247Y-10.7757
X12.4247Y-10.8757
X12.4247Y-10.9757
X12.4247Y-11.0757
X12.4247Y-11.1757
X12.4247Y-11.2757
X12.4247Y-11.3757
X12.4247Y-11.4757
X12.4247Y-11.5757
X12.4247Y-11.6757
X12.4247Y-11.7757
X12.4247Y-11.8757
X12.4247Y-11.9757
X12.4247Y-12.0757
X12.4247Y-12.1757
X12.4247Y-12.2757
X12.492Y-8.2606
X12.492Y-8.3606
X12.492Y-8.4606
X12.492Y-8.5606
X12.492Y-8.6606
X12.492Y-8.7606
X12.492Y-8.8606
X12.492Y-8.9606
X12.492Y-9.0606
X12.492Y-9.1606
X12.492Y-9.2606
X12.5033Y-5.6381
X12.5033Y-6.2381
X12.5415Y-13.4724
X12.5415Y-13.8724
X12.5568Y-6.5109
X12.5615Y-2.483
X12.5777Y-7.3472
X12.5777Y-7.7409
X12.6033Y-5.6381
X12.6033Y-6.2381
X12.6348Y-4.8625
X12.6544Y-2.7891
X12.6544Y-2.8891
X12.6544Y-2.9891
X12.6544Y-3.0891
X12.6544Y-3.1891
X12.6544Y-3.2891
X12.6544Y-3.3891
X12.6544Y-3.4891
X12.6544Y-3.5891
X12.6544Y-3.6891
X12.6544Y-3.7891
X12.6544Y-3.8891
X12.6544Y-3.9891
X12.6544Y-4.0891
X12.6544Y-4.1891
X12.6544Y-4.2891
X12.6544Y-4.3891
X12.6544Y-4.4891
X12.6544Y-4.5891
X12.6544Y-4.6891
X12.6667Y-7.9369
X12.6958Y-13.4724
X12.6958Y-13.8661
X12.7033Y-5.6381
X12.7033Y-6.2381
X12.7651Y-7.9369
X12.8033Y-5.6381
X12.8033Y-6.2381
X12.8119Y-2.485
X12.8139Y-12.4826
X12.9033Y-5.6381
X12.9033Y-6.2381
X12.9505Y-6.5109
X13.0033Y-5.6381
X13.0033Y-6.2381
X13.0285Y-4.8625
X13.0556Y-13.9318
X13.0556Y-14.3255
X13.1954Y-13.9334
X13.1954Y-14.3334
X13.2056Y-2.485
X13.2544Y-2.7891
X13.2544Y-2.8891
X13.2544Y-2.9891
X13.2544Y-3.0891
X13.2544Y-3.1891
X13.2544Y-3.2891
X13.2544Y-3.3891
X13.2544Y-3.4891
X13.2544Y-3.5891
X13.2544Y-3.6891
X13.2544Y-3.7891
X13.2544Y-3.8891
X13.2544Y-3.9891
X13.2544Y-4.0891
X13.2544Y-4.1891
X13.2544Y-4.2891
X13.2544Y-4.3891
X13.2544Y-4.4891
X13.2544Y-4.5891
X13.2544Y-4.6891
X13.2686Y-9.7054
X13.2686Y-10.0991
X13.2718Y-10.6078
X13.2718Y-10.7078
X13.2718Y-10.8078
X13.2718Y-10.9078
X13.2718Y-11.0078
X13.2718Y-11.1078
X13.2718Y-11.2078
X13.2718Y-11.3078
X13.2718Y-11.4078
X13.2718Y-11.5078
X13.2718Y-11.7031
X13.2718Y-11.8031
X13.2718Y-11.9031
X13.2718Y-12.0031
X13.2718Y-12.1031
X13.2718Y-12.2031
X13.2718Y-12.3031
X13.2718Y-12.4031
X13.2718Y-12.5031
X13.2718Y-12.6031
X13.3623Y-13.9393
X13.3623Y-14.333
X13.4702Y-1.8499
X13.4702Y-2.2436
X13.5021Y-2.918
X13.5021Y-3.3117
X13.5718Y-10.6078
X13.5718Y-10.7078
X13.5718Y-10.8078
X13.5718Y-10.9078
X13.5718Y-11.0078
X13.5718Y-11.1078
X13.5718Y-11.2078
X13.5718Y-11.3078
X13.5718Y-11.4078
X13.5718Y-11.5078
X13.5718Y-11.7031
X13.5718Y-11.8031
X13.5718Y-11.9031
X13.5718Y-12.0031
X13.5718Y-12.1031
X13.5718Y-12.2031
X13.5718Y-12.3031
X13.5718Y-12.4031
X13.5718Y-12.5031
X13.5718Y-12.6031
X13.7174Y-11.7035
X13.7174Y-12.0972
X13.7194Y-10.5863
X13.7194Y-10.98
X13.7273Y-2.92
X13.7273Y-3.3137
X13.7407Y-5.6416
X13.7407Y-6.0416
X13.865Y-5.6431
X13.865Y-6.0369
X13.8706Y-10.6117
X13.8706Y-10.7117
X13.8706Y-10.8117
X13.8706Y-10.9117
X13.8706Y-11.0117
X13.8706Y-11.1117
X13.8706Y-11.2117
X13.8706Y-11.3117
X13.8706Y-11.4117
X13.8706Y-11.5117
X13.8706Y-11.707
X13.8706Y-11.807
X13.8706Y-11.907
X13.8706Y-12.007
X13.8706Y-12.107
X13.8706Y-12.207
X13.8706Y-12.307
X13.8706Y-12.407
X13.8706Y-12.507
X13.8706Y-12.607
X14.0714Y-8.4873
X14.0714Y-8.5873
X14.0714Y-8.6873
X14.0714Y-8.7873
X14.0714Y-8.8873
X14.0714Y-8.9873
X14.0714Y-9.0873
X14.0714Y-9.1873
X14.0714Y-9.2873
X14.0714Y-9.3873
X14.1415Y-4.8645
X14.1611Y-2.7913
X14.1611Y-2.8913
X14.1611Y-2.9913
X14.1611Y-3.0913
X14.1611Y-3.1913
X14.1611Y-3.2913
X14.1611Y-3.3913
X14.1611Y-3.4913
X14.1611Y-3.5913
X14.1611Y-3.6913
X14.1611Y-3.7913
X14.1611Y-3.8913
X14.1611Y-3.9913
X14.1611Y-4.0913
X14.1611Y-4.1913
X14.1611Y-4.2913
X14.1611Y-4.3913
X14.1611Y-4.4913
X14.1611Y-4.5913
X14.1611Y-4.6913
X14.3714Y-8.4873
X14.3714Y-8.5873
X14.3714Y-8.6873
X14.3714Y-8.7873
X14.3714Y-8.8873
X14.3714Y-8.9873
X14.3714Y-9.0873
X14.3714Y-9.1873
X14.3714Y-9.2873
X14.3714Y-9.3873
X14.4265Y-11.1814
X14.4265Y-11.2814
X14.4265Y-11.3814
X14.4265Y-11.4814
X14.4265Y-11.5814
X14.4265Y-11.6814
X14.4265Y-11.7814
X14.4265Y-11.8814
X14.4265Y-11.9814
X14.4265Y-12.0814
X14.4828Y-5.792
X14.4828Y-6.392
X14.4828Y-6.9192
X14.4828Y-7.5192
X14.5249Y-8.4879
X14.5249Y-8.8816
X14.5352Y-4.8645
X14.5828Y-5.792
X14.5828Y-6.392
X14.5828Y-6.9192
X14.5828Y-7.5192
X14.6493Y-10.9806
X14.6529Y-9.6924
X14.6828Y-5.792
X14.6828Y-6.392
X14.6828Y-6.9192
X14.6828Y-7.5192
X14.7241Y-11.1779
X14.7241Y-11.2779
X14.7241Y-11.3779
X14.7241Y-11.4779
X14.7241Y-11.5779
X14.7241Y-11.6779
X14.7241Y-11.7779
X14.7241Y-11.8779
X14.7241Y-11.9779
X14.7241Y-12.0779
X14.7277Y-9.9058
X14.7277Y-10.0058
X14.7277Y-10.1058
X14.7277Y-10.2058
X14.7277Y-10.3058
X14.7277Y-10.4058
X14.7277Y-10.5058
X14.7277Y-10.6058
X14.7277Y-10.7058
X14.7277Y-10.8058
X14.7611Y-2.7913
X14.7611Y-2.8913
X14.7611Y-2.9913
X14.7611Y-3.0913
X14.7611Y-3.1913
X14.7611Y-3.2913
X14.7611Y-3.3913
X14.7611Y-3.4913
X14.7611Y-3.5913
X14.7611Y-3.6913
X14.7611Y-3.7913
X14.7611Y-3.8913
X14.7611Y-3.9913
X14.7611Y-4.0913
X14.7611Y-4.1913
X14.7611Y-4.2913
X14.7611Y-4.3913
X14.7611Y-4.4913
X14.7611Y-4.5913
X14.7611Y-4.6913
X14.7785Y-8.4873
X14.7785Y-8.5873
X14.7785Y-8.6873
X14.7785Y-8.7873
X14.7785Y-8.8873
X14.7785Y-8.9873
X14.7785Y-9.0873
X14.7785Y-9.1873
X14.7785Y-9.2873
X14.7785Y-9.3873
X14.7828Y-5.792
X14.7828Y-6.392
X14.7828Y-6.9192
X14.7828Y-7.5192
X14.8828Y-5.792
X14.8828Y-6.392
X14.8828Y-6.9192
X14.8828Y-7.5192
X14.982Y-2.7952
X14.982Y-2.8952
X14.982Y-2.9952
X14.982Y-3.0952
X14.982Y-3.1952
X14.982Y-3.2952
X14.982Y-3.3952
X14.982Y-3.4952
X14.982Y-3.5952
X14.982Y-3.6952
X14.9828Y-5.792
X14.9828Y-6.392
X14.9828Y-6.9192
X14.9828Y-7.5192
X15.0241Y-11.1779
X15.0241Y-11.2779
X15.0241Y-11.3779
X15.0241Y-11.4779
X15.0241Y-11.5779
X15.0241Y-11.6779
X15.0241Y-11.7779
X15.0241Y-11.8779
X15.0241Y-11.9779
X15.0241Y-12.0779
X15.0277Y-9.9058
X15.0277Y-10.0058
X15.0277Y-10.1058
X15.0277Y-10.2058
X15.0277Y-10.3058
X15.0277Y-10.4058
X15.0277Y-10.5058
X15.0277Y-10.6058
X15.0277Y-10.7058
X15.0277Y-10.8058
X15.043Y-10.9806
X15.0466Y-9.6924
X15.0785Y-8.4873
X15.0785Y-8.5873
X15.0785Y-8.6873
X15.0785Y-8.7873
X15.0785Y-8.8873
X15.0785Y-8.9873
X15.0785Y-9.0873
X15.0785Y-9.1873
X15.0785Y-9.2873
X15.0785Y-9.3873
X15.0828Y-5.792
X15.0828Y-6.392
X15.0828Y-6.9192
X15.0828Y-7.5192
X15.1456Y-2.2976
X15.1456Y-2.6976
X15.1828Y-5.792
X15.1828Y-6.392
X15.1828Y-6.9192
X15.1828Y-7.5192
X15.2293Y-8.4879
X15.2293Y-8.8816
X15.2548Y-10.9806
X15.2552Y-9.6924
X15.2828Y-5.792
X15.2828Y-6.392
X15.2828Y-6.9192
X15.2828Y-7.5192
X15.2922Y-2.5706
X15.3123Y-2.7913
X15.3123Y-2.8913
X15.3123Y-2.9913
X15.3123Y-3.0913
X15.3123Y-3.1913
X15.3123Y-3.2913
X15.3123Y-3.3913
X15.3123Y-3.4913
X15.3123Y-3.5913
X15.3123Y-3.6913
X15.3228Y-4.0903
X15.3228Y-4.4903
X15.3296Y-11.1779
X15.3296Y-11.2779
X15.3296Y-11.3779
X15.3296Y-11.4779
X15.3296Y-11.5779
X15.3296Y-11.6779
X15.3296Y-11.7779
X15.3296Y-11.8779
X15.3296Y-11.9779
X15.3296Y-12.0779
X15.33Y-9.9058
X15.33Y-10.0058
X15.33Y-10.1058
X15.33Y-10.2058
X15.33Y-10.3058
X15.33Y-10.4058
X15.33Y-10.5058
X15.33Y-10.6058
X15.33Y-10.7058
X15.33Y-10.8058
X15.3464Y-7.6901
X15.3828Y-5.792
X15.3828Y-6.392
X15.3828Y-6.9192
X15.3828Y-7.5192
X15.4769Y-2.3641
X15.4828Y-5.792
X15.4828Y-6.392
X15.4828Y-6.9192
X15.4828Y-7.5192
X15.5544Y-8.4873
X15.5544Y-8.5873
X15.5544Y-8.6873
X15.5544Y-8.7873
X15.5544Y-8.8873
X15.5544Y-8.9873
X15.5544Y-9.0873
X15.5544Y-9.1873
X15.5544Y-9.2873
X15.5544Y-9.3873
X15.5828Y-5.792
X15.5828Y-6.392
X15.5828Y-6.9192
X15.5828Y-7.5192
X15.6123Y-2.7913
X15.6123Y-2.8913
X15.6123Y-2.9913
X15.6123Y-3.0913
X15.6123Y-3.1913
X15.6123Y-3.2913
X15.6123Y-3.3913
X15.6123Y-3.4913
X15.6123Y-3.5913
X15.6123Y-3.6913
X15.6296Y-11.1779
X15.6296Y-11.2779
X15.6296Y-11.3779
X15.6296Y-11.4779
X15.6296Y-11.5779
X15.6296Y-11.6779
X15.6296Y-11.7779
X15.6296Y-11.8779
X15.6296Y-11.9779
X15.6296Y-12.0779
X15.63Y-9.9058
X15.63Y-10.0058
X15.63Y-10.1058
X15.63Y-10.2058
X15.63Y-10.3058
X15.63Y-10.4058
X15.63Y-10.5058
X15.63Y-10.6058
X15.63Y-10.7058
X15.63Y-10.8058
X15.6485Y-10.9806
X15.6489Y-9.6924
X15.6828Y-5.792
X15.6828Y-6.392
X15.6828Y-6.9192
X15.6828Y-7.5192
X15.6859Y-2.5706
X15.7359Y-4.4885
X15.7359Y-4.8885
X15.7395Y-3.1869
X15.7395Y-3.2869
X15.7395Y-3.3869
X15.7395Y-3.4869
X15.7395Y-3.5869
X15.7395Y-3.6869
X15.7401Y-7.6901
X15.7828Y-5.792
X15.7828Y-6.392
X15.7828Y-6.9192
X15.7828Y-7.5192
X15.7875Y-1.557
X15.7875Y-1.9507
X15.8371Y-2.5684
X15.8533Y-10.9806
X15.8544Y-8.4873
X15.8544Y-8.5873
X15.8544Y-8.6873
X15.8544Y-8.7873
X15.8544Y-8.8873
X15.8544Y-8.9873
X15.8544Y-9.0873
X15.8544Y-9.1873
X15.8544Y-9.2873
X15.8544Y-9.3873
X15.8548Y-9.6924
X15.8706Y-2.3641
X15.8828Y-5.792
X15.8828Y-6.392
X15.8828Y-6.9192
X15.8828Y-7.5192
X15.9281Y-11.1779
X15.9281Y-11.2779
X15.9281Y-11.3779
X15.9281Y-11.4779
X15.9281Y-11.5779
X15.9281Y-11.6779
X15.9281Y-11.7779
X15.9281Y-11.8779
X15.9281Y-11.9779
X15.9281Y-12.0779
X15.9296Y-9.9058
X15.9296Y-10.0058
X15.9296Y-10.1058
X15.9296Y-10.2058
X15.9296Y-10.3058
X15.9296Y-10.4058
X15.9296Y-10.5058
X15.9296Y-10.6058
X15.9296Y-10.7058
X15.9296Y-10.8058
X15.93Y-2.7913
X15.93Y-2.8913
X15.93Y-2.9913
X15.93Y-3.0913
X15.93Y-3.1913
X15.93Y-3.2913
X15.93Y-3.3913
X15.93Y-3.4913
X15.93Y-3.5913
X15.93Y-3.6913
X15.9828Y-5.792
X15.9828Y-6.392
X15.9828Y-6.9192
X15.9828Y-7.5192
X16.0068Y-8.4879
X16.0068Y-8.8816
X16.0419Y-2.1995
X16.0828Y-5.792
X16.0828Y-6.392
X16.0828Y-6.9192
X16.0828Y-7.5192
X16.0856Y-6.7129
X16.1828Y-5.792
X16.1828Y-6.392
X16.1828Y-6.9192
X16.1828Y-7.5192
X16.1856Y-6.7129
X16.2281Y-11.1779
X16.2281Y-11.2779
X16.2281Y-11.3779
X16.2281Y-11.4779
X16.2281Y-11.5779
X16.2281Y-11.6779
X16.2281Y-11.7779
X16.2281Y-11.8779
X16.2281Y-11.9779
X16.2281Y-12.0779
X16.2296Y-9.9058
X16.2296Y-10.0058
X16.2296Y-10.1058
X16.2296Y-10.2058
X16.2296Y-10.3058
X16.2296Y-10.4058
X16.2296Y-10.5058
X16.2296Y-10.6058
X16.2296Y-10.7058
X16.2296Y-10.8058
X16.23Y-2.7913
X16.23Y-2.8913
X16.23Y-2.9913
X16.23Y-3.0913
X16.23Y-3.1913
X16.23Y-3.2913
X16.23Y-3.3913
X16.23Y-3.4913
X16.23Y-3.5913
X16.23Y-3.6913
X16.2308Y-2.5684
X16.247Y-10.9806
X16.2485Y-9.6924
X16.2824Y-7.6897
X16.2828Y-5.792
X16.2828Y-6.392
X16.2828Y-6.9192
X16.2828Y-7.5192
X16.2856Y-6.7129
X16.3312Y-8.4873
X16.3312Y-8.5873
X16.3312Y-8.6873
X16.3312Y-8.7873
X16.3312Y-8.8873
X16.3312Y-8.9873
X16.3312Y-9.0873
X16.3312Y-9.1873
X16.3312Y-9.2873
X16.3312Y-9.3873
X16.3824Y-7.6897
X16.3828Y-5.792
X16.3828Y-6.392
X16.3828Y-6.9192
X16.3828Y-7.5192
X16.3856Y-6.7129
X16.4356Y-2.1995
X16.4489Y-1.9098
X16.4525Y-9.6924
X16.4541Y-10.9806
X16.4623Y-1.757
X16.4623Y-2.0614
X16.4824Y-7.6897
X16.4828Y-5.792
X16.4828Y-6.392
X16.4828Y-6.9192
X16.4828Y-7.5192
X16.4856Y-6.7129
X16.4891Y-2.7952
X16.4891Y-2.8952
X16.4891Y-2.9952
X16.4891Y-3.0952
X16.4891Y-3.1952
X16.4891Y-3.2952
X16.4891Y-3.3952
X16.4891Y-3.4952
X16.5273Y-9.9058
X16.5273Y-10.0058
X16.5273Y-10.1058
X16.5273Y-10.2058
X16.5273Y-10.3058
X16.5273Y-10.4058
X16.5273Y-10.5058
X16.5273Y-10.6058
X16.5273Y-10.7058
X16.5273Y-10.8058
X16.5289Y-11.1779
X16.5289Y-11.2779
X16.5289Y-11.3779
X16.5289Y-11.4779
X16.5289Y-11.5779
X16.5289Y-11.6779
X16.5289Y-11.7779
X16.5289Y-11.8779
X16.5289Y-11.9779
X16.5289Y-12.0779
X16.556Y-2.2015
X16.5816Y-4.9938
X16.5824Y-7.6897
X16.5828Y-5.792
X16.5828Y-6.392
X16.5828Y-6.9192
X16.5828Y-7.5192
X16.5856Y-6.7129
X16.5964Y-13.3127
X16.5964Y-13.4127
X16.5964Y-13.5127
X16.5964Y-13.6127
X16.5964Y-13.7127
X16.5964Y-13.8127
X16.5964Y-13.9127
X16.5964Y-14.0127
X16.5964Y-14.1127
X16.5964Y-14.2127
X16.6312Y-8.4873
X16.6312Y-8.5873
X16.6312Y-8.6873
X16.6312Y-8.7873
X16.6312Y-8.8873
X16.6312Y-8.9873
X16.6312Y-9.0873
X16.6312Y-9.1873
X16.6312Y-9.2873
X16.6312Y-9.3873
X16.6489Y-1.9098
X16.6623Y-1.757
X16.6623Y-2.0614
X16.6824Y-7.6897
X16.6828Y-5.792
X16.6828Y-6.392
X16.6828Y-6.9192
X16.6828Y-7.5192
X16.7706Y-1.9098
X16.7714Y-13.1932
X16.7755Y-13.3137
X16.7824Y-7.6897
X16.7828Y-5.792
X16.7828Y-6.392
X16.7828Y-6.9192
X16.7828Y-7.5192
X16.7834Y-8.4879
X16.7834Y-8.8816
X16.784Y-1.7586
X16.784Y-2.0614
X16.7952Y-13.5155
X16.7952Y-13.6155
X16.7952Y-13.7155
X16.7952Y-13.8155
X16.7952Y-13.9155
X16.7952Y-14.0155
X16.7952Y-14.1155
X16.7952Y-14.2155
X16.8273Y-9.9058
X16.8273Y-10.0058
X16.8273Y-10.1058
X16.8273Y-10.2058
X16.8273Y-10.3058
X16.8273Y-10.4058
X16.8273Y-10.5058
X16.8273Y-10.6058
X16.8273Y-10.7058
X16.8273Y-10.8058
X16.8289Y-11.1779
X16.8289Y-11.2779
X16.8289Y-11.3779
X16.8289Y-11.4779
X16.8289Y-11.5779
X16.8289Y-11.6779
X16.8289Y-11.7779
X16.8289Y-11.8779
X16.8289Y-11.9779
X16.8289Y-12.0779
X16.8462Y-9.6924
X16.8478Y-10.9806
X16.9497Y-2.2015
X16.9509Y-9.2814
X16.9509Y-9.4783
X16.9625Y-3.3708
X16.9625Y-3.4708
X16.9625Y-3.5708
X16.9625Y-3.6708
X16.9625Y-3.7708
X16.9625Y-3.8708
X16.9625Y-3.9708
X16.9625Y-4.0708
X16.9706Y-1.9098
X16.9753Y-4.9938
X16.984Y-1.7586
X16.984Y-2.0614
X17.0639Y-2.1995
X17.0952Y-13.5155
X17.0952Y-13.6155
X17.0952Y-13.7155
X17.0952Y-13.8155
X17.0952Y-13.9155
X17.0952Y-14.0155
X17.0952Y-14.1155
X17.0952Y-14.2155
X17.1013Y-1.909
X17.1147Y-1.7586
X17.1147Y-2.0621
X17.1273Y-9.9094
X17.1273Y-10.0094
X17.1273Y-10.1094
X17.1273Y-10.2094
X17.1273Y-10.3094
X17.1273Y-10.4094
X17.1273Y-10.5094
X17.1273Y-10.6094
X17.1273Y-10.7094
X17.1273Y-10.8094
X17.1338Y-3.1877
X17.1338Y-3.5814
X17.1592Y-7.3932
X17.1592Y-7.7869
X17.1692Y-13.3137
X17.1714Y-13.1932
X17.2816Y-7.3932
X17.2816Y-7.7869
X17.2913Y-13.5194
X17.2913Y-13.6194
X17.2913Y-13.7194
X17.2913Y-13.8194
X17.2913Y-13.9194
X17.2913Y-14.0194
X17.2913Y-14.1194
X17.2913Y-14.2194
X17.3013Y-1.909
X17.3147Y-1.7586
X17.3147Y-2.0621
X17.4037Y-7.3932
X17.4037Y-7.7869
X17.4576Y-2.1995
X17.458Y-1.8803
X17.458Y-2.0803
X17.4704Y-13.5194
X17.4704Y-13.6194
X17.4704Y-13.7194
X17.4704Y-13.8194
X17.4704Y-13.9194
X17.4704Y-14.0194
X17.5265Y-7.3928
X17.5265Y-7.7865
T6
X6.7381Y-13.9554
X6.7381Y-14.1523
T7
X2.1485Y-13.8078
X2.1485Y-13.9078
X2.1485Y-14.0078
X2.3848Y-13.2184
X2.4848Y-13.2184
X2.5848Y-13.2184
X2.9044Y-13.2157
X3.0044Y-13.2157
X3.1044Y-13.2157
X7.984Y-2.2812
X7.984Y-2.3812
X8.0096Y-1.5574
X8.0107Y-1.7598
X8.0107Y-1.8598
X8.0107Y-1.9598
X8.0641Y-1.4456
X8.084Y-2.2812
X8.084Y-2.3812
X8.1186Y-1.5574
X8.1434Y-1.7582
X8.1434Y-1.8582
X8.1434Y-1.9582
X8.1731Y-1.4456
X8.184Y-2.2812
X8.184Y-2.3812
X8.2277Y-1.5574
X8.2822Y-1.4456
X8.284Y-2.2812
X8.284Y-2.3812
X8.2962Y-1.7598
X8.2962Y-1.8598
X8.2962Y-1.9598
X8.3367Y-1.5574
X8.384Y-2.2812
X8.384Y-2.3812
X8.3913Y-1.4456
X8.4458Y-1.5574
X8.4474Y-1.7582
X8.4474Y-1.8582
X8.4474Y-1.9582
X8.4619Y-9.6661
X8.4619Y-9.7661
X8.484Y-2.2812
X8.484Y-2.3812
X8.5003Y-1.4456
X8.5548Y-1.5574
X8.584Y-2.2812
X8.584Y-2.3812
X8.5954Y-1.7582
X8.5954Y-1.8582
X8.5954Y-1.9582
X8.6094Y-1.4456
X8.6639Y-1.5574
X8.684Y-2.2812
X8.684Y-2.3812
X8.7184Y-1.4456
X8.7419Y-1.7582
X8.7419Y-1.8582
X8.7419Y-1.9582
X8.773Y-1.5574
X8.784Y-2.2812
X8.784Y-2.3812
X8.8275Y-1.4456
X8.882Y-1.5574
X8.884Y-2.2812
X8.884Y-2.3812
X8.8911Y-1.7582
X8.8911Y-1.8582
X8.8911Y-1.9582
X8.9365Y-1.4456
X8.984Y-2.2812
X8.984Y-2.3812
X8.9911Y-1.5574
X9.0456Y-1.4456
X9.0462Y-1.7582
X9.0462Y-1.8582
X9.0462Y-1.9582
X9.084Y-2.2812
X9.084Y-2.3812
X9.1001Y-1.5574
X9.1546Y-1.4456
X9.184Y-2.2812
X9.184Y-2.3812
X9.1942Y-1.7582
X9.1942Y-1.8582
X9.1942Y-1.9582
X9.2092Y-1.5574
X9.2611Y-2.8901
X9.2611Y-2.9901
X9.2611Y-3.0901
X9.2611Y-3.1901
X9.2611Y-3.2901
X9.2611Y-3.3901
X9.2611Y-3.4901
X9.2611Y-3.5901
X9.2611Y-3.6901
X9.2611Y-3.7901
X9.2611Y-3.8901
X9.2611Y-3.9901
X9.2611Y-4.0901
X9.2611Y-4.1901
X9.2611Y-4.2901
X9.2611Y-4.3901
X9.2611Y-4.4901
X9.2637Y-1.4456
X9.3159Y-10.6653
X9.3159Y-10.7653
X9.3159Y-10.8653
X9.3159Y-10.9653
X9.3182Y-1.5574
X9.3458Y-1.7582
X9.3458Y-1.8582
X9.3458Y-1.9582
X9.3611Y-2.8901
X9.3611Y-2.9901
X9.3611Y-3.0901
X9.3611Y-3.1901
X9.3611Y-3.2901
X9.3611Y-3.3901
X9.3611Y-3.4901
X9.3611Y-3.5901
X9.3611Y-3.6901
X9.3611Y-3.7901
X9.3611Y-3.8901
X9.3611Y-3.9901
X9.3611Y-4.0901
X9.3611Y-4.1901
X9.3611Y-4.2901
X9.3611Y-4.3901
X9.3611Y-4.4901
X9.6714Y-7.6991
X9.6714Y-7.7991
X9.6714Y-7.8991
X9.7458Y-4.7688
X9.8458Y-4.7688
X10.617Y-13.5794
X10.717Y-13.5794
X11.173Y-1.7582
X11.173Y-1.8582
X11.173Y-1.9582
X11.2466Y-6.4078
X11.2985Y-1.7582
X11.2985Y-1.8582
X11.2985Y-1.9582
X11.3466Y-6.4078
X11.4249Y-1.7582
X11.4249Y-1.8582
X11.4249Y-1.9582
X11.4741Y-13.3653
X11.4741Y-13.5621
X11.5521Y-1.7582
X11.5521Y-1.8582
X11.5521Y-1.9582
X11.6808Y-1.7582
X11.6808Y-1.8582
X11.6808Y-1.9582
X11.7615Y-1.5574
X11.8037Y-1.7582
X11.8037Y-1.8582
X11.8037Y-1.9582
X11.8161Y-1.4456
X11.8706Y-1.5574
X11.9251Y-1.4456
X11.93Y-1.7582
X11.93Y-1.8582
X11.93Y-1.9582
X11.9796Y-1.5574
X12.0342Y-1.4456
X12.0537Y-1.7582
X12.0537Y-1.8582
X12.0537Y-1.9582
X12.0887Y-1.5574
X12.1432Y-1.4456
X12.1796Y-1.7582
X12.1796Y-1.8582
X12.1796Y-1.9582
X12.1978Y-1.5574
X12.2523Y-1.4456
X12.2922Y-5.0609
X12.3068Y-1.5574
X12.3088Y-1.7582
X12.3088Y-1.8582
X12.3088Y-1.9582
X12.3613Y-1.4456
X12.3922Y-5.0609
X12.4159Y-1.5574
X12.4332Y-1.7582
X12.4332Y-1.8582
X12.4332Y-1.9582
X12.4704Y-1.4456
X12.5249Y-1.5574
X12.558Y-1.7594
X12.558Y-1.8594
X12.558Y-1.9594
X12.5794Y-1.4456
X12.634Y-1.5574
X12.6828Y-1.7582
X12.6828Y-1.8582
X12.6828Y-1.9582
X12.6885Y-1.4456
X12.743Y-1.5574
X12.7976Y-1.4456
X12.8052Y-1.7582
X12.8052Y-1.8582
X12.8052Y-1.9582
X12.8521Y-1.5574
X12.9066Y-1.4456
X12.9312Y-1.7598
X12.9312Y-1.8598
X12.9312Y-1.9598
X12.9611Y-1.5574
X13.0568Y-1.7598
X13.0568Y-1.8598
X13.0568Y-1.9598
X13.1812Y-1.7582
X13.1812Y-1.8582
X13.1812Y-1.9582
X13.308Y-1.7598
X13.308Y-1.8598
X13.308Y-1.9598
X13.6698Y-13.9617
X13.6698Y-14.0617
X13.6698Y-14.1617
X13.6757Y-1.7507
X13.6757Y-1.8507
X13.6757Y-1.9507
X13.8041Y-1.7507
X13.8041Y-1.8507
X13.8041Y-1.9507
X13.8135Y-13.9633
X13.8135Y-14.0633
X13.8135Y-14.1633
X13.8739Y-14.3649
X13.9285Y-14.4767
X13.9312Y-1.7507
X13.9312Y-1.8507
X13.9312Y-1.9507
X13.9647Y-1.5574
X13.967Y-13.9617
X13.967Y-14.0617
X13.967Y-14.1617
X13.9804Y-3.3964
X13.9804Y-3.4964
X13.9804Y-3.5964
X13.983Y-14.3649
X14.0192Y-1.4456
X14.0375Y-14.4767
X14.0541Y-1.7507
X14.0541Y-1.8507
X14.0541Y-1.9507
X14.0737Y-1.5574
X14.0761Y-6.7172
X14.0761Y-7.3172
X14.092Y-14.3649
X14.1194Y-13.9633
X14.1194Y-14.0633
X14.1194Y-14.1633
X14.1283Y-1.4456
X14.1395Y-5.8389
X14.1395Y-6.0357
X14.1466Y-14.4767
X14.1808Y-1.7507
X14.1808Y-1.8507
X14.1808Y-1.9507
X14.1828Y-1.5574
X14.2011Y-14.3649
X14.2373Y-1.4456
X14.2556Y-14.4767
X14.2678Y-13.9645
X14.2678Y-14.0645
X14.2678Y-14.1645
X14.2919Y-1.5574
X14.3064Y-1.7507
X14.3064Y-1.8507
X14.3064Y-1.9507
X14.3102Y-14.3649
X14.3464Y-1.4456
X14.4009Y-1.5574
X14.419Y-13.9617
X14.419Y-14.0617
X14.419Y-14.1617
X14.4289Y-1.7507
X14.4289Y-1.8507
X14.4289Y-1.9507
X14.4554Y-1.4456
X14.51Y-1.5574
X14.5572Y-1.7507
X14.5572Y-1.8507
X14.5572Y-1.9507
X14.5645Y-1.4456
X14.5663Y-13.9617
X14.5663Y-14.0617
X14.5663Y-14.1617
X14.619Y-1.5574
X14.6735Y-1.4456
X14.6816Y-1.7507
X14.6816Y-1.8507
X14.6816Y-1.9507
X14.7281Y-1.5574
X14.7826Y-1.4456
X14.8068Y-1.7507
X14.8068Y-1.8507
X14.8068Y-1.9507
X14.8092Y-5.1901
X14.8371Y-1.5574
X14.8917Y-1.4456
X14.9092Y-5.1901
X14.9312Y-1.7507
X14.9312Y-1.8507
X14.9312Y-1.9507
X14.9462Y-1.5574
X15.0007Y-1.4456
X15.0092Y-5.1901
X15.0552Y-1.5574
X15.0588Y-1.7507
X15.0588Y-1.8507
X15.0588Y-1.9507
X15.1098Y-1.4456
X15.1643Y-1.5574
X15.184Y-1.7507
X15.184Y-1.8507
X15.184Y-1.9507
X15.2151Y-13.9696
X15.2151Y-14.0696
X15.2151Y-14.1696
X15.2188Y-1.4456
X15.2733Y-1.5574
X15.3092Y-1.7507
X15.3092Y-1.8507
X15.3092Y-1.9507
X15.3572Y-13.9716
X15.3572Y-14.0716
X15.3572Y-14.1716
X15.4332Y-1.7507
X15.4332Y-1.8507
X15.4332Y-1.9507
X15.4783Y-14.3649
X15.5233Y-13.97
X15.5233Y-14.07
X15.5233Y-14.17
X15.5328Y-14.4767
X15.56Y-1.7507
X15.56Y-1.8507
X15.56Y-1.9507
X15.5873Y-14.3649
X15.6419Y-14.4767
X15.6674Y-13.9716
X15.6674Y-14.0716
X15.6674Y-14.1716
X15.6964Y-14.3649
X15.7509Y-14.4767
X15.8054Y-14.3649
X15.821Y-13.9728
X15.821Y-14.0728
X15.821Y-14.1728
X15.855Y-7.6887
X15.86Y-14.4767
X15.9123Y-1.7582
X15.9123Y-1.8582
X15.9123Y-1.9582
X15.9145Y-14.3649
X15.955Y-7.6887
X15.9722Y-13.9696
X15.9722Y-14.0696
X15.9722Y-14.1696
X16.0375Y-1.7578
X16.0375Y-1.8578
X16.0375Y-1.9578
X16.055Y-7.6887
X16.1241Y-13.9696
X16.1241Y-14.0696
X16.1241Y-14.1696
X16.1631Y-1.7578
X16.1631Y-1.8578
X16.1631Y-1.9578
X16.2718Y-1.5574
X16.2871Y-1.7578
X16.2871Y-1.8578
X16.2871Y-1.9578
X16.3263Y-1.4456
X16.3808Y-1.5574
X16.4354Y-1.4456
X16.4899Y-1.5574
X16.5444Y-1.4456
X16.5989Y-1.5574
X16.6535Y-1.4456
X16.708Y-1.5574
X16.7307Y-2.4682
X16.7307Y-2.5682
X16.7307Y-2.6682
X16.7307Y-2.7682
X16.7307Y-2.8682
X16.7307Y-2.9682
X16.7307Y-3.0682
X16.7307Y-3.1682
X16.7307Y-3.2682
X16.7307Y-3.3682
X16.7307Y-3.4682
X16.7307Y-3.5682
X16.7307Y-3.6682
X16.7307Y-3.7682
X16.7307Y-3.8682
X16.7307Y-3.9682
X16.7307Y-4.0682
X16.7307Y-4.1682
X16.7307Y-4.2682
X16.7307Y-4.3682
X16.7307Y-4.4682
X16.7307Y-4.5682
X16.7625Y-1.4456
X16.817Y-1.5574
X16.8716Y-1.4456
X16.917Y-4.4661
X16.9261Y-1.5574
X16.9806Y-1.4456
X17.0135Y-2.4621
X17.0135Y-2.659
X17.0352Y-1.5574
X17.0897Y-1.4456
X17.1139Y-4.4661
X17.1442Y-1.5574
X17.1987Y-1.4456
X17.2533Y-1.5574
X17.3078Y-1.4456
X17.3623Y-1.5574
X17.4169Y-1.4456
X17.4682Y-1.7547
X17.4714Y-1.5574
X17.5682Y-1.7547
X17.6682Y-1.7547
T8
X1.6968Y-2.7861
X1.6968Y-2.8861
X1.6968Y-2.9861
X1.6968Y-3.0861
X1.6968Y-3.1861
X1.6968Y-3.2861
X1.6968Y-3.3861
X1.6968Y-3.4861
X1.6968Y-3.5861
X1.6968Y-3.6861
X1.6968Y-3.7861
X1.6968Y-3.8861
X1.6968Y-3.9861
X1.6968Y-4.0861
X1.6968Y-4.1861
X1.6968Y-4.2861
X1.6968Y-4.3861
X1.6968Y-4.4861
X1.6968Y-4.5861
X1.6968Y-4.6861
X1.6968Y-4.7861
X1.6968Y-4.8861
X1.6968Y-4.9861
X1.6968Y-5.0861
X1.6968Y-5.1861
X1.6968Y-5.2861
X1.6968Y-5.3861
X1.6968Y-5.4861
X1.6968Y-5.5861
X1.6968Y-5.6861
X1.6968Y-5.7861
X1.6968Y-6.1857
X1.6968Y-6.2857
X1.6968Y-6.3857
X1.6968Y-6.4857
X1.6968Y-6.5857
X1.6968Y-6.6857
X1.6968Y-6.7857
X1.6968Y-6.8857
X1.6968Y-6.9857
X1.6968Y-7.0857
X1.6968Y-7.1857
X1.6968Y-7.2857
X1.6968Y-7.3857
X1.6968Y-7.4857
X1.6968Y-7.5857
X1.6968Y-7.6857
X1.6968Y-7.7857
X1.6968Y-7.8857
X1.8968Y-2.7861
X1.8968Y-2.8861
X1.8968Y-2.9861
X1.8968Y-3.0861
X1.8968Y-3.1861
X1.8968Y-3.2861
X1.8968Y-3.3861
X1.8968Y-3.4861
X1.8968Y-3.5861
X1.8968Y-3.6861
X1.8968Y-3.7861
X1.8968Y-3.8861
X1.8968Y-3.9861
X1.8968Y-4.0861
X1.8968Y-4.1861
X1.8968Y-4.2861
X1.8968Y-4.3861
X1.8968Y-4.4861
X1.8968Y-4.5861
X1.8968Y-4.6861
X1.8968Y-4.7861
X1.8968Y-4.8861
X1.8968Y-4.9861
X1.8968Y-5.0861
X1.8968Y-5.1861
X1.8968Y-5.2861
X1.8968Y-5.3861
X1.8968Y-5.4861
X1.8968Y-5.5861
X1.8968Y-5.6861
X1.8968Y-5.7861
X1.8968Y-6.1857
X1.8968Y-6.2857
X1.8968Y-6.3857
X1.8968Y-6.4857
X1.8968Y-6.5857
X1.8968Y-6.6857
X1.8968Y-6.7857
X1.8968Y-6.8857
X1.8968Y-6.9857
X1.8968Y-7.0857
X1.8968Y-7.1857
X1.8968Y-7.2857
X1.8968Y-7.3857
X1.8968Y-7.4857
X1.8968Y-7.5857
X1.8968Y-7.6857
X1.8968Y-7.7857
X1.8968Y-7.8857
X2.4962Y-2.7861
X2.4962Y-2.8861
X2.4962Y-2.9861
X2.4962Y-3.0861
X2.4962Y-3.1861
X2.4962Y-3.2861
X2.4962Y-3.3861
X2.4962Y-3.4861
X2.4962Y-3.5861
X2.4962Y-3.6861
X2.4962Y-3.7861
X2.4962Y-3.8861
X2.4962Y-3.9861
X2.4962Y-4.0861
X2.4962Y-4.1861
X2.4962Y-4.2861
X2.4962Y-4.3861
X2.4962Y-4.4861
X2.4962Y-4.5861
X2.4962Y-4.6861
X2.4962Y-4.7861
X2.4962Y-4.8861
X2.4962Y-4.9861
X2.4962Y-5.0861
X2.4962Y-5.1861
X2.4962Y-5.2861
X2.4962Y-5.3861
X2.4962Y-5.4861
X2.4962Y-5.5861
X2.4962Y-5.6861
X2.4962Y-5.7861
X2.4962Y-6.1857
X2.4962Y-6.2857
X2.4962Y-6.3857
X2.4962Y-6.4857
X2.4962Y-6.5857
X2.4962Y-6.6857
X2.4962Y-6.7857
X2.4962Y-6.8857
X2.4962Y-6.9857
X2.4962Y-7.0857
X2.4962Y-7.1857
X2.4962Y-7.2857
X2.4962Y-7.3857
X2.4962Y-7.4857
X2.4962Y-7.5857
X2.4962Y-7.6857
X2.4962Y-7.7857
X2.4962Y-7.8857
X2.6962Y-2.7861
X2.6962Y-2.8861
X2.6962Y-2.9861
X2.6962Y-3.0861
X2.6962Y-3.1861
X2.6962Y-3.2861
X2.6962Y-3.3861
X2.6962Y-3.4861
X2.6962Y-3.5861
X2.6962Y-3.6861
X2.6962Y-3.7861
X2.6962Y-3.8861
X2.6962Y-3.9861
X2.6962Y-4.0861
X2.6962Y-4.1861
X2.6962Y-4.2861
X2.6962Y-4.3861
X2.6962Y-4.4861
X2.6962Y-4.5861
X2.6962Y-4.6861
X2.6962Y-4.7861
X2.6962Y-4.8861
X2.6962Y-4.9861
X2.6962Y-5.0861
X2.6962Y-5.1861
X2.6962Y-5.2861
X2.6962Y-5.3861
X2.6962Y-5.4861
X2.6962Y-5.5861
X2.6962Y-5.6861
X2.6962Y-5.7861
X2.6962Y-6.1857
X2.6962Y-6.2857
X2.6962Y-6.3857
X2.6962Y-6.4857
X2.6962Y-6.5857
X2.6962Y-6.6857
X2.6962Y-6.7857
X2.6962Y-6.8857
X2.6962Y-6.9857
X2.6962Y-7.0857
X2.6962Y-7.1857
X2.6962Y-7.2857
X2.6962Y-7.3857
X2.6962Y-7.4857
X2.6962Y-7.5857
X2.6962Y-7.6857
X2.6962Y-7.7857
X2.6962Y-7.8857
X3.296Y-2.7861
X3.296Y-2.8861
X3.296Y-2.9861
X3.296Y-3.0861
X3.296Y-3.1861
X3.296Y-3.2861
X3.296Y-3.3861
X3.296Y-3.4861
X3.296Y-3.5861
X3.296Y-3.6861
X3.296Y-3.7861
X3.296Y-3.8861
X3.296Y-3.9861
X3.296Y-4.0861
X3.296Y-4.1861
X3.296Y-4.2861
X3.296Y-4.3861
X3.296Y-4.4861
X3.296Y-4.5861
X3.296Y-4.6861
X3.296Y-4.7861
X3.296Y-4.8861
X3.296Y-4.9861
X3.296Y-5.0861
X3.296Y-5.1861
X3.296Y-5.2861
X3.296Y-5.3861
X3.296Y-5.4861
X3.296Y-5.5861
X3.296Y-5.6861
X3.296Y-5.7861
X3.296Y-6.1857
X3.296Y-6.2857
X3.296Y-6.3857
X3.296Y-6.4857
X3.296Y-6.5857
X3.296Y-6.6857
X3.296Y-6.7857
X3.296Y-6.8857
X3.296Y-6.9857
X3.296Y-7.0857
X3.296Y-7.1857
X3.296Y-7.2857
X3.296Y-7.3857
X3.296Y-7.4857
X3.296Y-7.5857
X3.296Y-7.6857
X3.296Y-7.7857
X3.296Y-7.8857
X3.296Y-8.3767
X3.296Y-8.4767
X3.296Y-8.5767
X3.296Y-8.6767
X3.296Y-8.7767
X3.296Y-8.8767
X3.296Y-8.9767
X3.296Y-9.0767
X3.296Y-9.1767
X3.296Y-9.2767
X3.296Y-9.3767
X3.296Y-9.4767
X3.296Y-9.5767
X3.296Y-9.6767
X3.296Y-9.7767
X3.296Y-9.8767
X3.296Y-9.9767
X3.296Y-10.0767
X3.296Y-10.1767
X3.296Y-10.2767
X3.296Y-10.3767
X3.296Y-10.4767
X3.296Y-10.5767
X3.296Y-10.6767
X3.296Y-10.7767
X3.296Y-10.8767
X3.296Y-10.9767
X3.296Y-11.0767
X3.296Y-11.1767
X3.296Y-11.2767
X3.296Y-11.3767
X3.296Y-11.4767
X3.296Y-11.5767
X3.296Y-11.6767
X3.296Y-11.7767
X3.296Y-11.8767
X3.296Y-11.9767
X3.296Y-12.0767
X3.296Y-12.1767
X3.296Y-12.2767
X3.296Y-12.3767
X3.296Y-12.4767
X3.296Y-12.5767
X3.296Y-12.6767
X3.296Y-12.7767
X3.296Y-12.8767
X3.296Y-12.9767
X3.296Y-13.0767
X3.296Y-13.1767
X3.296Y-13.2767
X3.496Y-2.7861
X3.496Y-2.8861
X3.496Y-2.9861
X3.496Y-3.0861
X3.496Y-3.1861
X3.496Y-3.2861
X3.496Y-3.3861
X3.496Y-3.4861
X3.496Y-3.5861
X3.496Y-3.6861
X3.496Y-3.7861
X3.496Y-3.8861
X3.496Y-3.9861
X3.496Y-4.0861
X3.496Y-4.1861
X3.496Y-4.2861
X3.496Y-4.3861
X3.496Y-4.4861
X3.496Y-4.5861
X3.496Y-4.6861
X3.496Y-4.7861
X3.496Y-4.8861
X3.496Y-4.9861
X3.496Y-5.0861
X3.496Y-5.1861
X3.496Y-5.2861
X3.496Y-5.3861
X3.496Y-5.4861
X3.496Y-5.5861
X3.496Y-5.6861
X3.496Y-5.7861
X3.496Y-6.1857
X3.496Y-6.2857
X3.496Y-6.3857
X3.496Y-6.4857
X3.496Y-6.5857
X3.496Y-6.6857
X3.496Y-6.7857
X3.496Y-6.8857
X3.496Y-6.9857
X3.496Y-7.0857
X3.496Y-7.1857
X3.496Y-7.2857
X3.496Y-7.3857
X3.496Y-7.4857
X3.496Y-7.5857
X3.496Y-7.6857
X3.496Y-7.7857
X3.496Y-7.8857
X3.496Y-8.3767
X3.496Y-8.4767
X3.496Y-8.5767
X3.496Y-8.6767
X3.496Y-8.7767
X3.496Y-8.8767
X3.496Y-8.9767
X3.496Y-9.0767
X3.496Y-9.1767
X3.496Y-9.2767
X3.496Y-9.3767
X3.496Y-9.4767
X3.496Y-9.5767
X3.496Y-9.6767
X3.496Y-9.7767
X3.496Y-9.8767
X3.496Y-9.9767
X3.496Y-10.0767
X3.496Y-10.1767
X3.496Y-10.2767
X3.496Y-10.3767
X3.496Y-10.4767
X3.496Y-10.5767
X3.496Y-10.6767
X3.496Y-10.7767
X3.496Y-10.8767
X3.496Y-10.9767
X3.496Y-11.0767
X3.496Y-11.1767
X3.496Y-11.2767
X3.496Y-11.3767
X3.496Y-11.4767
X3.496Y-11.5767
X3.496Y-11.6767
X3.496Y-11.7767
X3.496Y-11.8767
X3.496Y-11.9767
X3.496Y-12.0767
X3.496Y-12.1767
X3.496Y-12.2767
X3.496Y-12.3767
X3.496Y-12.4767
X3.496Y-12.5767
X3.496Y-12.6767
X3.496Y-12.7767
X3.496Y-12.8767
X3.496Y-12.9767
X3.496Y-13.0767
X3.496Y-13.1767
X3.496Y-13.2767
X4.1031Y-2.7861
X4.1031Y-2.8861
X4.1031Y-2.9861
X4.1031Y-3.0861
X4.1031Y-3.1861
X4.1031Y-3.2861
X4.1031Y-3.3861
X4.1031Y-3.4861
X4.1031Y-3.5861
X4.1031Y-3.6861
X4.1031Y-3.7861
X4.1031Y-3.8861
X4.1031Y-3.9861
X4.1031Y-4.0861
X4.1031Y-4.1861
X4.1031Y-4.2861
X4.1031Y-4.3861
X4.1031Y-4.4861
X4.1031Y-4.5861
X4.1031Y-4.6861
X4.1031Y-4.7861
X4.1031Y-4.8861
X4.1031Y-4.9861
X4.1031Y-5.0861
X4.1031Y-5.1861
X4.1031Y-5.2861
X4.1031Y-5.3861
X4.1031Y-5.4861
X4.1031Y-5.5861
X4.1031Y-5.6861
X4.1031Y-5.7861
X4.1031Y-6.1857
X4.1031Y-6.2857
X4.1031Y-6.3857
X4.1031Y-6.4857
X4.1031Y-6.5857
X4.1031Y-6.6857
X4.1031Y-6.7857
X4.1031Y-6.8857
X4.1031Y-6.9857
X4.1031Y-7.0857
X4.1031Y-7.1857
X4.1031Y-7.2857
X4.1031Y-7.3857
X4.1031Y-7.4857
X4.1031Y-7.5857
X4.1031Y-7.6857
X4.1031Y-7.7857
X4.1031Y-7.8857
X4.1031Y-8.3767
X4.1031Y-8.4767
X4.1031Y-8.5767
X4.1031Y-8.6767
X4.1031Y-8.7767
X4.1031Y-8.8767
X4.1031Y-8.9767
X4.1031Y-9.0767
X4.1031Y-9.1767
X4.1031Y-9.2767
X4.1031Y-9.3767
X4.1031Y-9.4767
X4.1031Y-9.5767
X4.1031Y-9.6767
X4.1031Y-9.7767
X4.1031Y-9.8767
X4.1031Y-9.9767
X4.1031Y-10.0767
X4.1031Y-10.1767
X4.1031Y-10.2767
X4.1031Y-10.3767
X4.1031Y-10.4767
X4.1031Y-10.5767
X4.1031Y-10.6767
X4.1031Y-10.7767
X4.1031Y-10.8767
X4.1031Y-10.9767
X4.1031Y-11.0767
X4.1031Y-11.1767
X4.1031Y-11.2767
X4.1031Y-11.3767
X4.1031Y-11.4767
X4.1031Y-11.5767
X4.1031Y-11.6767
X4.1031Y-11.7767
X4.1031Y-11.8767
X4.1031Y-11.9767
X4.1031Y-12.0767
X4.1031Y-12.1767
X4.1031Y-12.2767
X4.1031Y-12.3767
X4.1031Y-12.4767
X4.1031Y-12.5767
X4.1031Y-12.6767
X4.1031Y-12.7767
X4.1031Y-12.8767
X4.1031Y-12.9767
X4.1031Y-13.0767
X4.1031Y-13.1767
X4.1031Y-13.2767
X4.3031Y-2.7861
X4.3031Y-2.8861
X4.3031Y-2.9861
X4.3031Y-3.0861
X4.3031Y-3.1861
X4.3031Y-3.2861
X4.3031Y-3.3861
X4.3031Y-3.4861
X4.3031Y-3.5861
X4.3031Y-3.6861
X4.3031Y-3.7861
X4.3031Y-3.8861
X4.3031Y-3.9861
X4.3031Y-4.0861
X4.3031Y-4.1861
X4.3031Y-4.2861
X4.3031Y-4.3861
X4.3031Y-4.4861
X4.3031Y-4.5861
X4.3031Y-4.6861
X4.3031Y-4.7861
X4.3031Y-4.8861
X4.3031Y-4.9861
X4.3031Y-5.0861
X4.3031Y-5.1861
X4.3031Y-5.2861
X4.3031Y-5.3861
X4.3031Y-5.4861
X4.3031Y-5.5861
X4.3031Y-5.6861
X4.3031Y-5.7861
X4.3031Y-6.1857
X4.3031Y-6.2857
X4.3031Y-6.3857
X4.3031Y-6.4857
X4.3031Y-6.5857
X4.3031Y-6.6857
X4.3031Y-6.7857
X4.3031Y-6.8857
X4.3031Y-6.9857
X4.3031Y-7.0857
X4.3031Y-7.1857
X4.3031Y-7.2857
X4.3031Y-7.3857
X4.3031Y-7.4857
X4.3031Y-7.5857
X4.3031Y-7.6857
X4.3031Y-7.7857
X4.3031Y-7.8857
X4.3031Y-8.3767
X4.3031Y-8.4767
X4.3031Y-8.5767
X4.3031Y-8.6767
X4.3031Y-8.7767
X4.3031Y-8.8767
X4.3031Y-8.9767
X4.3031Y-9.0767
X4.3031Y-9.1767
X4.3031Y-9.2767
X4.3031Y-9.3767
X4.3031Y-9.4767
X4.3031Y-9.5767
X4.3031Y-9.6767
X4.3031Y-9.7767
X4.3031Y-9.8767
X4.3031Y-9.9767
X4.3031Y-10.0767
X4.3031Y-10.1767
X4.3031Y-10.2767
X4.3031Y-10.3767
X4.3031Y-10.4767
X4.3031Y-10.5767
X4.3031Y-10.6767
X4.3031Y-10.7767
X4.3031Y-10.8767
X4.3031Y-10.9767
X4.3031Y-11.0767
X4.3031Y-11.1767
X4.3031Y-11.2767
X4.3031Y-11.3767
X4.3031Y-11.4767
X4.3031Y-11.5767
X4.3031Y-11.6767
X4.3031Y-11.7767
X4.3031Y-11.8767
X4.3031Y-11.9767
X4.3031Y-12.0767
X4.3031Y-12.1767
X4.3031Y-12.2767
X4.3031Y-12.3767
X4.3031Y-12.4767
X4.3031Y-12.5767
X4.3031Y-12.6767
X4.3031Y-12.7767
X4.3031Y-12.8767
X4.3031Y-12.9767
X4.3031Y-13.0767
X4.3031Y-13.1767
X4.3031Y-13.2767
X4.8974Y-8.3767
X4.8974Y-8.4767
X4.8974Y-8.5767
X4.8974Y-8.6767
X4.8974Y-8.7767
X4.8974Y-8.8767
X4.8974Y-8.9767
X4.8974Y-9.0767
X4.8974Y-9.1767
X4.8974Y-9.2767
X4.8974Y-9.3767
X4.8974Y-9.4767
X4.8974Y-9.5767
X4.8974Y-9.6767
X4.8974Y-9.7767
X4.8974Y-9.8767
X4.8974Y-9.9767
X4.8974Y-10.0767
X4.8974Y-10.1767
X4.8974Y-10.2767
X4.8974Y-10.3767
X4.8974Y-10.4767
X4.8974Y-10.5767
X4.8974Y-10.6767
X4.8974Y-10.7767
X4.8974Y-10.8767
X4.8974Y-10.9767
X4.8974Y-11.0767
X4.8974Y-11.1767
X4.8974Y-11.2767
X4.8974Y-11.3767
X4.8974Y-11.4767
X4.8974Y-11.5767
X4.8974Y-11.6767
X4.8974Y-11.7767
X4.8974Y-11.8767
X4.8974Y-11.9767
X4.8974Y-12.0767
X4.8974Y-12.1767
X4.8974Y-12.2767
X4.8974Y-12.3767
X4.8974Y-12.4767
X4.8974Y-12.5767
X4.8974Y-12.6767
X4.8974Y-12.7767
X4.8974Y-12.8767
X4.8974Y-12.9767
X4.8974Y-13.0767
X4.8974Y-13.1767
X4.8974Y-13.2767
X5.0974Y-8.3767
X5.0974Y-8.4767
X5.0974Y-8.5767
X5.0974Y-8.6767
X5.0974Y-8.7767
X5.0974Y-8.8767
X5.0974Y-8.9767
X5.0974Y-9.0767
X5.0974Y-9.1767
X5.0974Y-9.2767
X5.0974Y-9.3767
X5.0974Y-9.4767
X5.0974Y-9.5767
X5.0974Y-9.6767
X5.0974Y-9.7767
X5.0974Y-9.8767
X5.0974Y-9.9767
X5.0974Y-10.0767
X5.0974Y-10.1767
X5.0974Y-10.2767
X5.0974Y-10.3767
X5.0974Y-10.4767
X5.0974Y-10.5767
X5.0974Y-10.6767
X5.0974Y-10.7767
X5.0974Y-10.8767
X5.0974Y-10.9767
X5.0974Y-11.0767
X5.0974Y-11.1767
X5.0974Y-11.2767
X5.0974Y-11.3767
X5.0974Y-11.4767
X5.0974Y-11.5767
X5.0974Y-11.6767
X5.0974Y-11.7767
X5.0974Y-11.8767
X5.0974Y-11.9767
X5.0974Y-12.0767
X5.0974Y-12.1767
X5.0974Y-12.2767
X5.0974Y-12.3767
X5.0974Y-12.4767
X5.0974Y-12.5767
X5.0974Y-12.6767
X5.0974Y-12.7767
X5.0974Y-12.8767
X5.0974Y-12.9767
X5.0974Y-13.0767
X5.0974Y-13.1767
X5.0974Y-13.2767
X5.7015Y-8.3767
X5.7015Y-8.4767
X5.7015Y-8.5767
X5.7015Y-8.6767
X5.7015Y-8.7767
X5.7015Y-8.8767
X5.7015Y-8.9767
X5.7015Y-9.0767
X5.7015Y-9.1767
X5.7015Y-9.2767
X5.7015Y-9.3767
X5.7015Y-9.4767
X5.7015Y-9.5767
X5.7015Y-9.6767
X5.7015Y-9.7767
X5.7015Y-9.8767
X5.7015Y-9.9767
X5.7015Y-10.0767
X5.7015Y-10.1767
X5.7015Y-10.2767
X5.7015Y-10.3767
X5.7015Y-10.4767
X5.7015Y-10.5767
X5.7015Y-10.6767
X5.7015Y-10.7767
X5.7015Y-10.8767
X5.7015Y-10.9767
X5.7015Y-11.0767
X5.7015Y-11.1767
X5.7015Y-11.2767
X5.7015Y-11.3767
X5.7015Y-11.4767
X5.7015Y-11.5767
X5.7015Y-11.6767
X5.7015Y-11.7767
X5.7015Y-11.8767
X5.7015Y-11.9767
X5.7015Y-12.0767
X5.7015Y-12.1767
X5.7015Y-12.2767
X5.7015Y-12.3767
X5.7015Y-12.4767
X5.7015Y-12.5767
X5.7015Y-12.6767
X5.7015Y-12.7767
X5.7015Y-12.8767
X5.7015Y-12.9767
X5.7015Y-13.0767
X5.7015Y-13.1767
X5.7015Y-13.2767
X5.9015Y-8.3767
X5.9015Y-8.4767
X5.9015Y-8.5767
X5.9015Y-8.6767
X5.9015Y-8.7767
X5.9015Y-8.8767
X5.9015Y-8.9767
X5.9015Y-9.0767
X5.9015Y-9.1767
X5.9015Y-9.2767
X5.9015Y-9.3767
X5.9015Y-9.4767
X5.9015Y-9.5767
X5.9015Y-9.6767
X5.9015Y-9.7767
X5.9015Y-9.8767
X5.9015Y-9.9767
X5.9015Y-10.0767
X5.9015Y-10.1767
X5.9015Y-10.2767
X5.9015Y-10.3767
X5.9015Y-10.4767
X5.9015Y-10.5767
X5.9015Y-10.6767
X5.9015Y-10.7767
X5.9015Y-10.8767
X5.9015Y-10.9767
X5.9015Y-11.0767
X5.9015Y-11.1767
X5.9015Y-11.2767
X5.9015Y-11.3767
X5.9015Y-11.4767
X5.9015Y-11.5767
X5.9015Y-11.6767
X5.9015Y-11.7767
X5.9015Y-11.8767
X5.9015Y-11.9767
X5.9015Y-12.0767
X5.9015Y-12.1767
X5.9015Y-12.2767
X5.9015Y-12.3767
X5.9015Y-12.4767
X5.9015Y-12.5767
X5.9015Y-12.6767
X5.9015Y-12.7767
X5.9015Y-12.8767
X5.9015Y-12.9767
X5.9015Y-13.0767
X5.9015Y-13.1767
X5.9015Y-13.2767
X6.5027Y-8.3767
X6.5027Y-8.4767
X6.5027Y-8.5767
X6.5027Y-8.6767
X6.5027Y-8.7767
X6.5027Y-8.8767
X6.5027Y-8.9767
X6.5027Y-9.0767
X6.5027Y-9.1767
X6.5027Y-9.2767
X6.5027Y-9.3767
X6.5027Y-9.4767
X6.5027Y-9.5767
X6.5027Y-9.6767
X6.5027Y-9.7767
X6.5027Y-9.8767
X6.5027Y-9.9767
X6.5027Y-10.0767
X6.5027Y-10.1767
X6.5027Y-10.2767
X6.5027Y-10.3767
X6.5027Y-10.4767
X6.5027Y-10.5767
X6.5027Y-10.6767
X6.5027Y-10.7767
X6.5027Y-10.8767
X6.5027Y-10.9767
X6.5027Y-11.0767
X6.5027Y-11.1767
X6.5027Y-11.2767
X6.5027Y-11.3767
X6.5027Y-11.4767
X6.5027Y-11.5767
X6.5027Y-11.6767
X6.5027Y-11.7767
X6.5027Y-11.8767
X6.5027Y-11.9767
X6.5027Y-12.0767
X6.5027Y-12.1767
X6.5027Y-12.2767
X6.5027Y-12.3767
X6.5027Y-12.4767
X6.5027Y-12.5767
X6.5027Y-12.6767
X6.5027Y-12.7767
X6.5027Y-12.8767
X6.5027Y-12.9767
X6.5027Y-13.0767
X6.5027Y-13.1767
X6.5027Y-13.2767
X6.7027Y-8.3767
X6.7027Y-8.4767
X6.7027Y-8.5767
X6.7027Y-8.6767
X6.7027Y-8.7767
X6.7027Y-8.8767
X6.7027Y-8.9767
X6.7027Y-9.0767
X6.7027Y-9.1767
X6.7027Y-9.2767
X6.7027Y-9.3767
X6.7027Y-9.4767
X6.7027Y-9.5767
X6.7027Y-9.6767
X6.7027Y-9.7767
X6.7027Y-9.8767
X6.7027Y-9.9767
X6.7027Y-10.0767
X6.7027Y-10.1767
X6.7027Y-10.2767
X6.7027Y-10.3767
X6.7027Y-10.4767
X6.7027Y-10.5767
X6.7027Y-10.6767
X6.7027Y-10.7767
X6.7027Y-10.8767
X6.7027Y-10.9767
X6.7027Y-11.0767
X6.7027Y-11.1767
X6.7027Y-11.2767
X6.7027Y-11.3767
X6.7027Y-11.4767
X6.7027Y-11.5767
X6.7027Y-11.6767
X6.7027Y-11.7767
X6.7027Y-11.8767
X6.7027Y-11.9767
X6.7027Y-12.0767
X6.7027Y-12.1767
X6.7027Y-12.2767
X6.7027Y-12.3767
X6.7027Y-12.4767
X6.7027Y-12.5767
X6.7027Y-12.6767
X6.7027Y-12.7767
X6.7027Y-12.8767
X6.7027Y-12.9767
X6.7027Y-13.0767
X6.7027Y-13.1767
X6.7027Y-13.2767
X8.6474Y-8.8649
X8.6474Y-8.9649
X8.6474Y-9.0649
X8.6474Y-9.1649
X8.6474Y-9.2649
X8.6474Y-9.3649
X8.6474Y-9.4649
X8.6474Y-9.5649
X8.6474Y-9.6649
X8.6474Y-9.7649
X8.6474Y-9.8649
X8.6474Y-9.9649
X8.6474Y-10.0649
X8.6474Y-10.1649
X8.6474Y-10.2649
X8.6474Y-10.3649
X8.6474Y-10.4649
X8.6474Y-10.5649
X8.6474Y-10.6649
X8.6474Y-10.7649
X8.6474Y-10.8649
X8.6474Y-10.9649
X8.6474Y-11.0649
X8.6474Y-11.1649
X8.6474Y-11.2649
X8.6474Y-11.3649
X8.6474Y-11.4649
X8.6474Y-11.5649
X8.6474Y-11.6649
X8.6474Y-11.7649
X8.6474Y-11.8649
X8.6474Y-11.9649
X8.6474Y-12.0649
X8.6474Y-12.1649
X8.6474Y-12.2649
X8.6474Y-12.3649
X8.6474Y-12.4649
X8.6474Y-12.5649
X8.6474Y-12.6649
X8.6474Y-12.7649
X8.6474Y-12.8649
X8.6474Y-12.9649
X8.6474Y-13.0649
X8.8474Y-8.8649
X8.8474Y-8.9649
X8.8474Y-9.0649
X8.8474Y-9.1649
X8.8474Y-9.2649
X8.8474Y-9.3649
X8.8474Y-9.4649
X8.8474Y-9.5649
X8.8474Y-9.6649
X8.8474Y-9.7649
X8.8474Y-9.8649
X8.8474Y-9.9649
X8.8474Y-10.0649
X8.8474Y-10.1649
X8.8474Y-10.2649
X8.8474Y-10.3649
X8.8474Y-10.4649
X8.8474Y-10.5649
X8.8474Y-10.6649
X8.8474Y-10.7649
X8.8474Y-10.8649
X8.8474Y-10.9649
X8.8474Y-11.0649
X8.8474Y-11.1649
X8.8474Y-11.2649
X8.8474Y-11.3649
X8.8474Y-11.4649
X8.8474Y-11.5649
X8.8474Y-11.6649
X8.8474Y-11.7649
X8.8474Y-11.8649
X8.8474Y-11.9649
X8.8474Y-12.0649
X8.8474Y-12.1649
X8.8474Y-12.2649
X8.8474Y-12.3649
X8.8474Y-12.4649
X8.8474Y-12.5649
X8.8474Y-12.6649
X8.8474Y-12.7649
X8.8474Y-12.8649
X8.8474Y-12.9649
X8.8474Y-13.0649
X17.3058Y-2.5873
X17.3058Y-2.6873
X17.3058Y-2.7873
X17.3058Y-2.8873
X17.3058Y-2.9873
X17.3058Y-3.0873
X17.3058Y-3.1873
X17.3058Y-3.2873
X17.3058Y-3.3873
X17.3058Y-3.4873
X17.3058Y-3.5873
X17.3058Y-3.6873
X17.3058Y-3.7873
X17.3058Y-3.8873
X17.3058Y-3.9873
X17.3058Y-4.0873
X17.3058Y-4.1873
X17.3058Y-4.2873
X17.3058Y-4.6922
X17.3058Y-4.7922
X17.3058Y-4.8922
X17.3058Y-4.9922
X17.3058Y-5.0922
X17.3058Y-5.1922
X17.3058Y-5.2922
X17.3058Y-5.3922
X17.3058Y-5.4922
X17.3058Y-5.5922
X17.3058Y-5.6922
X17.3058Y-5.7922
X17.3058Y-5.8922
X17.3058Y-5.9922
X17.3058Y-6.0922
X17.3058Y-6.1922
X17.3058Y-6.2922
X17.3058Y-6.3922
X17.5058Y-2.5873
X17.5058Y-2.6873
X17.5058Y-2.7873
X17.5058Y-2.8873
X17.5058Y-2.9873
X17.5058Y-3.0873
X17.5058Y-3.1873
X17.5058Y-3.2873
X17.5058Y-3.3873
X17.5058Y-3.4873
X17.5058Y-3.5873
X17.5058Y-3.6873
X17.5058Y-3.7873
X17.5058Y-3.8873
X17.5058Y-3.9873
X17.5058Y-4.0873
X17.5058Y-4.1873
X17.5058Y-4.2873
X17.5058Y-4.6922
X17.5058Y-4.7922
X17.5058Y-4.8922
X17.5058Y-4.9922
X17.5058Y-5.0922
X17.5058Y-5.1922
X17.5058Y-5.2922
X17.5058Y-5.3922
X17.5058Y-5.4922
X17.5058Y-5.5922
X17.5058Y-5.6922
X17.5058Y-5.7922
X17.5058Y-5.8922
X17.5058Y-5.9922
X17.5058Y-6.0922
X17.5058Y-6.1922
X17.5058Y-6.2922
X17.5058Y-6.3922
T9
X7.6426Y-7.0783
X7.6426Y-7.4783
X7.7903Y-7.0783
X7.7903Y-7.4783
T10
X11.7903Y-13.4881
X11.7903Y-14.0881
X13.432Y-2.485
X14.032Y-2.485
T11
X9.3611Y-5.7763
X9.3611Y-5.9322
X9.3611Y-6.0881
X9.3611Y-6.244
X9.3611Y-6.3999
X9.3611Y-6.5558
X9.3611Y-6.7117
X9.3611Y-6.8676
X9.3611Y-7.0235
X9.3611Y-7.1794
X9.3611Y-7.3354
X9.3611Y-7.4913
X9.3611Y-7.6472
X9.3611Y-7.8031
T12
X9.8119Y-1.4436
X10.1072Y-1.4436
X10.3877Y-1.4436
X10.683Y-1.4436
X10.9665Y-1.4436
X11.2617Y-1.4436
X12.005Y-14.2871
X12.105Y-14.1871
X12.305Y-14.2871
X12.305Y-14.5871
X12.505Y-14.1871
X12.605Y-14.2871
T13
X9.9596Y-1.2862
X10.5354Y-1.2862
X11.1141Y-1.2862
T14
X7.7367Y-1.5015
X9.5911Y-1.5015
X11.5017Y-1.5015
X13.234Y-1.5015
X13.5999Y-14.4208
X13.6919Y-1.5015
X14.5842Y-14.4208
X15.2043Y-14.4208
X15.5462Y-1.5015
X16.0119Y-1.5015
X16.1885Y-14.4208
X17.7442Y-1.5015
T15
X1.7607Y-14.5716
X1.8545Y-2.0278
X2.1795Y-8.2478
X2.1857Y-14.4586
X2.1965Y-2.0528
X5.1578Y-14.4586
X6.3275Y-2.0638
X7.5025Y-8.2578
X9.267Y-14.5654
X9.766Y-14.4574
X17.4029Y-14.5825
X17.7519Y-14.4685
X17.7659Y-7.1045
X17.7729Y-2.0665
T12
G00X12.0885Y-14.6871
M15
G01X12.2066Y-14.6871
M16
G05
G00X12.4035Y-14.6871
M15
G01X12.5216Y-14.6871
M16
G05
T0
M30
