G04 #@! TF.GenerationSoftware,KiCad,Pcbnew,(5.1.9)-1*
G04 #@! TF.CreationDate,2021-05-02T22:21:16+02:00*
G04 #@! TF.ProjectId,amiga2000,616d6967-6132-4303-9030-2e6b69636164,rev?*
G04 #@! TF.SameCoordinates,Original*
G04 #@! TF.FileFunction,Soldermask,Bot*
G04 #@! TF.FilePolarity,Negative*
%FSLAX46Y46*%
G04 Gerber Fmt 4.6, Leading zero omitted, Abs format (unit mm)*
G04 Created by KiCad (PCBNEW (5.1.9)-1) date 2021-05-02 22:21:16*
%MOMM*%
%LPD*%
G01*
G04 APERTURE LIST*
%ADD10O,6.102000X3.102000*%
%ADD11C,3.102000*%
%ADD12C,1.702000*%
%ADD13O,1.702000X1.702000*%
%ADD14C,1.626000*%
%ADD15O,1.802000X1.802000*%
%ADD16C,2.102000*%
%ADD17C,4.102000*%
%ADD18C,3.602000*%
%ADD19C,3.902000*%
%ADD20O,2.302000X2.302000*%
%ADD21O,2.102000X2.102000*%
%ADD22C,8.102000*%
%ADD23C,1.002000*%
%ADD24O,1.602000X1.152000*%
%ADD25O,1.152000X1.602000*%
%ADD26O,2.502000X2.502000*%
%ADD27C,2.502000*%
%ADD28C,1.524400*%
%ADD29C,1.902000*%
%ADD30C,1.102000*%
%ADD31C,0.100000*%
G04 APERTURE END LIST*
D10*
X316548000Y-373053000D03*
X308548000Y-373053000D03*
D11*
X312548000Y-370513000D03*
X304928000Y-362893000D03*
X307468000Y-360353000D03*
X312548000Y-362893000D03*
X317628000Y-360353000D03*
X320168000Y-362893000D03*
D12*
X69342800Y-224588000D03*
X79342800Y-224588000D03*
X69342800Y-227088000D03*
X79342800Y-227088000D03*
X227763000Y-89328400D03*
D13*
X227763000Y-79168400D03*
D14*
X104218000Y-70768000D03*
X104218000Y-73308000D03*
X104218000Y-75848000D03*
X104218000Y-78388000D03*
X104218000Y-80928000D03*
X104218000Y-83468000D03*
X104218000Y-86008000D03*
X104218000Y-88548000D03*
X104218000Y-91088000D03*
X104218000Y-93628000D03*
X104218000Y-96168000D03*
X104218000Y-98708000D03*
X104218000Y-101248000D03*
X104218000Y-103788000D03*
X104218000Y-106328000D03*
X104218000Y-108868000D03*
X104218000Y-111408000D03*
X104218000Y-113948000D03*
X104218000Y-116488000D03*
X104218000Y-119028000D03*
X104218000Y-121568000D03*
X104218000Y-124108000D03*
X104218000Y-126648000D03*
X104218000Y-129188000D03*
X104218000Y-131728000D03*
X104218000Y-134268000D03*
X104218000Y-136808000D03*
X104218000Y-139348000D03*
X104218000Y-141888000D03*
X104218000Y-144428000D03*
X104218000Y-146968000D03*
X109298000Y-70768000D03*
X109298000Y-73308000D03*
X109298000Y-75848000D03*
X109298000Y-78388000D03*
X109298000Y-80928000D03*
X109298000Y-83468000D03*
X109298000Y-86008000D03*
X109298000Y-88548000D03*
X109298000Y-91088000D03*
X109298000Y-93628000D03*
X109298000Y-96168000D03*
X109298000Y-98708000D03*
X109298000Y-101248000D03*
X109298000Y-103788000D03*
X109298000Y-106328000D03*
X109298000Y-108868000D03*
X109298000Y-111408000D03*
X109298000Y-113948000D03*
X109298000Y-116488000D03*
X109298000Y-119028000D03*
X109298000Y-121568000D03*
X109298000Y-124108000D03*
X109298000Y-126648000D03*
X109298000Y-129188000D03*
X109298000Y-131728000D03*
X109298000Y-134268000D03*
X109298000Y-136808000D03*
X109298000Y-139348000D03*
X109298000Y-141888000D03*
X109298000Y-144428000D03*
X109298000Y-146968000D03*
X439568000Y-106358400D03*
X439568000Y-103818400D03*
X439568000Y-101278400D03*
X439568000Y-98738400D03*
X444648000Y-103818400D03*
X444648000Y-68258400D03*
X444648000Y-65718400D03*
X439568000Y-108898400D03*
X444648000Y-108898400D03*
X444648000Y-101278400D03*
X439568000Y-68258400D03*
G36*
G01*
X440330000Y-66531400D02*
X438806000Y-66531400D01*
G75*
G02*
X438755000Y-66480400I0J51000D01*
G01*
X438755000Y-64956400D01*
G75*
G02*
X438806000Y-64905400I51000J0D01*
G01*
X440330000Y-64905400D01*
G75*
G02*
X440381000Y-64956400I0J-51000D01*
G01*
X440381000Y-66480400D01*
G75*
G02*
X440330000Y-66531400I-51000J0D01*
G01*
G37*
X444648000Y-73338400D03*
X444648000Y-70798400D03*
X444648000Y-83498400D03*
X444648000Y-80958400D03*
X444648000Y-78418400D03*
X444648000Y-75878400D03*
X439568000Y-88578400D03*
X439568000Y-86038400D03*
X439568000Y-83498400D03*
X439568000Y-80958400D03*
X439568000Y-78418400D03*
X439568000Y-75878400D03*
X439568000Y-96198400D03*
X439568000Y-93658400D03*
X439568000Y-91118400D03*
X444648000Y-98738400D03*
X444648000Y-96198400D03*
X444648000Y-93658400D03*
X444648000Y-91118400D03*
X444648000Y-88578400D03*
X444648000Y-86038400D03*
X439568000Y-73338400D03*
X439568000Y-70798400D03*
X444648000Y-106358400D03*
X439568000Y-159823000D03*
X439568000Y-157283000D03*
X439568000Y-154743000D03*
X439568000Y-152203000D03*
X444648000Y-157283000D03*
X444648000Y-121723000D03*
X444648000Y-119183000D03*
X439568000Y-162363000D03*
X444648000Y-162363000D03*
X444648000Y-154743000D03*
X439568000Y-121723000D03*
G36*
G01*
X440330000Y-119996000D02*
X438806000Y-119996000D01*
G75*
G02*
X438755000Y-119945000I0J51000D01*
G01*
X438755000Y-118421000D01*
G75*
G02*
X438806000Y-118370000I51000J0D01*
G01*
X440330000Y-118370000D01*
G75*
G02*
X440381000Y-118421000I0J-51000D01*
G01*
X440381000Y-119945000D01*
G75*
G02*
X440330000Y-119996000I-51000J0D01*
G01*
G37*
X444648000Y-126803000D03*
X444648000Y-124263000D03*
X444648000Y-136963000D03*
X444648000Y-134423000D03*
X444648000Y-131883000D03*
X444648000Y-129343000D03*
X439568000Y-142043000D03*
X439568000Y-139503000D03*
X439568000Y-136963000D03*
X439568000Y-134423000D03*
X439568000Y-131883000D03*
X439568000Y-129343000D03*
X439568000Y-149663000D03*
X439568000Y-147123000D03*
X439568000Y-144583000D03*
X444648000Y-152203000D03*
X444648000Y-149663000D03*
X444648000Y-147123000D03*
X444648000Y-144583000D03*
X444648000Y-142043000D03*
X444648000Y-139503000D03*
X439568000Y-126803000D03*
X439568000Y-124263000D03*
X444648000Y-159823000D03*
X43097800Y-70768000D03*
X43097800Y-73308000D03*
X43097800Y-75848000D03*
X43097800Y-78388000D03*
X43097800Y-80928000D03*
X43097800Y-83468000D03*
X43097800Y-86008000D03*
X43097800Y-88548000D03*
X43097800Y-91088000D03*
X43097800Y-93628000D03*
X43097800Y-96168000D03*
X43097800Y-98708000D03*
X43097800Y-101248000D03*
X43097800Y-103788000D03*
X43097800Y-106328000D03*
X43097800Y-108868000D03*
X43097800Y-111408000D03*
X43097800Y-113948000D03*
X43097800Y-116488000D03*
X43097800Y-119028000D03*
X43097800Y-121568000D03*
X43097800Y-124108000D03*
X43097800Y-126648000D03*
X43097800Y-129188000D03*
X43097800Y-131728000D03*
X43097800Y-134268000D03*
X43097800Y-136808000D03*
X43097800Y-139348000D03*
X43097800Y-141888000D03*
X43097800Y-144428000D03*
X43097800Y-146968000D03*
X48177800Y-70768000D03*
X48177800Y-73308000D03*
X48177800Y-75848000D03*
X48177800Y-78388000D03*
X48177800Y-80928000D03*
X48177800Y-83468000D03*
X48177800Y-86008000D03*
X48177800Y-88548000D03*
X48177800Y-91088000D03*
X48177800Y-93628000D03*
X48177800Y-96168000D03*
X48177800Y-98708000D03*
X48177800Y-101248000D03*
X48177800Y-103788000D03*
X48177800Y-106328000D03*
X48177800Y-108868000D03*
X48177800Y-111408000D03*
X48177800Y-113948000D03*
X48177800Y-116488000D03*
X48177800Y-119028000D03*
X48177800Y-121568000D03*
X48177800Y-124108000D03*
X48177800Y-126648000D03*
X48177800Y-129188000D03*
X48177800Y-131728000D03*
X48177800Y-134268000D03*
X48177800Y-136808000D03*
X48177800Y-139348000D03*
X48177800Y-141888000D03*
X48177800Y-144428000D03*
X48177800Y-146968000D03*
X63402800Y-70768000D03*
X63402800Y-73308000D03*
X63402800Y-75848000D03*
X63402800Y-78388000D03*
X63402800Y-80928000D03*
X63402800Y-83468000D03*
X63402800Y-86008000D03*
X63402800Y-88548000D03*
X63402800Y-91088000D03*
X63402800Y-93628000D03*
X63402800Y-96168000D03*
X63402800Y-98708000D03*
X63402800Y-101248000D03*
X63402800Y-103788000D03*
X63402800Y-106328000D03*
X63402800Y-108868000D03*
X63402800Y-111408000D03*
X63402800Y-113948000D03*
X63402800Y-116488000D03*
X63402800Y-119028000D03*
X63402800Y-121568000D03*
X63402800Y-124108000D03*
X63402800Y-126648000D03*
X63402800Y-129188000D03*
X63402800Y-131728000D03*
X63402800Y-134268000D03*
X63402800Y-136808000D03*
X63402800Y-139348000D03*
X63402800Y-141888000D03*
X63402800Y-144428000D03*
X63402800Y-146968000D03*
X68482800Y-70768000D03*
X68482800Y-73308000D03*
X68482800Y-75848000D03*
X68482800Y-78388000D03*
X68482800Y-80928000D03*
X68482800Y-83468000D03*
X68482800Y-86008000D03*
X68482800Y-88548000D03*
X68482800Y-91088000D03*
X68482800Y-93628000D03*
X68482800Y-96168000D03*
X68482800Y-98708000D03*
X68482800Y-101248000D03*
X68482800Y-103788000D03*
X68482800Y-106328000D03*
X68482800Y-108868000D03*
X68482800Y-111408000D03*
X68482800Y-113948000D03*
X68482800Y-116488000D03*
X68482800Y-119028000D03*
X68482800Y-121568000D03*
X68482800Y-124108000D03*
X68482800Y-126648000D03*
X68482800Y-129188000D03*
X68482800Y-131728000D03*
X68482800Y-134268000D03*
X68482800Y-136808000D03*
X68482800Y-139348000D03*
X68482800Y-141888000D03*
X68482800Y-144428000D03*
X68482800Y-146968000D03*
X83717800Y-70768000D03*
X83717800Y-73308000D03*
X83717800Y-75848000D03*
X83717800Y-78388000D03*
X83717800Y-80928000D03*
X83717800Y-83468000D03*
X83717800Y-86008000D03*
X83717800Y-88548000D03*
X83717800Y-91088000D03*
X83717800Y-93628000D03*
X83717800Y-96168000D03*
X83717800Y-98708000D03*
X83717800Y-101248000D03*
X83717800Y-103788000D03*
X83717800Y-106328000D03*
X83717800Y-108868000D03*
X83717800Y-111408000D03*
X83717800Y-113948000D03*
X83717800Y-116488000D03*
X83717800Y-119028000D03*
X83717800Y-121568000D03*
X83717800Y-124108000D03*
X83717800Y-126648000D03*
X83717800Y-129188000D03*
X83717800Y-131728000D03*
X83717800Y-134268000D03*
X83717800Y-136808000D03*
X83717800Y-139348000D03*
X83717800Y-141888000D03*
X83717800Y-144428000D03*
X83717800Y-146968000D03*
X88797800Y-70768000D03*
X88797800Y-73308000D03*
X88797800Y-75848000D03*
X88797800Y-78388000D03*
X88797800Y-80928000D03*
X88797800Y-83468000D03*
X88797800Y-86008000D03*
X88797800Y-88548000D03*
X88797800Y-91088000D03*
X88797800Y-93628000D03*
X88797800Y-96168000D03*
X88797800Y-98708000D03*
X88797800Y-101248000D03*
X88797800Y-103788000D03*
X88797800Y-106328000D03*
X88797800Y-108868000D03*
X88797800Y-111408000D03*
X88797800Y-113948000D03*
X88797800Y-116488000D03*
X88797800Y-119028000D03*
X88797800Y-121568000D03*
X88797800Y-124108000D03*
X88797800Y-126648000D03*
X88797800Y-129188000D03*
X88797800Y-131728000D03*
X88797800Y-134268000D03*
X88797800Y-136808000D03*
X88797800Y-139348000D03*
X88797800Y-141888000D03*
X88797800Y-144428000D03*
X88797800Y-146968000D03*
X43097800Y-157118000D03*
X43097800Y-159658000D03*
X43097800Y-162198000D03*
X43097800Y-164738000D03*
X43097800Y-167278000D03*
X43097800Y-169818000D03*
X43097800Y-172358000D03*
X43097800Y-174898000D03*
X43097800Y-177438000D03*
X43097800Y-179978000D03*
X43097800Y-182518000D03*
X43097800Y-185058000D03*
X43097800Y-187598000D03*
X43097800Y-190138000D03*
X43097800Y-192678000D03*
X43097800Y-195218000D03*
X43097800Y-197758000D03*
X43097800Y-200298000D03*
X48177800Y-157118000D03*
X48177800Y-159658000D03*
X48177800Y-162198000D03*
X48177800Y-164738000D03*
X48177800Y-167278000D03*
X48177800Y-169818000D03*
X48177800Y-172358000D03*
X48177800Y-174898000D03*
X48177800Y-177438000D03*
X48177800Y-179978000D03*
X48177800Y-182518000D03*
X48177800Y-185058000D03*
X48177800Y-187598000D03*
X48177800Y-190138000D03*
X48177800Y-192678000D03*
X48177800Y-195218000D03*
X48177800Y-197758000D03*
X48177800Y-200298000D03*
X63402800Y-157118000D03*
X63402800Y-159658000D03*
X63402800Y-162198000D03*
X63402800Y-164738000D03*
X63402800Y-167278000D03*
X63402800Y-169818000D03*
X63402800Y-172358000D03*
X63402800Y-174898000D03*
X63402800Y-177438000D03*
X63402800Y-179978000D03*
X63402800Y-182518000D03*
X63402800Y-185058000D03*
X63402800Y-187598000D03*
X63402800Y-190138000D03*
X63402800Y-192678000D03*
X63402800Y-195218000D03*
X63402800Y-197758000D03*
X63402800Y-200298000D03*
X68482800Y-157118000D03*
X68482800Y-159658000D03*
X68482800Y-162198000D03*
X68482800Y-164738000D03*
X68482800Y-167278000D03*
X68482800Y-169818000D03*
X68482800Y-172358000D03*
X68482800Y-174898000D03*
X68482800Y-177438000D03*
X68482800Y-179978000D03*
X68482800Y-182518000D03*
X68482800Y-185058000D03*
X68482800Y-187598000D03*
X68482800Y-190138000D03*
X68482800Y-192678000D03*
X68482800Y-195218000D03*
X68482800Y-197758000D03*
X68482800Y-200298000D03*
X83717800Y-157118000D03*
X83717800Y-159658000D03*
X83717800Y-162198000D03*
X83717800Y-164738000D03*
X83717800Y-167278000D03*
X83717800Y-169818000D03*
X83717800Y-172358000D03*
X83717800Y-174898000D03*
X83717800Y-177438000D03*
X83717800Y-179978000D03*
X83717800Y-182518000D03*
X83717800Y-185058000D03*
X83717800Y-187598000D03*
X83717800Y-190138000D03*
X83717800Y-192678000D03*
X83717800Y-195218000D03*
X83717800Y-197758000D03*
X83717800Y-200298000D03*
X88797800Y-157118000D03*
X88797800Y-159658000D03*
X88797800Y-162198000D03*
X88797800Y-164738000D03*
X88797800Y-167278000D03*
X88797800Y-169818000D03*
X88797800Y-172358000D03*
X88797800Y-174898000D03*
X88797800Y-177438000D03*
X88797800Y-179978000D03*
X88797800Y-182518000D03*
X88797800Y-185058000D03*
X88797800Y-187598000D03*
X88797800Y-190138000D03*
X88797800Y-192678000D03*
X88797800Y-195218000D03*
X88797800Y-197758000D03*
X88797800Y-200298000D03*
X104218000Y-157118000D03*
X104218000Y-159658000D03*
X104218000Y-162198000D03*
X104218000Y-164738000D03*
X104218000Y-167278000D03*
X104218000Y-169818000D03*
X104218000Y-172358000D03*
X104218000Y-174898000D03*
X104218000Y-177438000D03*
X104218000Y-179978000D03*
X104218000Y-182518000D03*
X104218000Y-185058000D03*
X104218000Y-187598000D03*
X104218000Y-190138000D03*
X104218000Y-192678000D03*
X104218000Y-195218000D03*
X104218000Y-197758000D03*
X104218000Y-200298000D03*
X109298000Y-157118000D03*
X109298000Y-159658000D03*
X109298000Y-162198000D03*
X109298000Y-164738000D03*
X109298000Y-167278000D03*
X109298000Y-169818000D03*
X109298000Y-172358000D03*
X109298000Y-174898000D03*
X109298000Y-177438000D03*
X109298000Y-179978000D03*
X109298000Y-182518000D03*
X109298000Y-185058000D03*
X109298000Y-187598000D03*
X109298000Y-190138000D03*
X109298000Y-192678000D03*
X109298000Y-195218000D03*
X109298000Y-197758000D03*
X109298000Y-200298000D03*
X224723000Y-331848000D03*
X219643000Y-331848000D03*
X224723000Y-329308000D03*
X219643000Y-329308000D03*
X224723000Y-326768000D03*
X219643000Y-326768000D03*
X224723000Y-324228000D03*
X219643000Y-324228000D03*
X224723000Y-321688000D03*
X219643000Y-321688000D03*
X224723000Y-319148000D03*
X219643000Y-319148000D03*
X224723000Y-316608000D03*
X219643000Y-316608000D03*
X224723000Y-314068000D03*
X224723000Y-311528000D03*
X224723000Y-308988000D03*
X224723000Y-306448000D03*
X224723000Y-303908000D03*
X224723000Y-301368000D03*
X219643000Y-314068000D03*
X219643000Y-311528000D03*
X219643000Y-308988000D03*
X219643000Y-306448000D03*
X219643000Y-303908000D03*
X219643000Y-301368000D03*
X224723000Y-298828000D03*
X219643000Y-298828000D03*
X224723000Y-296288000D03*
X219643000Y-296288000D03*
X224723000Y-293748000D03*
X219643000Y-293748000D03*
X224723000Y-291208000D03*
X219643000Y-291208000D03*
X224723000Y-288668000D03*
X219643000Y-288668000D03*
X224723000Y-286128000D03*
X219643000Y-286128000D03*
X224723000Y-283588000D03*
X219643000Y-283588000D03*
X224723000Y-281048000D03*
X219643000Y-281048000D03*
X224723000Y-278508000D03*
X219643000Y-278508000D03*
X224723000Y-275968000D03*
X219643000Y-275968000D03*
X224723000Y-273428000D03*
X219643000Y-273428000D03*
X224723000Y-270888000D03*
X219643000Y-270888000D03*
X219643000Y-265808000D03*
X219643000Y-263268000D03*
X219643000Y-260728000D03*
X219643000Y-258188000D03*
X224723000Y-263268000D03*
X224723000Y-227708000D03*
X224723000Y-225168000D03*
X219643000Y-268348000D03*
X224723000Y-268348000D03*
X224723000Y-260728000D03*
X219643000Y-227708000D03*
G36*
G01*
X220405000Y-225981000D02*
X218881000Y-225981000D01*
G75*
G02*
X218830000Y-225930000I0J51000D01*
G01*
X218830000Y-224406000D01*
G75*
G02*
X218881000Y-224355000I51000J0D01*
G01*
X220405000Y-224355000D01*
G75*
G02*
X220456000Y-224406000I0J-51000D01*
G01*
X220456000Y-225930000D01*
G75*
G02*
X220405000Y-225981000I-51000J0D01*
G01*
G37*
X224723000Y-232788000D03*
X224723000Y-230248000D03*
X224723000Y-242948000D03*
X224723000Y-240408000D03*
X224723000Y-237868000D03*
X224723000Y-235328000D03*
X219643000Y-248028000D03*
X219643000Y-245488000D03*
X219643000Y-242948000D03*
X219643000Y-240408000D03*
X219643000Y-237868000D03*
X219643000Y-235328000D03*
X219643000Y-255648000D03*
X219643000Y-253108000D03*
X219643000Y-250568000D03*
X224723000Y-258188000D03*
X224723000Y-255648000D03*
X224723000Y-253108000D03*
X224723000Y-250568000D03*
X224723000Y-248028000D03*
X224723000Y-245488000D03*
X219643000Y-232788000D03*
X219643000Y-230248000D03*
X224723000Y-265808000D03*
X88797800Y-337228000D03*
X83717800Y-337228000D03*
X88797800Y-334688000D03*
X83717800Y-334688000D03*
X88797800Y-332148000D03*
X83717800Y-332148000D03*
X88797800Y-329608000D03*
X83717800Y-329608000D03*
X88797800Y-327068000D03*
X83717800Y-327068000D03*
X88797800Y-324528000D03*
X83717800Y-324528000D03*
X88797800Y-321988000D03*
X83717800Y-321988000D03*
X88797800Y-319448000D03*
X83717800Y-319448000D03*
X88797800Y-316908000D03*
X83717800Y-316908000D03*
X88797800Y-314368000D03*
X83717800Y-314368000D03*
X88797800Y-311828000D03*
X83717800Y-311828000D03*
X88797800Y-309288000D03*
X83717800Y-309288000D03*
X88797800Y-306748000D03*
X83717800Y-306748000D03*
X88797800Y-304208000D03*
X83717800Y-304208000D03*
X88797800Y-301668000D03*
X88797800Y-299128000D03*
X88797800Y-296588000D03*
X88797800Y-294048000D03*
X88797800Y-291508000D03*
X88797800Y-288968000D03*
X83717800Y-301668000D03*
X83717800Y-299128000D03*
X83717800Y-296588000D03*
X83717800Y-294048000D03*
X83717800Y-291508000D03*
X83717800Y-288968000D03*
X88797800Y-286428000D03*
X83717800Y-286428000D03*
X88797800Y-283888000D03*
X83717800Y-283888000D03*
X88797800Y-281348000D03*
X83717800Y-281348000D03*
X88797800Y-278808000D03*
X83717800Y-278808000D03*
X88797800Y-276268000D03*
X83717800Y-276268000D03*
X88797800Y-273728000D03*
X83717800Y-273728000D03*
X88797800Y-271188000D03*
X83717800Y-271188000D03*
X88797800Y-268648000D03*
X83717800Y-268648000D03*
X88797800Y-266108000D03*
X83717800Y-266108000D03*
X88797800Y-263568000D03*
X83717800Y-263568000D03*
X88797800Y-261028000D03*
X83717800Y-261028000D03*
X88797800Y-258488000D03*
X83717800Y-258488000D03*
X83717800Y-253408000D03*
X83717800Y-250868000D03*
X83717800Y-248328000D03*
X83717800Y-245788000D03*
X88797800Y-250868000D03*
X88797800Y-215308000D03*
X88797800Y-212768000D03*
X83717800Y-255948000D03*
X88797800Y-255948000D03*
X88797800Y-248328000D03*
X83717800Y-215308000D03*
G36*
G01*
X84479800Y-213581000D02*
X82955800Y-213581000D01*
G75*
G02*
X82904800Y-213530000I0J51000D01*
G01*
X82904800Y-212006000D01*
G75*
G02*
X82955800Y-211955000I51000J0D01*
G01*
X84479800Y-211955000D01*
G75*
G02*
X84530800Y-212006000I0J-51000D01*
G01*
X84530800Y-213530000D01*
G75*
G02*
X84479800Y-213581000I-51000J0D01*
G01*
G37*
X88797800Y-220388000D03*
X88797800Y-217848000D03*
X88797800Y-230548000D03*
X88797800Y-228008000D03*
X88797800Y-225468000D03*
X88797800Y-222928000D03*
X83717800Y-235628000D03*
X83717800Y-233088000D03*
X83717800Y-230548000D03*
X83717800Y-228008000D03*
X83717800Y-225468000D03*
X83717800Y-222928000D03*
X83717800Y-243248000D03*
X83717800Y-240708000D03*
X83717800Y-238168000D03*
X88797800Y-245788000D03*
X88797800Y-243248000D03*
X88797800Y-240708000D03*
X88797800Y-238168000D03*
X88797800Y-235628000D03*
X88797800Y-233088000D03*
X83717800Y-220388000D03*
X83717800Y-217848000D03*
X88797800Y-253408000D03*
X109298000Y-337228000D03*
X104218000Y-337228000D03*
X109298000Y-334688000D03*
X104218000Y-334688000D03*
X109298000Y-332148000D03*
X104218000Y-332148000D03*
X109298000Y-329608000D03*
X104218000Y-329608000D03*
X109298000Y-327068000D03*
X104218000Y-327068000D03*
X109298000Y-324528000D03*
X104218000Y-324528000D03*
X109298000Y-321988000D03*
X104218000Y-321988000D03*
X109298000Y-319448000D03*
X104218000Y-319448000D03*
X109298000Y-316908000D03*
X104218000Y-316908000D03*
X109298000Y-314368000D03*
X104218000Y-314368000D03*
X109298000Y-311828000D03*
X104218000Y-311828000D03*
X109298000Y-309288000D03*
X104218000Y-309288000D03*
X109298000Y-306748000D03*
X104218000Y-306748000D03*
X109298000Y-304208000D03*
X104218000Y-304208000D03*
X109298000Y-301668000D03*
X109298000Y-299128000D03*
X109298000Y-296588000D03*
X109298000Y-294048000D03*
X109298000Y-291508000D03*
X109298000Y-288968000D03*
X104218000Y-301668000D03*
X104218000Y-299128000D03*
X104218000Y-296588000D03*
X104218000Y-294048000D03*
X104218000Y-291508000D03*
X104218000Y-288968000D03*
X109298000Y-286428000D03*
X104218000Y-286428000D03*
X109298000Y-283888000D03*
X104218000Y-283888000D03*
X109298000Y-281348000D03*
X104218000Y-281348000D03*
X109298000Y-278808000D03*
X104218000Y-278808000D03*
X109298000Y-276268000D03*
X104218000Y-276268000D03*
X109298000Y-273728000D03*
X104218000Y-273728000D03*
X109298000Y-271188000D03*
X104218000Y-271188000D03*
X109298000Y-268648000D03*
X104218000Y-268648000D03*
X109298000Y-266108000D03*
X104218000Y-266108000D03*
X109298000Y-263568000D03*
X104218000Y-263568000D03*
X109298000Y-261028000D03*
X104218000Y-261028000D03*
X109298000Y-258488000D03*
X104218000Y-258488000D03*
X104218000Y-253408000D03*
X104218000Y-250868000D03*
X104218000Y-248328000D03*
X104218000Y-245788000D03*
X109298000Y-250868000D03*
X109298000Y-215308000D03*
X109298000Y-212768000D03*
X104218000Y-255948000D03*
X109298000Y-255948000D03*
X109298000Y-248328000D03*
X104218000Y-215308000D03*
G36*
G01*
X104980000Y-213581000D02*
X103456000Y-213581000D01*
G75*
G02*
X103405000Y-213530000I0J51000D01*
G01*
X103405000Y-212006000D01*
G75*
G02*
X103456000Y-211955000I51000J0D01*
G01*
X104980000Y-211955000D01*
G75*
G02*
X105031000Y-212006000I0J-51000D01*
G01*
X105031000Y-213530000D01*
G75*
G02*
X104980000Y-213581000I-51000J0D01*
G01*
G37*
X109298000Y-220388000D03*
X109298000Y-217848000D03*
X109298000Y-230548000D03*
X109298000Y-228008000D03*
X109298000Y-225468000D03*
X109298000Y-222928000D03*
X104218000Y-235628000D03*
X104218000Y-233088000D03*
X104218000Y-230548000D03*
X104218000Y-228008000D03*
X104218000Y-225468000D03*
X104218000Y-222928000D03*
X104218000Y-243248000D03*
X104218000Y-240708000D03*
X104218000Y-238168000D03*
X109298000Y-245788000D03*
X109298000Y-243248000D03*
X109298000Y-240708000D03*
X109298000Y-238168000D03*
X109298000Y-235628000D03*
X109298000Y-233088000D03*
X104218000Y-220388000D03*
X104218000Y-217848000D03*
X109298000Y-253408000D03*
X129473000Y-337228000D03*
X124393000Y-337228000D03*
X129473000Y-334688000D03*
X124393000Y-334688000D03*
X129473000Y-332148000D03*
X124393000Y-332148000D03*
X129473000Y-329608000D03*
X124393000Y-329608000D03*
X129473000Y-327068000D03*
X124393000Y-327068000D03*
X129473000Y-324528000D03*
X124393000Y-324528000D03*
X129473000Y-321988000D03*
X124393000Y-321988000D03*
X129473000Y-319448000D03*
X124393000Y-319448000D03*
X129473000Y-316908000D03*
X124393000Y-316908000D03*
X129473000Y-314368000D03*
X124393000Y-314368000D03*
X129473000Y-311828000D03*
X124393000Y-311828000D03*
X129473000Y-309288000D03*
X124393000Y-309288000D03*
X129473000Y-306748000D03*
X124393000Y-306748000D03*
X129473000Y-304208000D03*
X124393000Y-304208000D03*
X129473000Y-301668000D03*
X129473000Y-299128000D03*
X129473000Y-296588000D03*
X129473000Y-294048000D03*
X129473000Y-291508000D03*
X129473000Y-288968000D03*
X124393000Y-301668000D03*
X124393000Y-299128000D03*
X124393000Y-296588000D03*
X124393000Y-294048000D03*
X124393000Y-291508000D03*
X124393000Y-288968000D03*
X129473000Y-286428000D03*
X124393000Y-286428000D03*
X129473000Y-283888000D03*
X124393000Y-283888000D03*
X129473000Y-281348000D03*
X124393000Y-281348000D03*
X129473000Y-278808000D03*
X124393000Y-278808000D03*
X129473000Y-276268000D03*
X124393000Y-276268000D03*
X129473000Y-273728000D03*
X124393000Y-273728000D03*
X129473000Y-271188000D03*
X124393000Y-271188000D03*
X129473000Y-268648000D03*
X124393000Y-268648000D03*
X129473000Y-266108000D03*
X124393000Y-266108000D03*
X129473000Y-263568000D03*
X124393000Y-263568000D03*
X129473000Y-261028000D03*
X124393000Y-261028000D03*
X129473000Y-258488000D03*
X124393000Y-258488000D03*
X124393000Y-253408000D03*
X124393000Y-250868000D03*
X124393000Y-248328000D03*
X124393000Y-245788000D03*
X129473000Y-250868000D03*
X129473000Y-215308000D03*
X129473000Y-212768000D03*
X124393000Y-255948000D03*
X129473000Y-255948000D03*
X129473000Y-248328000D03*
X124393000Y-215308000D03*
G36*
G01*
X125155000Y-213581000D02*
X123631000Y-213581000D01*
G75*
G02*
X123580000Y-213530000I0J51000D01*
G01*
X123580000Y-212006000D01*
G75*
G02*
X123631000Y-211955000I51000J0D01*
G01*
X125155000Y-211955000D01*
G75*
G02*
X125206000Y-212006000I0J-51000D01*
G01*
X125206000Y-213530000D01*
G75*
G02*
X125155000Y-213581000I-51000J0D01*
G01*
G37*
X129473000Y-220388000D03*
X129473000Y-217848000D03*
X129473000Y-230548000D03*
X129473000Y-228008000D03*
X129473000Y-225468000D03*
X129473000Y-222928000D03*
X124393000Y-235628000D03*
X124393000Y-233088000D03*
X124393000Y-230548000D03*
X124393000Y-228008000D03*
X124393000Y-225468000D03*
X124393000Y-222928000D03*
X124393000Y-243248000D03*
X124393000Y-240708000D03*
X124393000Y-238168000D03*
X129473000Y-245788000D03*
X129473000Y-243248000D03*
X129473000Y-240708000D03*
X129473000Y-238168000D03*
X129473000Y-235628000D03*
X129473000Y-233088000D03*
X124393000Y-220388000D03*
X124393000Y-217848000D03*
X129473000Y-253408000D03*
X149898000Y-337228000D03*
X144818000Y-337228000D03*
X149898000Y-334688000D03*
X144818000Y-334688000D03*
X149898000Y-332148000D03*
X144818000Y-332148000D03*
X149898000Y-329608000D03*
X144818000Y-329608000D03*
X149898000Y-327068000D03*
X144818000Y-327068000D03*
X149898000Y-324528000D03*
X144818000Y-324528000D03*
X149898000Y-321988000D03*
X144818000Y-321988000D03*
X149898000Y-319448000D03*
X144818000Y-319448000D03*
X149898000Y-316908000D03*
X144818000Y-316908000D03*
X149898000Y-314368000D03*
X144818000Y-314368000D03*
X149898000Y-311828000D03*
X144818000Y-311828000D03*
X149898000Y-309288000D03*
X144818000Y-309288000D03*
X149898000Y-306748000D03*
X144818000Y-306748000D03*
X149898000Y-304208000D03*
X144818000Y-304208000D03*
X149898000Y-301668000D03*
X149898000Y-299128000D03*
X149898000Y-296588000D03*
X149898000Y-294048000D03*
X149898000Y-291508000D03*
X149898000Y-288968000D03*
X144818000Y-301668000D03*
X144818000Y-299128000D03*
X144818000Y-296588000D03*
X144818000Y-294048000D03*
X144818000Y-291508000D03*
X144818000Y-288968000D03*
X149898000Y-286428000D03*
X144818000Y-286428000D03*
X149898000Y-283888000D03*
X144818000Y-283888000D03*
X149898000Y-281348000D03*
X144818000Y-281348000D03*
X149898000Y-278808000D03*
X144818000Y-278808000D03*
X149898000Y-276268000D03*
X144818000Y-276268000D03*
X149898000Y-273728000D03*
X144818000Y-273728000D03*
X149898000Y-271188000D03*
X144818000Y-271188000D03*
X149898000Y-268648000D03*
X144818000Y-268648000D03*
X149898000Y-266108000D03*
X144818000Y-266108000D03*
X149898000Y-263568000D03*
X144818000Y-263568000D03*
X149898000Y-261028000D03*
X144818000Y-261028000D03*
X149898000Y-258488000D03*
X144818000Y-258488000D03*
X144818000Y-253408000D03*
X144818000Y-250868000D03*
X144818000Y-248328000D03*
X144818000Y-245788000D03*
X149898000Y-250868000D03*
X149898000Y-215308000D03*
X149898000Y-212768000D03*
X144818000Y-255948000D03*
X149898000Y-255948000D03*
X149898000Y-248328000D03*
X144818000Y-215308000D03*
G36*
G01*
X145580000Y-213581000D02*
X144056000Y-213581000D01*
G75*
G02*
X144005000Y-213530000I0J51000D01*
G01*
X144005000Y-212006000D01*
G75*
G02*
X144056000Y-211955000I51000J0D01*
G01*
X145580000Y-211955000D01*
G75*
G02*
X145631000Y-212006000I0J-51000D01*
G01*
X145631000Y-213530000D01*
G75*
G02*
X145580000Y-213581000I-51000J0D01*
G01*
G37*
X149898000Y-220388000D03*
X149898000Y-217848000D03*
X149898000Y-230548000D03*
X149898000Y-228008000D03*
X149898000Y-225468000D03*
X149898000Y-222928000D03*
X144818000Y-235628000D03*
X144818000Y-233088000D03*
X144818000Y-230548000D03*
X144818000Y-228008000D03*
X144818000Y-225468000D03*
X144818000Y-222928000D03*
X144818000Y-243248000D03*
X144818000Y-240708000D03*
X144818000Y-238168000D03*
X149898000Y-245788000D03*
X149898000Y-243248000D03*
X149898000Y-240708000D03*
X149898000Y-238168000D03*
X149898000Y-235628000D03*
X149898000Y-233088000D03*
X144818000Y-220388000D03*
X144818000Y-217848000D03*
X149898000Y-253408000D03*
X170248000Y-337228000D03*
X165168000Y-337228000D03*
X170248000Y-334688000D03*
X165168000Y-334688000D03*
X170248000Y-332148000D03*
X165168000Y-332148000D03*
X170248000Y-329608000D03*
X165168000Y-329608000D03*
X170248000Y-327068000D03*
X165168000Y-327068000D03*
X170248000Y-324528000D03*
X165168000Y-324528000D03*
X170248000Y-321988000D03*
X165168000Y-321988000D03*
X170248000Y-319448000D03*
X165168000Y-319448000D03*
X170248000Y-316908000D03*
X165168000Y-316908000D03*
X170248000Y-314368000D03*
X165168000Y-314368000D03*
X170248000Y-311828000D03*
X165168000Y-311828000D03*
X170248000Y-309288000D03*
X165168000Y-309288000D03*
X170248000Y-306748000D03*
X165168000Y-306748000D03*
X170248000Y-304208000D03*
X165168000Y-304208000D03*
X170248000Y-301668000D03*
X170248000Y-299128000D03*
X170248000Y-296588000D03*
X170248000Y-294048000D03*
X170248000Y-291508000D03*
X170248000Y-288968000D03*
X165168000Y-301668000D03*
X165168000Y-299128000D03*
X165168000Y-296588000D03*
X165168000Y-294048000D03*
X165168000Y-291508000D03*
X165168000Y-288968000D03*
X170248000Y-286428000D03*
X165168000Y-286428000D03*
X170248000Y-283888000D03*
X165168000Y-283888000D03*
X170248000Y-281348000D03*
X165168000Y-281348000D03*
X170248000Y-278808000D03*
X165168000Y-278808000D03*
X170248000Y-276268000D03*
X165168000Y-276268000D03*
X170248000Y-273728000D03*
X165168000Y-273728000D03*
X170248000Y-271188000D03*
X165168000Y-271188000D03*
X170248000Y-268648000D03*
X165168000Y-268648000D03*
X170248000Y-266108000D03*
X165168000Y-266108000D03*
X170248000Y-263568000D03*
X165168000Y-263568000D03*
X170248000Y-261028000D03*
X165168000Y-261028000D03*
X170248000Y-258488000D03*
X165168000Y-258488000D03*
X165168000Y-253408000D03*
X165168000Y-250868000D03*
X165168000Y-248328000D03*
X165168000Y-245788000D03*
X170248000Y-250868000D03*
X170248000Y-215308000D03*
X170248000Y-212768000D03*
X165168000Y-255948000D03*
X170248000Y-255948000D03*
X170248000Y-248328000D03*
X165168000Y-215308000D03*
G36*
G01*
X165930000Y-213581000D02*
X164406000Y-213581000D01*
G75*
G02*
X164355000Y-213530000I0J51000D01*
G01*
X164355000Y-212006000D01*
G75*
G02*
X164406000Y-211955000I51000J0D01*
G01*
X165930000Y-211955000D01*
G75*
G02*
X165981000Y-212006000I0J-51000D01*
G01*
X165981000Y-213530000D01*
G75*
G02*
X165930000Y-213581000I-51000J0D01*
G01*
G37*
X170248000Y-220388000D03*
X170248000Y-217848000D03*
X170248000Y-230548000D03*
X170248000Y-228008000D03*
X170248000Y-225468000D03*
X170248000Y-222928000D03*
X165168000Y-235628000D03*
X165168000Y-233088000D03*
X165168000Y-230548000D03*
X165168000Y-228008000D03*
X165168000Y-225468000D03*
X165168000Y-222928000D03*
X165168000Y-243248000D03*
X165168000Y-240708000D03*
X165168000Y-238168000D03*
X170248000Y-245788000D03*
X170248000Y-243248000D03*
X170248000Y-240708000D03*
X170248000Y-238168000D03*
X170248000Y-235628000D03*
X170248000Y-233088000D03*
X165168000Y-220388000D03*
X165168000Y-217848000D03*
X170248000Y-253408000D03*
G36*
G01*
X270574000Y-344068000D02*
X270574000Y-345768000D01*
G75*
G02*
X270523000Y-345819000I-51000J0D01*
G01*
X268823000Y-345819000D01*
G75*
G02*
X268772000Y-345768000I0J51000D01*
G01*
X268772000Y-344068000D01*
G75*
G02*
X268823000Y-344017000I51000J0D01*
G01*
X270523000Y-344017000D01*
G75*
G02*
X270574000Y-344068000I0J-51000D01*
G01*
G37*
D15*
X272213000Y-344918000D03*
G36*
G01*
X358143000Y-147257000D02*
X360143000Y-147257000D01*
G75*
G02*
X360194000Y-147308000I0J-51000D01*
G01*
X360194000Y-149308000D01*
G75*
G02*
X360143000Y-149359000I-51000J0D01*
G01*
X358143000Y-149359000D01*
G75*
G02*
X358092000Y-149308000I0J51000D01*
G01*
X358092000Y-147308000D01*
G75*
G02*
X358143000Y-147257000I51000J0D01*
G01*
G37*
D16*
X359143000Y-153308000D03*
G36*
G01*
X428642000Y-114438000D02*
X428642000Y-112438000D01*
G75*
G02*
X428693000Y-112387000I51000J0D01*
G01*
X430693000Y-112387000D01*
G75*
G02*
X430744000Y-112438000I0J-51000D01*
G01*
X430744000Y-114438000D01*
G75*
G02*
X430693000Y-114489000I-51000J0D01*
G01*
X428693000Y-114489000D01*
G75*
G02*
X428642000Y-114438000I0J51000D01*
G01*
G37*
X434693000Y-113438000D03*
G36*
G01*
X392297000Y-365668000D02*
X392297000Y-364068000D01*
G75*
G02*
X392348000Y-364017000I51000J0D01*
G01*
X393948000Y-364017000D01*
G75*
G02*
X393999000Y-364068000I0J-51000D01*
G01*
X393999000Y-365668000D01*
G75*
G02*
X393948000Y-365719000I-51000J0D01*
G01*
X392348000Y-365719000D01*
G75*
G02*
X392297000Y-365668000I0J51000D01*
G01*
G37*
D12*
X395918000Y-364868000D03*
X398688000Y-364868000D03*
X401458000Y-364868000D03*
X404228000Y-364868000D03*
X394533000Y-367708000D03*
X397303000Y-367708000D03*
X400073000Y-367708000D03*
X402843000Y-367708000D03*
D17*
X386188000Y-366288000D03*
X411188000Y-366288000D03*
X370438000Y-366288000D03*
X345438000Y-366288000D03*
D12*
X362093000Y-367708000D03*
X359323000Y-367708000D03*
X356553000Y-367708000D03*
X353783000Y-367708000D03*
X363478000Y-364868000D03*
X360708000Y-364868000D03*
X357938000Y-364868000D03*
X355168000Y-364868000D03*
G36*
G01*
X351547000Y-365668000D02*
X351547000Y-364068000D01*
G75*
G02*
X351598000Y-364017000I51000J0D01*
G01*
X353198000Y-364017000D01*
G75*
G02*
X353249000Y-364068000I0J-51000D01*
G01*
X353249000Y-365668000D01*
G75*
G02*
X353198000Y-365719000I-51000J0D01*
G01*
X351598000Y-365719000D01*
G75*
G02*
X351547000Y-365668000I0J51000D01*
G01*
G37*
D17*
X406703000Y-38138400D03*
X450703000Y-38138400D03*
D12*
X414688000Y-36718400D03*
X417458000Y-36718400D03*
X420228000Y-36718400D03*
X422998000Y-36718400D03*
X425768000Y-36718400D03*
X428538000Y-36718400D03*
X431308000Y-36718400D03*
X434078000Y-36718400D03*
X436848000Y-36718400D03*
X439618000Y-36718400D03*
X442388000Y-36718400D03*
X413303000Y-39558400D03*
X416073000Y-39558400D03*
X418843000Y-39558400D03*
X421613000Y-39558400D03*
X424383000Y-39558400D03*
X427153000Y-39558400D03*
X429923000Y-39558400D03*
X432693000Y-39558400D03*
X435463000Y-39558400D03*
X438233000Y-39558400D03*
X441003000Y-39558400D03*
G36*
G01*
X444624000Y-38758400D02*
X444624000Y-40358400D01*
G75*
G02*
X444573000Y-40409400I-51000J0D01*
G01*
X442973000Y-40409400D01*
G75*
G02*
X442922000Y-40358400I0J51000D01*
G01*
X442922000Y-38758400D01*
G75*
G02*
X442973000Y-38707400I51000J0D01*
G01*
X444573000Y-38707400D01*
G75*
G02*
X444624000Y-38758400I0J-51000D01*
G01*
G37*
D18*
X252973000Y-32668400D03*
D19*
X256723000Y-36668400D03*
X249223000Y-36668400D03*
X263848000Y-36668400D03*
X271348000Y-36668400D03*
D18*
X267598000Y-32668400D03*
X282298000Y-32668400D03*
D19*
X286048000Y-36668400D03*
X278548000Y-36668400D03*
G36*
G01*
X355554000Y-38758400D02*
X355554000Y-40358400D01*
G75*
G02*
X355503000Y-40409400I-51000J0D01*
G01*
X353903000Y-40409400D01*
G75*
G02*
X353852000Y-40358400I0J51000D01*
G01*
X353852000Y-38758400D01*
G75*
G02*
X353903000Y-38707400I51000J0D01*
G01*
X355503000Y-38707400D01*
G75*
G02*
X355554000Y-38758400I0J-51000D01*
G01*
G37*
D12*
X357473000Y-39558400D03*
X360243000Y-39558400D03*
X363013000Y-39558400D03*
X365783000Y-39558400D03*
X368553000Y-39558400D03*
X371323000Y-39558400D03*
X374093000Y-39558400D03*
X376863000Y-39558400D03*
X379633000Y-39558400D03*
X382403000Y-39558400D03*
X385173000Y-39558400D03*
X387943000Y-39558400D03*
X356088000Y-36718400D03*
X358858000Y-36718400D03*
X361628000Y-36718400D03*
X364398000Y-36718400D03*
X367168000Y-36718400D03*
X369938000Y-36718400D03*
X372708000Y-36718400D03*
X375478000Y-36718400D03*
X378248000Y-36718400D03*
X381018000Y-36718400D03*
X383788000Y-36718400D03*
X386558000Y-36718400D03*
D17*
X394873000Y-38138400D03*
X347773000Y-38138400D03*
G36*
G01*
X237534000Y-38758400D02*
X237534000Y-40358400D01*
G75*
G02*
X237483000Y-40409400I-51000J0D01*
G01*
X235883000Y-40409400D01*
G75*
G02*
X235832000Y-40358400I0J51000D01*
G01*
X235832000Y-38758400D01*
G75*
G02*
X235883000Y-38707400I51000J0D01*
G01*
X237483000Y-38707400D01*
G75*
G02*
X237534000Y-38758400I0J-51000D01*
G01*
G37*
D12*
X233913000Y-39558400D03*
X231143000Y-39558400D03*
X228373000Y-39558400D03*
X225603000Y-39558400D03*
X222833000Y-39558400D03*
X220063000Y-39558400D03*
X217293000Y-39558400D03*
X214523000Y-39558400D03*
X211753000Y-39558400D03*
X208983000Y-39558400D03*
X206213000Y-39558400D03*
X203443000Y-39558400D03*
X235298000Y-36718400D03*
X232528000Y-36718400D03*
X229758000Y-36718400D03*
X226988000Y-36718400D03*
X224218000Y-36718400D03*
X221448000Y-36718400D03*
X218678000Y-36718400D03*
X215908000Y-36718400D03*
X213138000Y-36718400D03*
X210368000Y-36718400D03*
X207598000Y-36718400D03*
X204828000Y-36718400D03*
D17*
X243613000Y-38138400D03*
X196513000Y-38138400D03*
G36*
G01*
X236273000Y-145167000D02*
X239273000Y-145167000D01*
G75*
G02*
X239324000Y-145218000I0J-51000D01*
G01*
X239324000Y-148218000D01*
G75*
G02*
X239273000Y-148269000I-51000J0D01*
G01*
X236273000Y-148269000D01*
G75*
G02*
X236222000Y-148218000I0J51000D01*
G01*
X236222000Y-145218000D01*
G75*
G02*
X236273000Y-145167000I51000J0D01*
G01*
G37*
D11*
X237773000Y-150678000D03*
X237773000Y-154638000D03*
X237773000Y-158598000D03*
X237773000Y-162558000D03*
X237773000Y-166518000D03*
X237773000Y-170478000D03*
X237773000Y-174438000D03*
X237773000Y-178398000D03*
X237773000Y-182358000D03*
X237773000Y-186318000D03*
X237773000Y-190278000D03*
X237773000Y-194238000D03*
X237773000Y-198198000D03*
G36*
G01*
X292364000Y-73828400D02*
X292364000Y-75428400D01*
G75*
G02*
X292313000Y-75479400I-51000J0D01*
G01*
X290713000Y-75479400D01*
G75*
G02*
X290662000Y-75428400I0J51000D01*
G01*
X290662000Y-73828400D01*
G75*
G02*
X290713000Y-73777400I51000J0D01*
G01*
X292313000Y-73777400D01*
G75*
G02*
X292364000Y-73828400I0J-51000D01*
G01*
G37*
D13*
X283893000Y-74628400D03*
D20*
X197873000Y-189948000D03*
G36*
G01*
X196773000Y-178637000D02*
X198973000Y-178637000D01*
G75*
G02*
X199024000Y-178688000I0J-51000D01*
G01*
X199024000Y-180888000D01*
G75*
G02*
X198973000Y-180939000I-51000J0D01*
G01*
X196773000Y-180939000D01*
G75*
G02*
X196722000Y-180888000I0J51000D01*
G01*
X196722000Y-178688000D01*
G75*
G02*
X196773000Y-178637000I51000J0D01*
G01*
G37*
G36*
G01*
X195223000Y-191099000D02*
X193023000Y-191099000D01*
G75*
G02*
X192972000Y-191048000I0J51000D01*
G01*
X192972000Y-188848000D01*
G75*
G02*
X193023000Y-188797000I51000J0D01*
G01*
X195223000Y-188797000D01*
G75*
G02*
X195274000Y-188848000I0J-51000D01*
G01*
X195274000Y-191048000D01*
G75*
G02*
X195223000Y-191099000I-51000J0D01*
G01*
G37*
X194123000Y-179788000D03*
G36*
G01*
X156673000Y-357257000D02*
X158273000Y-357257000D01*
G75*
G02*
X158324000Y-357308000I0J-51000D01*
G01*
X158324000Y-358908000D01*
G75*
G02*
X158273000Y-358959000I-51000J0D01*
G01*
X156673000Y-358959000D01*
G75*
G02*
X156622000Y-358908000I0J51000D01*
G01*
X156622000Y-357308000D01*
G75*
G02*
X156673000Y-357257000I51000J0D01*
G01*
G37*
D13*
X157473000Y-365728000D03*
X159983000Y-365728000D03*
G36*
G01*
X159183000Y-357257000D02*
X160783000Y-357257000D01*
G75*
G02*
X160834000Y-357308000I0J-51000D01*
G01*
X160834000Y-358908000D01*
G75*
G02*
X160783000Y-358959000I-51000J0D01*
G01*
X159183000Y-358959000D01*
G75*
G02*
X159132000Y-358908000I0J51000D01*
G01*
X159132000Y-357308000D01*
G75*
G02*
X159183000Y-357257000I51000J0D01*
G01*
G37*
D12*
X281273000Y-212468000D03*
D13*
X281273000Y-222628000D03*
D16*
X357533000Y-170618000D03*
D21*
X357533000Y-185858000D03*
D13*
X335163000Y-353908000D03*
D12*
X335163000Y-364068000D03*
D13*
X303833000Y-342198000D03*
D12*
X303833000Y-352358000D03*
X318553000Y-342198000D03*
D13*
X318553000Y-352358000D03*
D12*
X314723000Y-352358000D03*
D13*
X314723000Y-342198000D03*
X242233000Y-73503400D03*
D12*
X242233000Y-83663400D03*
X256998000Y-236393000D03*
D13*
X267158000Y-236393000D03*
D22*
X131007000Y-367248000D03*
D23*
X134007000Y-367248000D03*
X133128320Y-369369320D03*
X131007000Y-370248000D03*
X128885680Y-369369320D03*
X128007000Y-367248000D03*
X128885680Y-365126680D03*
X131007000Y-364248000D03*
X133128320Y-365126680D03*
X57480420Y-207373680D03*
X55359100Y-206495000D03*
X53237780Y-207373680D03*
X52359100Y-209495000D03*
X53237780Y-211616320D03*
X55359100Y-212495000D03*
X57480420Y-211616320D03*
X58359100Y-209495000D03*
D22*
X55359100Y-209495000D03*
X55791100Y-52142100D03*
D23*
X58791100Y-52142100D03*
X57912420Y-54263420D03*
X55791100Y-55142100D03*
X53669780Y-54263420D03*
X52791100Y-52142100D03*
X53669780Y-50020780D03*
X55791100Y-49142100D03*
X57912420Y-50020780D03*
X192684320Y-207627680D03*
X190563000Y-206749000D03*
X188441680Y-207627680D03*
X187563000Y-209749000D03*
X188441680Y-211870320D03*
X190563000Y-212749000D03*
X192684320Y-211870320D03*
X193563000Y-209749000D03*
D22*
X190563000Y-209749000D03*
D23*
X46844120Y-367996680D03*
X44722800Y-367118000D03*
X42601480Y-367996680D03*
X41722800Y-370118000D03*
X42601480Y-372239320D03*
X44722800Y-373118000D03*
X46844120Y-372239320D03*
X47722800Y-370118000D03*
D22*
X44722800Y-370118000D03*
X451432000Y-52489200D03*
D23*
X454432000Y-52489200D03*
X453553320Y-54610520D03*
X451432000Y-55489200D03*
X449310680Y-54610520D03*
X448432000Y-52489200D03*
X449310680Y-50367880D03*
X451432000Y-49489200D03*
X453553320Y-50367880D03*
X237503320Y-367838680D03*
X235382000Y-366960000D03*
X233260680Y-367838680D03*
X232382000Y-369960000D03*
X233260680Y-372081320D03*
X235382000Y-372960000D03*
X237503320Y-372081320D03*
X238382000Y-369960000D03*
D22*
X235382000Y-369960000D03*
X442034000Y-370396000D03*
D23*
X445034000Y-370396000D03*
X444155320Y-372517320D03*
X442034000Y-373396000D03*
X439912680Y-372517320D03*
X439034000Y-370396000D03*
X439912680Y-368274680D03*
X442034000Y-367396000D03*
X444155320Y-368274680D03*
X453020320Y-365378680D03*
X450899000Y-364500000D03*
X448777680Y-365378680D03*
X447899000Y-367500000D03*
X448777680Y-369621320D03*
X450899000Y-370500000D03*
X453020320Y-369621320D03*
X453899000Y-367500000D03*
D22*
X450899000Y-367500000D03*
D23*
X250177320Y-365095680D03*
X248056000Y-364217000D03*
X245934680Y-365095680D03*
X245056000Y-367217000D03*
X245934680Y-369338320D03*
X248056000Y-370217000D03*
X250177320Y-369338320D03*
X251056000Y-367217000D03*
D22*
X248056000Y-367217000D03*
X47104100Y-51507100D03*
D23*
X50104100Y-51507100D03*
X49225420Y-53628420D03*
X47104100Y-54507100D03*
X44982780Y-53628420D03*
X44104100Y-51507100D03*
X44982780Y-49385780D03*
X47104100Y-48507100D03*
X49225420Y-49385780D03*
X453375320Y-178332680D03*
X451254000Y-177454000D03*
X449132680Y-178332680D03*
X448254000Y-180454000D03*
X449132680Y-182575320D03*
X451254000Y-183454000D03*
X453375320Y-182575320D03*
X454254000Y-180454000D03*
D22*
X451254000Y-180454000D03*
X160718000Y-52421100D03*
D23*
X163718000Y-52421100D03*
X162839320Y-54542420D03*
X160718000Y-55421100D03*
X158596680Y-54542420D03*
X157718000Y-52421100D03*
X158596680Y-50299780D03*
X160718000Y-49421100D03*
X162839320Y-50299780D03*
D22*
X55517800Y-367248000D03*
D23*
X58517800Y-367248000D03*
X57639120Y-369369320D03*
X55517800Y-370248000D03*
X53396480Y-369369320D03*
X52517800Y-367248000D03*
X53396480Y-365126680D03*
X55517800Y-364248000D03*
X57639120Y-365126680D03*
G36*
G01*
X424060000Y-63543400D02*
X424060000Y-61843400D01*
G75*
G02*
X424111000Y-61792400I51000J0D01*
G01*
X425811000Y-61792400D01*
G75*
G02*
X425862000Y-61843400I0J-51000D01*
G01*
X425862000Y-63543400D01*
G75*
G02*
X425811000Y-63594400I-51000J0D01*
G01*
X424111000Y-63594400D01*
G75*
G02*
X424060000Y-63543400I0J51000D01*
G01*
G37*
D15*
X424961000Y-65233400D03*
X424961000Y-67773400D03*
X424961000Y-70313400D03*
X424961000Y-72853400D03*
X424961000Y-75393400D03*
X424961000Y-77933400D03*
X424961000Y-80473400D03*
X424961000Y-83013400D03*
X424961000Y-85553400D03*
X424961000Y-88093400D03*
X424961000Y-90633400D03*
X424961000Y-93173400D03*
X424961000Y-95713400D03*
X424961000Y-98253400D03*
X424961000Y-100793400D03*
X424961000Y-103333400D03*
X424961000Y-105873400D03*
X424961000Y-108413400D03*
X424961000Y-110953400D03*
X424961000Y-113493400D03*
X424961000Y-116033400D03*
D24*
X309893000Y-86228400D03*
X309893000Y-87498400D03*
G36*
G01*
X309143000Y-84382400D02*
X310643000Y-84382400D01*
G75*
G02*
X310694000Y-84433400I0J-51000D01*
G01*
X310694000Y-85483400D01*
G75*
G02*
X310643000Y-85534400I-51000J0D01*
G01*
X309143000Y-85534400D01*
G75*
G02*
X309092000Y-85483400I0J51000D01*
G01*
X309092000Y-84433400D01*
G75*
G02*
X309143000Y-84382400I51000J0D01*
G01*
G37*
D25*
X264773000Y-91828400D03*
X263503000Y-91828400D03*
G36*
G01*
X266619000Y-91078400D02*
X266619000Y-92578400D01*
G75*
G02*
X266568000Y-92629400I-51000J0D01*
G01*
X265518000Y-92629400D01*
G75*
G02*
X265467000Y-92578400I0J51000D01*
G01*
X265467000Y-91078400D01*
G75*
G02*
X265518000Y-91027400I51000J0D01*
G01*
X266568000Y-91027400D01*
G75*
G02*
X266619000Y-91078400I0J-51000D01*
G01*
G37*
G36*
G01*
X270597000Y-72888400D02*
X270597000Y-71388400D01*
G75*
G02*
X270648000Y-71337400I51000J0D01*
G01*
X271698000Y-71337400D01*
G75*
G02*
X271749000Y-71388400I0J-51000D01*
G01*
X271749000Y-72888400D01*
G75*
G02*
X271698000Y-72939400I-51000J0D01*
G01*
X270648000Y-72939400D01*
G75*
G02*
X270597000Y-72888400I0J51000D01*
G01*
G37*
X273713000Y-72138400D03*
X272443000Y-72138400D03*
D24*
X300293000Y-73418400D03*
X300293000Y-74688400D03*
G36*
G01*
X299543000Y-71572400D02*
X301043000Y-71572400D01*
G75*
G02*
X301094000Y-71623400I0J-51000D01*
G01*
X301094000Y-72673400D01*
G75*
G02*
X301043000Y-72724400I-51000J0D01*
G01*
X299543000Y-72724400D01*
G75*
G02*
X299492000Y-72673400I0J51000D01*
G01*
X299492000Y-71623400D01*
G75*
G02*
X299543000Y-71572400I51000J0D01*
G01*
G37*
G36*
G01*
X264573000Y-158972000D02*
X266073000Y-158972000D01*
G75*
G02*
X266124000Y-159023000I0J-51000D01*
G01*
X266124000Y-160073000D01*
G75*
G02*
X266073000Y-160124000I-51000J0D01*
G01*
X264573000Y-160124000D01*
G75*
G02*
X264522000Y-160073000I0J51000D01*
G01*
X264522000Y-159023000D01*
G75*
G02*
X264573000Y-158972000I51000J0D01*
G01*
G37*
X265323000Y-162088000D03*
X265323000Y-160818000D03*
G36*
G01*
X142623000Y-362704000D02*
X141123000Y-362704000D01*
G75*
G02*
X141072000Y-362653000I0J51000D01*
G01*
X141072000Y-361603000D01*
G75*
G02*
X141123000Y-361552000I51000J0D01*
G01*
X142623000Y-361552000D01*
G75*
G02*
X142674000Y-361603000I0J-51000D01*
G01*
X142674000Y-362653000D01*
G75*
G02*
X142623000Y-362704000I-51000J0D01*
G01*
G37*
X141873000Y-359588000D03*
X141873000Y-360858000D03*
D12*
X241263000Y-125358000D03*
D13*
X231103000Y-125358000D03*
D12*
X198573000Y-115388000D03*
D13*
X188413000Y-115388000D03*
X256963000Y-232918000D03*
D12*
X267123000Y-232918000D03*
X178043000Y-89348400D03*
D13*
X178043000Y-99508400D03*
D12*
X282633000Y-166808000D03*
D13*
X292793000Y-166808000D03*
X292793000Y-169828000D03*
D12*
X282633000Y-169828000D03*
D13*
X389198000Y-114053000D03*
D12*
X389198000Y-103893000D03*
X304678000Y-113373000D03*
D13*
X304678000Y-103213000D03*
X277963000Y-278828000D03*
D12*
X277963000Y-268668000D03*
D13*
X295658000Y-113358000D03*
D12*
X295658000Y-103198000D03*
X181883000Y-89348400D03*
D13*
X181883000Y-99508400D03*
X349015000Y-153456000D03*
D12*
X349015000Y-143296000D03*
X255063000Y-126018000D03*
D13*
X255063000Y-136178000D03*
X254633000Y-65598400D03*
D12*
X264793000Y-65598400D03*
X399693000Y-114008000D03*
D13*
X399693000Y-124168000D03*
D12*
X300803000Y-87688400D03*
D13*
X300803000Y-77528400D03*
X297793000Y-77538400D03*
D12*
X297793000Y-87698400D03*
D13*
X294793000Y-87693400D03*
D12*
X294793000Y-77533400D03*
X254593000Y-72108400D03*
D13*
X264753000Y-72108400D03*
X254593000Y-68968400D03*
D12*
X264753000Y-68968400D03*
X307713000Y-103198000D03*
D13*
X307713000Y-113358000D03*
X245753000Y-77678400D03*
D12*
X245753000Y-87838400D03*
D13*
X298663000Y-103208000D03*
D12*
X298663000Y-113368000D03*
D13*
X285007000Y-128310000D03*
D12*
X295167000Y-128310000D03*
D13*
X276443000Y-77528400D03*
D12*
X276443000Y-87688400D03*
X384698000Y-68518400D03*
D13*
X384698000Y-58358400D03*
D12*
X276698000Y-108368000D03*
D13*
X276698000Y-98208000D03*
X279443000Y-77528400D03*
D12*
X279443000Y-87688400D03*
D13*
X270338000Y-87693400D03*
D12*
X270338000Y-77533400D03*
X264213000Y-87678400D03*
D13*
X264213000Y-77518400D03*
D12*
X247433000Y-57218400D03*
D13*
X247433000Y-47058400D03*
D12*
X250543000Y-47068400D03*
D13*
X250543000Y-57228400D03*
D12*
X281353000Y-68868400D03*
D13*
X291513000Y-68868400D03*
D12*
X291763000Y-87698400D03*
D13*
X291763000Y-77538400D03*
X261208000Y-77518400D03*
D12*
X261208000Y-87678400D03*
D13*
X266183000Y-57203400D03*
D12*
X266183000Y-47043400D03*
D13*
X263183000Y-57218400D03*
D12*
X263183000Y-47058400D03*
X264683000Y-166808000D03*
D13*
X274843000Y-166808000D03*
X247548000Y-103233000D03*
D12*
X247548000Y-113393000D03*
X264823000Y-62558400D03*
D13*
X254663000Y-62558400D03*
D12*
X291498000Y-71868400D03*
D13*
X281338000Y-71868400D03*
D12*
X281353000Y-65868400D03*
D13*
X291513000Y-65868400D03*
X148678000Y-365723000D03*
D12*
X148678000Y-355563000D03*
D13*
X151703000Y-355578000D03*
D12*
X151703000Y-365738000D03*
D13*
X264663000Y-169828000D03*
D12*
X274823000Y-169828000D03*
D26*
X356413000Y-63118400D03*
D27*
X341173000Y-63118400D03*
D12*
X69182800Y-235858000D03*
D13*
X79342800Y-235858000D03*
X79342800Y-232848000D03*
D12*
X69182800Y-232848000D03*
X301678000Y-113373000D03*
D13*
X301678000Y-103213000D03*
X79632800Y-329213000D03*
D12*
X69472800Y-329213000D03*
X228943000Y-201458000D03*
D13*
X228943000Y-211618000D03*
X79632800Y-332223000D03*
D12*
X69472800Y-332223000D03*
D13*
X69472800Y-326208000D03*
D12*
X79632800Y-326208000D03*
X79632800Y-323203000D03*
D13*
X69472800Y-323203000D03*
X185723000Y-89348400D03*
D12*
X185723000Y-99508400D03*
D13*
X154703000Y-365738000D03*
D12*
X154703000Y-355578000D03*
X210923000Y-112068000D03*
D13*
X210923000Y-101908000D03*
X222403000Y-359988000D03*
D12*
X212243000Y-359988000D03*
X162753000Y-355568000D03*
D13*
X162753000Y-365728000D03*
D12*
X207848000Y-112068000D03*
D13*
X207848000Y-101908000D03*
D12*
X146643000Y-123458000D03*
D13*
X146643000Y-133618000D03*
D12*
X149723000Y-123443000D03*
D13*
X149723000Y-133603000D03*
X425993000Y-335108000D03*
D12*
X436153000Y-335108000D03*
X79342800Y-229848000D03*
D13*
X69182800Y-229848000D03*
X145653000Y-355568000D03*
D12*
X145653000Y-365728000D03*
D13*
X174193000Y-89348400D03*
D12*
X174193000Y-99508400D03*
X180683000Y-124728000D03*
D13*
X180683000Y-134888000D03*
D27*
X299473000Y-357838000D03*
D26*
X299473000Y-342598000D03*
D13*
X269123000Y-162758000D03*
D12*
X279283000Y-162758000D03*
D13*
X281843000Y-278828000D03*
D12*
X281843000Y-268668000D03*
X284913000Y-322658000D03*
D13*
X284913000Y-332818000D03*
X274193000Y-284038000D03*
X274193000Y-281498000D03*
X274193000Y-278958000D03*
X274193000Y-276418000D03*
X274193000Y-273878000D03*
X274193000Y-271338000D03*
X274193000Y-268798000D03*
X274193000Y-266258000D03*
X274193000Y-263718000D03*
G36*
G01*
X273393000Y-260327000D02*
X274993000Y-260327000D01*
G75*
G02*
X275044000Y-260378000I0J-51000D01*
G01*
X275044000Y-261978000D01*
G75*
G02*
X274993000Y-262029000I-51000J0D01*
G01*
X273393000Y-262029000D01*
G75*
G02*
X273342000Y-261978000I0J51000D01*
G01*
X273342000Y-260378000D01*
G75*
G02*
X273393000Y-260327000I51000J0D01*
G01*
G37*
X274193000Y-321998000D03*
X274193000Y-319458000D03*
X274193000Y-316918000D03*
X274193000Y-314378000D03*
X274193000Y-311838000D03*
X274193000Y-309298000D03*
X274193000Y-306758000D03*
X274193000Y-304218000D03*
X274193000Y-301678000D03*
G36*
G01*
X273393000Y-298287000D02*
X274993000Y-298287000D01*
G75*
G02*
X275044000Y-298338000I0J-51000D01*
G01*
X275044000Y-299938000D01*
G75*
G02*
X274993000Y-299989000I-51000J0D01*
G01*
X273393000Y-299989000D01*
G75*
G02*
X273342000Y-299938000I0J51000D01*
G01*
X273342000Y-298338000D01*
G75*
G02*
X273393000Y-298287000I51000J0D01*
G01*
G37*
G36*
G01*
X290583000Y-193139000D02*
X288983000Y-193139000D01*
G75*
G02*
X288932000Y-193088000I0J51000D01*
G01*
X288932000Y-191488000D01*
G75*
G02*
X288983000Y-191437000I51000J0D01*
G01*
X290583000Y-191437000D01*
G75*
G02*
X290634000Y-191488000I0J-51000D01*
G01*
X290634000Y-193088000D01*
G75*
G02*
X290583000Y-193139000I-51000J0D01*
G01*
G37*
X289783000Y-189748000D03*
X289783000Y-187208000D03*
X289783000Y-184668000D03*
X289783000Y-182128000D03*
X289783000Y-179588000D03*
X289783000Y-177048000D03*
X289783000Y-174508000D03*
G36*
G01*
X420748000Y-337292000D02*
X422348000Y-337292000D01*
G75*
G02*
X422399000Y-337343000I0J-51000D01*
G01*
X422399000Y-338943000D01*
G75*
G02*
X422348000Y-338994000I-51000J0D01*
G01*
X420748000Y-338994000D01*
G75*
G02*
X420697000Y-338943000I0J51000D01*
G01*
X420697000Y-337343000D01*
G75*
G02*
X420748000Y-337292000I51000J0D01*
G01*
G37*
X421548000Y-340683000D03*
X421548000Y-343223000D03*
X421548000Y-345763000D03*
X421548000Y-348303000D03*
X421548000Y-350843000D03*
X421548000Y-353383000D03*
X421548000Y-355923000D03*
X421548000Y-358463000D03*
X421548000Y-361003000D03*
X430848000Y-103398400D03*
X430848000Y-100858400D03*
X430848000Y-98318400D03*
X430848000Y-95778400D03*
X430848000Y-93238400D03*
X430848000Y-90698400D03*
X430848000Y-88158400D03*
G36*
G01*
X430048000Y-84767400D02*
X431648000Y-84767400D01*
G75*
G02*
X431699000Y-84818400I0J-51000D01*
G01*
X431699000Y-86418400D01*
G75*
G02*
X431648000Y-86469400I-51000J0D01*
G01*
X430048000Y-86469400D01*
G75*
G02*
X429997000Y-86418400I0J51000D01*
G01*
X429997000Y-84818400D01*
G75*
G02*
X430048000Y-84767400I51000J0D01*
G01*
G37*
X418823000Y-88778400D03*
X418823000Y-86238400D03*
X418823000Y-83698400D03*
X418823000Y-81158400D03*
X418823000Y-78618400D03*
X418823000Y-76078400D03*
X418823000Y-73538400D03*
G36*
G01*
X418023000Y-70147400D02*
X419623000Y-70147400D01*
G75*
G02*
X419674000Y-70198400I0J-51000D01*
G01*
X419674000Y-71798400D01*
G75*
G02*
X419623000Y-71849400I-51000J0D01*
G01*
X418023000Y-71849400D01*
G75*
G02*
X417972000Y-71798400I0J51000D01*
G01*
X417972000Y-70198400D01*
G75*
G02*
X418023000Y-70147400I51000J0D01*
G01*
G37*
G36*
G01*
X438398000Y-342542000D02*
X439998000Y-342542000D01*
G75*
G02*
X440049000Y-342593000I0J-51000D01*
G01*
X440049000Y-344193000D01*
G75*
G02*
X439998000Y-344244000I-51000J0D01*
G01*
X438398000Y-344244000D01*
G75*
G02*
X438347000Y-344193000I0J51000D01*
G01*
X438347000Y-342593000D01*
G75*
G02*
X438398000Y-342542000I51000J0D01*
G01*
G37*
X439198000Y-345933000D03*
X439198000Y-348473000D03*
X439198000Y-351013000D03*
X439198000Y-353553000D03*
X439198000Y-356093000D03*
X439198000Y-358633000D03*
X439198000Y-361173000D03*
G36*
G01*
X442948000Y-342542000D02*
X444548000Y-342542000D01*
G75*
G02*
X444599000Y-342593000I0J-51000D01*
G01*
X444599000Y-344193000D01*
G75*
G02*
X444548000Y-344244000I-51000J0D01*
G01*
X442948000Y-344244000D01*
G75*
G02*
X442897000Y-344193000I0J51000D01*
G01*
X442897000Y-342593000D01*
G75*
G02*
X442948000Y-342542000I51000J0D01*
G01*
G37*
X443748000Y-345933000D03*
X443748000Y-348473000D03*
X443748000Y-351013000D03*
X443748000Y-353553000D03*
X443748000Y-356093000D03*
X380543000Y-93858400D03*
X380543000Y-91318400D03*
X380543000Y-88778400D03*
X380543000Y-86238400D03*
X380543000Y-83698400D03*
X380543000Y-81158400D03*
X380543000Y-78618400D03*
X380543000Y-76078400D03*
X380543000Y-73538400D03*
G36*
G01*
X379743000Y-70147400D02*
X381343000Y-70147400D01*
G75*
G02*
X381394000Y-70198400I0J-51000D01*
G01*
X381394000Y-71798400D01*
G75*
G02*
X381343000Y-71849400I-51000J0D01*
G01*
X379743000Y-71849400D01*
G75*
G02*
X379692000Y-71798400I0J51000D01*
G01*
X379692000Y-70198400D01*
G75*
G02*
X379743000Y-70147400I51000J0D01*
G01*
G37*
X250773000Y-100668000D03*
X250773000Y-103208000D03*
X250773000Y-105748000D03*
X250773000Y-108288000D03*
X250773000Y-110828000D03*
G36*
G01*
X251573000Y-114219000D02*
X249973000Y-114219000D01*
G75*
G02*
X249922000Y-114168000I0J51000D01*
G01*
X249922000Y-112568000D01*
G75*
G02*
X249973000Y-112517000I51000J0D01*
G01*
X251573000Y-112517000D01*
G75*
G02*
X251624000Y-112568000I0J-51000D01*
G01*
X251624000Y-114168000D01*
G75*
G02*
X251573000Y-114219000I-51000J0D01*
G01*
G37*
G36*
G01*
X351513000Y-268687000D02*
X353113000Y-268687000D01*
G75*
G02*
X353164000Y-268738000I0J-51000D01*
G01*
X353164000Y-270338000D01*
G75*
G02*
X353113000Y-270389000I-51000J0D01*
G01*
X351513000Y-270389000D01*
G75*
G02*
X351462000Y-270338000I0J51000D01*
G01*
X351462000Y-268738000D01*
G75*
G02*
X351513000Y-268687000I51000J0D01*
G01*
G37*
X352313000Y-272078000D03*
X352313000Y-274618000D03*
X352313000Y-277158000D03*
X352313000Y-279698000D03*
X352313000Y-282238000D03*
X352313000Y-284778000D03*
X352313000Y-287318000D03*
X352313000Y-289858000D03*
X352313000Y-292398000D03*
X352313000Y-320218000D03*
X352313000Y-317678000D03*
X352313000Y-315138000D03*
X352313000Y-312598000D03*
X352313000Y-310058000D03*
X352313000Y-307518000D03*
X352313000Y-304978000D03*
X352313000Y-302438000D03*
X352313000Y-299898000D03*
G36*
G01*
X351513000Y-296507000D02*
X353113000Y-296507000D01*
G75*
G02*
X353164000Y-296558000I0J-51000D01*
G01*
X353164000Y-298158000D01*
G75*
G02*
X353113000Y-298209000I-51000J0D01*
G01*
X351513000Y-298209000D01*
G75*
G02*
X351462000Y-298158000I0J51000D01*
G01*
X351462000Y-296558000D01*
G75*
G02*
X351513000Y-296507000I51000J0D01*
G01*
G37*
G36*
G01*
X367233000Y-307719000D02*
X365633000Y-307719000D01*
G75*
G02*
X365582000Y-307668000I0J51000D01*
G01*
X365582000Y-306068000D01*
G75*
G02*
X365633000Y-306017000I51000J0D01*
G01*
X367233000Y-306017000D01*
G75*
G02*
X367284000Y-306068000I0J-51000D01*
G01*
X367284000Y-307668000D01*
G75*
G02*
X367233000Y-307719000I-51000J0D01*
G01*
G37*
X366433000Y-304328000D03*
X366433000Y-301788000D03*
X366433000Y-299248000D03*
X366433000Y-296708000D03*
X366433000Y-294168000D03*
X366433000Y-291628000D03*
X366433000Y-289088000D03*
X366433000Y-286548000D03*
X366433000Y-284008000D03*
X435033000Y-251698000D03*
X435033000Y-254238000D03*
X435033000Y-256778000D03*
X435033000Y-259318000D03*
X435033000Y-261858000D03*
X435033000Y-264398000D03*
X435033000Y-266938000D03*
X435033000Y-269478000D03*
X435033000Y-272018000D03*
G36*
G01*
X435833000Y-275409000D02*
X434233000Y-275409000D01*
G75*
G02*
X434182000Y-275358000I0J51000D01*
G01*
X434182000Y-273758000D01*
G75*
G02*
X434233000Y-273707000I51000J0D01*
G01*
X435833000Y-273707000D01*
G75*
G02*
X435884000Y-273758000I0J-51000D01*
G01*
X435884000Y-275358000D01*
G75*
G02*
X435833000Y-275409000I-51000J0D01*
G01*
G37*
X148893000Y-86688000D03*
X148893000Y-89228000D03*
X148893000Y-91768000D03*
X148893000Y-94308000D03*
X148893000Y-96848000D03*
X148893000Y-99388000D03*
X148893000Y-101928000D03*
G36*
G01*
X149693000Y-105319000D02*
X148093000Y-105319000D01*
G75*
G02*
X148042000Y-105268000I0J51000D01*
G01*
X148042000Y-103668000D01*
G75*
G02*
X148093000Y-103617000I51000J0D01*
G01*
X149693000Y-103617000D01*
G75*
G02*
X149744000Y-103668000I0J-51000D01*
G01*
X149744000Y-105268000D01*
G75*
G02*
X149693000Y-105319000I-51000J0D01*
G01*
G37*
G36*
G01*
X52422800Y-254819000D02*
X50822800Y-254819000D01*
G75*
G02*
X50771800Y-254768000I0J51000D01*
G01*
X50771800Y-253168000D01*
G75*
G02*
X50822800Y-253117000I51000J0D01*
G01*
X52422800Y-253117000D01*
G75*
G02*
X52473800Y-253168000I0J-51000D01*
G01*
X52473800Y-254768000D01*
G75*
G02*
X52422800Y-254819000I-51000J0D01*
G01*
G37*
X51622800Y-251428000D03*
X51622800Y-248888000D03*
X51622800Y-246348000D03*
X51622800Y-243808000D03*
X51622800Y-241268000D03*
X51622800Y-238728000D03*
X51622800Y-236188000D03*
X51622800Y-233648000D03*
X51622800Y-231108000D03*
X51622800Y-258408000D03*
X51622800Y-260948000D03*
X51622800Y-263488000D03*
X51622800Y-266028000D03*
X51622800Y-268568000D03*
X51622800Y-271108000D03*
X51622800Y-273648000D03*
X51622800Y-276188000D03*
X51622800Y-278728000D03*
G36*
G01*
X52422800Y-282119000D02*
X50822800Y-282119000D01*
G75*
G02*
X50771800Y-282068000I0J51000D01*
G01*
X50771800Y-280468000D01*
G75*
G02*
X50822800Y-280417000I51000J0D01*
G01*
X52422800Y-280417000D01*
G75*
G02*
X52473800Y-280468000I0J-51000D01*
G01*
X52473800Y-282068000D01*
G75*
G02*
X52422800Y-282119000I-51000J0D01*
G01*
G37*
G36*
G01*
X65772800Y-292369000D02*
X64172800Y-292369000D01*
G75*
G02*
X64121800Y-292318000I0J51000D01*
G01*
X64121800Y-290718000D01*
G75*
G02*
X64172800Y-290667000I51000J0D01*
G01*
X65772800Y-290667000D01*
G75*
G02*
X65823800Y-290718000I0J-51000D01*
G01*
X65823800Y-292318000D01*
G75*
G02*
X65772800Y-292369000I-51000J0D01*
G01*
G37*
X64972800Y-288978000D03*
X64972800Y-286438000D03*
X64972800Y-283898000D03*
X64972800Y-281358000D03*
X64972800Y-278818000D03*
X64972800Y-276278000D03*
X64972800Y-273738000D03*
X64972800Y-271198000D03*
X64972800Y-268658000D03*
G36*
G01*
X52422800Y-309344000D02*
X50822800Y-309344000D01*
G75*
G02*
X50771800Y-309293000I0J51000D01*
G01*
X50771800Y-307693000D01*
G75*
G02*
X50822800Y-307642000I51000J0D01*
G01*
X52422800Y-307642000D01*
G75*
G02*
X52473800Y-307693000I0J-51000D01*
G01*
X52473800Y-309293000D01*
G75*
G02*
X52422800Y-309344000I-51000J0D01*
G01*
G37*
X51622800Y-305953000D03*
X51622800Y-303413000D03*
X51622800Y-300873000D03*
X51622800Y-298333000D03*
X51622800Y-295793000D03*
X51622800Y-293253000D03*
X51622800Y-290713000D03*
X51622800Y-288173000D03*
X51622800Y-285633000D03*
X51622800Y-312458000D03*
X51622800Y-314998000D03*
X51622800Y-317538000D03*
X51622800Y-320078000D03*
X51622800Y-322618000D03*
X51622800Y-325158000D03*
X51622800Y-327698000D03*
X51622800Y-330238000D03*
X51622800Y-332778000D03*
G36*
G01*
X52422800Y-336169000D02*
X50822800Y-336169000D01*
G75*
G02*
X50771800Y-336118000I0J51000D01*
G01*
X50771800Y-334518000D01*
G75*
G02*
X50822800Y-334467000I51000J0D01*
G01*
X52422800Y-334467000D01*
G75*
G02*
X52473800Y-334518000I0J-51000D01*
G01*
X52473800Y-336118000D01*
G75*
G02*
X52422800Y-336169000I-51000J0D01*
G01*
G37*
G36*
G01*
X205353000Y-171597000D02*
X206953000Y-171597000D01*
G75*
G02*
X207004000Y-171648000I0J-51000D01*
G01*
X207004000Y-173248000D01*
G75*
G02*
X206953000Y-173299000I-51000J0D01*
G01*
X205353000Y-173299000D01*
G75*
G02*
X205302000Y-173248000I0J51000D01*
G01*
X205302000Y-171648000D01*
G75*
G02*
X205353000Y-171597000I51000J0D01*
G01*
G37*
X206153000Y-174988000D03*
X206153000Y-177528000D03*
X206153000Y-180068000D03*
X206153000Y-182608000D03*
X206153000Y-185148000D03*
G36*
G01*
X129433000Y-96089400D02*
X127833000Y-96089400D01*
G75*
G02*
X127782000Y-96038400I0J51000D01*
G01*
X127782000Y-94438400D01*
G75*
G02*
X127833000Y-94387400I51000J0D01*
G01*
X129433000Y-94387400D01*
G75*
G02*
X129484000Y-94438400I0J-51000D01*
G01*
X129484000Y-96038400D01*
G75*
G02*
X129433000Y-96089400I-51000J0D01*
G01*
G37*
X128633000Y-92698400D03*
X128633000Y-90158400D03*
X128633000Y-87618400D03*
X128633000Y-85078400D03*
X128633000Y-82538400D03*
X128633000Y-79998400D03*
X128633000Y-77458400D03*
X128633000Y-74918400D03*
X128633000Y-72378400D03*
X128633000Y-98738000D03*
X128633000Y-101278000D03*
X128633000Y-103818000D03*
X128633000Y-106358000D03*
X128633000Y-108898000D03*
X128633000Y-111438000D03*
X128633000Y-113978000D03*
X128633000Y-116518000D03*
X128633000Y-119058000D03*
G36*
G01*
X129433000Y-122449000D02*
X127833000Y-122449000D01*
G75*
G02*
X127782000Y-122398000I0J51000D01*
G01*
X127782000Y-120798000D01*
G75*
G02*
X127833000Y-120747000I51000J0D01*
G01*
X129433000Y-120747000D01*
G75*
G02*
X129484000Y-120798000I0J-51000D01*
G01*
X129484000Y-122398000D01*
G75*
G02*
X129433000Y-122449000I-51000J0D01*
G01*
G37*
X128583000Y-125048000D03*
X128583000Y-127588000D03*
X128583000Y-130128000D03*
X128583000Y-132668000D03*
X128583000Y-135208000D03*
X128583000Y-137748000D03*
X128583000Y-140288000D03*
X128583000Y-142828000D03*
X128583000Y-145368000D03*
G36*
G01*
X129383000Y-148759000D02*
X127783000Y-148759000D01*
G75*
G02*
X127732000Y-148708000I0J51000D01*
G01*
X127732000Y-147108000D01*
G75*
G02*
X127783000Y-147057000I51000J0D01*
G01*
X129383000Y-147057000D01*
G75*
G02*
X129434000Y-147108000I0J-51000D01*
G01*
X129434000Y-148708000D01*
G75*
G02*
X129383000Y-148759000I-51000J0D01*
G01*
G37*
G36*
G01*
X131443000Y-178929000D02*
X129843000Y-178929000D01*
G75*
G02*
X129792000Y-178878000I0J51000D01*
G01*
X129792000Y-177278000D01*
G75*
G02*
X129843000Y-177227000I51000J0D01*
G01*
X131443000Y-177227000D01*
G75*
G02*
X131494000Y-177278000I0J-51000D01*
G01*
X131494000Y-178878000D01*
G75*
G02*
X131443000Y-178929000I-51000J0D01*
G01*
G37*
X130643000Y-175538000D03*
X130643000Y-172998000D03*
X130643000Y-170458000D03*
X130643000Y-167918000D03*
X130643000Y-165378000D03*
X130643000Y-162838000D03*
X130643000Y-160298000D03*
X130643000Y-157758000D03*
X130643000Y-155218000D03*
G36*
G01*
X128093000Y-204059000D02*
X126493000Y-204059000D01*
G75*
G02*
X126442000Y-204008000I0J51000D01*
G01*
X126442000Y-202408000D01*
G75*
G02*
X126493000Y-202357000I51000J0D01*
G01*
X128093000Y-202357000D01*
G75*
G02*
X128144000Y-202408000I0J-51000D01*
G01*
X128144000Y-204008000D01*
G75*
G02*
X128093000Y-204059000I-51000J0D01*
G01*
G37*
X127293000Y-200668000D03*
X127293000Y-198128000D03*
X127293000Y-195588000D03*
X127293000Y-193048000D03*
X127293000Y-190508000D03*
X127293000Y-187968000D03*
X127293000Y-185428000D03*
X127293000Y-182888000D03*
X127293000Y-180348000D03*
X113413000Y-155758000D03*
X113413000Y-158298000D03*
X113413000Y-160838000D03*
X113413000Y-163378000D03*
X113413000Y-165918000D03*
X113413000Y-168458000D03*
X113413000Y-170998000D03*
X113413000Y-173538000D03*
X113413000Y-176078000D03*
G36*
G01*
X114213000Y-179469000D02*
X112613000Y-179469000D01*
G75*
G02*
X112562000Y-179418000I0J51000D01*
G01*
X112562000Y-177818000D01*
G75*
G02*
X112613000Y-177767000I51000J0D01*
G01*
X114213000Y-177767000D01*
G75*
G02*
X114264000Y-177818000I0J-51000D01*
G01*
X114264000Y-179418000D01*
G75*
G02*
X114213000Y-179469000I-51000J0D01*
G01*
G37*
G36*
G01*
X145963000Y-116849000D02*
X144363000Y-116849000D01*
G75*
G02*
X144312000Y-116798000I0J51000D01*
G01*
X144312000Y-115198000D01*
G75*
G02*
X144363000Y-115147000I51000J0D01*
G01*
X145963000Y-115147000D01*
G75*
G02*
X146014000Y-115198000I0J-51000D01*
G01*
X146014000Y-116798000D01*
G75*
G02*
X145963000Y-116849000I-51000J0D01*
G01*
G37*
X145163000Y-113458000D03*
X145163000Y-110918000D03*
X145163000Y-108378000D03*
X145163000Y-105838000D03*
X145163000Y-103298000D03*
X145163000Y-100758000D03*
X145163000Y-98218000D03*
G36*
G01*
X150323000Y-161789000D02*
X148723000Y-161789000D01*
G75*
G02*
X148672000Y-161738000I0J51000D01*
G01*
X148672000Y-160138000D01*
G75*
G02*
X148723000Y-160087000I51000J0D01*
G01*
X150323000Y-160087000D01*
G75*
G02*
X150374000Y-160138000I0J-51000D01*
G01*
X150374000Y-161738000D01*
G75*
G02*
X150323000Y-161789000I-51000J0D01*
G01*
G37*
X149523000Y-158398000D03*
X149523000Y-155858000D03*
X149523000Y-153318000D03*
X149523000Y-150778000D03*
X149523000Y-148238000D03*
X149523000Y-145698000D03*
X149523000Y-143158000D03*
G36*
G01*
X227113000Y-92307400D02*
X228713000Y-92307400D01*
G75*
G02*
X228764000Y-92358400I0J-51000D01*
G01*
X228764000Y-93958400D01*
G75*
G02*
X228713000Y-94009400I-51000J0D01*
G01*
X227113000Y-94009400D01*
G75*
G02*
X227062000Y-93958400I0J51000D01*
G01*
X227062000Y-92358400D01*
G75*
G02*
X227113000Y-92307400I51000J0D01*
G01*
G37*
X227913000Y-95698400D03*
X227913000Y-98238400D03*
X227913000Y-100778400D03*
X227913000Y-103318400D03*
X227913000Y-105858400D03*
X227913000Y-108398400D03*
X227913000Y-110938400D03*
X227913000Y-113478400D03*
X227913000Y-116018400D03*
X286303000Y-174508000D03*
X286303000Y-177048000D03*
X286303000Y-179588000D03*
X286303000Y-182128000D03*
X286303000Y-184668000D03*
X286303000Y-187208000D03*
X286303000Y-189748000D03*
G36*
G01*
X287103000Y-193139000D02*
X285503000Y-193139000D01*
G75*
G02*
X285452000Y-193088000I0J51000D01*
G01*
X285452000Y-191488000D01*
G75*
G02*
X285503000Y-191437000I51000J0D01*
G01*
X287103000Y-191437000D01*
G75*
G02*
X287154000Y-191488000I0J-51000D01*
G01*
X287154000Y-193088000D01*
G75*
G02*
X287103000Y-193139000I-51000J0D01*
G01*
G37*
X177423000Y-297018000D03*
X177423000Y-294478000D03*
X177423000Y-291938000D03*
X177423000Y-289398000D03*
X177423000Y-286858000D03*
G36*
G01*
X176623000Y-283467000D02*
X178223000Y-283467000D01*
G75*
G02*
X178274000Y-283518000I0J-51000D01*
G01*
X178274000Y-285118000D01*
G75*
G02*
X178223000Y-285169000I-51000J0D01*
G01*
X176623000Y-285169000D01*
G75*
G02*
X176572000Y-285118000I0J51000D01*
G01*
X176572000Y-283518000D01*
G75*
G02*
X176623000Y-283467000I51000J0D01*
G01*
G37*
G36*
G01*
X427124000Y-194518000D02*
X427124000Y-196118000D01*
G75*
G02*
X427073000Y-196169000I-51000J0D01*
G01*
X425473000Y-196169000D01*
G75*
G02*
X425422000Y-196118000I0J51000D01*
G01*
X425422000Y-194518000D01*
G75*
G02*
X425473000Y-194467000I51000J0D01*
G01*
X427073000Y-194467000D01*
G75*
G02*
X427124000Y-194518000I0J-51000D01*
G01*
G37*
X423733000Y-195318000D03*
X421193000Y-195318000D03*
X418653000Y-195318000D03*
X416113000Y-195318000D03*
X413573000Y-195318000D03*
X399783000Y-93648400D03*
X399783000Y-91108400D03*
X399783000Y-88568400D03*
X399783000Y-86028400D03*
X399783000Y-83488400D03*
G36*
G01*
X398983000Y-80097400D02*
X400583000Y-80097400D01*
G75*
G02*
X400634000Y-80148400I0J-51000D01*
G01*
X400634000Y-81748400D01*
G75*
G02*
X400583000Y-81799400I-51000J0D01*
G01*
X398983000Y-81799400D01*
G75*
G02*
X398932000Y-81748400I0J51000D01*
G01*
X398932000Y-80148400D01*
G75*
G02*
X398983000Y-80097400I51000J0D01*
G01*
G37*
G36*
G01*
X422124000Y-169708000D02*
X422124000Y-171308000D01*
G75*
G02*
X422073000Y-171359000I-51000J0D01*
G01*
X420473000Y-171359000D01*
G75*
G02*
X420422000Y-171308000I0J51000D01*
G01*
X420422000Y-169708000D01*
G75*
G02*
X420473000Y-169657000I51000J0D01*
G01*
X422073000Y-169657000D01*
G75*
G02*
X422124000Y-169708000I0J-51000D01*
G01*
G37*
X418733000Y-170508000D03*
X416193000Y-170508000D03*
X413653000Y-170508000D03*
X411113000Y-170508000D03*
X408573000Y-170508000D03*
G36*
G01*
X263498000Y-227344000D02*
X261898000Y-227344000D01*
G75*
G02*
X261847000Y-227293000I0J51000D01*
G01*
X261847000Y-225693000D01*
G75*
G02*
X261898000Y-225642000I51000J0D01*
G01*
X263498000Y-225642000D01*
G75*
G02*
X263549000Y-225693000I0J-51000D01*
G01*
X263549000Y-227293000D01*
G75*
G02*
X263498000Y-227344000I-51000J0D01*
G01*
G37*
X262698000Y-223953000D03*
X262698000Y-221413000D03*
X262698000Y-218873000D03*
X262698000Y-216333000D03*
X262698000Y-213793000D03*
X262698000Y-211253000D03*
X262698000Y-208713000D03*
X174873000Y-273718000D03*
X174873000Y-271178000D03*
X174873000Y-268638000D03*
X174873000Y-266098000D03*
X174873000Y-263558000D03*
G36*
G01*
X174073000Y-260167000D02*
X175673000Y-260167000D01*
G75*
G02*
X175724000Y-260218000I0J-51000D01*
G01*
X175724000Y-261818000D01*
G75*
G02*
X175673000Y-261869000I-51000J0D01*
G01*
X174073000Y-261869000D01*
G75*
G02*
X174022000Y-261818000I0J51000D01*
G01*
X174022000Y-260218000D01*
G75*
G02*
X174073000Y-260167000I51000J0D01*
G01*
G37*
G36*
G01*
X178053000Y-334919000D02*
X176453000Y-334919000D01*
G75*
G02*
X176402000Y-334868000I0J51000D01*
G01*
X176402000Y-333268000D01*
G75*
G02*
X176453000Y-333217000I51000J0D01*
G01*
X178053000Y-333217000D01*
G75*
G02*
X178104000Y-333268000I0J-51000D01*
G01*
X178104000Y-334868000D01*
G75*
G02*
X178053000Y-334919000I-51000J0D01*
G01*
G37*
X177253000Y-331528000D03*
X177253000Y-328988000D03*
X177253000Y-326448000D03*
X177253000Y-323908000D03*
X177253000Y-321368000D03*
X177253000Y-318828000D03*
X177253000Y-316288000D03*
X177253000Y-313748000D03*
X177253000Y-311208000D03*
X197823000Y-311208000D03*
X197823000Y-313748000D03*
X197823000Y-316288000D03*
X197823000Y-318828000D03*
X197823000Y-321368000D03*
X197823000Y-323908000D03*
X197823000Y-326448000D03*
X197823000Y-328988000D03*
X197823000Y-331528000D03*
G36*
G01*
X198623000Y-334919000D02*
X197023000Y-334919000D01*
G75*
G02*
X196972000Y-334868000I0J51000D01*
G01*
X196972000Y-333268000D01*
G75*
G02*
X197023000Y-333217000I51000J0D01*
G01*
X198623000Y-333217000D01*
G75*
G02*
X198674000Y-333268000I0J-51000D01*
G01*
X198674000Y-334868000D01*
G75*
G02*
X198623000Y-334919000I-51000J0D01*
G01*
G37*
G36*
G01*
X203247000Y-99381400D02*
X203247000Y-98355400D01*
G75*
G02*
X203535000Y-98067400I288000J0D01*
G01*
X204111000Y-98067400D01*
G75*
G02*
X204399000Y-98355400I0J-288000D01*
G01*
X204399000Y-99381400D01*
G75*
G02*
X204111000Y-99669400I-288000J0D01*
G01*
X203535000Y-99669400D01*
G75*
G02*
X203247000Y-99381400I0J288000D01*
G01*
G37*
G36*
G01*
X204517000Y-99381400D02*
X204517000Y-98355400D01*
G75*
G02*
X204805000Y-98067400I288000J0D01*
G01*
X205381000Y-98067400D01*
G75*
G02*
X205669000Y-98355400I0J-288000D01*
G01*
X205669000Y-99381400D01*
G75*
G02*
X205381000Y-99669400I-288000J0D01*
G01*
X204805000Y-99669400D01*
G75*
G02*
X204517000Y-99381400I0J288000D01*
G01*
G37*
G36*
G01*
X201977000Y-99618400D02*
X201977000Y-98118400D01*
G75*
G02*
X202028000Y-98067400I51000J0D01*
G01*
X203078000Y-98067400D01*
G75*
G02*
X203129000Y-98118400I0J-51000D01*
G01*
X203129000Y-99618400D01*
G75*
G02*
X203078000Y-99669400I-51000J0D01*
G01*
X202028000Y-99669400D01*
G75*
G02*
X201977000Y-99618400I0J51000D01*
G01*
G37*
G36*
G01*
X267774000Y-331118000D02*
X267774000Y-332718000D01*
G75*
G02*
X267723000Y-332769000I-51000J0D01*
G01*
X266123000Y-332769000D01*
G75*
G02*
X266072000Y-332718000I0J51000D01*
G01*
X266072000Y-331118000D01*
G75*
G02*
X266123000Y-331067000I51000J0D01*
G01*
X267723000Y-331067000D01*
G75*
G02*
X267774000Y-331118000I0J-51000D01*
G01*
G37*
X244063000Y-253178000D03*
X266923000Y-329378000D03*
X244063000Y-255718000D03*
X266923000Y-326838000D03*
X244063000Y-258258000D03*
X266923000Y-324298000D03*
X244063000Y-260798000D03*
X266923000Y-321758000D03*
X244063000Y-263338000D03*
X266923000Y-319218000D03*
X244063000Y-265878000D03*
X266923000Y-316678000D03*
X244063000Y-268418000D03*
X266923000Y-314138000D03*
X244063000Y-270958000D03*
X266923000Y-311598000D03*
X244063000Y-273498000D03*
X266923000Y-309058000D03*
X244063000Y-276038000D03*
X266923000Y-306518000D03*
X244063000Y-278578000D03*
X266923000Y-303978000D03*
X244063000Y-281118000D03*
X266923000Y-301438000D03*
X244063000Y-283658000D03*
X266923000Y-298898000D03*
X244063000Y-286198000D03*
X266923000Y-296358000D03*
X244063000Y-288738000D03*
X266923000Y-293818000D03*
X244063000Y-291278000D03*
X266923000Y-291278000D03*
X244063000Y-293818000D03*
X266923000Y-288738000D03*
X244063000Y-296358000D03*
X266923000Y-286198000D03*
X244063000Y-298898000D03*
X266923000Y-283658000D03*
X244063000Y-301438000D03*
X266923000Y-281118000D03*
X244063000Y-303978000D03*
X266923000Y-278578000D03*
X244063000Y-306518000D03*
X266923000Y-276038000D03*
X244063000Y-309058000D03*
X266923000Y-273498000D03*
X244063000Y-311598000D03*
X266923000Y-270958000D03*
X244063000Y-314138000D03*
X266923000Y-268418000D03*
X244063000Y-316678000D03*
X266923000Y-265878000D03*
X244063000Y-319218000D03*
X266923000Y-263338000D03*
X244063000Y-321758000D03*
X266923000Y-260798000D03*
X244063000Y-324298000D03*
X266923000Y-258258000D03*
X244063000Y-326838000D03*
X266923000Y-255718000D03*
X244063000Y-329378000D03*
X266923000Y-253178000D03*
X244063000Y-331918000D03*
D28*
X314758000Y-222518000D03*
X314758000Y-219978000D03*
X314758000Y-217438000D03*
X314758000Y-214898000D03*
X314758000Y-212358000D03*
X314758000Y-225058000D03*
X314758000Y-227598000D03*
X314758000Y-230138000D03*
X314758000Y-232678000D03*
X314758000Y-235218000D03*
X314758000Y-237758000D03*
G36*
G01*
X316586800Y-221755800D02*
X318009200Y-221755800D01*
G75*
G02*
X318060200Y-221806800I0J-51000D01*
G01*
X318060200Y-223229200D01*
G75*
G02*
X318009200Y-223280200I-51000J0D01*
G01*
X316586800Y-223280200D01*
G75*
G02*
X316535800Y-223229200I0J51000D01*
G01*
X316535800Y-221806800D01*
G75*
G02*
X316586800Y-221755800I51000J0D01*
G01*
G37*
X317298000Y-219978000D03*
X317298000Y-217438000D03*
X317298000Y-214898000D03*
X317298000Y-212358000D03*
X317298000Y-209818000D03*
X317298000Y-225058000D03*
X317298000Y-227598000D03*
X317298000Y-230138000D03*
X317298000Y-232678000D03*
X317298000Y-235218000D03*
X314758000Y-209818000D03*
X312218000Y-209818000D03*
X309678000Y-209818000D03*
X307138000Y-209818000D03*
X304598000Y-209818000D03*
X302058000Y-209818000D03*
X299518000Y-209818000D03*
X296978000Y-209818000D03*
X294438000Y-209818000D03*
X291898000Y-209818000D03*
X314758000Y-207278000D03*
X312218000Y-207278000D03*
X309678000Y-207278000D03*
X307138000Y-207278000D03*
X304598000Y-207278000D03*
X302058000Y-207278000D03*
X299518000Y-207278000D03*
X296978000Y-207278000D03*
X294438000Y-207278000D03*
X291898000Y-207278000D03*
X289358000Y-207278000D03*
X289358000Y-209818000D03*
X289358000Y-212358000D03*
X289358000Y-214898000D03*
X289358000Y-217438000D03*
X289358000Y-219978000D03*
X289358000Y-222518000D03*
X289358000Y-225058000D03*
X289358000Y-227598000D03*
X289358000Y-230138000D03*
X289358000Y-232678000D03*
X286818000Y-209818000D03*
X286818000Y-212358000D03*
X286818000Y-214898000D03*
X286818000Y-217438000D03*
X286818000Y-219978000D03*
X286818000Y-222518000D03*
X286818000Y-225058000D03*
X286818000Y-227598000D03*
X286818000Y-230138000D03*
X286818000Y-232678000D03*
X286818000Y-235218000D03*
X289358000Y-235218000D03*
X291898000Y-235218000D03*
X294438000Y-235218000D03*
X296978000Y-235218000D03*
X299518000Y-235218000D03*
X302058000Y-235218000D03*
X304598000Y-235218000D03*
X307138000Y-235218000D03*
X309678000Y-235218000D03*
X312218000Y-235218000D03*
X289358000Y-237758000D03*
X291898000Y-237758000D03*
X294438000Y-237758000D03*
X296978000Y-237758000D03*
X299518000Y-237758000D03*
X302058000Y-237758000D03*
X304598000Y-237758000D03*
X307138000Y-237758000D03*
X309678000Y-237758000D03*
X312218000Y-237758000D03*
G36*
G01*
X272663000Y-159299000D02*
X271063000Y-159299000D01*
G75*
G02*
X271012000Y-159248000I0J51000D01*
G01*
X271012000Y-157648000D01*
G75*
G02*
X271063000Y-157597000I51000J0D01*
G01*
X272663000Y-157597000D01*
G75*
G02*
X272714000Y-157648000I0J-51000D01*
G01*
X272714000Y-159248000D01*
G75*
G02*
X272663000Y-159299000I-51000J0D01*
G01*
G37*
D13*
X330283000Y-143208000D03*
X274403000Y-158448000D03*
X327743000Y-143208000D03*
X276943000Y-158448000D03*
X325203000Y-143208000D03*
X279483000Y-158448000D03*
X322663000Y-143208000D03*
X282023000Y-158448000D03*
X320123000Y-143208000D03*
X284563000Y-158448000D03*
X317583000Y-143208000D03*
X287103000Y-158448000D03*
X315043000Y-143208000D03*
X289643000Y-158448000D03*
X312503000Y-143208000D03*
X292183000Y-158448000D03*
X309963000Y-143208000D03*
X294723000Y-158448000D03*
X307423000Y-143208000D03*
X297263000Y-158448000D03*
X304883000Y-143208000D03*
X299803000Y-158448000D03*
X302343000Y-143208000D03*
X302343000Y-158448000D03*
X299803000Y-143208000D03*
X304883000Y-158448000D03*
X297263000Y-143208000D03*
X307423000Y-158448000D03*
X294723000Y-143208000D03*
X309963000Y-158448000D03*
X292183000Y-143208000D03*
X312503000Y-158448000D03*
X289643000Y-143208000D03*
X315043000Y-158448000D03*
X287103000Y-143208000D03*
X317583000Y-158448000D03*
X284563000Y-143208000D03*
X320123000Y-158448000D03*
X282023000Y-143208000D03*
X322663000Y-158448000D03*
X279483000Y-143208000D03*
X325203000Y-158448000D03*
X276943000Y-143208000D03*
X327743000Y-158448000D03*
X274403000Y-143208000D03*
X330283000Y-158448000D03*
X271863000Y-143208000D03*
G36*
G01*
X356562000Y-216378000D02*
X356562000Y-214778000D01*
G75*
G02*
X356613000Y-214727000I51000J0D01*
G01*
X358213000Y-214727000D01*
G75*
G02*
X358264000Y-214778000I0J-51000D01*
G01*
X358264000Y-216378000D01*
G75*
G02*
X358213000Y-216429000I-51000J0D01*
G01*
X356613000Y-216429000D01*
G75*
G02*
X356562000Y-216378000I0J51000D01*
G01*
G37*
X365033000Y-238438000D03*
X357413000Y-218118000D03*
X365033000Y-235898000D03*
X357413000Y-220658000D03*
X365033000Y-233358000D03*
X357413000Y-223198000D03*
X365033000Y-230818000D03*
X357413000Y-225738000D03*
X365033000Y-228278000D03*
X357413000Y-228278000D03*
X365033000Y-225738000D03*
X357413000Y-230818000D03*
X365033000Y-223198000D03*
X357413000Y-233358000D03*
X365033000Y-220658000D03*
X357413000Y-235898000D03*
X365033000Y-218118000D03*
X357413000Y-238438000D03*
X365033000Y-215578000D03*
G36*
G01*
X374522000Y-216378000D02*
X374522000Y-214778000D01*
G75*
G02*
X374573000Y-214727000I51000J0D01*
G01*
X376173000Y-214727000D01*
G75*
G02*
X376224000Y-214778000I0J-51000D01*
G01*
X376224000Y-216378000D01*
G75*
G02*
X376173000Y-216429000I-51000J0D01*
G01*
X374573000Y-216429000D01*
G75*
G02*
X374522000Y-216378000I0J51000D01*
G01*
G37*
X382993000Y-238438000D03*
X375373000Y-218118000D03*
X382993000Y-235898000D03*
X375373000Y-220658000D03*
X382993000Y-233358000D03*
X375373000Y-223198000D03*
X382993000Y-230818000D03*
X375373000Y-225738000D03*
X382993000Y-228278000D03*
X375373000Y-228278000D03*
X382993000Y-225738000D03*
X375373000Y-230818000D03*
X382993000Y-223198000D03*
X375373000Y-233358000D03*
X382993000Y-220658000D03*
X375373000Y-235898000D03*
X382993000Y-218118000D03*
X375373000Y-238438000D03*
X382993000Y-215578000D03*
X422433000Y-215578000D03*
X414813000Y-238438000D03*
X422433000Y-218118000D03*
X414813000Y-235898000D03*
X422433000Y-220658000D03*
X414813000Y-233358000D03*
X422433000Y-223198000D03*
X414813000Y-230818000D03*
X422433000Y-225738000D03*
X414813000Y-228278000D03*
X422433000Y-228278000D03*
X414813000Y-225738000D03*
X422433000Y-230818000D03*
X414813000Y-223198000D03*
X422433000Y-233358000D03*
X414813000Y-220658000D03*
X422433000Y-235898000D03*
X414813000Y-218118000D03*
X422433000Y-238438000D03*
G36*
G01*
X413962000Y-216378000D02*
X413962000Y-214778000D01*
G75*
G02*
X414013000Y-214727000I51000J0D01*
G01*
X415613000Y-214727000D01*
G75*
G02*
X415664000Y-214778000I0J-51000D01*
G01*
X415664000Y-216378000D01*
G75*
G02*
X415613000Y-216429000I-51000J0D01*
G01*
X414013000Y-216429000D01*
G75*
G02*
X413962000Y-216378000I0J51000D01*
G01*
G37*
G36*
G01*
X394232000Y-216378000D02*
X394232000Y-214778000D01*
G75*
G02*
X394283000Y-214727000I51000J0D01*
G01*
X395883000Y-214727000D01*
G75*
G02*
X395934000Y-214778000I0J-51000D01*
G01*
X395934000Y-216378000D01*
G75*
G02*
X395883000Y-216429000I-51000J0D01*
G01*
X394283000Y-216429000D01*
G75*
G02*
X394232000Y-216378000I0J51000D01*
G01*
G37*
X402703000Y-238438000D03*
X395083000Y-218118000D03*
X402703000Y-235898000D03*
X395083000Y-220658000D03*
X402703000Y-233358000D03*
X395083000Y-223198000D03*
X402703000Y-230818000D03*
X395083000Y-225738000D03*
X402703000Y-228278000D03*
X395083000Y-228278000D03*
X402703000Y-225738000D03*
X395083000Y-230818000D03*
X402703000Y-223198000D03*
X395083000Y-233358000D03*
X402703000Y-220658000D03*
X395083000Y-235898000D03*
X402703000Y-218118000D03*
X395083000Y-238438000D03*
X402703000Y-215578000D03*
G36*
G01*
X264512000Y-177608000D02*
X264512000Y-176008000D01*
G75*
G02*
X264563000Y-175957000I51000J0D01*
G01*
X266163000Y-175957000D01*
G75*
G02*
X266214000Y-176008000I0J-51000D01*
G01*
X266214000Y-177608000D01*
G75*
G02*
X266163000Y-177659000I-51000J0D01*
G01*
X264563000Y-177659000D01*
G75*
G02*
X264512000Y-177608000I0J51000D01*
G01*
G37*
X272983000Y-192048000D03*
X265363000Y-179348000D03*
X272983000Y-189508000D03*
X265363000Y-181888000D03*
X272983000Y-186968000D03*
X265363000Y-184428000D03*
X272983000Y-184428000D03*
X265363000Y-186968000D03*
X272983000Y-181888000D03*
X265363000Y-189508000D03*
X272983000Y-179348000D03*
X265363000Y-192048000D03*
X272983000Y-176808000D03*
G36*
G01*
X250572000Y-177608000D02*
X250572000Y-176008000D01*
G75*
G02*
X250623000Y-175957000I51000J0D01*
G01*
X252223000Y-175957000D01*
G75*
G02*
X252274000Y-176008000I0J-51000D01*
G01*
X252274000Y-177608000D01*
G75*
G02*
X252223000Y-177659000I-51000J0D01*
G01*
X250623000Y-177659000D01*
G75*
G02*
X250572000Y-177608000I0J51000D01*
G01*
G37*
X259043000Y-192048000D03*
X251423000Y-179348000D03*
X259043000Y-189508000D03*
X251423000Y-181888000D03*
X259043000Y-186968000D03*
X251423000Y-184428000D03*
X259043000Y-184428000D03*
X251423000Y-186968000D03*
X259043000Y-181888000D03*
X251423000Y-189508000D03*
X259043000Y-179348000D03*
X251423000Y-192048000D03*
X259043000Y-176808000D03*
X367863000Y-147118000D03*
X426283000Y-162358000D03*
X370403000Y-147118000D03*
X423743000Y-162358000D03*
X372943000Y-147118000D03*
X421203000Y-162358000D03*
X375483000Y-147118000D03*
X418663000Y-162358000D03*
X378023000Y-147118000D03*
X416123000Y-162358000D03*
X380563000Y-147118000D03*
X413583000Y-162358000D03*
X383103000Y-147118000D03*
X411043000Y-162358000D03*
X385643000Y-147118000D03*
X408503000Y-162358000D03*
X388183000Y-147118000D03*
X405963000Y-162358000D03*
X390723000Y-147118000D03*
X403423000Y-162358000D03*
X393263000Y-147118000D03*
X400883000Y-162358000D03*
X395803000Y-147118000D03*
X398343000Y-162358000D03*
X398343000Y-147118000D03*
X395803000Y-162358000D03*
X400883000Y-147118000D03*
X393263000Y-162358000D03*
X403423000Y-147118000D03*
X390723000Y-162358000D03*
X405963000Y-147118000D03*
X388183000Y-162358000D03*
X408503000Y-147118000D03*
X385643000Y-162358000D03*
X411043000Y-147118000D03*
X383103000Y-162358000D03*
X413583000Y-147118000D03*
X380563000Y-162358000D03*
X416123000Y-147118000D03*
X378023000Y-162358000D03*
X418663000Y-147118000D03*
X375483000Y-162358000D03*
X421203000Y-147118000D03*
X372943000Y-162358000D03*
X423743000Y-147118000D03*
X370403000Y-162358000D03*
X426283000Y-147118000D03*
G36*
G01*
X368663000Y-163209000D02*
X367063000Y-163209000D01*
G75*
G02*
X367012000Y-163158000I0J51000D01*
G01*
X367012000Y-161558000D01*
G75*
G02*
X367063000Y-161507000I51000J0D01*
G01*
X368663000Y-161507000D01*
G75*
G02*
X368714000Y-161558000I0J-51000D01*
G01*
X368714000Y-163158000D01*
G75*
G02*
X368663000Y-163209000I-51000J0D01*
G01*
G37*
G36*
G01*
X368663000Y-191839000D02*
X367063000Y-191839000D01*
G75*
G02*
X367012000Y-191788000I0J51000D01*
G01*
X367012000Y-190188000D01*
G75*
G02*
X367063000Y-190137000I51000J0D01*
G01*
X368663000Y-190137000D01*
G75*
G02*
X368714000Y-190188000I0J-51000D01*
G01*
X368714000Y-191788000D01*
G75*
G02*
X368663000Y-191839000I-51000J0D01*
G01*
G37*
X426283000Y-175748000D03*
X370403000Y-190988000D03*
X423743000Y-175748000D03*
X372943000Y-190988000D03*
X421203000Y-175748000D03*
X375483000Y-190988000D03*
X418663000Y-175748000D03*
X378023000Y-190988000D03*
X416123000Y-175748000D03*
X380563000Y-190988000D03*
X413583000Y-175748000D03*
X383103000Y-190988000D03*
X411043000Y-175748000D03*
X385643000Y-190988000D03*
X408503000Y-175748000D03*
X388183000Y-190988000D03*
X405963000Y-175748000D03*
X390723000Y-190988000D03*
X403423000Y-175748000D03*
X393263000Y-190988000D03*
X400883000Y-175748000D03*
X395803000Y-190988000D03*
X398343000Y-175748000D03*
X398343000Y-190988000D03*
X395803000Y-175748000D03*
X400883000Y-190988000D03*
X393263000Y-175748000D03*
X403423000Y-190988000D03*
X390723000Y-175748000D03*
X405963000Y-190988000D03*
X388183000Y-175748000D03*
X408503000Y-190988000D03*
X385643000Y-175748000D03*
X411043000Y-190988000D03*
X383103000Y-175748000D03*
X413583000Y-190988000D03*
X380563000Y-175748000D03*
X416123000Y-190988000D03*
X378023000Y-175748000D03*
X418663000Y-190988000D03*
X375483000Y-175748000D03*
X421203000Y-190988000D03*
X372943000Y-175748000D03*
X423743000Y-190988000D03*
X370403000Y-175748000D03*
X426283000Y-190988000D03*
X367863000Y-175748000D03*
X434218000Y-343293000D03*
X426598000Y-361073000D03*
X434218000Y-345833000D03*
X426598000Y-358533000D03*
X434218000Y-348373000D03*
X426598000Y-355993000D03*
X434218000Y-350913000D03*
X426598000Y-353453000D03*
X434218000Y-353453000D03*
X426598000Y-350913000D03*
X434218000Y-355993000D03*
X426598000Y-348373000D03*
X434218000Y-358533000D03*
X426598000Y-345833000D03*
X434218000Y-361073000D03*
G36*
G01*
X425747000Y-344093000D02*
X425747000Y-342493000D01*
G75*
G02*
X425798000Y-342442000I51000J0D01*
G01*
X427398000Y-342442000D01*
G75*
G02*
X427449000Y-342493000I0J-51000D01*
G01*
X427449000Y-344093000D01*
G75*
G02*
X427398000Y-344144000I-51000J0D01*
G01*
X425798000Y-344144000D01*
G75*
G02*
X425747000Y-344093000I0J51000D01*
G01*
G37*
G36*
G01*
X250572000Y-154138000D02*
X250572000Y-152538000D01*
G75*
G02*
X250623000Y-152487000I51000J0D01*
G01*
X252223000Y-152487000D01*
G75*
G02*
X252274000Y-152538000I0J-51000D01*
G01*
X252274000Y-154138000D01*
G75*
G02*
X252223000Y-154189000I-51000J0D01*
G01*
X250623000Y-154189000D01*
G75*
G02*
X250572000Y-154138000I0J51000D01*
G01*
G37*
X259043000Y-168578000D03*
X251423000Y-155878000D03*
X259043000Y-166038000D03*
X251423000Y-158418000D03*
X259043000Y-163498000D03*
X251423000Y-160958000D03*
X259043000Y-160958000D03*
X251423000Y-163498000D03*
X259043000Y-158418000D03*
X251423000Y-166038000D03*
X259043000Y-155878000D03*
X251423000Y-168578000D03*
X259043000Y-153338000D03*
G36*
G01*
X263142000Y-99038400D02*
X263142000Y-97438400D01*
G75*
G02*
X263193000Y-97387400I51000J0D01*
G01*
X264793000Y-97387400D01*
G75*
G02*
X264844000Y-97438400I0J-51000D01*
G01*
X264844000Y-99038400D01*
G75*
G02*
X264793000Y-99089400I-51000J0D01*
G01*
X263193000Y-99089400D01*
G75*
G02*
X263142000Y-99038400I0J51000D01*
G01*
G37*
X271613000Y-113478400D03*
X263993000Y-100778400D03*
X271613000Y-110938400D03*
X263993000Y-103318400D03*
X271613000Y-108398400D03*
X263993000Y-105858400D03*
X271613000Y-105858400D03*
X263993000Y-108398400D03*
X271613000Y-103318400D03*
X263993000Y-110938400D03*
X271613000Y-100778400D03*
X263993000Y-113478400D03*
X271613000Y-98238400D03*
X412243000Y-70898400D03*
X404623000Y-93758400D03*
X412243000Y-73438400D03*
X404623000Y-91218400D03*
X412243000Y-75978400D03*
X404623000Y-88678400D03*
X412243000Y-78518400D03*
X404623000Y-86138400D03*
X412243000Y-81058400D03*
X404623000Y-83598400D03*
X412243000Y-83598400D03*
X404623000Y-81058400D03*
X412243000Y-86138400D03*
X404623000Y-78518400D03*
X412243000Y-88678400D03*
X404623000Y-75978400D03*
X412243000Y-91218400D03*
X404623000Y-73438400D03*
X412243000Y-93758400D03*
G36*
G01*
X403772000Y-71698400D02*
X403772000Y-70098400D01*
G75*
G02*
X403823000Y-70047400I51000J0D01*
G01*
X405423000Y-70047400D01*
G75*
G02*
X405474000Y-70098400I0J-51000D01*
G01*
X405474000Y-71698400D01*
G75*
G02*
X405423000Y-71749400I-51000J0D01*
G01*
X403823000Y-71749400D01*
G75*
G02*
X403772000Y-71698400I0J51000D01*
G01*
G37*
X396553000Y-70898400D03*
X388933000Y-93758400D03*
X396553000Y-73438400D03*
X388933000Y-91218400D03*
X396553000Y-75978400D03*
X388933000Y-88678400D03*
X396553000Y-78518400D03*
X388933000Y-86138400D03*
X396553000Y-81058400D03*
X388933000Y-83598400D03*
X396553000Y-83598400D03*
X388933000Y-81058400D03*
X396553000Y-86138400D03*
X388933000Y-78518400D03*
X396553000Y-88678400D03*
X388933000Y-75978400D03*
X396553000Y-91218400D03*
X388933000Y-73438400D03*
X396553000Y-93758400D03*
G36*
G01*
X388082000Y-71698400D02*
X388082000Y-70098400D01*
G75*
G02*
X388133000Y-70047400I51000J0D01*
G01*
X389733000Y-70047400D01*
G75*
G02*
X389784000Y-70098400I0J-51000D01*
G01*
X389784000Y-71698400D01*
G75*
G02*
X389733000Y-71749400I-51000J0D01*
G01*
X388133000Y-71749400D01*
G75*
G02*
X388082000Y-71698400I0J51000D01*
G01*
G37*
X374933000Y-70898400D03*
X359693000Y-119158400D03*
X374933000Y-73438400D03*
X359693000Y-116618400D03*
X374933000Y-75978400D03*
X359693000Y-114078400D03*
X374933000Y-78518400D03*
X359693000Y-111538400D03*
X374933000Y-81058400D03*
X359693000Y-108998400D03*
X374933000Y-83598400D03*
X359693000Y-106458400D03*
X374933000Y-86138400D03*
X359693000Y-103918400D03*
X374933000Y-88678400D03*
X359693000Y-101378400D03*
X374933000Y-91218400D03*
X359693000Y-98838400D03*
X374933000Y-93758400D03*
X359693000Y-96298400D03*
X374933000Y-96298400D03*
X359693000Y-93758400D03*
X374933000Y-98838400D03*
X359693000Y-91218400D03*
X374933000Y-101378400D03*
X359693000Y-88678400D03*
X374933000Y-103918400D03*
X359693000Y-86138400D03*
X374933000Y-106458400D03*
X359693000Y-83598400D03*
X374933000Y-108998400D03*
X359693000Y-81058400D03*
X374933000Y-111538400D03*
X359693000Y-78518400D03*
X374933000Y-114078400D03*
X359693000Y-75978400D03*
X374933000Y-116618400D03*
X359693000Y-73438400D03*
X374933000Y-119158400D03*
G36*
G01*
X358842000Y-71698400D02*
X358842000Y-70098400D01*
G75*
G02*
X358893000Y-70047400I51000J0D01*
G01*
X360493000Y-70047400D01*
G75*
G02*
X360544000Y-70098400I0J-51000D01*
G01*
X360544000Y-71698400D01*
G75*
G02*
X360493000Y-71749400I-51000J0D01*
G01*
X358893000Y-71749400D01*
G75*
G02*
X358842000Y-71698400I0J51000D01*
G01*
G37*
G36*
G01*
X320572000Y-71643400D02*
X320572000Y-70043400D01*
G75*
G02*
X320623000Y-69992400I51000J0D01*
G01*
X322223000Y-69992400D01*
G75*
G02*
X322274000Y-70043400I0J-51000D01*
G01*
X322274000Y-71643400D01*
G75*
G02*
X322223000Y-71694400I-51000J0D01*
G01*
X320623000Y-71694400D01*
G75*
G02*
X320572000Y-71643400I0J51000D01*
G01*
G37*
X336663000Y-119103400D03*
X321423000Y-73383400D03*
X336663000Y-116563400D03*
X321423000Y-75923400D03*
X336663000Y-114023400D03*
X321423000Y-78463400D03*
X336663000Y-111483400D03*
X321423000Y-81003400D03*
X336663000Y-108943400D03*
X321423000Y-83543400D03*
X336663000Y-106403400D03*
X321423000Y-86083400D03*
X336663000Y-103863400D03*
X321423000Y-88623400D03*
X336663000Y-101323400D03*
X321423000Y-91163400D03*
X336663000Y-98783400D03*
X321423000Y-93703400D03*
X336663000Y-96243400D03*
X321423000Y-96243400D03*
X336663000Y-93703400D03*
X321423000Y-98783400D03*
X336663000Y-91163400D03*
X321423000Y-101323400D03*
X336663000Y-88623400D03*
X321423000Y-103863400D03*
X336663000Y-86083400D03*
X321423000Y-106403400D03*
X336663000Y-83543400D03*
X321423000Y-108943400D03*
X336663000Y-81003400D03*
X321423000Y-111483400D03*
X336663000Y-78463400D03*
X321423000Y-114023400D03*
X336663000Y-75923400D03*
X321423000Y-116563400D03*
X336663000Y-73383400D03*
X321423000Y-119103400D03*
X336663000Y-70843400D03*
X256993000Y-208593000D03*
X249373000Y-223833000D03*
X256993000Y-211133000D03*
X249373000Y-221293000D03*
X256993000Y-213673000D03*
X249373000Y-218753000D03*
X256993000Y-216213000D03*
X249373000Y-216213000D03*
X256993000Y-218753000D03*
X249373000Y-213673000D03*
X256993000Y-221293000D03*
X249373000Y-211133000D03*
X256993000Y-223833000D03*
G36*
G01*
X248522000Y-209393000D02*
X248522000Y-207793000D01*
G75*
G02*
X248573000Y-207742000I51000J0D01*
G01*
X250173000Y-207742000D01*
G75*
G02*
X250224000Y-207793000I0J-51000D01*
G01*
X250224000Y-209393000D01*
G75*
G02*
X250173000Y-209444000I-51000J0D01*
G01*
X248573000Y-209444000D01*
G75*
G02*
X248522000Y-209393000I0J51000D01*
G01*
G37*
G36*
G01*
X279722000Y-99038400D02*
X279722000Y-97438400D01*
G75*
G02*
X279773000Y-97387400I51000J0D01*
G01*
X281373000Y-97387400D01*
G75*
G02*
X281424000Y-97438400I0J-51000D01*
G01*
X281424000Y-99038400D01*
G75*
G02*
X281373000Y-99089400I-51000J0D01*
G01*
X279773000Y-99089400D01*
G75*
G02*
X279722000Y-99038400I0J51000D01*
G01*
G37*
X288193000Y-113478400D03*
X280573000Y-100778400D03*
X288193000Y-110938400D03*
X280573000Y-103318400D03*
X288193000Y-108398400D03*
X280573000Y-105858400D03*
X288193000Y-105858400D03*
X280573000Y-108398400D03*
X288193000Y-103318400D03*
X280573000Y-110938400D03*
X288193000Y-100778400D03*
X280573000Y-113478400D03*
X288193000Y-98238400D03*
X223293000Y-79268400D03*
X215673000Y-94508400D03*
X223293000Y-81808400D03*
X215673000Y-91968400D03*
X223293000Y-84348400D03*
X215673000Y-89428400D03*
X223293000Y-86888400D03*
X215673000Y-86888400D03*
X223293000Y-89428400D03*
X215673000Y-84348400D03*
X223293000Y-91968400D03*
X215673000Y-81808400D03*
X223293000Y-94508400D03*
G36*
G01*
X214822000Y-80068400D02*
X214822000Y-78468400D01*
G75*
G02*
X214873000Y-78417400I51000J0D01*
G01*
X216473000Y-78417400D01*
G75*
G02*
X216524000Y-78468400I0J-51000D01*
G01*
X216524000Y-80068400D01*
G75*
G02*
X216473000Y-80119400I-51000J0D01*
G01*
X214873000Y-80119400D01*
G75*
G02*
X214822000Y-80068400I0J51000D01*
G01*
G37*
G36*
G01*
X200282000Y-80068400D02*
X200282000Y-78468400D01*
G75*
G02*
X200333000Y-78417400I51000J0D01*
G01*
X201933000Y-78417400D01*
G75*
G02*
X201984000Y-78468400I0J-51000D01*
G01*
X201984000Y-80068400D01*
G75*
G02*
X201933000Y-80119400I-51000J0D01*
G01*
X200333000Y-80119400D01*
G75*
G02*
X200282000Y-80068400I0J51000D01*
G01*
G37*
X208753000Y-94508400D03*
X201133000Y-81808400D03*
X208753000Y-91968400D03*
X201133000Y-84348400D03*
X208753000Y-89428400D03*
X201133000Y-86888400D03*
X208753000Y-86888400D03*
X201133000Y-89428400D03*
X208753000Y-84348400D03*
X201133000Y-91968400D03*
X208753000Y-81808400D03*
X201133000Y-94508400D03*
X208753000Y-79268400D03*
G36*
G01*
X299497000Y-264343000D02*
X299497000Y-262743000D01*
G75*
G02*
X299548000Y-262692000I51000J0D01*
G01*
X301148000Y-262692000D01*
G75*
G02*
X301199000Y-262743000I0J-51000D01*
G01*
X301199000Y-264343000D01*
G75*
G02*
X301148000Y-264394000I-51000J0D01*
G01*
X299548000Y-264394000D01*
G75*
G02*
X299497000Y-264343000I0J51000D01*
G01*
G37*
X315588000Y-311803000D03*
X300348000Y-266083000D03*
X315588000Y-309263000D03*
X300348000Y-268623000D03*
X315588000Y-306723000D03*
X300348000Y-271163000D03*
X315588000Y-304183000D03*
X300348000Y-273703000D03*
X315588000Y-301643000D03*
X300348000Y-276243000D03*
X315588000Y-299103000D03*
X300348000Y-278783000D03*
X315588000Y-296563000D03*
X300348000Y-281323000D03*
X315588000Y-294023000D03*
X300348000Y-283863000D03*
X315588000Y-291483000D03*
X300348000Y-286403000D03*
X315588000Y-288943000D03*
X300348000Y-288943000D03*
X315588000Y-286403000D03*
X300348000Y-291483000D03*
X315588000Y-283863000D03*
X300348000Y-294023000D03*
X315588000Y-281323000D03*
X300348000Y-296563000D03*
X315588000Y-278783000D03*
X300348000Y-299103000D03*
X315588000Y-276243000D03*
X300348000Y-301643000D03*
X315588000Y-273703000D03*
X300348000Y-304183000D03*
X315588000Y-271163000D03*
X300348000Y-306723000D03*
X315588000Y-268623000D03*
X300348000Y-309263000D03*
X315588000Y-266083000D03*
X300348000Y-311803000D03*
X315588000Y-263543000D03*
X412233000Y-251608000D03*
X404613000Y-274468000D03*
X412233000Y-254148000D03*
X404613000Y-271928000D03*
X412233000Y-256688000D03*
X404613000Y-269388000D03*
X412233000Y-259228000D03*
X404613000Y-266848000D03*
X412233000Y-261768000D03*
X404613000Y-264308000D03*
X412233000Y-264308000D03*
X404613000Y-261768000D03*
X412233000Y-266848000D03*
X404613000Y-259228000D03*
X412233000Y-269388000D03*
X404613000Y-256688000D03*
X412233000Y-271928000D03*
X404613000Y-254148000D03*
X412233000Y-274468000D03*
G36*
G01*
X403762000Y-252408000D02*
X403762000Y-250808000D01*
G75*
G02*
X403813000Y-250757000I51000J0D01*
G01*
X405413000Y-250757000D01*
G75*
G02*
X405464000Y-250808000I0J-51000D01*
G01*
X405464000Y-252408000D01*
G75*
G02*
X405413000Y-252459000I-51000J0D01*
G01*
X403813000Y-252459000D01*
G75*
G02*
X403762000Y-252408000I0J51000D01*
G01*
G37*
G36*
G01*
X418942000Y-252408000D02*
X418942000Y-250808000D01*
G75*
G02*
X418993000Y-250757000I51000J0D01*
G01*
X420593000Y-250757000D01*
G75*
G02*
X420644000Y-250808000I0J-51000D01*
G01*
X420644000Y-252408000D01*
G75*
G02*
X420593000Y-252459000I-51000J0D01*
G01*
X418993000Y-252459000D01*
G75*
G02*
X418942000Y-252408000I0J51000D01*
G01*
G37*
X427413000Y-274468000D03*
X419793000Y-254148000D03*
X427413000Y-271928000D03*
X419793000Y-256688000D03*
X427413000Y-269388000D03*
X419793000Y-259228000D03*
X427413000Y-266848000D03*
X419793000Y-261768000D03*
X427413000Y-264308000D03*
X419793000Y-264308000D03*
X427413000Y-261768000D03*
X419793000Y-266848000D03*
X427413000Y-259228000D03*
X419793000Y-269388000D03*
X427413000Y-256688000D03*
X419793000Y-271928000D03*
X427413000Y-254148000D03*
X419793000Y-274468000D03*
X427413000Y-251608000D03*
X381703000Y-251608000D03*
X374083000Y-274468000D03*
X381703000Y-254148000D03*
X374083000Y-271928000D03*
X381703000Y-256688000D03*
X374083000Y-269388000D03*
X381703000Y-259228000D03*
X374083000Y-266848000D03*
X381703000Y-261768000D03*
X374083000Y-264308000D03*
X381703000Y-264308000D03*
X374083000Y-261768000D03*
X381703000Y-266848000D03*
X374083000Y-259228000D03*
X381703000Y-269388000D03*
X374083000Y-256688000D03*
X381703000Y-271928000D03*
X374083000Y-254148000D03*
X381703000Y-274468000D03*
G36*
G01*
X373232000Y-252408000D02*
X373232000Y-250808000D01*
G75*
G02*
X373283000Y-250757000I51000J0D01*
G01*
X374883000Y-250757000D01*
G75*
G02*
X374934000Y-250808000I0J-51000D01*
G01*
X374934000Y-252408000D01*
G75*
G02*
X374883000Y-252459000I-51000J0D01*
G01*
X373283000Y-252459000D01*
G75*
G02*
X373232000Y-252408000I0J51000D01*
G01*
G37*
G36*
G01*
X388532000Y-252408000D02*
X388532000Y-250808000D01*
G75*
G02*
X388583000Y-250757000I51000J0D01*
G01*
X390183000Y-250757000D01*
G75*
G02*
X390234000Y-250808000I0J-51000D01*
G01*
X390234000Y-252408000D01*
G75*
G02*
X390183000Y-252459000I-51000J0D01*
G01*
X388583000Y-252459000D01*
G75*
G02*
X388532000Y-252408000I0J51000D01*
G01*
G37*
X397003000Y-274468000D03*
X389383000Y-254148000D03*
X397003000Y-271928000D03*
X389383000Y-256688000D03*
X397003000Y-269388000D03*
X389383000Y-259228000D03*
X397003000Y-266848000D03*
X389383000Y-261768000D03*
X397003000Y-264308000D03*
X389383000Y-264308000D03*
X397003000Y-261768000D03*
X389383000Y-266848000D03*
X397003000Y-259228000D03*
X389383000Y-269388000D03*
X397003000Y-256688000D03*
X389383000Y-271928000D03*
X397003000Y-254148000D03*
X389383000Y-274468000D03*
X397003000Y-251608000D03*
G36*
G01*
X403722000Y-284718000D02*
X403722000Y-283118000D01*
G75*
G02*
X403773000Y-283067000I51000J0D01*
G01*
X405373000Y-283067000D01*
G75*
G02*
X405424000Y-283118000I0J-51000D01*
G01*
X405424000Y-284718000D01*
G75*
G02*
X405373000Y-284769000I-51000J0D01*
G01*
X403773000Y-284769000D01*
G75*
G02*
X403722000Y-284718000I0J51000D01*
G01*
G37*
X412193000Y-306778000D03*
X404573000Y-286458000D03*
X412193000Y-304238000D03*
X404573000Y-288998000D03*
X412193000Y-301698000D03*
X404573000Y-291538000D03*
X412193000Y-299158000D03*
X404573000Y-294078000D03*
X412193000Y-296618000D03*
X404573000Y-296618000D03*
X412193000Y-294078000D03*
X404573000Y-299158000D03*
X412193000Y-291538000D03*
X404573000Y-301698000D03*
X412193000Y-288998000D03*
X404573000Y-304238000D03*
X412193000Y-286458000D03*
X404573000Y-306778000D03*
X412193000Y-283918000D03*
X427453000Y-283918000D03*
X419833000Y-306778000D03*
X427453000Y-286458000D03*
X419833000Y-304238000D03*
X427453000Y-288998000D03*
X419833000Y-301698000D03*
X427453000Y-291538000D03*
X419833000Y-299158000D03*
X427453000Y-294078000D03*
X419833000Y-296618000D03*
X427453000Y-296618000D03*
X419833000Y-294078000D03*
X427453000Y-299158000D03*
X419833000Y-291538000D03*
X427453000Y-301698000D03*
X419833000Y-288998000D03*
X427453000Y-304238000D03*
X419833000Y-286458000D03*
X427453000Y-306778000D03*
G36*
G01*
X418982000Y-284718000D02*
X418982000Y-283118000D01*
G75*
G02*
X419033000Y-283067000I51000J0D01*
G01*
X420633000Y-283067000D01*
G75*
G02*
X420684000Y-283118000I0J-51000D01*
G01*
X420684000Y-284718000D01*
G75*
G02*
X420633000Y-284769000I-51000J0D01*
G01*
X419033000Y-284769000D01*
G75*
G02*
X418982000Y-284718000I0J51000D01*
G01*
G37*
G36*
G01*
X373142000Y-284718000D02*
X373142000Y-283118000D01*
G75*
G02*
X373193000Y-283067000I51000J0D01*
G01*
X374793000Y-283067000D01*
G75*
G02*
X374844000Y-283118000I0J-51000D01*
G01*
X374844000Y-284718000D01*
G75*
G02*
X374793000Y-284769000I-51000J0D01*
G01*
X373193000Y-284769000D01*
G75*
G02*
X373142000Y-284718000I0J51000D01*
G01*
G37*
X381613000Y-306778000D03*
X373993000Y-286458000D03*
X381613000Y-304238000D03*
X373993000Y-288998000D03*
X381613000Y-301698000D03*
X373993000Y-291538000D03*
X381613000Y-299158000D03*
X373993000Y-294078000D03*
X381613000Y-296618000D03*
X373993000Y-296618000D03*
X381613000Y-294078000D03*
X373993000Y-299158000D03*
X381613000Y-291538000D03*
X373993000Y-301698000D03*
X381613000Y-288998000D03*
X373993000Y-304238000D03*
X381613000Y-286458000D03*
X373993000Y-306778000D03*
X381613000Y-283918000D03*
X396993000Y-283918000D03*
X389373000Y-306778000D03*
X396993000Y-286458000D03*
X389373000Y-304238000D03*
X396993000Y-288998000D03*
X389373000Y-301698000D03*
X396993000Y-291538000D03*
X389373000Y-299158000D03*
X396993000Y-294078000D03*
X389373000Y-296618000D03*
X396993000Y-296618000D03*
X389373000Y-294078000D03*
X396993000Y-299158000D03*
X389373000Y-291538000D03*
X396993000Y-301698000D03*
X389373000Y-288998000D03*
X396993000Y-304238000D03*
X389373000Y-286458000D03*
X396993000Y-306778000D03*
G36*
G01*
X388522000Y-284718000D02*
X388522000Y-283118000D01*
G75*
G02*
X388573000Y-283067000I51000J0D01*
G01*
X390173000Y-283067000D01*
G75*
G02*
X390224000Y-283118000I0J-51000D01*
G01*
X390224000Y-284718000D01*
G75*
G02*
X390173000Y-284769000I-51000J0D01*
G01*
X388573000Y-284769000D01*
G75*
G02*
X388522000Y-284718000I0J51000D01*
G01*
G37*
X344723000Y-297258000D03*
X337103000Y-320118000D03*
X344723000Y-299798000D03*
X337103000Y-317578000D03*
X344723000Y-302338000D03*
X337103000Y-315038000D03*
X344723000Y-304878000D03*
X337103000Y-312498000D03*
X344723000Y-307418000D03*
X337103000Y-309958000D03*
X344723000Y-309958000D03*
X337103000Y-307418000D03*
X344723000Y-312498000D03*
X337103000Y-304878000D03*
X344723000Y-315038000D03*
X337103000Y-302338000D03*
X344723000Y-317578000D03*
X337103000Y-299798000D03*
X344723000Y-320118000D03*
G36*
G01*
X336252000Y-298058000D02*
X336252000Y-296458000D01*
G75*
G02*
X336303000Y-296407000I51000J0D01*
G01*
X337903000Y-296407000D01*
G75*
G02*
X337954000Y-296458000I0J-51000D01*
G01*
X337954000Y-298058000D01*
G75*
G02*
X337903000Y-298109000I-51000J0D01*
G01*
X336303000Y-298109000D01*
G75*
G02*
X336252000Y-298058000I0J51000D01*
G01*
G37*
G36*
G01*
X336252000Y-270238000D02*
X336252000Y-268638000D01*
G75*
G02*
X336303000Y-268587000I51000J0D01*
G01*
X337903000Y-268587000D01*
G75*
G02*
X337954000Y-268638000I0J-51000D01*
G01*
X337954000Y-270238000D01*
G75*
G02*
X337903000Y-270289000I-51000J0D01*
G01*
X336303000Y-270289000D01*
G75*
G02*
X336252000Y-270238000I0J51000D01*
G01*
G37*
X344723000Y-292298000D03*
X337103000Y-271978000D03*
X344723000Y-289758000D03*
X337103000Y-274518000D03*
X344723000Y-287218000D03*
X337103000Y-277058000D03*
X344723000Y-284678000D03*
X337103000Y-279598000D03*
X344723000Y-282138000D03*
X337103000Y-282138000D03*
X344723000Y-279598000D03*
X337103000Y-284678000D03*
X344723000Y-277058000D03*
X337103000Y-287218000D03*
X344723000Y-274518000D03*
X337103000Y-289758000D03*
X344723000Y-271978000D03*
X337103000Y-292298000D03*
X344723000Y-269438000D03*
G36*
G01*
X201947000Y-237768000D02*
X201947000Y-236168000D01*
G75*
G02*
X201998000Y-236117000I51000J0D01*
G01*
X203598000Y-236117000D01*
G75*
G02*
X203649000Y-236168000I0J-51000D01*
G01*
X203649000Y-237768000D01*
G75*
G02*
X203598000Y-237819000I-51000J0D01*
G01*
X201998000Y-237819000D01*
G75*
G02*
X201947000Y-237768000I0J51000D01*
G01*
G37*
X210418000Y-259828000D03*
X202798000Y-239508000D03*
X210418000Y-257288000D03*
X202798000Y-242048000D03*
X210418000Y-254748000D03*
X202798000Y-244588000D03*
X210418000Y-252208000D03*
X202798000Y-247128000D03*
X210418000Y-249668000D03*
X202798000Y-249668000D03*
X210418000Y-247128000D03*
X202798000Y-252208000D03*
X210418000Y-244588000D03*
X202798000Y-254748000D03*
X210418000Y-242048000D03*
X202798000Y-257288000D03*
X210418000Y-239508000D03*
X202798000Y-259828000D03*
X210418000Y-236968000D03*
X190793000Y-236968000D03*
X183173000Y-259828000D03*
X190793000Y-239508000D03*
X183173000Y-257288000D03*
X190793000Y-242048000D03*
X183173000Y-254748000D03*
X190793000Y-244588000D03*
X183173000Y-252208000D03*
X190793000Y-247128000D03*
X183173000Y-249668000D03*
X190793000Y-249668000D03*
X183173000Y-247128000D03*
X190793000Y-252208000D03*
X183173000Y-244588000D03*
X190793000Y-254748000D03*
X183173000Y-242048000D03*
X190793000Y-257288000D03*
X183173000Y-239508000D03*
X190793000Y-259828000D03*
G36*
G01*
X182322000Y-237768000D02*
X182322000Y-236168000D01*
G75*
G02*
X182373000Y-236117000I51000J0D01*
G01*
X183973000Y-236117000D01*
G75*
G02*
X184024000Y-236168000I0J-51000D01*
G01*
X184024000Y-237768000D01*
G75*
G02*
X183973000Y-237819000I-51000J0D01*
G01*
X182373000Y-237819000D01*
G75*
G02*
X182322000Y-237768000I0J51000D01*
G01*
G37*
G36*
G01*
X182322000Y-275018000D02*
X182322000Y-273418000D01*
G75*
G02*
X182373000Y-273367000I51000J0D01*
G01*
X183973000Y-273367000D01*
G75*
G02*
X184024000Y-273418000I0J-51000D01*
G01*
X184024000Y-275018000D01*
G75*
G02*
X183973000Y-275069000I-51000J0D01*
G01*
X182373000Y-275069000D01*
G75*
G02*
X182322000Y-275018000I0J51000D01*
G01*
G37*
X190793000Y-297078000D03*
X183173000Y-276758000D03*
X190793000Y-294538000D03*
X183173000Y-279298000D03*
X190793000Y-291998000D03*
X183173000Y-281838000D03*
X190793000Y-289458000D03*
X183173000Y-284378000D03*
X190793000Y-286918000D03*
X183173000Y-286918000D03*
X190793000Y-284378000D03*
X183173000Y-289458000D03*
X190793000Y-281838000D03*
X183173000Y-291998000D03*
X190793000Y-279298000D03*
X183173000Y-294538000D03*
X190793000Y-276758000D03*
X183173000Y-297078000D03*
X190793000Y-274218000D03*
X190643000Y-311118000D03*
X183023000Y-333978000D03*
X190643000Y-313658000D03*
X183023000Y-331438000D03*
X190643000Y-316198000D03*
X183023000Y-328898000D03*
X190643000Y-318738000D03*
X183023000Y-326358000D03*
X190643000Y-321278000D03*
X183023000Y-323818000D03*
X190643000Y-323818000D03*
X183023000Y-321278000D03*
X190643000Y-326358000D03*
X183023000Y-318738000D03*
X190643000Y-328898000D03*
X183023000Y-316198000D03*
X190643000Y-331438000D03*
X183023000Y-313658000D03*
X190643000Y-333978000D03*
G36*
G01*
X182172000Y-311918000D02*
X182172000Y-310318000D01*
G75*
G02*
X182223000Y-310267000I51000J0D01*
G01*
X183823000Y-310267000D01*
G75*
G02*
X183874000Y-310318000I0J-51000D01*
G01*
X183874000Y-311918000D01*
G75*
G02*
X183823000Y-311969000I-51000J0D01*
G01*
X182223000Y-311969000D01*
G75*
G02*
X182172000Y-311918000I0J51000D01*
G01*
G37*
G36*
G01*
X201947000Y-311918000D02*
X201947000Y-310318000D01*
G75*
G02*
X201998000Y-310267000I51000J0D01*
G01*
X203598000Y-310267000D01*
G75*
G02*
X203649000Y-310318000I0J-51000D01*
G01*
X203649000Y-311918000D01*
G75*
G02*
X203598000Y-311969000I-51000J0D01*
G01*
X201998000Y-311969000D01*
G75*
G02*
X201947000Y-311918000I0J51000D01*
G01*
G37*
X210418000Y-333978000D03*
X202798000Y-313658000D03*
X210418000Y-331438000D03*
X202798000Y-316198000D03*
X210418000Y-328898000D03*
X202798000Y-318738000D03*
X210418000Y-326358000D03*
X202798000Y-321278000D03*
X210418000Y-323818000D03*
X202798000Y-323818000D03*
X210418000Y-321278000D03*
X202798000Y-326358000D03*
X210418000Y-318738000D03*
X202798000Y-328898000D03*
X210418000Y-316198000D03*
X202798000Y-331438000D03*
X210418000Y-313658000D03*
X202798000Y-333978000D03*
X210418000Y-311118000D03*
X210418000Y-274218000D03*
X202798000Y-297078000D03*
X210418000Y-276758000D03*
X202798000Y-294538000D03*
X210418000Y-279298000D03*
X202798000Y-291998000D03*
X210418000Y-281838000D03*
X202798000Y-289458000D03*
X210418000Y-284378000D03*
X202798000Y-286918000D03*
X210418000Y-286918000D03*
X202798000Y-284378000D03*
X210418000Y-289458000D03*
X202798000Y-281838000D03*
X210418000Y-291998000D03*
X202798000Y-279298000D03*
X210418000Y-294538000D03*
X202798000Y-276758000D03*
X210418000Y-297078000D03*
G36*
G01*
X201947000Y-275018000D02*
X201947000Y-273418000D01*
G75*
G02*
X201998000Y-273367000I51000J0D01*
G01*
X203598000Y-273367000D01*
G75*
G02*
X203649000Y-273418000I0J-51000D01*
G01*
X203649000Y-275018000D01*
G75*
G02*
X203598000Y-275069000I-51000J0D01*
G01*
X201998000Y-275069000D01*
G75*
G02*
X201947000Y-275018000I0J51000D01*
G01*
G37*
X179383000Y-172478000D03*
X171763000Y-187718000D03*
X179383000Y-175018000D03*
X171763000Y-185178000D03*
X179383000Y-177558000D03*
X171763000Y-182638000D03*
X179383000Y-180098000D03*
X171763000Y-180098000D03*
X179383000Y-182638000D03*
X171763000Y-177558000D03*
X179383000Y-185178000D03*
X171763000Y-175018000D03*
X179383000Y-187718000D03*
G36*
G01*
X170912000Y-173278000D02*
X170912000Y-171678000D01*
G75*
G02*
X170963000Y-171627000I51000J0D01*
G01*
X172563000Y-171627000D01*
G75*
G02*
X172614000Y-171678000I0J-51000D01*
G01*
X172614000Y-173278000D01*
G75*
G02*
X172563000Y-173329000I-51000J0D01*
G01*
X170963000Y-173329000D01*
G75*
G02*
X170912000Y-173278000I0J51000D01*
G01*
G37*
X210393000Y-205968000D03*
X202773000Y-221208000D03*
X210393000Y-208508000D03*
X202773000Y-218668000D03*
X210393000Y-211048000D03*
X202773000Y-216128000D03*
X210393000Y-213588000D03*
X202773000Y-213588000D03*
X210393000Y-216128000D03*
X202773000Y-211048000D03*
X210393000Y-218668000D03*
X202773000Y-208508000D03*
X210393000Y-221208000D03*
G36*
G01*
X201922000Y-206768000D02*
X201922000Y-205168000D01*
G75*
G02*
X201973000Y-205117000I51000J0D01*
G01*
X203573000Y-205117000D01*
G75*
G02*
X203624000Y-205168000I0J-51000D01*
G01*
X203624000Y-206768000D01*
G75*
G02*
X203573000Y-206819000I-51000J0D01*
G01*
X201973000Y-206819000D01*
G75*
G02*
X201922000Y-206768000I0J51000D01*
G01*
G37*
X168713000Y-76688400D03*
X153473000Y-135108400D03*
X168713000Y-79228400D03*
X153473000Y-132568400D03*
X168713000Y-81768400D03*
X153473000Y-130028400D03*
X168713000Y-84308400D03*
X153473000Y-127488400D03*
X168713000Y-86848400D03*
X153473000Y-124948400D03*
X168713000Y-89388400D03*
X153473000Y-122408400D03*
X168713000Y-91928400D03*
X153473000Y-119868400D03*
X168713000Y-94468400D03*
X153473000Y-117328400D03*
X168713000Y-97008400D03*
X153473000Y-114788400D03*
X168713000Y-99548400D03*
X153473000Y-112248400D03*
X168713000Y-102088400D03*
X153473000Y-109708400D03*
X168713000Y-104628400D03*
X153473000Y-107168400D03*
X168713000Y-107168400D03*
X153473000Y-104628400D03*
X168713000Y-109708400D03*
X153473000Y-102088400D03*
X168713000Y-112248400D03*
X153473000Y-99548400D03*
X168713000Y-114788400D03*
X153473000Y-97008400D03*
X168713000Y-117328400D03*
X153473000Y-94468400D03*
X168713000Y-119868400D03*
X153473000Y-91928400D03*
X168713000Y-122408400D03*
X153473000Y-89388400D03*
X168713000Y-124948400D03*
X153473000Y-86848400D03*
X168713000Y-127488400D03*
X153473000Y-84308400D03*
X168713000Y-130028400D03*
X153473000Y-81768400D03*
X168713000Y-132568400D03*
X153473000Y-79228400D03*
X168713000Y-135108400D03*
G36*
G01*
X152622000Y-77488400D02*
X152622000Y-75888400D01*
G75*
G02*
X152673000Y-75837400I51000J0D01*
G01*
X154273000Y-75837400D01*
G75*
G02*
X154324000Y-75888400I0J-51000D01*
G01*
X154324000Y-77488400D01*
G75*
G02*
X154273000Y-77539400I-51000J0D01*
G01*
X152673000Y-77539400D01*
G75*
G02*
X152622000Y-77488400I0J51000D01*
G01*
G37*
G36*
G01*
X177273000Y-368219000D02*
X175673000Y-368219000D01*
G75*
G02*
X175622000Y-368168000I0J51000D01*
G01*
X175622000Y-366568000D01*
G75*
G02*
X175673000Y-366517000I51000J0D01*
G01*
X177273000Y-366517000D01*
G75*
G02*
X177324000Y-366568000I0J-51000D01*
G01*
X177324000Y-368168000D01*
G75*
G02*
X177273000Y-368219000I-51000J0D01*
G01*
G37*
X196793000Y-359748000D03*
X179013000Y-367368000D03*
X194253000Y-359748000D03*
X181553000Y-367368000D03*
X191713000Y-359748000D03*
X184093000Y-367368000D03*
X189173000Y-359748000D03*
X186633000Y-367368000D03*
X186633000Y-359748000D03*
X189173000Y-367368000D03*
X184093000Y-359748000D03*
X191713000Y-367368000D03*
X181553000Y-359748000D03*
X194253000Y-367368000D03*
X179013000Y-359748000D03*
X196793000Y-367368000D03*
X176473000Y-359748000D03*
G36*
G01*
X170912000Y-143838000D02*
X170912000Y-142238000D01*
G75*
G02*
X170963000Y-142187000I51000J0D01*
G01*
X172563000Y-142187000D01*
G75*
G02*
X172614000Y-142238000I0J-51000D01*
G01*
X172614000Y-143838000D01*
G75*
G02*
X172563000Y-143889000I-51000J0D01*
G01*
X170963000Y-143889000D01*
G75*
G02*
X170912000Y-143838000I0J51000D01*
G01*
G37*
X179383000Y-160818000D03*
X171763000Y-145578000D03*
X179383000Y-158278000D03*
X171763000Y-148118000D03*
X179383000Y-155738000D03*
X171763000Y-150658000D03*
X179383000Y-153198000D03*
X171763000Y-153198000D03*
X179383000Y-150658000D03*
X171763000Y-155738000D03*
X179383000Y-148118000D03*
X171763000Y-158278000D03*
X179383000Y-145578000D03*
X171763000Y-160818000D03*
X179383000Y-143038000D03*
G36*
G01*
X153232000Y-173278000D02*
X153232000Y-171678000D01*
G75*
G02*
X153283000Y-171627000I51000J0D01*
G01*
X154883000Y-171627000D01*
G75*
G02*
X154934000Y-171678000I0J-51000D01*
G01*
X154934000Y-173278000D01*
G75*
G02*
X154883000Y-173329000I-51000J0D01*
G01*
X153283000Y-173329000D01*
G75*
G02*
X153232000Y-173278000I0J51000D01*
G01*
G37*
X161703000Y-187718000D03*
X154083000Y-175018000D03*
X161703000Y-185178000D03*
X154083000Y-177558000D03*
X161703000Y-182638000D03*
X154083000Y-180098000D03*
X161703000Y-180098000D03*
X154083000Y-182638000D03*
X161703000Y-177558000D03*
X154083000Y-185178000D03*
X161703000Y-175018000D03*
X154083000Y-187718000D03*
X161703000Y-172478000D03*
G36*
G01*
X153232000Y-143838000D02*
X153232000Y-142238000D01*
G75*
G02*
X153283000Y-142187000I51000J0D01*
G01*
X154883000Y-142187000D01*
G75*
G02*
X154934000Y-142238000I0J-51000D01*
G01*
X154934000Y-143838000D01*
G75*
G02*
X154883000Y-143889000I-51000J0D01*
G01*
X153283000Y-143889000D01*
G75*
G02*
X153232000Y-143838000I0J51000D01*
G01*
G37*
X161703000Y-160818000D03*
X154083000Y-145578000D03*
X161703000Y-158278000D03*
X154083000Y-148118000D03*
X161703000Y-155738000D03*
X154083000Y-150658000D03*
X161703000Y-153198000D03*
X154083000Y-153198000D03*
X161703000Y-150658000D03*
X154083000Y-155738000D03*
X161703000Y-148118000D03*
X154083000Y-158278000D03*
X161703000Y-145578000D03*
X154083000Y-160818000D03*
X161703000Y-143038000D03*
X223293000Y-100888000D03*
X215673000Y-116128000D03*
X223293000Y-103428000D03*
X215673000Y-113588000D03*
X223293000Y-105968000D03*
X215673000Y-111048000D03*
X223293000Y-108508000D03*
X215673000Y-108508000D03*
X223293000Y-111048000D03*
X215673000Y-105968000D03*
X223293000Y-113588000D03*
X215673000Y-103428000D03*
X223293000Y-116128000D03*
G36*
G01*
X214822000Y-101688000D02*
X214822000Y-100088000D01*
G75*
G02*
X214873000Y-100037000I51000J0D01*
G01*
X216473000Y-100037000D01*
G75*
G02*
X216524000Y-100088000I0J-51000D01*
G01*
X216524000Y-101688000D01*
G75*
G02*
X216473000Y-101739000I-51000J0D01*
G01*
X214873000Y-101739000D01*
G75*
G02*
X214822000Y-101688000I0J51000D01*
G01*
G37*
X306033000Y-171798000D03*
X298413000Y-187038000D03*
X306033000Y-174338000D03*
X298413000Y-184498000D03*
X306033000Y-176878000D03*
X298413000Y-181958000D03*
X306033000Y-179418000D03*
X298413000Y-179418000D03*
X306033000Y-181958000D03*
X298413000Y-176878000D03*
X306033000Y-184498000D03*
X298413000Y-174338000D03*
X306033000Y-187038000D03*
G36*
G01*
X297562000Y-172598000D02*
X297562000Y-170998000D01*
G75*
G02*
X297613000Y-170947000I51000J0D01*
G01*
X299213000Y-170947000D01*
G75*
G02*
X299264000Y-170998000I0J-51000D01*
G01*
X299264000Y-172598000D01*
G75*
G02*
X299213000Y-172649000I-51000J0D01*
G01*
X297613000Y-172649000D01*
G75*
G02*
X297562000Y-172598000I0J51000D01*
G01*
G37*
D29*
X171148000Y-354468000D03*
X171148000Y-359468000D03*
G36*
G01*
X267663000Y-207987000D02*
X269263000Y-207987000D01*
G75*
G02*
X269314000Y-208038000I0J-51000D01*
G01*
X269314000Y-209638000D01*
G75*
G02*
X269263000Y-209689000I-51000J0D01*
G01*
X267663000Y-209689000D01*
G75*
G02*
X267612000Y-209638000I0J51000D01*
G01*
X267612000Y-208038000D01*
G75*
G02*
X267663000Y-207987000I51000J0D01*
G01*
G37*
D12*
X276083000Y-208838000D03*
X276083000Y-224078000D03*
X268463000Y-224078000D03*
G36*
G01*
X234332000Y-74258400D02*
X234332000Y-72558400D01*
G75*
G02*
X234383000Y-72507400I51000J0D01*
G01*
X236083000Y-72507400D01*
G75*
G02*
X236134000Y-72558400I0J-51000D01*
G01*
X236134000Y-74258400D01*
G75*
G02*
X236083000Y-74309400I-51000J0D01*
G01*
X234383000Y-74309400D01*
G75*
G02*
X234332000Y-74258400I0J51000D01*
G01*
G37*
D15*
X237773000Y-73408400D03*
X235233000Y-75948400D03*
X237773000Y-75948400D03*
X235233000Y-78488400D03*
X237773000Y-78488400D03*
X235233000Y-81028400D03*
X237773000Y-81028400D03*
X235233000Y-83568400D03*
X237773000Y-83568400D03*
X235233000Y-86108400D03*
X237773000Y-86108400D03*
X235233000Y-88648400D03*
X237773000Y-88648400D03*
X235233000Y-91188400D03*
X237773000Y-91188400D03*
X235233000Y-93728400D03*
X237773000Y-93728400D03*
X235233000Y-96268400D03*
X237773000Y-96268400D03*
X235233000Y-98808400D03*
X237773000Y-98808400D03*
X235233000Y-101348400D03*
X237773000Y-101348400D03*
X235233000Y-103888400D03*
X237773000Y-103888400D03*
X235233000Y-106428400D03*
X237773000Y-106428400D03*
X235233000Y-108968400D03*
X237773000Y-108968400D03*
X235233000Y-111508400D03*
X237773000Y-111508400D03*
X235233000Y-114048400D03*
X237773000Y-114048400D03*
G36*
G01*
X232423000Y-57042400D02*
X234123000Y-57042400D01*
G75*
G02*
X234174000Y-57093400I0J-51000D01*
G01*
X234174000Y-58793400D01*
G75*
G02*
X234123000Y-58844400I-51000J0D01*
G01*
X232423000Y-58844400D01*
G75*
G02*
X232372000Y-58793400I0J51000D01*
G01*
X232372000Y-57093400D01*
G75*
G02*
X232423000Y-57042400I51000J0D01*
G01*
G37*
X233273000Y-60483400D03*
X230733000Y-57943400D03*
X230733000Y-60483400D03*
X228193000Y-57943400D03*
X228193000Y-60483400D03*
X225653000Y-57943400D03*
X225653000Y-60483400D03*
X223113000Y-57943400D03*
X223113000Y-60483400D03*
X220573000Y-57943400D03*
X220573000Y-60483400D03*
X218033000Y-57943400D03*
X218033000Y-60483400D03*
X215493000Y-57943400D03*
X215493000Y-60483400D03*
X212953000Y-57943400D03*
X212953000Y-60483400D03*
X210413000Y-57943400D03*
X210413000Y-60483400D03*
X207873000Y-57943400D03*
X207873000Y-60483400D03*
X205333000Y-57943400D03*
X205333000Y-60483400D03*
X202793000Y-57943400D03*
X202793000Y-60483400D03*
X54572800Y-355798000D03*
X54572800Y-353258000D03*
G36*
G01*
X53671800Y-351568000D02*
X53671800Y-349868000D01*
G75*
G02*
X53722800Y-349817000I51000J0D01*
G01*
X55422800Y-349817000D01*
G75*
G02*
X55473800Y-349868000I0J-51000D01*
G01*
X55473800Y-351568000D01*
G75*
G02*
X55422800Y-351619000I-51000J0D01*
G01*
X53722800Y-351619000D01*
G75*
G02*
X53671800Y-351568000I0J51000D01*
G01*
G37*
G36*
G01*
X237524000Y-277668000D02*
X237524000Y-279368000D01*
G75*
G02*
X237473000Y-279419000I-51000J0D01*
G01*
X235773000Y-279419000D01*
G75*
G02*
X235722000Y-279368000I0J51000D01*
G01*
X235722000Y-277668000D01*
G75*
G02*
X235773000Y-277617000I51000J0D01*
G01*
X237473000Y-277617000D01*
G75*
G02*
X237524000Y-277668000I0J-51000D01*
G01*
G37*
X236623000Y-275978000D03*
X236623000Y-273438000D03*
X236623000Y-270898000D03*
G36*
G01*
X64802800Y-334847000D02*
X66502800Y-334847000D01*
G75*
G02*
X66553800Y-334898000I0J-51000D01*
G01*
X66553800Y-336598000D01*
G75*
G02*
X66502800Y-336649000I-51000J0D01*
G01*
X64802800Y-336649000D01*
G75*
G02*
X64751800Y-336598000I0J51000D01*
G01*
X64751800Y-334898000D01*
G75*
G02*
X64802800Y-334847000I51000J0D01*
G01*
G37*
X63112800Y-335748000D03*
X60572800Y-335748000D03*
X73772800Y-335678000D03*
X76312800Y-335678000D03*
G36*
G01*
X78002800Y-334777000D02*
X79702800Y-334777000D01*
G75*
G02*
X79753800Y-334828000I0J-51000D01*
G01*
X79753800Y-336528000D01*
G75*
G02*
X79702800Y-336579000I-51000J0D01*
G01*
X78002800Y-336579000D01*
G75*
G02*
X77951800Y-336528000I0J51000D01*
G01*
X77951800Y-334828000D01*
G75*
G02*
X78002800Y-334777000I51000J0D01*
G01*
G37*
G36*
G01*
X246554000Y-199788000D02*
X246554000Y-201488000D01*
G75*
G02*
X246503000Y-201539000I-51000J0D01*
G01*
X244803000Y-201539000D01*
G75*
G02*
X244752000Y-201488000I0J51000D01*
G01*
X244752000Y-199788000D01*
G75*
G02*
X244803000Y-199737000I51000J0D01*
G01*
X246503000Y-199737000D01*
G75*
G02*
X246554000Y-199788000I0J-51000D01*
G01*
G37*
X245653000Y-198098000D03*
X245653000Y-195558000D03*
G36*
G01*
X354202000Y-87118400D02*
X354202000Y-85418400D01*
G75*
G02*
X354253000Y-85367400I51000J0D01*
G01*
X355953000Y-85367400D01*
G75*
G02*
X356004000Y-85418400I0J-51000D01*
G01*
X356004000Y-87118400D01*
G75*
G02*
X355953000Y-87169400I-51000J0D01*
G01*
X354253000Y-87169400D01*
G75*
G02*
X354202000Y-87118400I0J51000D01*
G01*
G37*
X355103000Y-88808400D03*
X355103000Y-91348400D03*
X381233000Y-131828000D03*
X378693000Y-131828000D03*
G36*
G01*
X377003000Y-132729000D02*
X375303000Y-132729000D01*
G75*
G02*
X375252000Y-132678000I0J51000D01*
G01*
X375252000Y-130978000D01*
G75*
G02*
X375303000Y-130927000I51000J0D01*
G01*
X377003000Y-130927000D01*
G75*
G02*
X377054000Y-130978000I0J-51000D01*
G01*
X377054000Y-132678000D01*
G75*
G02*
X377003000Y-132729000I-51000J0D01*
G01*
G37*
X250083000Y-121128000D03*
G36*
G01*
X246642000Y-121978000D02*
X246642000Y-120278000D01*
G75*
G02*
X246693000Y-120227000I51000J0D01*
G01*
X248393000Y-120227000D01*
G75*
G02*
X248444000Y-120278000I0J-51000D01*
G01*
X248444000Y-121978000D01*
G75*
G02*
X248393000Y-122029000I-51000J0D01*
G01*
X246693000Y-122029000D01*
G75*
G02*
X246642000Y-121978000I0J51000D01*
G01*
G37*
G36*
G01*
X311322000Y-129398000D02*
X311322000Y-127698000D01*
G75*
G02*
X311373000Y-127647000I51000J0D01*
G01*
X313073000Y-127647000D01*
G75*
G02*
X313124000Y-127698000I0J-51000D01*
G01*
X313124000Y-129398000D01*
G75*
G02*
X313073000Y-129449000I-51000J0D01*
G01*
X311373000Y-129449000D01*
G75*
G02*
X311322000Y-129398000I0J51000D01*
G01*
G37*
X314763000Y-128548000D03*
G36*
G01*
X284762000Y-163608000D02*
X284762000Y-161908000D01*
G75*
G02*
X284813000Y-161857000I51000J0D01*
G01*
X286513000Y-161857000D01*
G75*
G02*
X286564000Y-161908000I0J-51000D01*
G01*
X286564000Y-163608000D01*
G75*
G02*
X286513000Y-163659000I-51000J0D01*
G01*
X284813000Y-163659000D01*
G75*
G02*
X284762000Y-163608000I0J51000D01*
G01*
G37*
X288203000Y-162758000D03*
D12*
X279363000Y-195158000D03*
D13*
X279363000Y-190078000D03*
X238743000Y-138648000D03*
D12*
X233663000Y-138648000D03*
G36*
G01*
X215834000Y-247208000D02*
X215834000Y-248908000D01*
G75*
G02*
X215783000Y-248959000I-51000J0D01*
G01*
X214083000Y-248959000D01*
G75*
G02*
X214032000Y-248908000I0J51000D01*
G01*
X214032000Y-247208000D01*
G75*
G02*
X214083000Y-247157000I51000J0D01*
G01*
X215783000Y-247157000D01*
G75*
G02*
X215834000Y-247208000I0J-51000D01*
G01*
G37*
D15*
X214933000Y-245518000D03*
D12*
X339403000Y-364058000D03*
X339403000Y-354058000D03*
X199383000Y-56618400D03*
X199383000Y-46618400D03*
X335423000Y-63118400D03*
X325423000Y-63118400D03*
X319063000Y-63068400D03*
X309063000Y-63068400D03*
X393113000Y-60048400D03*
X403113000Y-60048400D03*
D15*
X443693000Y-44568400D03*
X446233000Y-44568400D03*
G36*
G01*
X447923000Y-43667400D02*
X449623000Y-43667400D01*
G75*
G02*
X449674000Y-43718400I0J-51000D01*
G01*
X449674000Y-45418400D01*
G75*
G02*
X449623000Y-45469400I-51000J0D01*
G01*
X447923000Y-45469400D01*
G75*
G02*
X447872000Y-45418400I0J51000D01*
G01*
X447872000Y-43718400D01*
G75*
G02*
X447923000Y-43667400I51000J0D01*
G01*
G37*
G36*
G01*
X414594000Y-48878400D02*
X414594000Y-50578400D01*
G75*
G02*
X414543000Y-50629400I-51000J0D01*
G01*
X412843000Y-50629400D01*
G75*
G02*
X412792000Y-50578400I0J51000D01*
G01*
X412792000Y-48878400D01*
G75*
G02*
X412843000Y-48827400I51000J0D01*
G01*
X414543000Y-48827400D01*
G75*
G02*
X414594000Y-48878400I0J-51000D01*
G01*
G37*
X413693000Y-47188400D03*
X413693000Y-44648400D03*
X410543000Y-44648400D03*
X410543000Y-47188400D03*
G36*
G01*
X411444000Y-48878400D02*
X411444000Y-50578400D01*
G75*
G02*
X411393000Y-50629400I-51000J0D01*
G01*
X409693000Y-50629400D01*
G75*
G02*
X409642000Y-50578400I0J51000D01*
G01*
X409642000Y-48878400D01*
G75*
G02*
X409693000Y-48827400I51000J0D01*
G01*
X411393000Y-48827400D01*
G75*
G02*
X411444000Y-48878400I0J-51000D01*
G01*
G37*
G36*
G01*
X284694000Y-48888400D02*
X284694000Y-50588400D01*
G75*
G02*
X284643000Y-50639400I-51000J0D01*
G01*
X282943000Y-50639400D01*
G75*
G02*
X282892000Y-50588400I0J51000D01*
G01*
X282892000Y-48888400D01*
G75*
G02*
X282943000Y-48837400I51000J0D01*
G01*
X284643000Y-48837400D01*
G75*
G02*
X284694000Y-48888400I0J-51000D01*
G01*
G37*
X283793000Y-47198400D03*
X283793000Y-44658400D03*
G36*
G01*
X396124000Y-48698400D02*
X396124000Y-50398400D01*
G75*
G02*
X396073000Y-50449400I-51000J0D01*
G01*
X394373000Y-50449400D01*
G75*
G02*
X394322000Y-50398400I0J51000D01*
G01*
X394322000Y-48698400D01*
G75*
G02*
X394373000Y-48647400I51000J0D01*
G01*
X396073000Y-48647400D01*
G75*
G02*
X396124000Y-48698400I0J-51000D01*
G01*
G37*
X395223000Y-47008400D03*
X395223000Y-44468400D03*
X404173000Y-49738400D03*
X404173000Y-47198400D03*
G36*
G01*
X403272000Y-45508400D02*
X403272000Y-43808400D01*
G75*
G02*
X403323000Y-43757400I51000J0D01*
G01*
X405023000Y-43757400D01*
G75*
G02*
X405074000Y-43808400I0J-51000D01*
G01*
X405074000Y-45508400D01*
G75*
G02*
X405023000Y-45559400I-51000J0D01*
G01*
X403323000Y-45559400D01*
G75*
G02*
X403272000Y-45508400I0J51000D01*
G01*
G37*
G36*
G01*
X408254000Y-48878400D02*
X408254000Y-50578400D01*
G75*
G02*
X408203000Y-50629400I-51000J0D01*
G01*
X406503000Y-50629400D01*
G75*
G02*
X406452000Y-50578400I0J51000D01*
G01*
X406452000Y-48878400D01*
G75*
G02*
X406503000Y-48827400I51000J0D01*
G01*
X408203000Y-48827400D01*
G75*
G02*
X408254000Y-48878400I0J-51000D01*
G01*
G37*
X407353000Y-47188400D03*
X407353000Y-44648400D03*
X402718000Y-195293000D03*
X405258000Y-195293000D03*
G36*
G01*
X406948000Y-194392000D02*
X408648000Y-194392000D01*
G75*
G02*
X408699000Y-194443000I0J-51000D01*
G01*
X408699000Y-196143000D01*
G75*
G02*
X408648000Y-196194000I-51000J0D01*
G01*
X406948000Y-196194000D01*
G75*
G02*
X406897000Y-196143000I0J51000D01*
G01*
X406897000Y-194443000D01*
G75*
G02*
X406948000Y-194392000I51000J0D01*
G01*
G37*
X390073000Y-359958000D03*
X390073000Y-357418000D03*
G36*
G01*
X389172000Y-355728000D02*
X389172000Y-354028000D01*
G75*
G02*
X389223000Y-353977000I51000J0D01*
G01*
X390923000Y-353977000D01*
G75*
G02*
X390974000Y-354028000I0J-51000D01*
G01*
X390974000Y-355728000D01*
G75*
G02*
X390923000Y-355779000I-51000J0D01*
G01*
X389223000Y-355779000D01*
G75*
G02*
X389172000Y-355728000I0J51000D01*
G01*
G37*
G36*
G01*
X393392000Y-355688000D02*
X393392000Y-353988000D01*
G75*
G02*
X393443000Y-353937000I51000J0D01*
G01*
X395143000Y-353937000D01*
G75*
G02*
X395194000Y-353988000I0J-51000D01*
G01*
X395194000Y-355688000D01*
G75*
G02*
X395143000Y-355739000I-51000J0D01*
G01*
X393443000Y-355739000D01*
G75*
G02*
X393392000Y-355688000I0J51000D01*
G01*
G37*
X394293000Y-357378000D03*
X394293000Y-359918000D03*
G36*
G01*
X397052000Y-355728000D02*
X397052000Y-354028000D01*
G75*
G02*
X397103000Y-353977000I51000J0D01*
G01*
X398803000Y-353977000D01*
G75*
G02*
X398854000Y-354028000I0J-51000D01*
G01*
X398854000Y-355728000D01*
G75*
G02*
X398803000Y-355779000I-51000J0D01*
G01*
X397103000Y-355779000D01*
G75*
G02*
X397052000Y-355728000I0J51000D01*
G01*
G37*
X397953000Y-357418000D03*
X397953000Y-359958000D03*
X401853000Y-359988000D03*
X401853000Y-357448000D03*
G36*
G01*
X400952000Y-355758000D02*
X400952000Y-354058000D01*
G75*
G02*
X401003000Y-354007000I51000J0D01*
G01*
X402703000Y-354007000D01*
G75*
G02*
X402754000Y-354058000I0J-51000D01*
G01*
X402754000Y-355758000D01*
G75*
G02*
X402703000Y-355809000I-51000J0D01*
G01*
X401003000Y-355809000D01*
G75*
G02*
X400952000Y-355758000I0J51000D01*
G01*
G37*
G36*
G01*
X349962000Y-355518000D02*
X349962000Y-353818000D01*
G75*
G02*
X350013000Y-353767000I51000J0D01*
G01*
X351713000Y-353767000D01*
G75*
G02*
X351764000Y-353818000I0J-51000D01*
G01*
X351764000Y-355518000D01*
G75*
G02*
X351713000Y-355569000I-51000J0D01*
G01*
X350013000Y-355569000D01*
G75*
G02*
X349962000Y-355518000I0J51000D01*
G01*
G37*
X350863000Y-357208000D03*
X350863000Y-359748000D03*
G36*
G01*
X353862000Y-355478000D02*
X353862000Y-353778000D01*
G75*
G02*
X353913000Y-353727000I51000J0D01*
G01*
X355613000Y-353727000D01*
G75*
G02*
X355664000Y-353778000I0J-51000D01*
G01*
X355664000Y-355478000D01*
G75*
G02*
X355613000Y-355529000I-51000J0D01*
G01*
X353913000Y-355529000D01*
G75*
G02*
X353862000Y-355478000I0J51000D01*
G01*
G37*
X354763000Y-357168000D03*
X354763000Y-359708000D03*
X358633000Y-359748000D03*
X358633000Y-357208000D03*
G36*
G01*
X357732000Y-355518000D02*
X357732000Y-353818000D01*
G75*
G02*
X357783000Y-353767000I51000J0D01*
G01*
X359483000Y-353767000D01*
G75*
G02*
X359534000Y-353818000I0J-51000D01*
G01*
X359534000Y-355518000D01*
G75*
G02*
X359483000Y-355569000I-51000J0D01*
G01*
X357783000Y-355569000D01*
G75*
G02*
X357732000Y-355518000I0J51000D01*
G01*
G37*
X362403000Y-359778000D03*
X362403000Y-357238000D03*
G36*
G01*
X361502000Y-355548000D02*
X361502000Y-353848000D01*
G75*
G02*
X361553000Y-353797000I51000J0D01*
G01*
X363253000Y-353797000D01*
G75*
G02*
X363304000Y-353848000I0J-51000D01*
G01*
X363304000Y-355548000D01*
G75*
G02*
X363253000Y-355599000I-51000J0D01*
G01*
X361553000Y-355599000D01*
G75*
G02*
X361502000Y-355548000I0J51000D01*
G01*
G37*
G36*
G01*
X387364000Y-359058000D02*
X387364000Y-360758000D01*
G75*
G02*
X387313000Y-360809000I-51000J0D01*
G01*
X385613000Y-360809000D01*
G75*
G02*
X385562000Y-360758000I0J51000D01*
G01*
X385562000Y-359058000D01*
G75*
G02*
X385613000Y-359007000I51000J0D01*
G01*
X387313000Y-359007000D01*
G75*
G02*
X387364000Y-359058000I0J-51000D01*
G01*
G37*
X386463000Y-357368000D03*
X386463000Y-354828000D03*
X405693000Y-354828000D03*
X405693000Y-357368000D03*
G36*
G01*
X406594000Y-359058000D02*
X406594000Y-360758000D01*
G75*
G02*
X406543000Y-360809000I-51000J0D01*
G01*
X404843000Y-360809000D01*
G75*
G02*
X404792000Y-360758000I0J51000D01*
G01*
X404792000Y-359058000D01*
G75*
G02*
X404843000Y-359007000I51000J0D01*
G01*
X406543000Y-359007000D01*
G75*
G02*
X406594000Y-359058000I0J-51000D01*
G01*
G37*
X409553000Y-354828000D03*
X409553000Y-357368000D03*
G36*
G01*
X410454000Y-359058000D02*
X410454000Y-360758000D01*
G75*
G02*
X410403000Y-360809000I-51000J0D01*
G01*
X408703000Y-360809000D01*
G75*
G02*
X408652000Y-360758000I0J51000D01*
G01*
X408652000Y-359058000D01*
G75*
G02*
X408703000Y-359007000I51000J0D01*
G01*
X410403000Y-359007000D01*
G75*
G02*
X410454000Y-359058000I0J-51000D01*
G01*
G37*
G36*
G01*
X348114000Y-358858000D02*
X348114000Y-360558000D01*
G75*
G02*
X348063000Y-360609000I-51000J0D01*
G01*
X346363000Y-360609000D01*
G75*
G02*
X346312000Y-360558000I0J51000D01*
G01*
X346312000Y-358858000D01*
G75*
G02*
X346363000Y-358807000I51000J0D01*
G01*
X348063000Y-358807000D01*
G75*
G02*
X348114000Y-358858000I0J-51000D01*
G01*
G37*
X347213000Y-357168000D03*
X347213000Y-354628000D03*
G36*
G01*
X370884000Y-358858000D02*
X370884000Y-360558000D01*
G75*
G02*
X370833000Y-360609000I-51000J0D01*
G01*
X369133000Y-360609000D01*
G75*
G02*
X369082000Y-360558000I0J51000D01*
G01*
X369082000Y-358858000D01*
G75*
G02*
X369133000Y-358807000I51000J0D01*
G01*
X370833000Y-358807000D01*
G75*
G02*
X370884000Y-358858000I0J-51000D01*
G01*
G37*
X369983000Y-357168000D03*
X369983000Y-354628000D03*
G36*
G01*
X367144000Y-358858000D02*
X367144000Y-360558000D01*
G75*
G02*
X367093000Y-360609000I-51000J0D01*
G01*
X365393000Y-360609000D01*
G75*
G02*
X365342000Y-360558000I0J51000D01*
G01*
X365342000Y-358858000D01*
G75*
G02*
X365393000Y-358807000I51000J0D01*
G01*
X367093000Y-358807000D01*
G75*
G02*
X367144000Y-358858000I0J-51000D01*
G01*
G37*
X366243000Y-357168000D03*
X366243000Y-354628000D03*
G36*
G01*
X348264000Y-48698400D02*
X348264000Y-50398400D01*
G75*
G02*
X348213000Y-50449400I-51000J0D01*
G01*
X346513000Y-50449400D01*
G75*
G02*
X346462000Y-50398400I0J51000D01*
G01*
X346462000Y-48698400D01*
G75*
G02*
X346513000Y-48647400I51000J0D01*
G01*
X348213000Y-48647400D01*
G75*
G02*
X348264000Y-48698400I0J-51000D01*
G01*
G37*
X347363000Y-47008400D03*
X347363000Y-44468400D03*
G36*
G01*
X354754000Y-48698400D02*
X354754000Y-50398400D01*
G75*
G02*
X354703000Y-50449400I-51000J0D01*
G01*
X353003000Y-50449400D01*
G75*
G02*
X352952000Y-50398400I0J51000D01*
G01*
X352952000Y-48698400D01*
G75*
G02*
X353003000Y-48647400I51000J0D01*
G01*
X354703000Y-48647400D01*
G75*
G02*
X354754000Y-48698400I0J-51000D01*
G01*
G37*
X353853000Y-47008400D03*
X353853000Y-44468400D03*
G36*
G01*
X357874000Y-48698400D02*
X357874000Y-50398400D01*
G75*
G02*
X357823000Y-50449400I-51000J0D01*
G01*
X356123000Y-50449400D01*
G75*
G02*
X356072000Y-50398400I0J51000D01*
G01*
X356072000Y-48698400D01*
G75*
G02*
X356123000Y-48647400I51000J0D01*
G01*
X357823000Y-48647400D01*
G75*
G02*
X357874000Y-48698400I0J-51000D01*
G01*
G37*
X356973000Y-47008400D03*
X356973000Y-44468400D03*
X360193000Y-44468400D03*
X360193000Y-47008400D03*
G36*
G01*
X361094000Y-48698400D02*
X361094000Y-50398400D01*
G75*
G02*
X361043000Y-50449400I-51000J0D01*
G01*
X359343000Y-50449400D01*
G75*
G02*
X359292000Y-50398400I0J51000D01*
G01*
X359292000Y-48698400D01*
G75*
G02*
X359343000Y-48647400I51000J0D01*
G01*
X361043000Y-48647400D01*
G75*
G02*
X361094000Y-48698400I0J-51000D01*
G01*
G37*
G36*
G01*
X364284000Y-48698400D02*
X364284000Y-50398400D01*
G75*
G02*
X364233000Y-50449400I-51000J0D01*
G01*
X362533000Y-50449400D01*
G75*
G02*
X362482000Y-50398400I0J51000D01*
G01*
X362482000Y-48698400D01*
G75*
G02*
X362533000Y-48647400I51000J0D01*
G01*
X364233000Y-48647400D01*
G75*
G02*
X364284000Y-48698400I0J-51000D01*
G01*
G37*
X363383000Y-47008400D03*
X363383000Y-44468400D03*
G36*
G01*
X367394000Y-48698400D02*
X367394000Y-50398400D01*
G75*
G02*
X367343000Y-50449400I-51000J0D01*
G01*
X365643000Y-50449400D01*
G75*
G02*
X365592000Y-50398400I0J51000D01*
G01*
X365592000Y-48698400D01*
G75*
G02*
X365643000Y-48647400I51000J0D01*
G01*
X367343000Y-48647400D01*
G75*
G02*
X367394000Y-48698400I0J-51000D01*
G01*
G37*
X366493000Y-47008400D03*
X366493000Y-44468400D03*
G36*
G01*
X370654000Y-48698400D02*
X370654000Y-50398400D01*
G75*
G02*
X370603000Y-50449400I-51000J0D01*
G01*
X368903000Y-50449400D01*
G75*
G02*
X368852000Y-50398400I0J51000D01*
G01*
X368852000Y-48698400D01*
G75*
G02*
X368903000Y-48647400I51000J0D01*
G01*
X370603000Y-48647400D01*
G75*
G02*
X370654000Y-48698400I0J-51000D01*
G01*
G37*
X369753000Y-47008400D03*
X369753000Y-44468400D03*
G36*
G01*
X373814000Y-48698400D02*
X373814000Y-50398400D01*
G75*
G02*
X373763000Y-50449400I-51000J0D01*
G01*
X372063000Y-50449400D01*
G75*
G02*
X372012000Y-50398400I0J51000D01*
G01*
X372012000Y-48698400D01*
G75*
G02*
X372063000Y-48647400I51000J0D01*
G01*
X373763000Y-48647400D01*
G75*
G02*
X373814000Y-48698400I0J-51000D01*
G01*
G37*
X372913000Y-47008400D03*
X372913000Y-44468400D03*
G36*
G01*
X376994000Y-48698400D02*
X376994000Y-50398400D01*
G75*
G02*
X376943000Y-50449400I-51000J0D01*
G01*
X375243000Y-50449400D01*
G75*
G02*
X375192000Y-50398400I0J51000D01*
G01*
X375192000Y-48698400D01*
G75*
G02*
X375243000Y-48647400I51000J0D01*
G01*
X376943000Y-48647400D01*
G75*
G02*
X376994000Y-48698400I0J-51000D01*
G01*
G37*
X376093000Y-47008400D03*
X376093000Y-44468400D03*
X379253000Y-44468400D03*
X379253000Y-47008400D03*
G36*
G01*
X380154000Y-48698400D02*
X380154000Y-50398400D01*
G75*
G02*
X380103000Y-50449400I-51000J0D01*
G01*
X378403000Y-50449400D01*
G75*
G02*
X378352000Y-50398400I0J51000D01*
G01*
X378352000Y-48698400D01*
G75*
G02*
X378403000Y-48647400I51000J0D01*
G01*
X380103000Y-48647400D01*
G75*
G02*
X380154000Y-48698400I0J-51000D01*
G01*
G37*
X350623000Y-44468400D03*
X350623000Y-47008400D03*
G36*
G01*
X351524000Y-48698400D02*
X351524000Y-50398400D01*
G75*
G02*
X351473000Y-50449400I-51000J0D01*
G01*
X349773000Y-50449400D01*
G75*
G02*
X349722000Y-50398400I0J51000D01*
G01*
X349722000Y-48698400D01*
G75*
G02*
X349773000Y-48647400I51000J0D01*
G01*
X351473000Y-48647400D01*
G75*
G02*
X351524000Y-48698400I0J-51000D01*
G01*
G37*
X315803000Y-44658400D03*
X315803000Y-47198400D03*
G36*
G01*
X316704000Y-48888400D02*
X316704000Y-50588400D01*
G75*
G02*
X316653000Y-50639400I-51000J0D01*
G01*
X314953000Y-50639400D01*
G75*
G02*
X314902000Y-50588400I0J51000D01*
G01*
X314902000Y-48888400D01*
G75*
G02*
X314953000Y-48837400I51000J0D01*
G01*
X316653000Y-48837400D01*
G75*
G02*
X316704000Y-48888400I0J-51000D01*
G01*
G37*
X322143000Y-44658400D03*
X322143000Y-47198400D03*
G36*
G01*
X323044000Y-48888400D02*
X323044000Y-50588400D01*
G75*
G02*
X322993000Y-50639400I-51000J0D01*
G01*
X321293000Y-50639400D01*
G75*
G02*
X321242000Y-50588400I0J51000D01*
G01*
X321242000Y-48888400D01*
G75*
G02*
X321293000Y-48837400I51000J0D01*
G01*
X322993000Y-48837400D01*
G75*
G02*
X323044000Y-48888400I0J-51000D01*
G01*
G37*
G36*
G01*
X303924000Y-48888400D02*
X303924000Y-50588400D01*
G75*
G02*
X303873000Y-50639400I-51000J0D01*
G01*
X302173000Y-50639400D01*
G75*
G02*
X302122000Y-50588400I0J51000D01*
G01*
X302122000Y-48888400D01*
G75*
G02*
X302173000Y-48837400I51000J0D01*
G01*
X303873000Y-48837400D01*
G75*
G02*
X303924000Y-48888400I0J-51000D01*
G01*
G37*
X303023000Y-47198400D03*
X303023000Y-44658400D03*
G36*
G01*
X297594000Y-48888400D02*
X297594000Y-50588400D01*
G75*
G02*
X297543000Y-50639400I-51000J0D01*
G01*
X295843000Y-50639400D01*
G75*
G02*
X295792000Y-50588400I0J51000D01*
G01*
X295792000Y-48888400D01*
G75*
G02*
X295843000Y-48837400I51000J0D01*
G01*
X297543000Y-48837400D01*
G75*
G02*
X297594000Y-48888400I0J-51000D01*
G01*
G37*
X296693000Y-47198400D03*
X296693000Y-44658400D03*
G36*
G01*
X294324000Y-48888400D02*
X294324000Y-50588400D01*
G75*
G02*
X294273000Y-50639400I-51000J0D01*
G01*
X292573000Y-50639400D01*
G75*
G02*
X292522000Y-50588400I0J51000D01*
G01*
X292522000Y-48888400D01*
G75*
G02*
X292573000Y-48837400I51000J0D01*
G01*
X294273000Y-48837400D01*
G75*
G02*
X294324000Y-48888400I0J-51000D01*
G01*
G37*
X293423000Y-47198400D03*
X293423000Y-44658400D03*
X290193000Y-44658400D03*
X290193000Y-47198400D03*
G36*
G01*
X291094000Y-48888400D02*
X291094000Y-50588400D01*
G75*
G02*
X291043000Y-50639400I-51000J0D01*
G01*
X289343000Y-50639400D01*
G75*
G02*
X289292000Y-50588400I0J51000D01*
G01*
X289292000Y-48888400D01*
G75*
G02*
X289343000Y-48837400I51000J0D01*
G01*
X291043000Y-48837400D01*
G75*
G02*
X291094000Y-48888400I0J-51000D01*
G01*
G37*
G36*
G01*
X287884000Y-48888400D02*
X287884000Y-50588400D01*
G75*
G02*
X287833000Y-50639400I-51000J0D01*
G01*
X286133000Y-50639400D01*
G75*
G02*
X286082000Y-50588400I0J51000D01*
G01*
X286082000Y-48888400D01*
G75*
G02*
X286133000Y-48837400I51000J0D01*
G01*
X287833000Y-48837400D01*
G75*
G02*
X287884000Y-48888400I0J-51000D01*
G01*
G37*
X286983000Y-47198400D03*
X286983000Y-44658400D03*
X318973000Y-49768400D03*
X318973000Y-47228400D03*
G36*
G01*
X318072000Y-45538400D02*
X318072000Y-43838400D01*
G75*
G02*
X318123000Y-43787400I51000J0D01*
G01*
X319823000Y-43787400D01*
G75*
G02*
X319874000Y-43838400I0J-51000D01*
G01*
X319874000Y-45538400D01*
G75*
G02*
X319823000Y-45589400I-51000J0D01*
G01*
X318123000Y-45589400D01*
G75*
G02*
X318072000Y-45538400I0J51000D01*
G01*
G37*
G36*
G01*
X337122000Y-45548400D02*
X337122000Y-43848400D01*
G75*
G02*
X337173000Y-43797400I51000J0D01*
G01*
X338873000Y-43797400D01*
G75*
G02*
X338924000Y-43848400I0J-51000D01*
G01*
X338924000Y-45548400D01*
G75*
G02*
X338873000Y-45599400I-51000J0D01*
G01*
X337173000Y-45599400D01*
G75*
G02*
X337122000Y-45548400I0J51000D01*
G01*
G37*
X338023000Y-47238400D03*
X338023000Y-49778400D03*
G36*
G01*
X330742000Y-45548400D02*
X330742000Y-43848400D01*
G75*
G02*
X330793000Y-43797400I51000J0D01*
G01*
X332493000Y-43797400D01*
G75*
G02*
X332544000Y-43848400I0J-51000D01*
G01*
X332544000Y-45548400D01*
G75*
G02*
X332493000Y-45599400I-51000J0D01*
G01*
X330793000Y-45599400D01*
G75*
G02*
X330742000Y-45548400I0J51000D01*
G01*
G37*
X331643000Y-47238400D03*
X331643000Y-49778400D03*
X328453000Y-49778400D03*
X328453000Y-47238400D03*
G36*
G01*
X327552000Y-45548400D02*
X327552000Y-43848400D01*
G75*
G02*
X327603000Y-43797400I51000J0D01*
G01*
X329303000Y-43797400D01*
G75*
G02*
X329354000Y-43848400I0J-51000D01*
G01*
X329354000Y-45548400D01*
G75*
G02*
X329303000Y-45599400I-51000J0D01*
G01*
X327603000Y-45599400D01*
G75*
G02*
X327552000Y-45548400I0J51000D01*
G01*
G37*
X299813000Y-44658400D03*
X299813000Y-47198400D03*
G36*
G01*
X300714000Y-48888400D02*
X300714000Y-50588400D01*
G75*
G02*
X300663000Y-50639400I-51000J0D01*
G01*
X298963000Y-50639400D01*
G75*
G02*
X298912000Y-50588400I0J51000D01*
G01*
X298912000Y-48888400D01*
G75*
G02*
X298963000Y-48837400I51000J0D01*
G01*
X300663000Y-48837400D01*
G75*
G02*
X300714000Y-48888400I0J-51000D01*
G01*
G37*
X306163000Y-44658400D03*
X306163000Y-47198400D03*
G36*
G01*
X307064000Y-48888400D02*
X307064000Y-50588400D01*
G75*
G02*
X307013000Y-50639400I-51000J0D01*
G01*
X305313000Y-50639400D01*
G75*
G02*
X305262000Y-50588400I0J51000D01*
G01*
X305262000Y-48888400D01*
G75*
G02*
X305313000Y-48837400I51000J0D01*
G01*
X307013000Y-48837400D01*
G75*
G02*
X307064000Y-48888400I0J-51000D01*
G01*
G37*
X309363000Y-44658400D03*
X309363000Y-47198400D03*
G36*
G01*
X310264000Y-48888400D02*
X310264000Y-50588400D01*
G75*
G02*
X310213000Y-50639400I-51000J0D01*
G01*
X308513000Y-50639400D01*
G75*
G02*
X308462000Y-50588400I0J51000D01*
G01*
X308462000Y-48888400D01*
G75*
G02*
X308513000Y-48837400I51000J0D01*
G01*
X310213000Y-48837400D01*
G75*
G02*
X310264000Y-48888400I0J-51000D01*
G01*
G37*
X218323000Y-44658400D03*
X218323000Y-47198400D03*
G36*
G01*
X219224000Y-48888400D02*
X219224000Y-50588400D01*
G75*
G02*
X219173000Y-50639400I-51000J0D01*
G01*
X217473000Y-50639400D01*
G75*
G02*
X217422000Y-50588400I0J51000D01*
G01*
X217422000Y-48888400D01*
G75*
G02*
X217473000Y-48837400I51000J0D01*
G01*
X219173000Y-48837400D01*
G75*
G02*
X219224000Y-48888400I0J-51000D01*
G01*
G37*
X237383000Y-44658400D03*
X237383000Y-47198400D03*
G36*
G01*
X238284000Y-48888400D02*
X238284000Y-50588400D01*
G75*
G02*
X238233000Y-50639400I-51000J0D01*
G01*
X236533000Y-50639400D01*
G75*
G02*
X236482000Y-50588400I0J51000D01*
G01*
X236482000Y-48888400D01*
G75*
G02*
X236533000Y-48837400I51000J0D01*
G01*
X238233000Y-48837400D01*
G75*
G02*
X238284000Y-48888400I0J-51000D01*
G01*
G37*
G36*
G01*
X230674000Y-48888400D02*
X230674000Y-50588400D01*
G75*
G02*
X230623000Y-50639400I-51000J0D01*
G01*
X228923000Y-50639400D01*
G75*
G02*
X228872000Y-50588400I0J51000D01*
G01*
X228872000Y-48888400D01*
G75*
G02*
X228923000Y-48837400I51000J0D01*
G01*
X230623000Y-48837400D01*
G75*
G02*
X230674000Y-48888400I0J-51000D01*
G01*
G37*
X229773000Y-47198400D03*
X229773000Y-44658400D03*
X233533000Y-44658400D03*
X233533000Y-47198400D03*
G36*
G01*
X234434000Y-48888400D02*
X234434000Y-50588400D01*
G75*
G02*
X234383000Y-50639400I-51000J0D01*
G01*
X232683000Y-50639400D01*
G75*
G02*
X232632000Y-50588400I0J51000D01*
G01*
X232632000Y-48888400D01*
G75*
G02*
X232683000Y-48837400I51000J0D01*
G01*
X234383000Y-48837400D01*
G75*
G02*
X234434000Y-48888400I0J-51000D01*
G01*
G37*
G36*
G01*
X226734000Y-48888400D02*
X226734000Y-50588400D01*
G75*
G02*
X226683000Y-50639400I-51000J0D01*
G01*
X224983000Y-50639400D01*
G75*
G02*
X224932000Y-50588400I0J51000D01*
G01*
X224932000Y-48888400D01*
G75*
G02*
X224983000Y-48837400I51000J0D01*
G01*
X226683000Y-48837400D01*
G75*
G02*
X226734000Y-48888400I0J-51000D01*
G01*
G37*
X225833000Y-47198400D03*
X225833000Y-44658400D03*
X222043000Y-44658400D03*
X222043000Y-47198400D03*
G36*
G01*
X222944000Y-48888400D02*
X222944000Y-50588400D01*
G75*
G02*
X222893000Y-50639400I-51000J0D01*
G01*
X221193000Y-50639400D01*
G75*
G02*
X221142000Y-50588400I0J51000D01*
G01*
X221142000Y-48888400D01*
G75*
G02*
X221193000Y-48837400I51000J0D01*
G01*
X222893000Y-48837400D01*
G75*
G02*
X222944000Y-48888400I0J-51000D01*
G01*
G37*
G36*
G01*
X215464000Y-48888400D02*
X215464000Y-50588400D01*
G75*
G02*
X215413000Y-50639400I-51000J0D01*
G01*
X213713000Y-50639400D01*
G75*
G02*
X213662000Y-50588400I0J51000D01*
G01*
X213662000Y-48888400D01*
G75*
G02*
X213713000Y-48837400I51000J0D01*
G01*
X215413000Y-48837400D01*
G75*
G02*
X215464000Y-48888400I0J-51000D01*
G01*
G37*
X214563000Y-47198400D03*
X214563000Y-44658400D03*
X210723000Y-49778400D03*
X210723000Y-47238400D03*
G36*
G01*
X209822000Y-45548400D02*
X209822000Y-43848400D01*
G75*
G02*
X209873000Y-43797400I51000J0D01*
G01*
X211573000Y-43797400D01*
G75*
G02*
X211624000Y-43848400I0J-51000D01*
G01*
X211624000Y-45548400D01*
G75*
G02*
X211573000Y-45599400I-51000J0D01*
G01*
X209873000Y-45599400D01*
G75*
G02*
X209822000Y-45548400I0J51000D01*
G01*
G37*
G36*
G01*
X207744000Y-48888400D02*
X207744000Y-50588400D01*
G75*
G02*
X207693000Y-50639400I-51000J0D01*
G01*
X205993000Y-50639400D01*
G75*
G02*
X205942000Y-50588400I0J51000D01*
G01*
X205942000Y-48888400D01*
G75*
G02*
X205993000Y-48837400I51000J0D01*
G01*
X207693000Y-48837400D01*
G75*
G02*
X207744000Y-48888400I0J-51000D01*
G01*
G37*
X206843000Y-47198400D03*
X206843000Y-44658400D03*
G36*
G01*
X202572000Y-45548400D02*
X202572000Y-43848400D01*
G75*
G02*
X202623000Y-43797400I51000J0D01*
G01*
X204323000Y-43797400D01*
G75*
G02*
X204374000Y-43848400I0J-51000D01*
G01*
X204374000Y-45548400D01*
G75*
G02*
X204323000Y-45599400I-51000J0D01*
G01*
X202623000Y-45599400D01*
G75*
G02*
X202572000Y-45548400I0J51000D01*
G01*
G37*
X203473000Y-47238400D03*
X203473000Y-49778400D03*
X382493000Y-44468400D03*
X382493000Y-47008400D03*
G36*
G01*
X383394000Y-48698400D02*
X383394000Y-50398400D01*
G75*
G02*
X383343000Y-50449400I-51000J0D01*
G01*
X381643000Y-50449400D01*
G75*
G02*
X381592000Y-50398400I0J51000D01*
G01*
X381592000Y-48698400D01*
G75*
G02*
X381643000Y-48647400I51000J0D01*
G01*
X383343000Y-48647400D01*
G75*
G02*
X383394000Y-48698400I0J-51000D01*
G01*
G37*
G36*
G01*
X386574000Y-48698400D02*
X386574000Y-50398400D01*
G75*
G02*
X386523000Y-50449400I-51000J0D01*
G01*
X384823000Y-50449400D01*
G75*
G02*
X384772000Y-50398400I0J51000D01*
G01*
X384772000Y-48698400D01*
G75*
G02*
X384823000Y-48647400I51000J0D01*
G01*
X386523000Y-48647400D01*
G75*
G02*
X386574000Y-48698400I0J-51000D01*
G01*
G37*
X385673000Y-47008400D03*
X385673000Y-44468400D03*
X388853000Y-44468400D03*
X388853000Y-47008400D03*
G36*
G01*
X389754000Y-48698400D02*
X389754000Y-50398400D01*
G75*
G02*
X389703000Y-50449400I-51000J0D01*
G01*
X388003000Y-50449400D01*
G75*
G02*
X387952000Y-50398400I0J51000D01*
G01*
X387952000Y-48698400D01*
G75*
G02*
X388003000Y-48647400I51000J0D01*
G01*
X389703000Y-48647400D01*
G75*
G02*
X389754000Y-48698400I0J-51000D01*
G01*
G37*
X392003000Y-44468400D03*
X392003000Y-47008400D03*
G36*
G01*
X392904000Y-48698400D02*
X392904000Y-50398400D01*
G75*
G02*
X392853000Y-50449400I-51000J0D01*
G01*
X391153000Y-50449400D01*
G75*
G02*
X391102000Y-50398400I0J51000D01*
G01*
X391102000Y-48698400D01*
G75*
G02*
X391153000Y-48647400I51000J0D01*
G01*
X392853000Y-48647400D01*
G75*
G02*
X392904000Y-48698400I0J-51000D01*
G01*
G37*
X312643000Y-44658400D03*
X312643000Y-47198400D03*
G36*
G01*
X313544000Y-48888400D02*
X313544000Y-50588400D01*
G75*
G02*
X313493000Y-50639400I-51000J0D01*
G01*
X311793000Y-50639400D01*
G75*
G02*
X311742000Y-50588400I0J51000D01*
G01*
X311742000Y-48888400D01*
G75*
G02*
X311793000Y-48837400I51000J0D01*
G01*
X313493000Y-48837400D01*
G75*
G02*
X313544000Y-48888400I0J-51000D01*
G01*
G37*
X334803000Y-44658400D03*
X334803000Y-47198400D03*
G36*
G01*
X335704000Y-48888400D02*
X335704000Y-50588400D01*
G75*
G02*
X335653000Y-50639400I-51000J0D01*
G01*
X333953000Y-50639400D01*
G75*
G02*
X333902000Y-50588400I0J51000D01*
G01*
X333902000Y-48888400D01*
G75*
G02*
X333953000Y-48837400I51000J0D01*
G01*
X335653000Y-48837400D01*
G75*
G02*
X335704000Y-48888400I0J-51000D01*
G01*
G37*
X325253000Y-44658400D03*
X325253000Y-47198400D03*
G36*
G01*
X326154000Y-48888400D02*
X326154000Y-50588400D01*
G75*
G02*
X326103000Y-50639400I-51000J0D01*
G01*
X324403000Y-50639400D01*
G75*
G02*
X324352000Y-50588400I0J51000D01*
G01*
X324352000Y-48888400D01*
G75*
G02*
X324403000Y-48837400I51000J0D01*
G01*
X326103000Y-48837400D01*
G75*
G02*
X326154000Y-48888400I0J-51000D01*
G01*
G37*
D12*
X329213000Y-39558400D03*
X326443000Y-39558400D03*
X323673000Y-39558400D03*
X320903000Y-39558400D03*
X318133000Y-39558400D03*
X315363000Y-39558400D03*
X312593000Y-39558400D03*
X309823000Y-39558400D03*
X307053000Y-39558400D03*
X304283000Y-39558400D03*
X301513000Y-39558400D03*
G36*
G01*
X299594000Y-38758400D02*
X299594000Y-40358400D01*
G75*
G02*
X299543000Y-40409400I-51000J0D01*
G01*
X297943000Y-40409400D01*
G75*
G02*
X297892000Y-40358400I0J51000D01*
G01*
X297892000Y-38758400D01*
G75*
G02*
X297943000Y-38707400I51000J0D01*
G01*
X299543000Y-38707400D01*
G75*
G02*
X299594000Y-38758400I0J-51000D01*
G01*
G37*
X327828000Y-36718400D03*
X325058000Y-36718400D03*
X322288000Y-36718400D03*
X319518000Y-36718400D03*
X316748000Y-36718400D03*
X313978000Y-36718400D03*
X311208000Y-36718400D03*
X308438000Y-36718400D03*
X305668000Y-36718400D03*
X302898000Y-36718400D03*
X300128000Y-36718400D03*
D17*
X336143000Y-38138400D03*
X292143000Y-38138400D03*
D12*
X241263000Y-121768000D03*
X231263000Y-121768000D03*
X236873000Y-303893000D03*
X236873000Y-293893000D03*
X319473000Y-196618000D03*
X319473000Y-186618000D03*
X260923000Y-143268000D03*
X250923000Y-143268000D03*
X368933000Y-215593000D03*
X368933000Y-225593000D03*
X386823000Y-225593000D03*
X386823000Y-215593000D03*
X426298000Y-215593000D03*
X426298000Y-225593000D03*
X406573000Y-215593000D03*
X406573000Y-225593000D03*
X277543000Y-184278000D03*
X277543000Y-174278000D03*
X262163000Y-186258000D03*
X262163000Y-176258000D03*
X271013000Y-204138000D03*
X261013000Y-204138000D03*
X352171000Y-153336000D03*
X352171000Y-143336000D03*
X436098000Y-338168000D03*
X426098000Y-338168000D03*
X260923000Y-147608000D03*
X250923000Y-147608000D03*
X412263000Y-65238400D03*
X402263000Y-65238400D03*
X398423000Y-65293400D03*
X388423000Y-65293400D03*
X445173000Y-187778000D03*
X445173000Y-197778000D03*
X442053000Y-197788000D03*
X442053000Y-187788000D03*
X438953000Y-187788000D03*
X438953000Y-197788000D03*
X435843000Y-197788000D03*
X435843000Y-187788000D03*
D16*
X432143000Y-62538400D03*
G36*
G01*
X433143000Y-68589400D02*
X431143000Y-68589400D01*
G75*
G02*
X431092000Y-68538400I0J51000D01*
G01*
X431092000Y-66538400D01*
G75*
G02*
X431143000Y-66487400I51000J0D01*
G01*
X433143000Y-66487400D01*
G75*
G02*
X433194000Y-66538400I0J-51000D01*
G01*
X433194000Y-68538400D01*
G75*
G02*
X433143000Y-68589400I-51000J0D01*
G01*
G37*
D12*
X331613000Y-363868000D03*
X331613000Y-353868000D03*
G36*
G01*
X246183000Y-97999400D02*
X244583000Y-97999400D01*
G75*
G02*
X244532000Y-97948400I0J51000D01*
G01*
X244532000Y-96348400D01*
G75*
G02*
X244583000Y-96297400I51000J0D01*
G01*
X246183000Y-96297400D01*
G75*
G02*
X246234000Y-96348400I0J-51000D01*
G01*
X246234000Y-97948400D01*
G75*
G02*
X246183000Y-97999400I-51000J0D01*
G01*
G37*
X245383000Y-94648400D03*
X273393000Y-77698400D03*
X273393000Y-87698400D03*
X267283000Y-87683400D03*
X267283000Y-77683400D03*
X258153000Y-77678400D03*
X258153000Y-87678400D03*
X253628000Y-47068400D03*
X253628000Y-57068400D03*
X288713000Y-77698400D03*
X288713000Y-87698400D03*
X285593000Y-77688400D03*
X285593000Y-87688400D03*
X251918000Y-87673400D03*
X251918000Y-77673400D03*
X269248000Y-57068400D03*
X269248000Y-47068400D03*
X307733000Y-342198000D03*
X307733000Y-352198000D03*
X322473000Y-352198000D03*
X322473000Y-342198000D03*
X310943000Y-342198000D03*
X310943000Y-352198000D03*
X369193000Y-123558000D03*
X359193000Y-123558000D03*
X320923000Y-123508000D03*
X330923000Y-123508000D03*
X247033000Y-204138000D03*
X257033000Y-204138000D03*
X292583000Y-103338000D03*
X292583000Y-113338000D03*
X196333000Y-54298400D03*
X196333000Y-44298400D03*
X243048000Y-53893400D03*
X243048000Y-43893400D03*
X342143000Y-56988400D03*
X342143000Y-46988400D03*
X294773000Y-63128400D03*
X304773000Y-63128400D03*
X215873000Y-157338000D03*
X215873000Y-147338000D03*
X217933000Y-161868000D03*
X217933000Y-171868000D03*
X212263000Y-172608000D03*
X212263000Y-162608000D03*
X218043000Y-185398000D03*
X218043000Y-175398000D03*
X213163000Y-180728000D03*
X213163000Y-190728000D03*
X219703000Y-197188000D03*
X229703000Y-197188000D03*
X324233000Y-201598000D03*
G36*
G01*
X320882000Y-202398000D02*
X320882000Y-200798000D01*
G75*
G02*
X320933000Y-200747000I51000J0D01*
G01*
X322533000Y-200747000D01*
G75*
G02*
X322584000Y-200798000I0J-51000D01*
G01*
X322584000Y-202398000D01*
G75*
G02*
X322533000Y-202449000I-51000J0D01*
G01*
X320933000Y-202449000D01*
G75*
G02*
X320882000Y-202398000I0J51000D01*
G01*
G37*
X402713000Y-246188000D03*
X412713000Y-246188000D03*
X427893000Y-246188000D03*
X417893000Y-246188000D03*
X372183000Y-246188000D03*
X382183000Y-246188000D03*
X397483000Y-246188000D03*
X387483000Y-246188000D03*
X412673000Y-278908000D03*
X402673000Y-278908000D03*
X417933000Y-278908000D03*
X427933000Y-278908000D03*
X382093000Y-278908000D03*
X372093000Y-278908000D03*
X387473000Y-278908000D03*
X397473000Y-278908000D03*
X348473000Y-278893000D03*
X348473000Y-268893000D03*
X348423000Y-297268000D03*
X348423000Y-307268000D03*
X200548000Y-231318000D03*
X210548000Y-231318000D03*
X191273000Y-231318000D03*
X181273000Y-231318000D03*
X181273000Y-268593000D03*
X191273000Y-268593000D03*
X191123000Y-304068000D03*
X181123000Y-304068000D03*
X210898000Y-304068000D03*
X200898000Y-304068000D03*
X201598000Y-268593000D03*
X211598000Y-268593000D03*
X168603000Y-182428000D03*
X168603000Y-172428000D03*
X214273000Y-216018000D03*
X214273000Y-206018000D03*
X172443000Y-134888000D03*
X172443000Y-124888000D03*
X183233000Y-153018000D03*
X183233000Y-143018000D03*
X165453000Y-182418000D03*
X165453000Y-172418000D03*
X165948000Y-153018000D03*
X165948000Y-143018000D03*
X201063000Y-101918000D03*
X201063000Y-111918000D03*
X165843000Y-355728000D03*
X165843000Y-365728000D03*
G36*
G01*
X210474000Y-351518000D02*
X210474000Y-353118000D01*
G75*
G02*
X210423000Y-353169000I-51000J0D01*
G01*
X208823000Y-353169000D01*
G75*
G02*
X208772000Y-353118000I0J51000D01*
G01*
X208772000Y-351518000D01*
G75*
G02*
X208823000Y-351467000I51000J0D01*
G01*
X210423000Y-351467000D01*
G75*
G02*
X210474000Y-351518000I0J-51000D01*
G01*
G37*
X207123000Y-352318000D03*
X222223000Y-356518000D03*
X212223000Y-356518000D03*
X197923000Y-111918000D03*
X197923000Y-101918000D03*
X259823000Y-105843000D03*
X259823000Y-95843000D03*
X279803000Y-91928400D03*
X269803000Y-91928400D03*
X233613000Y-208243000D03*
X243613000Y-208243000D03*
X191448000Y-124868000D03*
X191448000Y-134868000D03*
X328943000Y-165378000D03*
X318943000Y-165378000D03*
X337023000Y-246518000D03*
X337023000Y-256518000D03*
X281073000Y-174298000D03*
X281073000Y-184298000D03*
X267023000Y-197143000D03*
X257023000Y-197143000D03*
X348673000Y-84168400D03*
X348673000Y-74168400D03*
X279165000Y-248198000D03*
X279165000Y-238198000D03*
G36*
G01*
X292443000Y-345529000D02*
X290443000Y-345529000D01*
G75*
G02*
X290392000Y-345478000I0J51000D01*
G01*
X290392000Y-343478000D01*
G75*
G02*
X290443000Y-343427000I51000J0D01*
G01*
X292443000Y-343427000D01*
G75*
G02*
X292494000Y-343478000I0J-51000D01*
G01*
X292494000Y-345478000D01*
G75*
G02*
X292443000Y-345529000I-51000J0D01*
G01*
G37*
D16*
X291443000Y-339478000D03*
D12*
X435198000Y-80968400D03*
X435198000Y-90968400D03*
X430523000Y-55918400D03*
X420523000Y-55918400D03*
X431173000Y-126843000D03*
X421173000Y-126843000D03*
X342953000Y-84118400D03*
X342953000Y-74118400D03*
X312453000Y-171248000D03*
X312453000Y-181248000D03*
X59672800Y-348218000D03*
X59672800Y-358218000D03*
X175563000Y-124888000D03*
X175563000Y-134888000D03*
D30*
X176723000Y-355118000D03*
X176723000Y-353418000D03*
D12*
X399798000Y-195328000D03*
X389798000Y-195328000D03*
X303883000Y-87508400D03*
X303883000Y-77508400D03*
X417463000Y-55868400D03*
X407463000Y-55868400D03*
X401003000Y-39548400D03*
X401003000Y-49548400D03*
X433423000Y-55868400D03*
X443423000Y-55868400D03*
X248803000Y-87678400D03*
X248803000Y-77678400D03*
X255038000Y-77673400D03*
X255038000Y-87673400D03*
X282493000Y-77688400D03*
X282493000Y-87688400D03*
X253923000Y-92148400D03*
G36*
G01*
X254723000Y-97999400D02*
X253123000Y-97999400D01*
G75*
G02*
X253072000Y-97948400I0J51000D01*
G01*
X253072000Y-96348400D01*
G75*
G02*
X253123000Y-96297400I51000J0D01*
G01*
X254723000Y-96297400D01*
G75*
G02*
X254774000Y-96348400I0J-51000D01*
G01*
X254774000Y-97948400D01*
G75*
G02*
X254723000Y-97999400I-51000J0D01*
G01*
G37*
X277723000Y-63428400D03*
G36*
G01*
X276923000Y-57577400D02*
X278523000Y-57577400D01*
G75*
G02*
X278574000Y-57628400I0J-51000D01*
G01*
X278574000Y-59228400D01*
G75*
G02*
X278523000Y-59279400I-51000J0D01*
G01*
X276923000Y-59279400D01*
G75*
G02*
X276872000Y-59228400I0J51000D01*
G01*
X276872000Y-57628400D01*
G75*
G02*
X276923000Y-57577400I51000J0D01*
G01*
G37*
X258423000Y-41478400D03*
G36*
G01*
X259223000Y-47329400D02*
X257623000Y-47329400D01*
G75*
G02*
X257572000Y-47278400I0J51000D01*
G01*
X257572000Y-45678400D01*
G75*
G02*
X257623000Y-45627400I51000J0D01*
G01*
X259223000Y-45627400D01*
G75*
G02*
X259274000Y-45678400I0J-51000D01*
G01*
X259274000Y-47278400D01*
G75*
G02*
X259223000Y-47329400I-51000J0D01*
G01*
G37*
G36*
G01*
X270993000Y-68349400D02*
X269393000Y-68349400D01*
G75*
G02*
X269342000Y-68298400I0J51000D01*
G01*
X269342000Y-66698400D01*
G75*
G02*
X269393000Y-66647400I51000J0D01*
G01*
X270993000Y-66647400D01*
G75*
G02*
X271044000Y-66698400I0J-51000D01*
G01*
X271044000Y-68298400D01*
G75*
G02*
X270993000Y-68349400I-51000J0D01*
G01*
G37*
X270193000Y-62498400D03*
X197933000Y-86608400D03*
X197933000Y-76608400D03*
X208133000Y-73338400D03*
X208133000Y-68338400D03*
X213193000Y-68338400D03*
X213193000Y-73338400D03*
X215733000Y-73338400D03*
X215733000Y-68338400D03*
X220833000Y-68338400D03*
X220833000Y-73338400D03*
X210663000Y-73338400D03*
X210663000Y-68338400D03*
X223363000Y-68338400D03*
X223363000Y-73338400D03*
X218263000Y-73338400D03*
X218263000Y-68338400D03*
G36*
G01*
X241653000Y-63409400D02*
X240053000Y-63409400D01*
G75*
G02*
X240002000Y-63358400I0J51000D01*
G01*
X240002000Y-61758400D01*
G75*
G02*
X240053000Y-61707400I51000J0D01*
G01*
X241653000Y-61707400D01*
G75*
G02*
X241704000Y-61758400I0J-51000D01*
G01*
X241704000Y-63358400D01*
G75*
G02*
X241653000Y-63409400I-51000J0D01*
G01*
G37*
X240853000Y-57558400D03*
G36*
G01*
X195283000Y-58517400D02*
X196883000Y-58517400D01*
G75*
G02*
X196934000Y-58568400I0J-51000D01*
G01*
X196934000Y-60168400D01*
G75*
G02*
X196883000Y-60219400I-51000J0D01*
G01*
X195283000Y-60219400D01*
G75*
G02*
X195232000Y-60168400I0J51000D01*
G01*
X195232000Y-58568400D01*
G75*
G02*
X195283000Y-58517400I51000J0D01*
G01*
G37*
X196083000Y-64368400D03*
X225883000Y-68338400D03*
X225883000Y-73338400D03*
X205583000Y-68338400D03*
X205583000Y-73338400D03*
G36*
G01*
X227779000Y-148828000D02*
X227779000Y-150428000D01*
G75*
G02*
X227728000Y-150479000I-51000J0D01*
G01*
X226128000Y-150479000D01*
G75*
G02*
X226077000Y-150428000I0J51000D01*
G01*
X226077000Y-148828000D01*
G75*
G02*
X226128000Y-148777000I51000J0D01*
G01*
X227728000Y-148777000D01*
G75*
G02*
X227779000Y-148828000I0J-51000D01*
G01*
G37*
X221928000Y-149628000D03*
X233323000Y-341518000D03*
G36*
G01*
X232523000Y-335667000D02*
X234123000Y-335667000D01*
G75*
G02*
X234174000Y-335718000I0J-51000D01*
G01*
X234174000Y-337318000D01*
G75*
G02*
X234123000Y-337369000I-51000J0D01*
G01*
X232523000Y-337369000D01*
G75*
G02*
X232472000Y-337318000I0J51000D01*
G01*
X232472000Y-335718000D01*
G75*
G02*
X232523000Y-335667000I51000J0D01*
G01*
G37*
G36*
G01*
X79097800Y-55644400D02*
X77497800Y-55644400D01*
G75*
G02*
X77446800Y-55593400I0J51000D01*
G01*
X77446800Y-53993400D01*
G75*
G02*
X77497800Y-53942400I51000J0D01*
G01*
X79097800Y-53942400D01*
G75*
G02*
X79148800Y-53993400I0J-51000D01*
G01*
X79148800Y-55593400D01*
G75*
G02*
X79097800Y-55644400I-51000J0D01*
G01*
G37*
X78297800Y-49793400D03*
G36*
G01*
X232612000Y-288378000D02*
X232612000Y-286778000D01*
G75*
G02*
X232663000Y-286727000I51000J0D01*
G01*
X234263000Y-286727000D01*
G75*
G02*
X234314000Y-286778000I0J-51000D01*
G01*
X234314000Y-288378000D01*
G75*
G02*
X234263000Y-288429000I-51000J0D01*
G01*
X232663000Y-288429000D01*
G75*
G02*
X232612000Y-288378000I0J51000D01*
G01*
G37*
X238463000Y-287578000D03*
X430553000Y-235748000D03*
G36*
G01*
X431353000Y-241599000D02*
X429753000Y-241599000D01*
G75*
G02*
X429702000Y-241548000I0J51000D01*
G01*
X429702000Y-239948000D01*
G75*
G02*
X429753000Y-239897000I51000J0D01*
G01*
X431353000Y-239897000D01*
G75*
G02*
X431404000Y-239948000I0J-51000D01*
G01*
X431404000Y-241548000D01*
G75*
G02*
X431353000Y-241599000I-51000J0D01*
G01*
G37*
G36*
G01*
X227779000Y-158378000D02*
X227779000Y-159978000D01*
G75*
G02*
X227728000Y-160029000I-51000J0D01*
G01*
X226128000Y-160029000D01*
G75*
G02*
X226077000Y-159978000I0J51000D01*
G01*
X226077000Y-158378000D01*
G75*
G02*
X226128000Y-158327000I51000J0D01*
G01*
X227728000Y-158327000D01*
G75*
G02*
X227779000Y-158378000I0J-51000D01*
G01*
G37*
X221928000Y-159178000D03*
G36*
G01*
X221272000Y-169308000D02*
X221272000Y-167708000D01*
G75*
G02*
X221323000Y-167657000I51000J0D01*
G01*
X222923000Y-167657000D01*
G75*
G02*
X222974000Y-167708000I0J-51000D01*
G01*
X222974000Y-169308000D01*
G75*
G02*
X222923000Y-169359000I-51000J0D01*
G01*
X221323000Y-169359000D01*
G75*
G02*
X221272000Y-169308000I0J51000D01*
G01*
G37*
X227123000Y-168508000D03*
X221928000Y-178178000D03*
G36*
G01*
X227779000Y-177378000D02*
X227779000Y-178978000D01*
G75*
G02*
X227728000Y-179029000I-51000J0D01*
G01*
X226128000Y-179029000D01*
G75*
G02*
X226077000Y-178978000I0J51000D01*
G01*
X226077000Y-177378000D01*
G75*
G02*
X226128000Y-177327000I51000J0D01*
G01*
X227728000Y-177327000D01*
G75*
G02*
X227779000Y-177378000I0J-51000D01*
G01*
G37*
G36*
G01*
X221202000Y-187928000D02*
X221202000Y-186328000D01*
G75*
G02*
X221253000Y-186277000I51000J0D01*
G01*
X222853000Y-186277000D01*
G75*
G02*
X222904000Y-186328000I0J-51000D01*
G01*
X222904000Y-187928000D01*
G75*
G02*
X222853000Y-187979000I-51000J0D01*
G01*
X221253000Y-187979000D01*
G75*
G02*
X221202000Y-187928000I0J51000D01*
G01*
G37*
X227053000Y-187128000D03*
X157598000Y-237728000D03*
D13*
X157598000Y-212728000D03*
X136573000Y-212728000D03*
D12*
X136573000Y-237728000D03*
X116798000Y-237728000D03*
D13*
X116798000Y-212728000D03*
X96497800Y-212728000D03*
D12*
X96497800Y-237728000D03*
G36*
G01*
X245483000Y-135297000D02*
X247083000Y-135297000D01*
G75*
G02*
X247134000Y-135348000I0J-51000D01*
G01*
X247134000Y-136948000D01*
G75*
G02*
X247083000Y-136999000I-51000J0D01*
G01*
X245483000Y-136999000D01*
G75*
G02*
X245432000Y-136948000I0J51000D01*
G01*
X245432000Y-135348000D01*
G75*
G02*
X245483000Y-135297000I51000J0D01*
G01*
G37*
X246283000Y-141148000D03*
X262123000Y-240768000D03*
G36*
G01*
X262923000Y-246619000D02*
X261323000Y-246619000D01*
G75*
G02*
X261272000Y-246568000I0J51000D01*
G01*
X261272000Y-244968000D01*
G75*
G02*
X261323000Y-244917000I51000J0D01*
G01*
X262923000Y-244917000D01*
G75*
G02*
X262974000Y-244968000I0J-51000D01*
G01*
X262974000Y-246568000D01*
G75*
G02*
X262923000Y-246619000I-51000J0D01*
G01*
G37*
G36*
G01*
X137244000Y-60388400D02*
X137244000Y-61988400D01*
G75*
G02*
X137193000Y-62039400I-51000J0D01*
G01*
X135593000Y-62039400D01*
G75*
G02*
X135542000Y-61988400I0J51000D01*
G01*
X135542000Y-60388400D01*
G75*
G02*
X135593000Y-60337400I51000J0D01*
G01*
X137193000Y-60337400D01*
G75*
G02*
X137244000Y-60388400I0J-51000D01*
G01*
G37*
X131393000Y-61188400D03*
X315473000Y-317058000D03*
X325473000Y-317058000D03*
X117273000Y-177108000D03*
X127273000Y-177108000D03*
X122193000Y-149258000D03*
G36*
G01*
X122993000Y-155109000D02*
X121393000Y-155109000D01*
G75*
G02*
X121342000Y-155058000I0J51000D01*
G01*
X121342000Y-153458000D01*
G75*
G02*
X121393000Y-153407000I51000J0D01*
G01*
X122993000Y-153407000D01*
G75*
G02*
X123044000Y-153458000I0J-51000D01*
G01*
X123044000Y-155058000D01*
G75*
G02*
X122993000Y-155109000I-51000J0D01*
G01*
G37*
X128653000Y-62868400D03*
X118653000Y-62868400D03*
X128693000Y-65968400D03*
X118693000Y-65968400D03*
X128713000Y-69088400D03*
X118713000Y-69088400D03*
X118663000Y-55508400D03*
X128663000Y-55508400D03*
G36*
G01*
X192283000Y-97559400D02*
X190683000Y-97559400D01*
G75*
G02*
X190632000Y-97508400I0J51000D01*
G01*
X190632000Y-95908400D01*
G75*
G02*
X190683000Y-95857400I51000J0D01*
G01*
X192283000Y-95857400D01*
G75*
G02*
X192334000Y-95908400I0J-51000D01*
G01*
X192334000Y-97508400D01*
G75*
G02*
X192283000Y-97559400I-51000J0D01*
G01*
G37*
X191483000Y-91708400D03*
X191413000Y-100708000D03*
G36*
G01*
X192213000Y-106559000D02*
X190613000Y-106559000D01*
G75*
G02*
X190562000Y-106508000I0J51000D01*
G01*
X190562000Y-104908000D01*
G75*
G02*
X190613000Y-104857000I51000J0D01*
G01*
X192213000Y-104857000D01*
G75*
G02*
X192264000Y-104908000I0J-51000D01*
G01*
X192264000Y-106508000D01*
G75*
G02*
X192213000Y-106559000I-51000J0D01*
G01*
G37*
X443433000Y-47758400D03*
D13*
X443433000Y-52838400D03*
X439793000Y-52378400D03*
D12*
X434713000Y-52378400D03*
D13*
X425973000Y-48508400D03*
D12*
X431053000Y-48508400D03*
X426313000Y-44668400D03*
D13*
X431393000Y-44668400D03*
X423223000Y-52358400D03*
D12*
X418143000Y-52358400D03*
X422883000Y-48508400D03*
D13*
X417803000Y-48508400D03*
D12*
X439453000Y-48488400D03*
D13*
X434373000Y-48488400D03*
X439793000Y-44668400D03*
D12*
X434713000Y-44668400D03*
X426313000Y-52358400D03*
D13*
X431393000Y-52358400D03*
X423223000Y-44628400D03*
D12*
X418143000Y-44628400D03*
X79342800Y-238608000D03*
X69342800Y-238608000D03*
X69342800Y-241108000D03*
X79342800Y-241108000D03*
X69342800Y-243618000D03*
X79342800Y-243618000D03*
X66102800Y-244348000D03*
X56102800Y-244348000D03*
X69342800Y-246128000D03*
X79342800Y-246128000D03*
X56102800Y-246918000D03*
X66102800Y-246918000D03*
X79342800Y-248628000D03*
X69342800Y-248628000D03*
X66102800Y-249548000D03*
X56102800Y-249548000D03*
X69342800Y-251138000D03*
X79342800Y-251138000D03*
X56102800Y-252048000D03*
X66102800Y-252048000D03*
X69342800Y-253648000D03*
X79342800Y-253648000D03*
X66102800Y-254648000D03*
X56102800Y-254648000D03*
X79342800Y-256158000D03*
X69342800Y-256158000D03*
X66102800Y-257228000D03*
X56102800Y-257228000D03*
X79342800Y-258658000D03*
X69342800Y-258658000D03*
X69342800Y-261158000D03*
X79342800Y-261158000D03*
X79332800Y-263658000D03*
X69332800Y-263658000D03*
X79330800Y-266182000D03*
X69330800Y-266182000D03*
X79330800Y-268692000D03*
X69330800Y-268692000D03*
X69322800Y-271198000D03*
X79322800Y-271198000D03*
X79632800Y-276498000D03*
X69632800Y-276498000D03*
X69632800Y-278998000D03*
X79632800Y-278998000D03*
X79632800Y-281498000D03*
X69632800Y-281498000D03*
X69632800Y-283998000D03*
X79632800Y-283998000D03*
X69632800Y-286498000D03*
X79632800Y-286498000D03*
X79632800Y-288998000D03*
X69632800Y-288998000D03*
X79632800Y-291498000D03*
X69632800Y-291498000D03*
X69632800Y-293998000D03*
X79632800Y-293998000D03*
X79632800Y-296508000D03*
X69632800Y-296508000D03*
X66022800Y-297938000D03*
X56022800Y-297938000D03*
X69632800Y-299018000D03*
X79632800Y-299018000D03*
X56022800Y-300438000D03*
X66022800Y-300438000D03*
X79632800Y-301518000D03*
X69632800Y-301518000D03*
X66022800Y-302938000D03*
X56022800Y-302938000D03*
X56022800Y-305438000D03*
X66022800Y-305438000D03*
X79632800Y-305438000D03*
X69632800Y-305438000D03*
X56022800Y-307938000D03*
X66022800Y-307938000D03*
X79632800Y-307938000D03*
X69632800Y-307938000D03*
X56022800Y-310443000D03*
X66022800Y-310443000D03*
X79632800Y-310443000D03*
X69632800Y-310443000D03*
X56022800Y-312943000D03*
X66022800Y-312943000D03*
X69632800Y-312943000D03*
X79632800Y-312943000D03*
X56022800Y-315448000D03*
X66022800Y-315448000D03*
X79632800Y-315448000D03*
X69632800Y-315448000D03*
X79632800Y-317953000D03*
X69632800Y-317953000D03*
X69632800Y-320453000D03*
X79632800Y-320453000D03*
X66747800Y-332223000D03*
X56747800Y-332223000D03*
X114763000Y-73298400D03*
X124763000Y-73298400D03*
X124763000Y-75798400D03*
X114763000Y-75798400D03*
X114763000Y-78298400D03*
X124763000Y-78298400D03*
X124763000Y-80798400D03*
X114763000Y-80798400D03*
X124763000Y-83298400D03*
X114763000Y-83298400D03*
X114763000Y-85808400D03*
X124763000Y-85808400D03*
X114763000Y-88308400D03*
X124763000Y-88308400D03*
X124763000Y-90808400D03*
X114763000Y-90808400D03*
X124763000Y-98518400D03*
X114763000Y-98518400D03*
X114763000Y-101078000D03*
X124763000Y-101078000D03*
X124763000Y-103588000D03*
X114763000Y-103588000D03*
X114763000Y-106098000D03*
X124763000Y-106098000D03*
X124763000Y-108608000D03*
X114763000Y-108608000D03*
X114763000Y-111118000D03*
X124763000Y-111118000D03*
X124763000Y-113618000D03*
X114763000Y-113618000D03*
X114763000Y-116128000D03*
X124763000Y-116128000D03*
X114763000Y-118658000D03*
X124763000Y-118658000D03*
X124763000Y-121158000D03*
X114763000Y-121158000D03*
X124763000Y-123688000D03*
X114763000Y-123688000D03*
X114763000Y-126188000D03*
X124763000Y-126188000D03*
X124763000Y-128698000D03*
X114763000Y-128698000D03*
X114763000Y-131208000D03*
X124763000Y-131208000D03*
X124763000Y-133738000D03*
X114763000Y-133738000D03*
X114763000Y-136238000D03*
X124763000Y-136238000D03*
X124763000Y-138738000D03*
X114763000Y-138738000D03*
X127273000Y-161778000D03*
X117273000Y-161778000D03*
X117273000Y-164278000D03*
X127273000Y-164278000D03*
X127273000Y-166788000D03*
X117273000Y-166788000D03*
X127273000Y-169298000D03*
X117273000Y-169298000D03*
X127273000Y-171798000D03*
X117273000Y-171798000D03*
X117273000Y-174308000D03*
X127273000Y-174308000D03*
X113403000Y-182498000D03*
X123403000Y-182498000D03*
X123403000Y-184998000D03*
X113403000Y-184998000D03*
X113403000Y-187498000D03*
X123403000Y-187498000D03*
X123403000Y-189998000D03*
X113403000Y-189998000D03*
X123393000Y-192498000D03*
X113393000Y-192498000D03*
X113393000Y-195008000D03*
X123393000Y-195008000D03*
X123393000Y-197508000D03*
X113393000Y-197508000D03*
X113393000Y-200018000D03*
X123393000Y-200018000D03*
X124763000Y-141248000D03*
X114763000Y-141248000D03*
X114763000Y-143748000D03*
X124763000Y-143748000D03*
X124763000Y-146248000D03*
X114763000Y-146248000D03*
X127293000Y-156738000D03*
X117293000Y-156738000D03*
X117273000Y-159268000D03*
X127273000Y-159268000D03*
D31*
G36*
X142422674Y-361334390D02*
G01*
X142422115Y-361336130D01*
X142409269Y-361348976D01*
X142395874Y-361369024D01*
X142386647Y-361391297D01*
X142381943Y-361414948D01*
X142381943Y-361439054D01*
X142386647Y-361462704D01*
X142395874Y-361484978D01*
X142409268Y-361505025D01*
X142426315Y-361522072D01*
X142446363Y-361535467D01*
X142468636Y-361544694D01*
X142492333Y-361549407D01*
X142504438Y-361550002D01*
X142506119Y-361551086D01*
X142506021Y-361553084D01*
X142504340Y-361554000D01*
X141241660Y-361554000D01*
X141239928Y-361553000D01*
X141239928Y-361551000D01*
X141241464Y-361550010D01*
X141265651Y-361547628D01*
X141288726Y-361540628D01*
X141309990Y-361529263D01*
X141328627Y-361513968D01*
X141343922Y-361495331D01*
X141355287Y-361474067D01*
X141362287Y-361450992D01*
X141364650Y-361427001D01*
X141362287Y-361403010D01*
X141355287Y-361379935D01*
X141343922Y-361358671D01*
X141328595Y-361339995D01*
X141327123Y-361338661D01*
X141326511Y-361336757D01*
X141327854Y-361335275D01*
X141329409Y-361335415D01*
X141428343Y-361388298D01*
X141536023Y-361420962D01*
X141648094Y-361432000D01*
X142097906Y-361432000D01*
X142209977Y-361420962D01*
X142317657Y-361388298D01*
X142416892Y-361335255D01*
X142419432Y-361333170D01*
X142421406Y-361332844D01*
X142422674Y-361334390D01*
G37*
G36*
X141421067Y-360114409D02*
G01*
X141428343Y-360118298D01*
X141536023Y-360150962D01*
X141648094Y-360162000D01*
X142097906Y-360162000D01*
X142209977Y-360150962D01*
X142317657Y-360118298D01*
X142324933Y-360114409D01*
X142326932Y-360114475D01*
X142327875Y-360116238D01*
X142326987Y-360117836D01*
X142311882Y-360127929D01*
X142294835Y-360144976D01*
X142281440Y-360165024D01*
X142272214Y-360187298D01*
X142267510Y-360210948D01*
X142267510Y-360235054D01*
X142272215Y-360258704D01*
X142281441Y-360280978D01*
X142294836Y-360301025D01*
X142311883Y-360318072D01*
X142326987Y-360328164D01*
X142327872Y-360329958D01*
X142326761Y-360331621D01*
X142324933Y-360331591D01*
X142317657Y-360327702D01*
X142209977Y-360295038D01*
X142097906Y-360284000D01*
X141648094Y-360284000D01*
X141536023Y-360295038D01*
X141428343Y-360327702D01*
X141421067Y-360331591D01*
X141419068Y-360331525D01*
X141418125Y-360329762D01*
X141419013Y-360328164D01*
X141434118Y-360318071D01*
X141451165Y-360301024D01*
X141464560Y-360280976D01*
X141473786Y-360258702D01*
X141478490Y-360235052D01*
X141478490Y-360210946D01*
X141473785Y-360187296D01*
X141464559Y-360165022D01*
X141451164Y-360144975D01*
X141434117Y-360127928D01*
X141419013Y-360117836D01*
X141418128Y-360116042D01*
X141419239Y-360114379D01*
X141421067Y-360114409D01*
G37*
G36*
X264871067Y-161344409D02*
G01*
X264878343Y-161348298D01*
X264986023Y-161380962D01*
X265098094Y-161392000D01*
X265547906Y-161392000D01*
X265659977Y-161380962D01*
X265767657Y-161348298D01*
X265774933Y-161344409D01*
X265776932Y-161344475D01*
X265777875Y-161346238D01*
X265776987Y-161347836D01*
X265761882Y-161357929D01*
X265744835Y-161374976D01*
X265731440Y-161395024D01*
X265722214Y-161417298D01*
X265717510Y-161440948D01*
X265717510Y-161465054D01*
X265722215Y-161488704D01*
X265731441Y-161510978D01*
X265744836Y-161531025D01*
X265761883Y-161548072D01*
X265776987Y-161558164D01*
X265777872Y-161559958D01*
X265776761Y-161561621D01*
X265774933Y-161561591D01*
X265767657Y-161557702D01*
X265659977Y-161525038D01*
X265547906Y-161514000D01*
X265098094Y-161514000D01*
X264986023Y-161525038D01*
X264878343Y-161557702D01*
X264871067Y-161561591D01*
X264869068Y-161561525D01*
X264868125Y-161559762D01*
X264869013Y-161558164D01*
X264884118Y-161548071D01*
X264901165Y-161531024D01*
X264914560Y-161510976D01*
X264923786Y-161488702D01*
X264928490Y-161465052D01*
X264928490Y-161440946D01*
X264923785Y-161417296D01*
X264914559Y-161395022D01*
X264901164Y-161374975D01*
X264884117Y-161357928D01*
X264869013Y-161347836D01*
X264868128Y-161346042D01*
X264869239Y-161344379D01*
X264871067Y-161344409D01*
G37*
G36*
X265956072Y-160123000D02*
G01*
X265956072Y-160125000D01*
X265954536Y-160125990D01*
X265930349Y-160128372D01*
X265907274Y-160135372D01*
X265886010Y-160146737D01*
X265867373Y-160162032D01*
X265852078Y-160180669D01*
X265840713Y-160201933D01*
X265833713Y-160225008D01*
X265831350Y-160248999D01*
X265833713Y-160272990D01*
X265840713Y-160296065D01*
X265852078Y-160317329D01*
X265867405Y-160336005D01*
X265868877Y-160337339D01*
X265869489Y-160339243D01*
X265868146Y-160340725D01*
X265866591Y-160340585D01*
X265767657Y-160287702D01*
X265659977Y-160255038D01*
X265547906Y-160244000D01*
X265098094Y-160244000D01*
X264986023Y-160255038D01*
X264878343Y-160287702D01*
X264779108Y-160340745D01*
X264776568Y-160342830D01*
X264774594Y-160343156D01*
X264773326Y-160341610D01*
X264773885Y-160339870D01*
X264786731Y-160327024D01*
X264800126Y-160306976D01*
X264809353Y-160284703D01*
X264814057Y-160261052D01*
X264814057Y-160236946D01*
X264809353Y-160213296D01*
X264800126Y-160191022D01*
X264786732Y-160170975D01*
X264769685Y-160153928D01*
X264749637Y-160140533D01*
X264727364Y-160131306D01*
X264703667Y-160126593D01*
X264691562Y-160125998D01*
X264689881Y-160124914D01*
X264689979Y-160122916D01*
X264691660Y-160122000D01*
X265954340Y-160122000D01*
X265956072Y-160123000D01*
G37*
G36*
X204167555Y-98065410D02*
G01*
X204217569Y-98070336D01*
X204217954Y-98070412D01*
X204260147Y-98083211D01*
X204260509Y-98083361D01*
X204299387Y-98104142D01*
X204299713Y-98104360D01*
X204333794Y-98132329D01*
X204334071Y-98132606D01*
X204362862Y-98167688D01*
X204379976Y-98184802D01*
X204400023Y-98198196D01*
X204422297Y-98207423D01*
X204445947Y-98212127D01*
X204470054Y-98212127D01*
X204493704Y-98207422D01*
X204515978Y-98198196D01*
X204536025Y-98184801D01*
X204553138Y-98167688D01*
X204581929Y-98132606D01*
X204582206Y-98132329D01*
X204616287Y-98104360D01*
X204616613Y-98104142D01*
X204655491Y-98083361D01*
X204655853Y-98083211D01*
X204698046Y-98070412D01*
X204698431Y-98070336D01*
X204748445Y-98065410D01*
X204748641Y-98065400D01*
X204805000Y-98065400D01*
X204806732Y-98066400D01*
X204806732Y-98068400D01*
X204805196Y-98069390D01*
X204749209Y-98074904D01*
X204695556Y-98091180D01*
X204646112Y-98117608D01*
X204602774Y-98153174D01*
X204567208Y-98196512D01*
X204540780Y-98245956D01*
X204524504Y-98299609D01*
X204519000Y-98355494D01*
X204519000Y-99381306D01*
X204524504Y-99437191D01*
X204540780Y-99490844D01*
X204567208Y-99540288D01*
X204602774Y-99583626D01*
X204646112Y-99619192D01*
X204695556Y-99645620D01*
X204749209Y-99661896D01*
X204805196Y-99667410D01*
X204806822Y-99668575D01*
X204806626Y-99670565D01*
X204805000Y-99671400D01*
X204748641Y-99671400D01*
X204748445Y-99671390D01*
X204698431Y-99666464D01*
X204698046Y-99666388D01*
X204655853Y-99653589D01*
X204655491Y-99653439D01*
X204616613Y-99632658D01*
X204616287Y-99632440D01*
X204582206Y-99604471D01*
X204581929Y-99604194D01*
X204553138Y-99569112D01*
X204536024Y-99551998D01*
X204515977Y-99538604D01*
X204493703Y-99529377D01*
X204470053Y-99524673D01*
X204445946Y-99524673D01*
X204422296Y-99529378D01*
X204400022Y-99538604D01*
X204379975Y-99551999D01*
X204362862Y-99569112D01*
X204334071Y-99604194D01*
X204333794Y-99604471D01*
X204299713Y-99632440D01*
X204299387Y-99632658D01*
X204260509Y-99653439D01*
X204260147Y-99653589D01*
X204217954Y-99666388D01*
X204217569Y-99666464D01*
X204167555Y-99671390D01*
X204167359Y-99671400D01*
X204111000Y-99671400D01*
X204109268Y-99670400D01*
X204109268Y-99668400D01*
X204110804Y-99667410D01*
X204166791Y-99661896D01*
X204220444Y-99645620D01*
X204269888Y-99619192D01*
X204313226Y-99583626D01*
X204348792Y-99540288D01*
X204375220Y-99490844D01*
X204391496Y-99437191D01*
X204397000Y-99381306D01*
X204397000Y-98355494D01*
X204391496Y-98299609D01*
X204375220Y-98245956D01*
X204348792Y-98196512D01*
X204313226Y-98153174D01*
X204269888Y-98117608D01*
X204220444Y-98091180D01*
X204166791Y-98074904D01*
X204110804Y-98069390D01*
X204109178Y-98068225D01*
X204109374Y-98066235D01*
X204111000Y-98065400D01*
X204167359Y-98065400D01*
X204167555Y-98065410D01*
G37*
G36*
X203139999Y-98066819D02*
G01*
X203140372Y-98068048D01*
X203151737Y-98089312D01*
X203167032Y-98107949D01*
X203185669Y-98123244D01*
X203206933Y-98134609D01*
X203230008Y-98141609D01*
X203253999Y-98143972D01*
X203277990Y-98141609D01*
X203301065Y-98134609D01*
X203322377Y-98123218D01*
X203332056Y-98116039D01*
X203346287Y-98104360D01*
X203346613Y-98104142D01*
X203385491Y-98083361D01*
X203385853Y-98083211D01*
X203428046Y-98070412D01*
X203428431Y-98070336D01*
X203478445Y-98065410D01*
X203478641Y-98065400D01*
X203535000Y-98065400D01*
X203536732Y-98066400D01*
X203536732Y-98068400D01*
X203535196Y-98069390D01*
X203479209Y-98074904D01*
X203425556Y-98091180D01*
X203376112Y-98117608D01*
X203332774Y-98153174D01*
X203297208Y-98196512D01*
X203270780Y-98245956D01*
X203254504Y-98299609D01*
X203249000Y-98355494D01*
X203249000Y-99381306D01*
X203254504Y-99437191D01*
X203270780Y-99490844D01*
X203297208Y-99540288D01*
X203332774Y-99583626D01*
X203376112Y-99619192D01*
X203425556Y-99645620D01*
X203479209Y-99661896D01*
X203535196Y-99667410D01*
X203536822Y-99668575D01*
X203536626Y-99670565D01*
X203535000Y-99671400D01*
X203478641Y-99671400D01*
X203478445Y-99671390D01*
X203428431Y-99666464D01*
X203428046Y-99666388D01*
X203385853Y-99653589D01*
X203385491Y-99653439D01*
X203346613Y-99632658D01*
X203346287Y-99632440D01*
X203332104Y-99620800D01*
X203311977Y-99607352D01*
X203289703Y-99598126D01*
X203266053Y-99593421D01*
X203241947Y-99593421D01*
X203218296Y-99598125D01*
X203196022Y-99607351D01*
X203175975Y-99620746D01*
X203158928Y-99637793D01*
X203145533Y-99657840D01*
X203140428Y-99670165D01*
X203138580Y-99671400D01*
X203129000Y-99671400D01*
X203127268Y-99670400D01*
X203127000Y-99669400D01*
X203127000Y-98067400D01*
X203128000Y-98065668D01*
X203129000Y-98065400D01*
X203138085Y-98065400D01*
X203139999Y-98066819D01*
G37*
G36*
X265468084Y-91195379D02*
G01*
X265469000Y-91197060D01*
X265469000Y-92459740D01*
X265468000Y-92461472D01*
X265466000Y-92461472D01*
X265465010Y-92459936D01*
X265462628Y-92435749D01*
X265455628Y-92412674D01*
X265444263Y-92391410D01*
X265428968Y-92372773D01*
X265410331Y-92357478D01*
X265389067Y-92346113D01*
X265365992Y-92339113D01*
X265342001Y-92336750D01*
X265318010Y-92339113D01*
X265294935Y-92346113D01*
X265273715Y-92357455D01*
X265249757Y-92379169D01*
X265247802Y-92379591D01*
X265246459Y-92378109D01*
X265246868Y-92376418D01*
X265250255Y-92372292D01*
X265303298Y-92273057D01*
X265335962Y-92165377D01*
X265347000Y-92053306D01*
X265347000Y-91603495D01*
X265335962Y-91491423D01*
X265303298Y-91383743D01*
X265250255Y-91284508D01*
X265248170Y-91281968D01*
X265247844Y-91279994D01*
X265249390Y-91278726D01*
X265251130Y-91279285D01*
X265263976Y-91292131D01*
X265284024Y-91305526D01*
X265306297Y-91314753D01*
X265329948Y-91319457D01*
X265354054Y-91319457D01*
X265377704Y-91314753D01*
X265399978Y-91305526D01*
X265420025Y-91292132D01*
X265437072Y-91275085D01*
X265450467Y-91255037D01*
X265459694Y-91232764D01*
X265464407Y-91209067D01*
X265465002Y-91196962D01*
X265466086Y-91195281D01*
X265468084Y-91195379D01*
G37*
G36*
X264032836Y-91374413D02*
G01*
X264042929Y-91389518D01*
X264059976Y-91406565D01*
X264080024Y-91419960D01*
X264102298Y-91429186D01*
X264125948Y-91433890D01*
X264150054Y-91433890D01*
X264173704Y-91429185D01*
X264195978Y-91419959D01*
X264216025Y-91406564D01*
X264233072Y-91389517D01*
X264243164Y-91374413D01*
X264244958Y-91373528D01*
X264246621Y-91374639D01*
X264246591Y-91376467D01*
X264242702Y-91383743D01*
X264210038Y-91491423D01*
X264199000Y-91603494D01*
X264199000Y-92053306D01*
X264210038Y-92165376D01*
X264242702Y-92273056D01*
X264246591Y-92280332D01*
X264246525Y-92282331D01*
X264244762Y-92283274D01*
X264243164Y-92282386D01*
X264233071Y-92267281D01*
X264216024Y-92250234D01*
X264195976Y-92236839D01*
X264173702Y-92227613D01*
X264150052Y-92222909D01*
X264125946Y-92222909D01*
X264102296Y-92227614D01*
X264080022Y-92236840D01*
X264059975Y-92250235D01*
X264042928Y-92267282D01*
X264032839Y-92282382D01*
X264031045Y-92283267D01*
X264029382Y-92282156D01*
X264029412Y-92280328D01*
X264033298Y-92273057D01*
X264065962Y-92165377D01*
X264077000Y-92053306D01*
X264077000Y-91603495D01*
X264065962Y-91491423D01*
X264033298Y-91383743D01*
X264029409Y-91376467D01*
X264029475Y-91374468D01*
X264031238Y-91373525D01*
X264032836Y-91374413D01*
G37*
G36*
X309441067Y-86754809D02*
G01*
X309448343Y-86758698D01*
X309556023Y-86791362D01*
X309668094Y-86802400D01*
X310117906Y-86802400D01*
X310229977Y-86791362D01*
X310337657Y-86758698D01*
X310344933Y-86754809D01*
X310346932Y-86754875D01*
X310347875Y-86756638D01*
X310346987Y-86758236D01*
X310331882Y-86768329D01*
X310314835Y-86785376D01*
X310301440Y-86805424D01*
X310292214Y-86827698D01*
X310287510Y-86851348D01*
X310287510Y-86875454D01*
X310292215Y-86899104D01*
X310301441Y-86921378D01*
X310314836Y-86941425D01*
X310331883Y-86958472D01*
X310346987Y-86968564D01*
X310347872Y-86970358D01*
X310346761Y-86972021D01*
X310344933Y-86971991D01*
X310337657Y-86968102D01*
X310229977Y-86935438D01*
X310117906Y-86924400D01*
X309668094Y-86924400D01*
X309556023Y-86935438D01*
X309448343Y-86968102D01*
X309441067Y-86971991D01*
X309439068Y-86971925D01*
X309438125Y-86970162D01*
X309439013Y-86968564D01*
X309454118Y-86958471D01*
X309471165Y-86941424D01*
X309484560Y-86921376D01*
X309493786Y-86899102D01*
X309498490Y-86875452D01*
X309498490Y-86851346D01*
X309493785Y-86827696D01*
X309484559Y-86805422D01*
X309471164Y-86785375D01*
X309454117Y-86768328D01*
X309439013Y-86758236D01*
X309438128Y-86756442D01*
X309439239Y-86754779D01*
X309441067Y-86754809D01*
G37*
G36*
X310526072Y-85533400D02*
G01*
X310526072Y-85535400D01*
X310524536Y-85536390D01*
X310500349Y-85538772D01*
X310477274Y-85545772D01*
X310456010Y-85557137D01*
X310437373Y-85572432D01*
X310422078Y-85591069D01*
X310410713Y-85612333D01*
X310403713Y-85635408D01*
X310401350Y-85659399D01*
X310403713Y-85683390D01*
X310410713Y-85706465D01*
X310422078Y-85727729D01*
X310437405Y-85746405D01*
X310438877Y-85747739D01*
X310439489Y-85749643D01*
X310438146Y-85751125D01*
X310436591Y-85750985D01*
X310337657Y-85698102D01*
X310229977Y-85665438D01*
X310117906Y-85654400D01*
X309668094Y-85654400D01*
X309556023Y-85665438D01*
X309448343Y-85698102D01*
X309349108Y-85751145D01*
X309346568Y-85753230D01*
X309344594Y-85753556D01*
X309343326Y-85752010D01*
X309343885Y-85750270D01*
X309356731Y-85737424D01*
X309370126Y-85717376D01*
X309379353Y-85695103D01*
X309384057Y-85671452D01*
X309384057Y-85647346D01*
X309379353Y-85623696D01*
X309370126Y-85601422D01*
X309356732Y-85581375D01*
X309339685Y-85564328D01*
X309319637Y-85550933D01*
X309297364Y-85541706D01*
X309273667Y-85536993D01*
X309261562Y-85536398D01*
X309259881Y-85535314D01*
X309259979Y-85533316D01*
X309261660Y-85532400D01*
X310524340Y-85532400D01*
X310526072Y-85533400D01*
G37*
G36*
X299841067Y-73944809D02*
G01*
X299848343Y-73948698D01*
X299956023Y-73981362D01*
X300068094Y-73992400D01*
X300517906Y-73992400D01*
X300629977Y-73981362D01*
X300737657Y-73948698D01*
X300744933Y-73944809D01*
X300746932Y-73944875D01*
X300747875Y-73946638D01*
X300746987Y-73948236D01*
X300731882Y-73958329D01*
X300714835Y-73975376D01*
X300701440Y-73995424D01*
X300692214Y-74017698D01*
X300687510Y-74041348D01*
X300687510Y-74065454D01*
X300692215Y-74089104D01*
X300701441Y-74111378D01*
X300714836Y-74131425D01*
X300731883Y-74148472D01*
X300746987Y-74158564D01*
X300747872Y-74160358D01*
X300746761Y-74162021D01*
X300744933Y-74161991D01*
X300737657Y-74158102D01*
X300629977Y-74125438D01*
X300517906Y-74114400D01*
X300068094Y-74114400D01*
X299956023Y-74125438D01*
X299848343Y-74158102D01*
X299841067Y-74161991D01*
X299839068Y-74161925D01*
X299838125Y-74160162D01*
X299839013Y-74158564D01*
X299854118Y-74148471D01*
X299871165Y-74131424D01*
X299884560Y-74111376D01*
X299893786Y-74089102D01*
X299898490Y-74065452D01*
X299898490Y-74041346D01*
X299893785Y-74017696D01*
X299884559Y-73995422D01*
X299871164Y-73975375D01*
X299854117Y-73958328D01*
X299839013Y-73948236D01*
X299838128Y-73946442D01*
X299839239Y-73944779D01*
X299841067Y-73944809D01*
G37*
G36*
X300926072Y-72723400D02*
G01*
X300926072Y-72725400D01*
X300924536Y-72726390D01*
X300900349Y-72728772D01*
X300877274Y-72735772D01*
X300856010Y-72747137D01*
X300837373Y-72762432D01*
X300822078Y-72781069D01*
X300810713Y-72802333D01*
X300803713Y-72825408D01*
X300801350Y-72849399D01*
X300803713Y-72873390D01*
X300810713Y-72896465D01*
X300822078Y-72917729D01*
X300837405Y-72936405D01*
X300838877Y-72937739D01*
X300839489Y-72939643D01*
X300838146Y-72941125D01*
X300836591Y-72940985D01*
X300737657Y-72888102D01*
X300629977Y-72855438D01*
X300517906Y-72844400D01*
X300068094Y-72844400D01*
X299956023Y-72855438D01*
X299848343Y-72888102D01*
X299749108Y-72941145D01*
X299746568Y-72943230D01*
X299744594Y-72943556D01*
X299743326Y-72942010D01*
X299743885Y-72940270D01*
X299756731Y-72927424D01*
X299770126Y-72907376D01*
X299779353Y-72885103D01*
X299784057Y-72861452D01*
X299784057Y-72837346D01*
X299779353Y-72813696D01*
X299770126Y-72791422D01*
X299756732Y-72771375D01*
X299739685Y-72754328D01*
X299719637Y-72740933D01*
X299697364Y-72731706D01*
X299673667Y-72726993D01*
X299661562Y-72726398D01*
X299659881Y-72725314D01*
X299659979Y-72723316D01*
X299661660Y-72722400D01*
X300924340Y-72722400D01*
X300926072Y-72723400D01*
G37*
G36*
X271750990Y-71506865D02*
G01*
X271753372Y-71531052D01*
X271760372Y-71554127D01*
X271771737Y-71575391D01*
X271787032Y-71594028D01*
X271805669Y-71609323D01*
X271826933Y-71620688D01*
X271850008Y-71627688D01*
X271873999Y-71630051D01*
X271897990Y-71627688D01*
X271921065Y-71620688D01*
X271942329Y-71609323D01*
X271961005Y-71593996D01*
X271962339Y-71592524D01*
X271964243Y-71591912D01*
X271965725Y-71593255D01*
X271965585Y-71594810D01*
X271912702Y-71693744D01*
X271880038Y-71801424D01*
X271869000Y-71913494D01*
X271869000Y-72363306D01*
X271880038Y-72475377D01*
X271912702Y-72583057D01*
X271965746Y-72682292D01*
X271967836Y-72684838D01*
X271968162Y-72686812D01*
X271966616Y-72688080D01*
X271964876Y-72687521D01*
X271952023Y-72674668D01*
X271931976Y-72661273D01*
X271909702Y-72652047D01*
X271886051Y-72647343D01*
X271861945Y-72647343D01*
X271838295Y-72652048D01*
X271816021Y-72661274D01*
X271795974Y-72674669D01*
X271778927Y-72691716D01*
X271765532Y-72711763D01*
X271756323Y-72733994D01*
X271750978Y-72770033D01*
X271749735Y-72771600D01*
X271747757Y-72771307D01*
X271747000Y-72769740D01*
X271747000Y-71507061D01*
X271748000Y-71505329D01*
X271750000Y-71505329D01*
X271750990Y-71506865D01*
G37*
G36*
X273186621Y-71684640D02*
G01*
X273186591Y-71686468D01*
X273182702Y-71693744D01*
X273150038Y-71801424D01*
X273139000Y-71913494D01*
X273139000Y-72363306D01*
X273150038Y-72475377D01*
X273182702Y-72583057D01*
X273186591Y-72590333D01*
X273186525Y-72592332D01*
X273184762Y-72593275D01*
X273183164Y-72592387D01*
X273173071Y-72577282D01*
X273156024Y-72560235D01*
X273135976Y-72546840D01*
X273113702Y-72537614D01*
X273090052Y-72532910D01*
X273065946Y-72532910D01*
X273042296Y-72537615D01*
X273020022Y-72546841D01*
X272999975Y-72560236D01*
X272982928Y-72577283D01*
X272972836Y-72592387D01*
X272971042Y-72593272D01*
X272969379Y-72592161D01*
X272969409Y-72590333D01*
X272973298Y-72583057D01*
X273005962Y-72475377D01*
X273017000Y-72363305D01*
X273017000Y-71913494D01*
X273005962Y-71801423D01*
X272973298Y-71693743D01*
X272969411Y-71686472D01*
X272969477Y-71684473D01*
X272971240Y-71683530D01*
X272972838Y-71684418D01*
X272982929Y-71699519D01*
X272999976Y-71716566D01*
X273020023Y-71729961D01*
X273042297Y-71739187D01*
X273065947Y-71743891D01*
X273090054Y-71743891D01*
X273113704Y-71739186D01*
X273135978Y-71729960D01*
X273156025Y-71716565D01*
X273173072Y-71699518D01*
X273183164Y-71684414D01*
X273184958Y-71683529D01*
X273186621Y-71684640D01*
G37*
M02*
